<svg xmlns="http://www.w3.org/2000/svg" viewBox="0 0 430 160"><defs><style>.cls-1,.cls-2,.cls-3{fill:#fff;}.cls-2{stroke:#000;stroke-width:2px;}.cls-2,.cls-3{stroke-miterlimit:10;}.cls-3{stroke:#006984;}.cls-10,.cls-11,.cls-4,.cls-8,.cls-9{font-size:12px;}.cls-4{fill:#0054a2;}.cls-10,.cls-4{font-family:FiraSans-Bold, Fira Sans;font-weight:700;}.cls-5{letter-spacing:-0.01em;}.cls-14,.cls-6,.cls-8,.cls-9{font-family:FiraSans-Regular, Fira Sans;}.cls-6{font-weight:400;fill:#000;}.cls-7{letter-spacing:0.01em;}.cls-16,.cls-9{letter-spacing:0em;}.cls-11{font-family:FiraMonoOT, Fira Mono OT;}.cls-12{letter-spacing:-0.08em;}.cls-13{letter-spacing:0em;}.cls-14{font-size:8px;}.cls-15{letter-spacing:-0.01em;}</style></defs><title>html-component-rendering</title><g id="Layer_2" data-name="Layer 2"><rect class="cls-1" x="229" y="28" width="140" height="107"/><path d="M368,29V134H230V29H368m2-2H228V136H370V27Z"/><rect class="cls-1" x="229" y="28" width="140" height="8"/><path d="M368,29v6H230V29H368m2-2H228V37H370V27Z"/><line class="cls-2" x1="242" y1="32" x2="366" y2="32"/><rect x="232" y="31" width="2" height="2"/><rect x="235" y="31" width="2" height="2"/><line class="cls-2" x1="285" y1="45" x2="356" y2="45"/><line class="cls-3" x1="285" y1="81" x2="356" y2="81"/><line class="cls-2" x1="285" y1="90" x2="356" y2="90"/><line class="cls-3" x1="285" y1="126" x2="356" y2="126"/><circle class="cls-1" cx="258" cy="63" r="19"/><path d="M258,45a18,18,0,1,1-18,18,18.021,18.021,0,0,1,18-18m0-2a20,20,0,1,0,20,20,20,20,0,0,0-20-20Z"/><circle class="cls-1" cx="258" cy="108" r="19"/><path d="M258,90a18,18,0,1,1-18,18,18.021,18.021,0,0,1,18-18m0-2a20,20,0,1,0,20,20,20,20,0,0,0-20-20Z"/></g><g id="Layer_1" data-name="Layer 1"><text class="cls-4" transform="translate(286 105.034)">Äp<tspan class="cls-5" x="14.244" y="0">f</tspan><tspan x="18.396" y="0">el</tspan><tspan class="cls-6"><tspan x="0" y="14.4">Je</tspan><tspan class="cls-7" x="10.26" y="14.4">t</tspan><tspan x="14.711" y="14.4">zt 50</tspan></tspan></text><text class="cls-8" transform="translate(326.175 119.434) scale(0.3 1)"> </text><text class="cls-9" transform="translate(327.129 119.434)">%</text><text class="cls-10" transform="translate(2 15.251)">Inhalt </text><text class="cls-11" transform="translate(2 38.251)">– teaser:<tspan x="0" y="14.4" xml:space="preserve">    img: tomate.jpg</tspan><tspan x="0" y="28.8" xml:space="preserve">    titel: Tomaten</tspan><tspan x="0" y="43.2" xml:space="preserve">    text: Heute frisch!</tspan><tspan x="0" y="72">– teaser:</tspan><tspan x="0" y="86.4" xml:space="preserve">    img: apfel.jpg</tspan><tspan x="0" y="100.8" xml:space="preserve">    titel: Äpfel</tspan><tspan x="0" y="115.2" xml:space="preserve">    text: Jetzt 50 %</tspan></text><text class="cls-4" transform="translate(285.844 59.093)"><tspan class="cls-12">T</tspan><tspan x="5.521" y="0">oma</tspan><tspan class="cls-5" x="29.244" y="0">t</tspan><tspan x="33.756" y="0">en</tspan><tspan class="cls-6"><tspan x="0" y="14.4">Heu</tspan><tspan class="cls-5" x="21.743" y="14.4">t</tspan><tspan class="cls-13" x="25.955" y="14.4">e frisch!</tspan></tspan></text><text class="cls-14" transform="translate(297.705 15.251)">B<tspan class="cls-5" x="4.864" y="0">ro</tspan><tspan x="12.464" y="0">wser</tspan></text><text class="cls-10" transform="translate(228 15.251)"><tspan class="cls-5">D</tspan><tspan x="7.692" y="0">a</tspan><tspan class="cls-5" x="14.268" y="0">r</tspan><tspan x="18.959" y="0">s</tspan><tspan class="cls-15" x="24.755" y="0">t</tspan><tspan class="cls-16" x="29.268" y="0">ellung</tspan></text></g></svg>