<svg xmlns="http://www.w3.org/2000/svg" xmlns:xlink="http://www.w3.org/1999/xlink" viewBox="0 0 394 240"><defs><style>.cls-1,.cls-12,.cls-14,.cls-3,.cls-5{fill:none;}.cls-2,.cls-28,.cls-4{fill:#fff;}.cls-3{stroke:#006984;}.cls-12,.cls-14,.cls-3,.cls-4,.cls-5{stroke-miterlimit:10;stroke-width:2px;}.cls-4,.cls-5{stroke:#000;}.cls-15,.cls-28,.cls-6{font-size:12px;font-weight:700;}.cls-15,.cls-6{font-family:FiraSans-Bold, Fira Sans;}.cls-7{letter-spacing:-0.02em;}.cls-8{letter-spacing:-0.01em;}.cls-9{letter-spacing:-0.01em;}.cls-10{letter-spacing:0em;}.cls-11{fill:#006984;}.cls-12,.cls-14{stroke:#ca0022;}.cls-12{stroke-dasharray:3 3;}.cls-13{fill:#ca0022;}.cls-14{stroke-dasharray:3;}.cls-15{letter-spacing:0.05em;}.cls-16{letter-spacing:0.03em;}.cls-17{font-size:8px;font-family:FiraSans-Regular, Fira Sans;}.cls-18{letter-spacing:-0.02em;}.cls-19{letter-spacing:-0.015em;}.cls-20{letter-spacing:0em;}.cls-21{letter-spacing:-0.01em;}.cls-22{letter-spacing:-0.04em;}.cls-23{letter-spacing:0.01em;}.cls-24{letter-spacing:-0.02em;}.cls-25{letter-spacing:-0.04em;}.cls-26{letter-spacing:0em;}.cls-27{fill:#0054a2;}.cls-28{font-family:FiraMonoOT-Bold, Fira Mono OT;}.cls-29{clip-path:url(#clip-path);}.cls-30{clip-path:url(#clip-path-2);}</style><clipPath id="clip-path"><path class="cls-1" d="M9,58v80H80V58Zm17,67c-4.418,0-8-2.686-8-6s3.582-6,8-6,8,2.686,8,6S30.418,125,26,125Z"/></clipPath><clipPath id="clip-path-2"><path class="cls-1" d="M192,54v82H297V54Zm51,52a8,8,0,1,1,8-8A8,8,0,0,1,243,106Z"/></clipPath></defs><title>html-traditional</title><g id="Layer_2" data-name="Layer 2"><path class="cls-2" d="M141.8,17.338a19.285,19.285,0,0,0-4.034.432,18.977,18.977,0,0,0-33.9-8.754A10.207,10.207,0,0,0,90.853,20.5,18.423,18.423,0,0,0,97.9,55.71v.027h43.9a19.2,19.2,0,1,0,0-38.4Z"/><path class="cls-3" d="M141.8,17.338a19.285,19.285,0,0,0-4.034.432,18.977,18.977,0,0,0-33.9-8.754A10.207,10.207,0,0,0,90.853,20.5,18.423,18.423,0,0,0,97.9,55.71v.027h43.9a19.2,19.2,0,1,0,0-38.4Z"/><rect class="cls-2" x="109" y="162" width="78" height="62"/><path d="M186,163v60H110V163h76m2-2H108v64h80V161Z"/><rect class="cls-2" x="109" y="162" width="78" height="8"/><path d="M186,163v6H110v-6h76m2-2H108v10h80V161Z"/><line class="cls-4" x1="122" y1="166" x2="184" y2="166"/><rect x="112" y="165" width="2" height="2"/><rect x="115" y="165" width="2" height="2"/><rect class="cls-2" x="212" y="162" width="78" height="62"/><path d="M289,163v60H213V163h76m2-2H211v64h80V161Z"/><rect class="cls-2" x="212" y="162" width="78" height="8"/><path d="M289,163v6H213v-6h76m2-2H211v10h80V161Z"/><line class="cls-4" x1="225" y1="166" x2="287" y2="166"/><rect x="215" y="165" width="2" height="2"/><rect x="218" y="165" width="2" height="2"/><rect class="cls-2" x="1" y="162" width="78" height="62"/><path d="M78,163v60H2V163H78m2-2H0v64H80V161Z"/><rect class="cls-2" x="1" y="162" width="78" height="8"/><path d="M78,163v6H2v-6H78m2-2H0v10H80V161Z"/><line class="cls-4" x1="14" y1="166" x2="76" y2="166"/><rect x="4" y="165" width="2" height="2"/><rect x="7" y="165" width="2" height="2"/></g><g id="Layer_1" data-name="Layer 1"><line class="cls-4" x1="117" y1="179" x2="176" y2="179"/><line class="cls-4" x1="117" y1="185" x2="177" y2="185"/><line class="cls-4" x1="117" y1="191" x2="176" y2="191"/><line class="cls-4" x1="117" y1="197" x2="179" y2="197"/><line class="cls-4" x1="117" y1="203" x2="176" y2="203"/><line class="cls-4" x1="117" y1="209" x2="179" y2="209"/><line class="cls-4" x1="117" y1="215" x2="176" y2="215"/><line class="cls-4" x1="251" y1="182.929" x2="286" y2="182.929"/><line class="cls-4" x1="251" y1="188" x2="280" y2="188"/><line class="cls-4" x1="251" y1="194" x2="284" y2="194"/><line class="cls-4" x1="251" y1="200" x2="280" y2="200"/><line class="cls-4" x1="251" y1="206" x2="286" y2="206"/><line class="cls-4" x1="251" y1="212" x2="280" y2="212"/><rect class="cls-2" x="102" y="49" width="78" height="18"/><path d="M179,50V66H103V50h76m2-2H101V68h80V48Z"/><path d="M114,56v4h-4V56h4m2-2h-8v8h8V54Z"/><path d="M127,56v4h-4V56h4m2-2h-8v8h8V54Z"/><line class="cls-5" x1="155" y1="52" x2="155" y2="63"/><line class="cls-5" x1="137" y1="52" x2="137" y2="63"/><line class="cls-5" x1="146" y1="52" x2="146" y2="63"/><line class="cls-5" x1="173" y1="52" x2="173" y2="63"/><line class="cls-5" x1="164" y1="52" x2="164" y2="63"/><rect class="cls-2" x="102" y="25" width="78" height="18"/><path d="M179,26V42H103V26h76m2-2H101V44h80V24Z"/><path d="M114,32v4h-4V32h4m2-2h-8v8h8V30Z"/><path d="M127,32v4h-4V32h4m2-2h-8v8h8V30Z"/><line class="cls-5" x1="155" y1="28" x2="155" y2="39"/><line class="cls-5" x1="137" y1="28" x2="137" y2="39"/><line class="cls-5" x1="146" y1="28" x2="146" y2="39"/><line class="cls-5" x1="173" y1="28" x2="173" y2="39"/><line class="cls-5" x1="164" y1="28" x2="164" y2="39"/><text class="cls-6" transform="translate(0.705 147.651)">ww<tspan class="cls-7" x="17.976" y="0">w</tspan><tspan x="26.724" y="0">.</tspan><tspan class="cls-8" x="29.604" y="0">t</tspan><tspan x="34.116" y="0">est</tspan><tspan class="cls-9" x="51.191" y="0">.</tspan><tspan class="cls-10" x="53.951" y="0">ch</tspan></text><line class="cls-3" x1="110" y1="106" x2="110" y2="142.824"/><polygon class="cls-11" points="105.014 141.365 110 150 114.986 141.365 105.014 141.365"/><line class="cls-12" x1="172" y1="110" x2="172" y2="84.176"/><polygon class="cls-13" points="176.986 85.635 172 77 167.014 85.635 176.986 85.635"/><line class="cls-14" x1="172" y1="147" x2="172" y2="125"/><rect class="cls-5" x="219" y="183" width="26" height="29"/><polyline class="cls-5" points="219 203.194 224.597 197.597 231 204 240 195 244.75 199.75"/><circle class="cls-5" cx="231" cy="191" r="4"/><text class="cls-15" transform="translate(94.853 102.251)">H<tspan class="cls-16" x="8.592" y="0">T</tspan><tspan x="15.432" y="0">ML</tspan></text><text class="cls-17" transform="translate(137.701 121.251)">Anf<tspan class="cls-18" x="11.952" y="0">r</tspan><tspan x="14.88" y="0">a</tspan><tspan class="cls-19" x="19.232" y="0">g</tspan><tspan class="cls-20" x="23.271" y="0">e Bi</tspan><tspan class="cls-21" x="36.912" y="0">ld</tspan><tspan x="43.879" y="0">e</tspan><tspan class="cls-22" x="48.279" y="0">r/</tspan><tspan x="54.887" y="0">C</tspan><tspan class="cls-21" x="59.367" y="0">S</tspan><tspan x="63.647" y="0">S</tspan></text><text class="cls-17" transform="translate(25.993 180.251)">B<tspan class="cls-8" x="4.864" y="0">ro</tspan><tspan x="12.464" y="0">wser</tspan></text><text class="cls-17" transform="translate(101.705 20.251)">Se<tspan class="cls-23" x="8.76" y="0">r</tspan><tspan class="cls-8" x="11.928" y="0">v</tspan><tspan x="15.784" y="0">er</tspan></text><text class="cls-17" transform="translate(0.925 121.251)">Anf<tspan class="cls-18" x="11.952" y="0">r</tspan><tspan x="14.88" y="0">a</tspan><tspan class="cls-19" x="19.232" y="0">g</tspan><tspan class="cls-20" x="23.271" y="0">e H</tspan><tspan class="cls-24" x="35.231" y="0">T</tspan><tspan x="39.208" y="0">ML</tspan></text><text class="cls-6" transform="translate(224.705 102.251)">Bi<tspan class="cls-9" x="10.788" y="0">ld</tspan><tspan class="cls-10" x="21.312" y="0">e</tspan><tspan class="cls-25" x="27.959" y="0">r/</tspan><tspan class="cls-26" x="38.051" y="0">C</tspan><tspan class="cls-8" x="44.952" y="0">S</tspan><tspan x="51.695" y="0">S</tspan></text><circle class="cls-27" cx="41" cy="197" r="12"/><path d="M41,186a11,11,0,1,1-11,11,11.013,11.013,0,0,1,11-11m0-2a13,13,0,1,0,13,13,13,13,0,0,0-13-13Z"/><text class="cls-28" transform="translate(37.104 200.651)">1</text><circle class="cls-27" cx="110" cy="77" r="12"/><path d="M110,66A11,11,0,1,1,99,77a11.013,11.013,0,0,1,11-11m0-2a13,13,0,1,0,13,13,13,13,0,0,0-13-13Z"/><text class="cls-28" transform="translate(106.104 80.651)">2</text><circle class="cls-27" cx="172" cy="165" r="12"/><path d="M172,154a11,11,0,1,1-11,11,11.013,11.013,0,0,1,11-11m0-2a13,13,0,1,0,13,13,13,13,0,0,0-13-13Z"/><text class="cls-28" transform="translate(168.104 168.651)">3</text><circle class="cls-27" cx="253" cy="151" r="12"/><path d="M253,140a11,11,0,1,1-11,11,11.013,11.013,0,0,1,11-11m0-2a13,13,0,1,0,13,13,13,13,0,0,0-13-13Z"/><text class="cls-28" transform="translate(249.104 154.651)">4</text><polyline class="cls-12" points="273 188 305 188 305 236 41 236 41 214.176"/><polygon class="cls-13" points="45.986 215.635 41 207 36.014 215.635 45.986 215.635"/><circle class="cls-27" cx="279" cy="188" r="12"/><path d="M279,177a11,11,0,1,1-11,11,11.013,11.013,0,0,1,11-11m0-2a13,13,0,1,0,13,13,13,13,0,0,0-13-13Z"/><text class="cls-28" transform="translate(275.104 191.651)">5</text><g class="cls-29"><path class="cls-12" d="M69.924,67.747a69.807,69.807,0,0,0-45.85,62.973V138"/><polygon class="cls-13" points="67.036 63.547 76.783 65.648 70.09 73.039 67.036 63.547"/></g><g class="cls-30"><path class="cls-3" d="M252.645,127.329A71.553,71.553,0,0,0,199,65.166"/><polygon class="cls-11" points="257.423 125.564 253 134.5 247.472 126.202 257.423 125.564"/></g></g></svg>