<svg xmlns="http://www.w3.org/2000/svg" viewBox="0 0 430 160"><defs><style>.cls-1,.cls-2,.cls-3{fill:#fff;}.cls-2{stroke:#000;stroke-width:2px;}.cls-2,.cls-3{stroke-miterlimit:10;}.cls-3{stroke:#006984;}.cls-14,.cls-27,.cls-4,.cls-9{font-size:12px;}.cls-14,.cls-18,.cls-24,.cls-4{fill:#0054a2;}.cls-27,.cls-4,.cls-9{font-family:FiraSans-Bold, Fira Sans;font-weight:700;}.cls-5{letter-spacing:-0.01em;}.cls-26,.cls-6{font-family:FiraSans-Regular, Fira Sans;}.cls-6{font-weight:400;}.cls-20,.cls-23,.cls-6{fill:#000;}.cls-7{letter-spacing:-0.01em;}.cls-8{letter-spacing:0em;}.cls-9{letter-spacing:-0.03em;}.cls-10{letter-spacing:0.05em;}.cls-11{letter-spacing:0.03em;}.cls-12{letter-spacing:0.05em;}.cls-13{letter-spacing:0.04em;}.cls-14{font-family:FiraMonoOT, Fira Mono OT;}.cls-15,.cls-17{fill:#b27000;}.cls-15,.cls-16,.cls-20,.cls-21,.cls-24,.cls-25{letter-spacing:0em;}.cls-16,.cls-22{fill:#006984;}.cls-19,.cls-21{fill:#ca0022;}.cls-26{font-size:8px;}.cls-28{letter-spacing:-0.01em;}.cls-29{letter-spacing:0em;}</style></defs><title>html-component-teaser</title><g id="Layer_2" data-name="Layer 2"><rect class="cls-1" x="229" y="28" width="128" height="48"/><path d="M356,29V75H230V29H356m2-2H228V77H358V27Z"/><line class="cls-2" x1="279" y1="33" x2="350" y2="33"/><line class="cls-3" x1="279" y1="69" x2="350" y2="69"/><circle class="cls-1" cx="252" cy="51" r="19"/><path d="M252,33a18,18,0,1,1-18,18,18.021,18.021,0,0,1,18-18m0-2a20,20,0,1,0,20,20,20,20,0,0,0-20-20Z"/><text class="cls-4" transform="translate(279.844 47.093)">${ti<tspan class="cls-5" x="18.491" y="0">t</tspan><tspan x="23.004" y="0">el}</tspan><tspan class="cls-6"><tspan x="0" y="14.4">${</tspan><tspan class="cls-7" x="10.235" y="14.4">te</tspan><tspan class="cls-8" x="20.928" y="14.4">xt}</tspan></tspan></text></g><g id="Layer_1" data-name="Layer 1"><text class="cls-9" transform="translate(2 15.251)">T<tspan class="cls-10" x="6.12" y="0">easer als </tspan><tspan class="cls-11" x="64.223" y="0">K</tspan><tspan class="cls-12" x="72.179" y="0">omponen</tspan><tspan class="cls-13" x="128.194" y="0">t</tspan><tspan class="cls-12" x="133.306" y="0">e</tspan></text><text class="cls-14" transform="translate(2 38.251)">teaser = `<tspan x="0" y="14.4">&lt;</tspan><tspan class="cls-15" x="7.2" y="14.4">div class=</tspan><tspan class="cls-16" x="79.199" y="14.4">&quot;teaser&quot;</tspan><tspan x="136.798" y="14.4">&gt;</tspan><tspan class="cls-17"><tspan x="0" y="28.8" xml:space="preserve">  </tspan><tspan class="cls-18" x="14.4" y="28.8">&lt;</tspan><tspan x="21.6" y="28.8">img src=</tspan><tspan class="cls-16" x="79.199" y="28.8">&quot;</tspan><tspan class="cls-19" x="86.399" y="28.8">${</tspan><tspan class="cls-20" x="100.798" y="28.8">img</tspan><tspan class="cls-21" x="122.398" y="28.8">}</tspan><tspan class="cls-22" x="129.598" y="28.8">&quot;</tspan><tspan class="cls-18" x="136.798" y="28.8">/&gt;</tspan><tspan x="0" y="43.2" xml:space="preserve">  </tspan><tspan class="cls-18" x="14.4" y="43.2">&lt;</tspan><tspan x="21.6" y="43.2">h1</tspan><tspan class="cls-18" x="36" y="43.2">&gt;</tspan><tspan class="cls-21" x="43.199" y="43.2">${</tspan><tspan class="cls-23" x="57.599" y="43.2">titel</tspan><tspan class="cls-19" x="93.599" y="43.2">}</tspan><tspan class="cls-24" x="100.798" y="43.2">&lt;/</tspan><tspan x="115.198" y="43.2">h1</tspan><tspan class="cls-18" x="129.598" y="43.2">&gt;</tspan><tspan x="0" y="57.6" xml:space="preserve">  </tspan><tspan class="cls-18" x="14.4" y="57.6">&lt;</tspan><tspan x="21.6" y="57.6">p</tspan><tspan class="cls-24" x="28.799" y="57.6">&gt;</tspan><tspan class="cls-19" x="36" y="57.6">${</tspan><tspan class="cls-23" x="50.399" y="57.6">text</tspan><tspan class="cls-21" x="79.199" y="57.6">}</tspan><tspan class="cls-18" x="86.399" y="57.6">&lt;/</tspan><tspan class="cls-25" x="100.798" y="57.6">p</tspan><tspan class="cls-18" x="107.999" y="57.6">&gt;</tspan></tspan><tspan x="0" y="72">&lt;/</tspan><tspan class="cls-17" x="14.4" y="72">div</tspan><tspan x="36" y="72">&gt;`</tspan></text><text class="cls-26" transform="translate(297.705 15.251)">B<tspan class="cls-7" x="4.864" y="0">ro</tspan><tspan x="12.464" y="0">wser</tspan></text><text class="cls-27" transform="translate(228 15.251)"><tspan class="cls-7">D</tspan><tspan x="7.692" y="0">a</tspan><tspan class="cls-7" x="14.268" y="0">r</tspan><tspan x="18.959" y="0">s</tspan><tspan class="cls-28" x="24.755" y="0">t</tspan><tspan class="cls-29" x="29.268" y="0">ellung</tspan></text></g></svg>