<svg xmlns="http://www.w3.org/2000/svg" viewBox="0 0 430 230"><defs><style>.cls-1{fill:#0054a2;}.cls-2{fill:#b27000;}.cls-3{fill:#006984;}</style></defs><title>html-all</title><g id="Layer_1" data-name="Layer 1"><path d="M4.746,11.689v3.562H2.779V6.939H4.746v3.215H7.24V6.939H9.207v8.312H7.24V11.689Z"/><path d="M14.812,8.451v6.8H12.846v-6.8H10.7V6.939h6.357l-.193,1.512Z"/><path d="M24.531,15.251,24.387,12a32.265,32.265,0,0,1-.024-3.395L23.08,14.375H21.221L19.854,8.606a29.685,29.685,0,0,1,.036,3.419l-.144,3.226H17.827l.624-8.312h2.483l1.247,5.638,1.163-5.638h2.494l.625,8.312Z"/><path d="M33.532,13.692l-.2,1.559h-5V6.939h1.967v6.753Z"/><path class="cls-1" d="M7.648,31.1l.528.828L3.979,34.5l4.2,2.579-.575.8-4.57-2.854V33.958Z"/><path class="cls-2" d="M10.363,38.251V29.4l1.1-.12v3.454a2.657,2.657,0,0,1,2-.947c1.223,0,1.775.7,1.775,1.871v4.593h-1.1V33.729c0-.755-.325-1.079-1.043-1.079a2.166,2.166,0,0,0-1.632,1.019v4.582Z"/><path class="cls-2" d="M22.779,37.927a3.379,3.379,0,0,1-1.738.468,1.913,1.913,0,0,1-2.159-1.955V32.77H17.443v-.839h1.439V30.5l1.1-.132v1.56h2.171l-.132.839H19.985v3.658c0,.708.336,1.055,1.175,1.055a2.34,2.34,0,0,0,1.2-.312Z"/><path class="cls-2" d="M25.182,38.251H24.175v-6.32h.851l.072.719a1.653,1.653,0,0,1,1.367-.863,1.037,1.037,0,0,1,1.128.827,1.642,1.642,0,0,1,1.391-.827c.635,0,1.236.323,1.236,1.763v4.7H29.212V33.717c0-.755-.012-1.067-.468-1.067a1.293,1.293,0,0,0-1.055.72v4.881h-.984V33.717c0-.755-.023-1.067-.479-1.067a1.276,1.276,0,0,0-1.044.72Z"/><path class="cls-2" d="M36.748,38.059a3.6,3.6,0,0,1-1.535.336,1.747,1.747,0,0,1-1.92-1.847V30.239H31.362v-.851H34.4v7.256c0,.611.42.839,1.02.839a2.975,2.975,0,0,0,1.044-.215Z"/><path class="cls-1" d="M44.176,33.958v1.067L39.6,37.879l-.575-.8,4.2-2.579-4.2-2.566.529-.828Z"/><path class="cls-1" d="M22.049,45.5l.527.828-4.2,2.566,4.2,2.579-.576.8-4.569-2.854V48.357Z"/><path class="cls-2" d="M25.865,47.134a2.212,2.212,0,0,1,1.787-.947c1.68,0,2.364,1.307,2.364,3.3,0,1.919-.875,3.311-2.507,3.311a2.023,2.023,0,0,1-1.7-.792l-.072.648h-.971V43.788l1.1-.132Zm2.963,2.35c0-1.643-.5-2.422-1.439-2.422a1.926,1.926,0,0,0-1.524.983v3.083a1.647,1.647,0,0,0,1.38.791C28.252,51.919,28.828,51.14,28.828,49.484Z"/><path class="cls-2" d="M34.408,46.187c1.8,0,2.747,1.3,2.747,3.3,0,1.955-.971,3.311-2.759,3.311s-2.757-1.3-2.757-3.3C31.639,47.542,32.609,46.187,34.408,46.187Zm0,.887c-1.054,0-1.595.767-1.595,2.423s.529,2.41,1.583,2.41,1.584-.767,1.584-2.423S35.452,47.074,34.408,47.074Z"/><path class="cls-2" d="M42.928,46.918V43.656l1.1.132v8.863h-.97l-.1-.816a2.117,2.117,0,0,1-1.787.96c-1.644,0-2.4-1.332-2.4-3.3,0-1.907.923-3.31,2.483-3.31A2.09,2.09,0,0,1,42.928,46.918ZM39.966,49.5c0,1.631.515,2.422,1.464,2.422a1.844,1.844,0,0,0,1.5-.971V47.841a1.65,1.65,0,0,0-1.379-.779C40.541,47.062,39.966,47.854,39.966,49.5Z"/><path class="cls-2" d="M49.492,52.687a3.217,3.217,0,0,1-2.9,2.519l-.156-.864a2.159,2.159,0,0,0,2.015-1.691h-.372L45.9,46.331H47.07L48.8,51.763h.048l1.715-5.432H51.7Z"/><path class="cls-1" d="M58.576,48.357v1.068l-4.57,2.854-.576-.8,4.2-2.579-4.2-2.566.528-.828Z"/><path class="cls-1" d="M36.447,59.9l.529.827-4.2,2.567,4.2,2.578-.576.8-4.57-2.854V62.757Z"/><path class="cls-2" d="M42.928,61.318V58.056l1.1.132v8.863h-.97l-.1-.816a2.117,2.117,0,0,1-1.787.96c-1.644,0-2.4-1.332-2.4-3.3,0-1.906.923-3.31,2.483-3.31A2.09,2.09,0,0,1,42.928,61.318ZM39.966,63.9c0,1.632.515,2.423,1.464,2.423a1.844,1.844,0,0,0,1.5-.971V62.241a1.65,1.65,0,0,0-1.379-.779C40.541,61.462,39.966,62.253,39.966,63.9Z"/><path class="cls-2" d="M49.637,66.2H51.4v.852H46.6V66.2h1.931V61.582H46.662V60.73h2.975Zm-.553-6.968a.75.75,0,1,1,.78-.755A.743.743,0,0,1,49.084,59.231Z"/><path class="cls-2" d="M56.633,67.051H55.35L53.082,60.73h1.176L56,66.031h.036l1.738-5.3h1.14Z"/><path class="cls-2" d="M72.447,65.72l.528.755a3.568,3.568,0,0,1-2.159.72c-1.907,0-3-1.3-3-3.275,0-1.906,1.1-3.334,3.01-3.334a3.262,3.262,0,0,1,2.147.708l-.539.744a2.621,2.621,0,0,0-1.608-.54c-1.067,0-1.823.779-1.823,2.422s.767,2.339,1.823,2.339A2.7,2.7,0,0,0,72.447,65.72Z"/><path class="cls-2" d="M79.947,66.859a3.6,3.6,0,0,1-1.535.336,1.746,1.746,0,0,1-1.919-1.847V59.039H74.562v-.851H77.6v7.256c0,.611.419.839,1.019.839a2.949,2.949,0,0,0,1.043-.216Z"/><path class="cls-2" d="M86.979,65.624c0,.5.156.7.5.8l-.263.768a1.318,1.318,0,0,1-1.2-.888,2.457,2.457,0,0,1-1.991.888,1.9,1.9,0,0,1-2.088-1.955c0-1.307,1.092-2.039,3.011-2.039h.923v-.492c0-.887-.551-1.223-1.475-1.223a5.218,5.218,0,0,0-1.654.324l-.289-.816a6.107,6.107,0,0,1,2.111-.408c1.608,0,2.411.78,2.411,2.063Zm-1.1-.132V63.933h-.863c-1.356,0-1.859.491-1.859,1.259a1.037,1.037,0,0,0,1.175,1.175A1.871,1.871,0,0,0,85.875,65.492Z"/><path class="cls-2" d="M93.208,65.348c0-.612-.2-.84-1.511-1.176-1.248-.323-2.088-.731-2.088-1.835,0-1.067.972-1.751,2.448-1.751a3.7,3.7,0,0,1,2.194.672L93.76,62a2.763,2.763,0,0,0-1.68-.539c-.982,0-1.331.3-1.331.8,0,.527.384.719,1.619,1.067,1.212.335,2.027.708,2.027,1.931,0,1.379-1.319,1.931-2.7,1.931a3.834,3.834,0,0,1-2.567-.864l.612-.7a3.132,3.132,0,0,0,1.955.671C92.633,66.307,93.208,65.936,93.208,65.348Z"/><path class="cls-2" d="M100.408,65.348c0-.612-.2-.84-1.512-1.176-1.248-.323-2.086-.731-2.086-1.835,0-1.067.971-1.751,2.446-1.751a3.7,3.7,0,0,1,2.195.672l-.492.743a2.76,2.76,0,0,0-1.679-.539c-.983,0-1.331.3-1.331.8,0,.527.383.719,1.619,1.067,1.211.335,2.027.708,2.027,1.931,0,1.379-1.32,1.931-2.7,1.931a3.829,3.829,0,0,1-2.566-.864l.611-.7a3.136,3.136,0,0,0,1.955.671C99.832,66.307,100.408,65.936,100.408,65.348Z"/><path class="cls-2" d="M104.021,62.637V61.7h4.75v.935Zm0,2.3V64h4.75v.936Z"/><path class="cls-3" d="M112.109,61.33l-.192-3.142h1.319l-.191,3.142Zm2.039,0-.192-3.142h1.319l-.192,3.142Z"/><path class="cls-3" d="M123.578,66.727a3.379,3.379,0,0,1-1.738.468,1.913,1.913,0,0,1-2.16-1.955V61.57h-1.439v-.84h1.439V59.3l1.1-.132V60.73h2.172l-.133.84h-2.039v3.658c0,.708.336,1.055,1.176,1.055a2.339,2.339,0,0,0,1.2-.312Z"/><path class="cls-3" d="M126.448,64.269c.1,1.4.852,2.026,1.812,2.026a2.527,2.527,0,0,0,1.678-.587l.5.731a3.607,3.607,0,0,1-2.207.756c-1.882,0-2.938-1.332-2.938-3.3,0-1.906,1.08-3.31,2.759-3.31,1.655,0,2.65,1.187,2.65,3.119,0,.215-.013.42-.024.564Zm0-.816h3.191c-.024-1.307-.6-1.991-1.583-1.991C127.191,61.462,126.532,62.1,126.448,63.453Z"/><path class="cls-3" d="M137.379,65.624c0,.5.155.7.5.8l-.265.768a1.32,1.32,0,0,1-1.2-.888,2.458,2.458,0,0,1-1.991.888,1.9,1.9,0,0,1-2.086-1.955c0-1.307,1.091-2.039,3.01-2.039h.923v-.492c0-.887-.551-1.223-1.475-1.223a5.228,5.228,0,0,0-1.655.324l-.288-.816a6.1,6.1,0,0,1,2.111-.408c1.606,0,2.411.78,2.411,2.063Zm-1.1-.132V63.933h-.863c-1.355,0-1.859.491-1.859,1.259a1.038,1.038,0,0,0,1.176,1.175A1.872,1.872,0,0,0,136.275,65.492Z"/><path class="cls-3" d="M143.607,65.348c0-.612-.205-.84-1.511-1.176-1.248-.323-2.087-.731-2.087-1.835,0-1.067.971-1.751,2.446-1.751a3.7,3.7,0,0,1,2.195.672l-.492.743a2.76,2.76,0,0,0-1.679-.539c-.983,0-1.331.3-1.331.8,0,.527.383.719,1.62,1.067,1.211.335,2.026.708,2.026,1.931,0,1.379-1.319,1.931-2.7,1.931a3.832,3.832,0,0,1-2.567-.864l.612-.7a3.134,3.134,0,0,0,1.955.671C143.031,66.307,143.607,65.936,143.607,65.348Z"/><path class="cls-3" d="M148.048,64.269c.1,1.4.851,2.026,1.811,2.026a2.528,2.528,0,0,0,1.679-.587l.5.731a3.609,3.609,0,0,1-2.207.756c-1.883,0-2.939-1.332-2.939-3.3,0-1.906,1.081-3.31,2.759-3.31,1.656,0,2.651,1.187,2.651,3.119,0,.215-.013.42-.025.564Zm0-.816h3.19c-.023-1.307-.6-1.991-1.583-1.991C148.791,61.462,148.132,62.1,148.048,63.453Z"/><path class="cls-3" d="M158.618,67.051H154.3V66.2h1.451V61.582H154.3V60.73h2.41l.133,1.211a1.965,1.965,0,0,1,1.8-1.355,3.664,3.664,0,0,1,.838.1l-.2,1.091a2.655,2.655,0,0,0-.767-.107c-.792,0-1.44.8-1.656,1.679V66.2h1.763Z"/><path class="cls-3" d="M162.508,61.33l-.192-3.142h1.32l-.193,3.142Zm2.039,0-.192-3.142h1.32l-.193,3.142Z"/><path class="cls-1" d="M173.773,62.757v1.068L169.2,66.679l-.576-.8,4.2-2.578-4.2-2.567.528-.827Z"/><path class="cls-1" d="M50.848,74.3l.527.828-4.2,2.566,4.2,2.579-.575.8-4.57-2.855V77.158Z"/><path class="cls-2" d="M56.836,80.6H58.6v.851H53.8V80.6h1.929V75.982h-1.87v-.851h2.974Zm-.551-6.969a.75.75,0,1,1,0-1.5.75.75,0,1,1,0,1.5Z"/><path class="cls-2" d="M61.182,81.451H60.174v-6.32h.851l.073.719a1.652,1.652,0,0,1,1.367-.863,1.037,1.037,0,0,1,1.127.827,1.642,1.642,0,0,1,1.392-.827c.635,0,1.235.324,1.235,1.763v4.7H65.211V76.917c0-.755-.012-1.067-.467-1.067a1.293,1.293,0,0,0-1.056.72v4.881h-.983V76.917c0-.755-.023-1.067-.48-1.067a1.276,1.276,0,0,0-1.043.72Z"/><path class="cls-2" d="M68.489,81.751a1.208,1.208,0,0,0-.108.492c0,.564.541.9,1.8.9,1.4,0,1.823-.432,1.823-.971s-.348-.8-1.512-.852c-1.583-.06-2.446-.407-2.446-1.283a1.307,1.307,0,0,1,.636-1.067,1.978,1.978,0,0,1-1.008-1.763,2.277,2.277,0,0,1,2.518-2.219,6.6,6.6,0,0,0,2.9-.564l.324,1a5.932,5.932,0,0,1-1.775.192v.036a1.685,1.685,0,0,1,1.007,1.571,2.183,2.183,0,0,1-2.434,2.136,3.5,3.5,0,0,1-.876-.109.727.727,0,0,0-.264.492c0,.384.239.576,1.56.612,1.594.048,2.482.611,2.482,1.763,0,1.319-1.319,1.895-2.938,1.895-1.992,0-2.783-.648-2.783-1.559a1.618,1.618,0,0,1,.24-.924Zm1.7-3.13a1.3,1.3,0,0,0,1.368-1.428,1.259,1.259,0,0,0-1.368-1.415,1.422,1.422,0,0,0,0,2.843Z"/><path class="cls-2" d="M86.008,79.748c0-.612-.2-.839-1.512-1.175-1.247-.324-2.086-.732-2.086-1.835,0-1.068.971-1.751,2.446-1.751a3.7,3.7,0,0,1,2.2.671l-.492.744a2.751,2.751,0,0,0-1.678-.54c-.985,0-1.332.3-1.332.8,0,.527.384.719,1.619,1.067,1.211.336,2.027.708,2.027,1.931,0,1.379-1.32,1.931-2.7,1.931a3.831,3.831,0,0,1-2.566-.864l.611-.695a3.131,3.131,0,0,0,1.955.672C85.432,80.708,86.008,80.336,86.008,79.748Z"/><path class="cls-2" d="M93.819,81.451H89.5V80.6h1.451V75.982H89.5v-.851h2.41l.133,1.211a1.966,1.966,0,0,1,1.8-1.355,3.692,3.692,0,0,1,.84.1l-.2,1.091a2.618,2.618,0,0,0-.768-.108c-.791,0-1.439.8-1.654,1.679V80.6h1.762Z"/><path class="cls-2" d="M101.247,80.12l.528.755a3.565,3.565,0,0,1-2.16.72c-1.906,0-3-1.3-3-3.274,0-1.907,1.1-3.334,3.011-3.334a3.267,3.267,0,0,1,2.147.707l-.541.744a2.613,2.613,0,0,0-1.606-.54c-1.067,0-1.823.78-1.823,2.423s.767,2.339,1.823,2.339A2.7,2.7,0,0,0,101.247,80.12Z"/><path class="cls-2" d="M104.021,77.038V76.1h4.75v.936Zm0,2.3v-.935h4.75v.935Z"/><path class="cls-3" d="M112.109,75.73l-.192-3.142h1.319l-.191,3.142Zm2.039,0-.192-3.142h1.319l-.192,3.142Z"/><path class="cls-3" d="M123.578,81.127a3.379,3.379,0,0,1-1.738.468,1.912,1.912,0,0,1-2.16-1.955V75.97h-1.439v-.839h1.439V73.7l1.1-.133v1.56h2.172l-.133.839h-2.039v3.658c0,.708.336,1.056,1.176,1.056a2.349,2.349,0,0,0,1.2-.312Z"/><path class="cls-3" d="M128.008,74.987c1.8,0,2.746,1.3,2.746,3.3,0,1.955-.971,3.31-2.758,3.31s-2.76-1.3-2.76-3.3C125.236,76.342,126.209,74.987,128.008,74.987Zm0,.887c-1.056,0-1.6.768-1.6,2.423s.527,2.411,1.584,2.411,1.582-.768,1.582-2.423S129.051,75.874,128.008,75.874Z"/><path class="cls-3" d="M133.181,81.451h-1.007v-6.32h.851l.072.719a1.652,1.652,0,0,1,1.367-.863,1.038,1.038,0,0,1,1.128.827,1.64,1.64,0,0,1,1.39-.827c.636,0,1.236.324,1.236,1.763v4.7h-1.007V76.917c0-.755-.012-1.067-.469-1.067a1.29,1.29,0,0,0-1.054.72v4.881H134.7V76.917c0-.755-.024-1.067-.479-1.067a1.276,1.276,0,0,0-1.044.72Z"/><path class="cls-3" d="M144.578,80.024c0,.5.156.7.5.8l-.264.767a1.319,1.319,0,0,1-1.2-.887,2.459,2.459,0,0,1-1.991.887,1.9,1.9,0,0,1-2.087-1.955c0-1.307,1.092-2.039,3.01-2.039h.924v-.492c0-.887-.552-1.223-1.475-1.223a5.223,5.223,0,0,0-1.655.324l-.288-.815a6.075,6.075,0,0,1,2.111-.408c1.606,0,2.41.779,2.41,2.063Zm-1.1-.132V78.333h-.864c-1.355,0-1.859.492-1.859,1.259a1.038,1.038,0,0,0,1.176,1.176A1.872,1.872,0,0,0,143.475,79.892Z"/><path class="cls-3" d="M152.377,81.127a3.379,3.379,0,0,1-1.738.468,1.913,1.913,0,0,1-2.16-1.955V75.97h-1.438v-.839h1.438V73.7l1.1-.133v1.56h2.171l-.132.839h-2.039v3.658c0,.708.336,1.056,1.175,1.056a2.35,2.35,0,0,0,1.2-.312Z"/><path class="cls-3" d="M155.248,78.669c.1,1.4.852,2.027,1.812,2.027a2.523,2.523,0,0,0,1.678-.588l.5.731a3.607,3.607,0,0,1-2.207.756c-1.883,0-2.938-1.331-2.938-3.3,0-1.907,1.079-3.31,2.758-3.31,1.656,0,2.651,1.187,2.651,3.118,0,.216-.012.42-.025.564Zm0-.816h3.19c-.024-1.307-.6-1.991-1.583-1.991C155.992,75.862,155.332,76.5,155.248,77.853Z"/><path class="cls-3" d="M163.983,79.424A1.086,1.086,0,1,1,162.9,80.5,1.071,1.071,0,0,1,163.983,79.424Z"/><path class="cls-3" d="M172.13,80.708c0,1.823-1.367,2.734-3.118,3.3l-.336-.852c1.187-.444,2.35-1.019,2.35-2.375v-4.8h-2.05v-.851h3.154Zm-.671-7.077a.75.75,0,1,1,0-1.5.75.75,0,1,1,0,1.5Z"/><path class="cls-3" d="M175.96,84.006V75.131h.948l.083.863a2.3,2.3,0,0,1,1.871-1.007c1.68,0,2.291,1.307,2.291,3.3,0,1.919-.8,3.31-2.434,3.31a2.042,2.042,0,0,1-1.656-.72v3Zm4.019-5.721c0-1.643-.445-2.423-1.392-2.423a1.925,1.925,0,0,0-1.524.984v3.082a1.63,1.63,0,0,0,1.392.768C179.462,80.7,179.979,79.94,179.979,78.285Z"/><path class="cls-3" d="M183.688,81.751a1.191,1.191,0,0,0-.108.492c0,.564.54.9,1.8.9,1.4,0,1.823-.432,1.823-.971s-.348-.8-1.511-.852c-1.584-.06-2.447-.407-2.447-1.283a1.307,1.307,0,0,1,.636-1.067,1.977,1.977,0,0,1-1.007-1.763,2.277,2.277,0,0,1,2.519-2.219,6.6,6.6,0,0,0,2.9-.564l.323,1a5.921,5.921,0,0,1-1.774.192v.036a1.687,1.687,0,0,1,1.007,1.571,2.183,2.183,0,0,1-2.435,2.136,3.5,3.5,0,0,1-.875-.109.725.725,0,0,0-.265.492c0,.384.241.576,1.56.612,1.595.048,2.482.611,2.482,1.763,0,1.319-1.319,1.895-2.938,1.895-1.99,0-2.782-.648-2.782-1.559a1.618,1.618,0,0,1,.24-.924Zm1.7-3.13a1.3,1.3,0,0,0,1.367-1.428,1.259,1.259,0,0,0-1.367-1.415,1.422,1.422,0,0,0,0,2.843Z"/><path class="cls-3" d="M191.307,75.73l-.192-3.142h1.32l-.193,3.142Zm2.039,0-.192-3.142h1.32l-.193,3.142Z"/><path class="cls-1" d="M197.884,82.7,197,82.3l5.121-10.567.876.42Z"/><path class="cls-1" d="M209.773,77.158v1.067L205.2,81.08l-.576-.8,4.2-2.579-4.2-2.566.528-.828Z"/><path class="cls-1" d="M50.848,88.7l.527.828-4.2,2.566,4.2,2.579-.575.8-4.57-2.854V91.558Z"/><path class="cls-2" d="M53.562,95.851V87l1.1-.12v3.454a2.657,2.657,0,0,1,2-.947c1.225,0,1.775.695,1.775,1.871v4.593h-1.1V91.33c0-.756-.323-1.08-1.043-1.08a2.163,2.163,0,0,0-1.631,1.02v4.581Z"/><path class="cls-2" d="M63.16,88.8,61.182,90l-.528-.768,2.639-1.643h.971v7.376h1.691v.888H61.134v-.888H63.16Z"/><path class="cls-1" d="M72.975,91.558v1.067l-4.57,2.854-.575-.8,4.2-2.579-4.2-2.566.527-.828Z"/><path d="M78.148,88.547v7.3H77.009v-7.3H74.454v-.96h6.284l-.119.96Z"/><path d="M84.809,89.387c1.8,0,2.746,1.3,2.746,3.3,0,1.955-.971,3.31-2.758,3.31s-2.76-1.3-2.76-3.3C82.037,90.742,83.01,89.387,84.809,89.387Zm0,.887c-1.056,0-1.6.768-1.6,2.423s.527,2.41,1.584,2.41,1.582-.767,1.582-2.422S85.852,90.274,84.809,90.274Z"/><path d="M89.981,95.851H88.975v-6.32h.851l.071.719a1.655,1.655,0,0,1,1.368-.863,1.037,1.037,0,0,1,1.128.827,1.639,1.639,0,0,1,1.39-.827c.636,0,1.236.323,1.236,1.762v4.7H94.012V91.317c0-.755-.012-1.067-.469-1.067a1.293,1.293,0,0,0-1.055.72v4.881h-.983V91.317c0-.755-.025-1.067-.48-1.067a1.277,1.277,0,0,0-1.044.72Z"/><path d="M101.379,94.424c0,.5.156.7.5.8l-.264.767a1.318,1.318,0,0,1-1.2-.888A2.458,2.458,0,0,1,98.429,96a1.9,1.9,0,0,1-2.087-1.955c0-1.307,1.092-2.039,3.01-2.039h.923v-.492c0-.887-.551-1.223-1.474-1.223a5.223,5.223,0,0,0-1.655.324l-.289-.816a6.1,6.1,0,0,1,2.112-.407c1.606,0,2.41.779,2.41,2.063Zm-1.1-.132V92.733h-.863c-1.355,0-1.859.492-1.859,1.259a1.038,1.038,0,0,0,1.176,1.175A1.868,1.868,0,0,0,100.275,94.292Z"/><path d="M109.178,95.527a3.386,3.386,0,0,1-1.739.468,1.913,1.913,0,0,1-2.159-1.955V90.37h-1.438v-.839h1.438V88.1l1.1-.133v1.56h2.171l-.132.839h-2.039v3.658c0,.708.336,1.055,1.175,1.055a2.343,2.343,0,0,0,1.2-.312Z"/><path d="M112.049,93.068c.1,1.4.851,2.028,1.81,2.028a2.523,2.523,0,0,0,1.68-.588l.5.731a3.609,3.609,0,0,1-2.207.756c-1.883,0-2.939-1.331-2.939-3.3,0-1.907,1.08-3.31,2.759-3.31,1.655,0,2.651,1.187,2.651,3.118,0,.216-.012.42-.024.563Zm0-.815h3.19c-.024-1.307-.6-1.991-1.583-1.991C112.793,90.262,112.133,90.9,112.049,92.253Z"/><path d="M118.361,95.851v-6.32h.948l.084.863a2.726,2.726,0,0,1,2.074-1.007c1.224,0,1.775.695,1.775,1.871v4.593h-1.1V91.977c0-1.235-.119-1.727-1.043-1.727a2.163,2.163,0,0,0-1.631,1.02v4.581Z"/><path class="cls-1" d="M130.047,88.7l.527.828-4.2,2.566,4.2,2.579-.576.8-4.569-2.854V91.558Z"/><path class="cls-1" d="M133.085,97.1l-.888-.4,5.121-10.567.875.42Z"/><path class="cls-2" d="M139.961,95.851V87l1.1-.12v3.454a2.657,2.657,0,0,1,2-.947c1.225,0,1.776.695,1.776,1.871v4.593h-1.1V91.33c0-.756-.323-1.08-1.043-1.08a2.164,2.164,0,0,0-1.631,1.02v4.581Z"/><path class="cls-2" d="M149.559,88.8,147.58,90l-.527-.768,2.638-1.643h.971v7.376h1.692v.888h-4.822v-.888h2.027Z"/><path class="cls-1" d="M159.374,91.558v1.067l-4.569,2.854-.576-.8,4.2-2.579-4.2-2.566.528-.828Z"/><path class="cls-1" d="M50.848,103.1l.527.828-4.2,2.566,4.2,2.579-.575.8-4.57-2.854v-1.067Z"/><path class="cls-2" d="M53.562,112.806v-8.875h.948l.084.863a2.291,2.291,0,0,1,1.871-1.007c1.679,0,2.291,1.307,2.291,3.3,0,1.919-.8,3.31-2.436,3.31a2.037,2.037,0,0,1-1.654-.72v3Zm4.018-5.721c0-1.644-.443-2.423-1.391-2.423a1.925,1.925,0,0,0-1.523.984v3.082a1.625,1.625,0,0,0,1.391.768C57.064,109.5,57.58,108.74,57.58,107.085Z"/><path class="cls-1" d="M65.775,105.958v1.067l-4.57,2.854-.575-.8,4.2-2.579-4.2-2.566.528-.828Z"/><path d="M71.9,110.251v-3.874h-3v3.874H67.758v-8.264H68.9v3.454h3v-3.454h1.139v8.264Z"/><path d="M76.049,107.469c.1,1.4.851,2.027,1.811,2.027a2.522,2.522,0,0,0,1.679-.588l.5.731a3.607,3.607,0,0,1-2.207.756c-1.883,0-2.938-1.332-2.938-3.3,0-1.907,1.08-3.31,2.758-3.31,1.656,0,2.651,1.187,2.651,3.118,0,.216-.012.42-.024.564Zm0-.816H79.24c-.024-1.307-.6-1.991-1.584-1.991C76.793,104.662,76.133,105.3,76.049,106.653Z"/><path d="M83.465,103.931v4.461c0,.816.324,1.139,1.019,1.139a2.077,2.077,0,0,0,1.643-.971v-4.629h1.1v6.32h-.947l-.084-.839a2.585,2.585,0,0,1-2.014.983,1.66,1.66,0,0,1-1.824-1.871v-4.593Z"/><path d="M94.779,109.927a3.383,3.383,0,0,1-1.739.468,1.913,1.913,0,0,1-2.159-1.955v-3.67h-1.44v-.839h1.44V102.5l1.1-.132v1.56h2.171l-.132.839H91.984v3.658c0,.708.336,1.055,1.176,1.055a2.342,2.342,0,0,0,1.2-.312Z"/><path d="M97.648,107.469c.1,1.4.852,2.027,1.812,2.027a2.524,2.524,0,0,0,1.679-.588l.5.731a3.607,3.607,0,0,1-2.207.756c-1.883,0-2.938-1.332-2.938-3.3,0-1.907,1.079-3.31,2.758-3.31,1.655,0,2.65,1.187,2.65,3.118,0,.216-.011.42-.023.564Zm0-.816h3.192c-.025-1.307-.6-1.991-1.584-1.991C98.393,104.662,97.732,105.3,97.648,106.653Z"/><path d="M116.57,101.6l-.347.8a3.391,3.391,0,0,0-1.356-.263c-.863,0-1.3.335-1.3,1.031v1.235h2.135l-.12.852h-2.015v4.989h-1.1v-4.989h-1.488v-.852h1.488v-1.223c0-1.175.983-1.931,2.339-1.931A4.305,4.305,0,0,1,116.57,101.6Z"/><path d="M122.619,110.251H118.3V109.4h1.451v-4.617H118.3v-.851h2.411l.132,1.211a1.965,1.965,0,0,1,1.8-1.355,3.724,3.724,0,0,1,.839.095l-.2,1.092a2.616,2.616,0,0,0-.767-.108c-.792,0-1.439.8-1.656,1.679V109.4h1.764Z"/><path d="M128.835,109.4H130.6v.852h-4.8V109.4h1.93v-4.617h-1.87v-.851h2.974Zm-.552-6.968a.75.75,0,1,1,.779-.755A.743.743,0,0,1,128.283,102.431Z"/><path d="M136.407,108.548c0-.612-.2-.84-1.511-1.175-1.248-.324-2.087-.732-2.087-1.835,0-1.068.971-1.751,2.447-1.751a3.7,3.7,0,0,1,2.194.671l-.491.744a2.757,2.757,0,0,0-1.68-.54c-.982,0-1.331.3-1.331.8,0,.527.384.719,1.619,1.067,1.212.336,2.027.708,2.027,1.931,0,1.379-1.319,1.931-2.7,1.931a3.834,3.834,0,0,1-2.567-.864l.612-.7a3.128,3.128,0,0,0,1.955.671C135.832,109.507,136.407,109.136,136.407,108.548Z"/><path d="M144.446,108.92l.529.755a3.57,3.57,0,0,1-2.161.72c-1.906,0-3-1.3-3-3.274,0-1.907,1.1-3.334,3.011-3.334a3.264,3.264,0,0,1,2.148.707l-.541.744a2.618,2.618,0,0,0-1.607-.54c-1.067,0-1.823.78-1.823,2.423s.767,2.338,1.823,2.338A2.7,2.7,0,0,0,144.446,108.92Z"/><path d="M147.16,110.251V101.4l1.1-.12v3.454a2.657,2.657,0,0,1,2-.947c1.223,0,1.775.695,1.775,1.871v4.593h-1.1v-4.522c0-.755-.323-1.079-1.043-1.079a2.164,2.164,0,0,0-1.631,1.019v4.582Z"/><path d="M156.783,108.728a.834.834,0,1,1-.827.827A.825.825,0,0,1,156.783,108.728Zm-.491-1.235-.133-5.506h1.224l-.12,5.506Z"/><path class="cls-1" d="M166.046,103.1l.528.828-4.2,2.566,4.2,2.579-.576.8-4.569-2.854v-1.067Z"/><path class="cls-1" d="M169.084,111.5l-.888-.4,5.121-10.567.876.42Z"/><path class="cls-2" d="M175.96,112.806v-8.875h.948l.083.863a2.294,2.294,0,0,1,1.871-1.007c1.68,0,2.291,1.307,2.291,3.3,0,1.919-.8,3.31-2.434,3.31a2.042,2.042,0,0,1-1.656-.72v3Zm4.019-5.721c0-1.644-.445-2.423-1.392-2.423a1.925,1.925,0,0,0-1.524.984v3.082a1.63,1.63,0,0,0,1.392.768C179.462,109.5,179.979,108.74,179.979,107.085Z"/><path class="cls-1" d="M188.174,105.958v1.067l-4.57,2.854-.576-.8,4.2-2.579-4.2-2.566.529-.828Z"/><path class="cls-1" d="M36.447,117.5l.529.828-4.2,2.566,4.2,2.579-.576.8-4.57-2.854v-1.068Z"/><path class="cls-1" d="M39.486,125.9l-.887-.4,5.121-10.566.876.42Z"/><path class="cls-2" d="M50.128,118.918v-3.262l1.1.132v8.863H50.26l-.1-.816a2.117,2.117,0,0,1-1.787.96c-1.643,0-2.4-1.332-2.4-3.3,0-1.907.923-3.31,2.482-3.31A2.093,2.093,0,0,1,50.128,118.918ZM47.166,121.5c0,1.631.516,2.422,1.463,2.422a1.844,1.844,0,0,0,1.5-.971v-3.107a1.651,1.651,0,0,0-1.379-.779C47.741,119.062,47.166,119.854,47.166,121.5Z"/><path class="cls-2" d="M56.836,123.8H58.6v.852H53.8V123.8h1.929v-4.617h-1.87v-.851h2.974Zm-.551-6.968a.75.75,0,1,1,0-1.5.75.75,0,1,1,0,1.5Z"/><path class="cls-2" d="M63.832,124.651H62.549l-2.267-6.32h1.175l1.74,5.3h.035l1.74-5.3h1.139Z"/><path class="cls-1" d="M72.975,120.357v1.068l-4.57,2.854-.575-.8,4.2-2.579-4.2-2.566.527-.828Z"/><path class="cls-1" d="M36.447,131.9l.529.827-4.2,2.567,4.2,2.578-.576.8-4.57-2.854v-1.068Z"/><path class="cls-2" d="M42.928,133.318v-3.262l1.1.132v8.863h-.97l-.1-.816a2.117,2.117,0,0,1-1.787.96c-1.644,0-2.4-1.332-2.4-3.3,0-1.906.923-3.31,2.483-3.31A2.09,2.09,0,0,1,42.928,133.318ZM39.966,135.9c0,1.632.515,2.423,1.464,2.423a1.844,1.844,0,0,0,1.5-.971v-3.107a1.65,1.65,0,0,0-1.379-.779C40.541,133.462,39.966,134.253,39.966,135.9Z"/><path class="cls-2" d="M49.637,138.2H51.4v.852H46.6V138.2h1.931v-4.617H46.662v-.852h2.975Zm-.553-6.968a.75.75,0,1,1,.78-.755A.743.743,0,0,1,49.084,131.231Z"/><path class="cls-2" d="M56.633,139.051H55.35l-2.268-6.321h1.176l1.739,5.3h.036l1.738-5.3h1.14Z"/><path class="cls-2" d="M72.447,137.72l.528.755a3.568,3.568,0,0,1-2.159.72c-1.907,0-3-1.3-3-3.275,0-1.906,1.1-3.334,3.01-3.334a3.262,3.262,0,0,1,2.147.708l-.539.744a2.621,2.621,0,0,0-1.608-.54c-1.067,0-1.823.779-1.823,2.422s.767,2.339,1.823,2.339A2.7,2.7,0,0,0,72.447,137.72Z"/><path class="cls-2" d="M79.947,138.859a3.6,3.6,0,0,1-1.535.336,1.746,1.746,0,0,1-1.919-1.847v-6.309H74.562v-.851H77.6v7.256c0,.611.419.839,1.019.839a2.949,2.949,0,0,0,1.043-.216Z"/><path class="cls-2" d="M86.979,137.624c0,.5.156.695.5.8l-.263.768a1.318,1.318,0,0,1-1.2-.888,2.457,2.457,0,0,1-1.991.888,1.9,1.9,0,0,1-2.088-1.955c0-1.307,1.092-2.039,3.011-2.039h.923v-.492c0-.887-.551-1.223-1.475-1.223a5.218,5.218,0,0,0-1.654.324l-.289-.816a6.107,6.107,0,0,1,2.111-.408c1.608,0,2.411.78,2.411,2.063Zm-1.1-.132v-1.559h-.863c-1.356,0-1.859.491-1.859,1.259a1.037,1.037,0,0,0,1.175,1.175A1.871,1.871,0,0,0,85.875,137.492Z"/><path class="cls-2" d="M93.208,137.348c0-.612-.2-.84-1.511-1.176-1.248-.323-2.088-.731-2.088-1.835,0-1.067.972-1.751,2.448-1.751a3.7,3.7,0,0,1,2.194.672L93.76,134a2.763,2.763,0,0,0-1.68-.539c-.982,0-1.331.3-1.331.8,0,.527.384.719,1.619,1.067,1.212.335,2.027.708,2.027,1.931,0,1.379-1.319,1.931-2.7,1.931a3.834,3.834,0,0,1-2.567-.864l.612-.695a3.132,3.132,0,0,0,1.955.671C92.633,138.307,93.208,137.936,93.208,137.348Z"/><path class="cls-2" d="M100.408,137.348c0-.612-.2-.84-1.512-1.176-1.248-.323-2.086-.731-2.086-1.835,0-1.067.971-1.751,2.446-1.751a3.7,3.7,0,0,1,2.195.672l-.492.743a2.76,2.76,0,0,0-1.679-.539c-.983,0-1.331.3-1.331.8,0,.527.383.719,1.619,1.067,1.211.335,2.027.708,2.027,1.931,0,1.379-1.32,1.931-2.7,1.931a3.829,3.829,0,0,1-2.566-.864l.611-.695a3.136,3.136,0,0,0,1.955.671C99.832,138.307,100.408,137.936,100.408,137.348Z"/><path class="cls-2" d="M104.021,134.637V133.7h4.75v.935Zm0,2.3V136h4.75v.936Z"/><path class="cls-3" d="M112.109,133.33l-.192-3.142h1.319l-.191,3.142Zm2.039,0-.192-3.142h1.319l-.192,3.142Z"/><path class="cls-3" d="M123.578,138.727a3.379,3.379,0,0,1-1.738.468,1.913,1.913,0,0,1-2.16-1.955v-3.67h-1.439v-.84h1.439V131.3l1.1-.132v1.559h2.172l-.133.84h-2.039v3.658c0,.708.336,1.055,1.176,1.055a2.339,2.339,0,0,0,1.2-.312Z"/><path class="cls-3" d="M126.448,136.269c.1,1.4.852,2.026,1.812,2.026a2.527,2.527,0,0,0,1.678-.587l.5.731a3.607,3.607,0,0,1-2.207.756c-1.882,0-2.938-1.332-2.938-3.3,0-1.906,1.08-3.31,2.759-3.31,1.655,0,2.65,1.187,2.65,3.119,0,.215-.013.42-.024.564Zm0-.816h3.191c-.024-1.307-.6-1.991-1.583-1.991C127.191,133.462,126.532,134.1,126.448,135.453Z"/><path class="cls-3" d="M137.379,137.624c0,.5.155.695.5.8l-.265.768a1.32,1.32,0,0,1-1.2-.888,2.458,2.458,0,0,1-1.991.888,1.9,1.9,0,0,1-2.086-1.955c0-1.307,1.091-2.039,3.01-2.039h.923v-.492c0-.887-.551-1.223-1.475-1.223a5.228,5.228,0,0,0-1.655.324l-.288-.816a6.1,6.1,0,0,1,2.111-.408c1.606,0,2.411.78,2.411,2.063Zm-1.1-.132v-1.559h-.863c-1.355,0-1.859.491-1.859,1.259a1.038,1.038,0,0,0,1.176,1.175A1.872,1.872,0,0,0,136.275,137.492Z"/><path class="cls-3" d="M143.607,137.348c0-.612-.205-.84-1.511-1.176-1.248-.323-2.087-.731-2.087-1.835,0-1.067.971-1.751,2.446-1.751a3.7,3.7,0,0,1,2.195.672l-.492.743a2.76,2.76,0,0,0-1.679-.539c-.983,0-1.331.3-1.331.8,0,.527.383.719,1.62,1.067,1.211.335,2.026.708,2.026,1.931,0,1.379-1.319,1.931-2.7,1.931a3.832,3.832,0,0,1-2.567-.864l.612-.695a3.134,3.134,0,0,0,1.955.671C143.031,138.307,143.607,137.936,143.607,137.348Z"/><path class="cls-3" d="M148.048,136.269c.1,1.4.851,2.026,1.811,2.026a2.528,2.528,0,0,0,1.679-.587l.5.731a3.609,3.609,0,0,1-2.207.756c-1.883,0-2.939-1.332-2.939-3.3,0-1.906,1.081-3.31,2.759-3.31,1.656,0,2.651,1.187,2.651,3.119,0,.215-.013.42-.025.564Zm0-.816h3.19c-.023-1.307-.6-1.991-1.583-1.991C148.791,133.462,148.132,134.1,148.048,135.453Z"/><path class="cls-3" d="M158.618,139.051H154.3V138.2h1.451v-4.617H154.3v-.852h2.41l.133,1.211a1.965,1.965,0,0,1,1.8-1.355,3.664,3.664,0,0,1,.838.1l-.2,1.091a2.655,2.655,0,0,0-.767-.107c-.792,0-1.44.8-1.656,1.679V138.2h1.763Z"/><path class="cls-3" d="M162.508,133.33l-.192-3.142h1.32l-.193,3.142Zm2.039,0-.192-3.142h1.32l-.193,3.142Z"/><path class="cls-1" d="M173.773,134.757v1.068l-4.569,2.854-.576-.8,4.2-2.578-4.2-2.567.528-.827Z"/><path class="cls-1" d="M50.848,146.3l.527.828-4.2,2.566,4.2,2.579-.575.8-4.57-2.855v-1.067Z"/><path class="cls-2" d="M56.836,152.6H58.6v.851H53.8V152.6h1.929v-4.618h-1.87v-.851h2.974Zm-.551-6.969a.75.75,0,1,1,0-1.5.75.75,0,1,1,0,1.5Z"/><path class="cls-2" d="M61.182,153.451H60.174v-6.32h.851l.073.719a1.652,1.652,0,0,1,1.367-.863,1.037,1.037,0,0,1,1.127.827,1.642,1.642,0,0,1,1.392-.827c.635,0,1.235.324,1.235,1.763v4.7H65.211v-4.534c0-.755-.012-1.067-.467-1.067a1.293,1.293,0,0,0-1.056.72v4.881h-.983v-4.534c0-.755-.023-1.067-.48-1.067a1.276,1.276,0,0,0-1.043.72Z"/><path class="cls-2" d="M68.489,153.751a1.208,1.208,0,0,0-.108.492c0,.564.541.9,1.8.9,1.4,0,1.823-.432,1.823-.971s-.348-.8-1.512-.852c-1.583-.06-2.446-.407-2.446-1.283a1.307,1.307,0,0,1,.636-1.067,1.978,1.978,0,0,1-1.008-1.763,2.277,2.277,0,0,1,2.518-2.219,6.6,6.6,0,0,0,2.9-.564l.324,1a5.932,5.932,0,0,1-1.775.192v.036a1.685,1.685,0,0,1,1.007,1.571,2.183,2.183,0,0,1-2.434,2.136,3.5,3.5,0,0,1-.876-.109.727.727,0,0,0-.264.492c0,.384.239.576,1.56.612,1.594.048,2.482.611,2.482,1.763,0,1.319-1.319,1.9-2.938,1.9-1.992,0-2.783-.648-2.783-1.559a1.618,1.618,0,0,1,.24-.924Zm1.7-3.13a1.3,1.3,0,0,0,1.368-1.428,1.259,1.259,0,0,0-1.368-1.415,1.422,1.422,0,0,0,0,2.843Z"/><path class="cls-2" d="M86.008,151.748c0-.612-.2-.839-1.512-1.175-1.247-.324-2.086-.732-2.086-1.835,0-1.068.971-1.751,2.446-1.751a3.7,3.7,0,0,1,2.2.671l-.492.744a2.751,2.751,0,0,0-1.678-.54c-.985,0-1.332.3-1.332.8,0,.527.384.719,1.619,1.067,1.211.336,2.027.708,2.027,1.931,0,1.379-1.32,1.931-2.7,1.931a3.831,3.831,0,0,1-2.566-.864l.611-.695a3.131,3.131,0,0,0,1.955.672C85.432,152.708,86.008,152.336,86.008,151.748Z"/><path class="cls-2" d="M93.819,153.451H89.5V152.6h1.451v-4.618H89.5v-.851h2.41l.133,1.211a1.966,1.966,0,0,1,1.8-1.355,3.692,3.692,0,0,1,.84.1l-.2,1.091a2.618,2.618,0,0,0-.768-.108c-.791,0-1.439.8-1.654,1.679V152.6h1.762Z"/><path class="cls-2" d="M101.247,152.12l.528.755a3.565,3.565,0,0,1-2.16.72c-1.906,0-3-1.295-3-3.274,0-1.907,1.1-3.334,3.011-3.334a3.267,3.267,0,0,1,2.147.707l-.541.744a2.613,2.613,0,0,0-1.606-.54c-1.067,0-1.823.78-1.823,2.423s.767,2.339,1.823,2.339A2.7,2.7,0,0,0,101.247,152.12Z"/><path class="cls-2" d="M104.021,149.038V148.1h4.75v.936Zm0,2.3v-.935h4.75v.935Z"/><path class="cls-3" d="M112.109,147.73l-.192-3.142h1.319l-.191,3.142Zm2.039,0-.192-3.142h1.319l-.192,3.142Z"/><path class="cls-3" d="M122.979,152.024c0,.5.156.7.5.8l-.263.767a1.317,1.317,0,0,1-1.2-.887,2.462,2.462,0,0,1-1.992.887,1.9,1.9,0,0,1-2.087-1.955c0-1.307,1.092-2.039,3.01-2.039h.924v-.492c0-.887-.552-1.223-1.475-1.223a5.228,5.228,0,0,0-1.655.324l-.288-.815a6.075,6.075,0,0,1,2.111-.408c1.607,0,2.411.779,2.411,2.063Zm-1.1-.132v-1.559h-.863c-1.356,0-1.86.492-1.86,1.259a1.038,1.038,0,0,0,1.176,1.176A1.87,1.87,0,0,0,121.875,151.892Z"/><path class="cls-3" d="M125.561,156.006v-8.875h.947l.084.863a2.3,2.3,0,0,1,1.871-1.007c1.68,0,2.291,1.307,2.291,3.3,0,1.919-.8,3.31-2.435,3.31a2.04,2.04,0,0,1-1.655-.72v3Zm4.017-5.721c0-1.643-.443-2.423-1.39-2.423a1.925,1.925,0,0,0-1.524.984v3.082a1.628,1.628,0,0,0,1.392.768C129.062,152.7,129.578,151.94,129.578,150.285Z"/><path class="cls-3" d="M138.17,144.8l-.348.8a3.387,3.387,0,0,0-1.355-.263c-.863,0-1.3.336-1.3,1.031v1.235h2.135l-.12.852h-2.015v4.989h-1.1v-4.989h-1.487v-.852h1.487v-1.223c0-1.175.984-1.931,2.339-1.931A4.31,4.31,0,0,1,138.17,144.8Z"/><path class="cls-3" d="M140.848,150.669c.1,1.4.851,2.027,1.811,2.027a2.524,2.524,0,0,0,1.679-.588l.5.731a3.607,3.607,0,0,1-2.207.756c-1.883,0-2.938-1.331-2.938-3.3,0-1.907,1.079-3.31,2.758-3.31,1.655,0,2.65,1.187,2.65,3.118,0,.216-.011.42-.023.564Zm0-.816h3.191c-.024-1.307-.6-1.991-1.584-1.991C141.592,147.862,140.932,148.5,140.848,149.853Z"/><path class="cls-3" d="M151.945,153.259a3.592,3.592,0,0,1-1.535.336,1.745,1.745,0,0,1-1.918-1.847v-6.309h-1.931v-.851H149.6v7.256c0,.612.419.84,1.019.84a2.953,2.953,0,0,0,1.043-.216Z"/><path class="cls-3" d="M156.783,151.424a1.086,1.086,0,1,1-1.079,1.08A1.071,1.071,0,0,1,156.783,151.424Z"/><path class="cls-3" d="M164.931,152.708c0,1.823-1.368,2.734-3.119,3.3l-.335-.852c1.187-.444,2.35-1.019,2.35-2.375v-4.8h-2.051v-.851h3.155Zm-.671-7.077a.75.75,0,1,1,0-1.5.75.75,0,1,1,0,1.5Z"/><path class="cls-3" d="M168.76,156.006v-8.875h.947l.084.863a2.3,2.3,0,0,1,1.871-1.007c1.68,0,2.291,1.307,2.291,3.3,0,1.919-.8,3.31-2.434,3.31a2.041,2.041,0,0,1-1.656-.72v3Zm4.017-5.721c0-1.643-.443-2.423-1.39-2.423a1.925,1.925,0,0,0-1.524.984v3.082a1.63,1.63,0,0,0,1.392.768C172.262,152.7,172.777,151.94,172.777,150.285Z"/><path class="cls-3" d="M176.488,153.751a1.191,1.191,0,0,0-.108.492c0,.564.54.9,1.8.9,1.4,0,1.823-.432,1.823-.971s-.348-.8-1.511-.852c-1.583-.06-2.447-.407-2.447-1.283a1.307,1.307,0,0,1,.636-1.067,1.977,1.977,0,0,1-1.007-1.763,2.277,2.277,0,0,1,2.518-2.219,6.607,6.607,0,0,0,2.9-.564l.323,1a5.921,5.921,0,0,1-1.774.192v.036a1.686,1.686,0,0,1,1.006,1.571,2.183,2.183,0,0,1-2.434,2.136,3.5,3.5,0,0,1-.875-.109.725.725,0,0,0-.265.492c0,.384.24.576,1.56.612,1.594.048,2.482.611,2.482,1.763,0,1.319-1.319,1.9-2.938,1.9-1.991,0-2.783-.648-2.783-1.559a1.619,1.619,0,0,1,.241-.924Zm1.7-3.13a1.3,1.3,0,0,0,1.368-1.428,1.259,1.259,0,0,0-1.368-1.415,1.422,1.422,0,0,0,0,2.843Z"/><path class="cls-3" d="M184.107,147.73l-.191-3.142h1.319l-.192,3.142Zm2.039,0-.191-3.142h1.319l-.192,3.142Z"/><path class="cls-1" d="M190.684,154.7l-.888-.4,5.121-10.567.876.42Z"/><path class="cls-1" d="M202.573,149.158v1.067L198,153.08l-.576-.8,4.2-2.579-4.2-2.566.528-.828Z"/><path class="cls-1" d="M50.848,160.7l.527.828-4.2,2.566,4.2,2.579-.575.8-4.57-2.854v-1.067Z"/><path class="cls-2" d="M53.562,167.851V159l1.1-.12v3.454a2.657,2.657,0,0,1,2-.947c1.225,0,1.775.695,1.775,1.871v4.593h-1.1V163.33c0-.756-.323-1.08-1.043-1.08a2.163,2.163,0,0,0-1.631,1.02v4.581Z"/><path class="cls-2" d="M63.16,160.8,61.182,162l-.528-.768,2.639-1.643h.971v7.376h1.691v.888H61.134v-.888H63.16Z"/><path class="cls-1" d="M72.975,163.558v1.067l-4.57,2.854-.575-.8,4.2-2.579-4.2-2.566.527-.828Z"/><path d="M79.156,165.776H75.978l-.636,2.075H74.2l2.674-8.264h1.439l2.674,8.264h-1.2Zm-3.514-7.832a.69.69,0,1,1,.683.684A.665.665,0,0,1,75.642,157.944Zm.612,6.909H78.88L77.6,160.619h-.048Zm1.894-6.909a.7.7,0,0,1,1.391,0,.7.7,0,0,1-1.391,0Z"/><path d="M82.361,170.406v-8.875h.948l.084.863a2.3,2.3,0,0,1,1.871-1.007c1.679,0,2.291,1.307,2.291,3.3,0,1.919-.8,3.31-2.435,3.31a2.04,2.04,0,0,1-1.655-.72v3Zm4.018-5.721c0-1.643-.443-2.423-1.391-2.423a1.923,1.923,0,0,0-1.523.984v3.082a1.628,1.628,0,0,0,1.391.768C85.863,167.1,86.379,166.34,86.379,164.685Z"/><path d="M94.971,159.2l-.348.8a3.387,3.387,0,0,0-1.355-.263c-.864,0-1.3.335-1.3,1.031v1.235h2.134l-.12.852H91.973v4.989h-1.1v-4.989H89.382v-.852h1.487v-1.223c0-1.175.984-1.931,2.339-1.931A4.31,4.31,0,0,1,94.971,159.2Z"/><path d="M97.648,165.068c.1,1.4.852,2.028,1.812,2.028a2.524,2.524,0,0,0,1.679-.588l.5.731a3.607,3.607,0,0,1-2.207.756c-1.883,0-2.938-1.331-2.938-3.3,0-1.907,1.079-3.31,2.758-3.31,1.655,0,2.65,1.187,2.65,3.118,0,.216-.011.42-.023.563Zm0-.815h3.192c-.025-1.307-.6-1.991-1.584-1.991C98.393,162.262,97.732,162.9,97.648,164.253Z"/><path d="M108.746,167.659a3.592,3.592,0,0,1-1.535.336,1.745,1.745,0,0,1-1.918-1.847v-6.309h-1.932v-.851H106.4v7.256c0,.611.419.839,1.02.839a2.952,2.952,0,0,0,1.043-.215Z"/><path class="cls-1" d="M115.646,160.7l.529.828-4.2,2.566,4.2,2.579-.575.8-4.571-2.854v-1.067Z"/><path class="cls-1" d="M118.686,169.1l-.889-.4,5.121-10.567.876.42Z"/><path class="cls-2" d="M125.561,167.851V159l1.1-.12v3.454a2.659,2.659,0,0,1,2-.947c1.224,0,1.775.695,1.775,1.871v4.593h-1.1V163.33c0-.756-.323-1.08-1.044-1.08a2.163,2.163,0,0,0-1.631,1.02v4.581Z"/><path class="cls-2" d="M135.16,160.8l-1.979,1.2-.528-.768,2.638-1.643h.973v7.376h1.69v.888h-4.821v-.888h2.027Z"/><path class="cls-1" d="M144.975,163.558v1.067l-4.571,2.854-.576-.8,4.2-2.579-4.2-2.566.528-.828Z"/><path class="cls-1" d="M50.848,175.1l.527.828-4.2,2.566,4.2,2.579-.575.8-4.57-2.854v-1.067Z"/><path class="cls-2" d="M53.562,184.806v-8.875h.948l.084.863a2.291,2.291,0,0,1,1.871-1.007c1.679,0,2.291,1.307,2.291,3.3,0,1.919-.8,3.31-2.436,3.31a2.037,2.037,0,0,1-1.654-.72v3Zm4.018-5.721c0-1.644-.443-2.423-1.391-2.423a1.925,1.925,0,0,0-1.523.984v3.082a1.625,1.625,0,0,0,1.391.768C57.064,181.5,57.58,180.74,57.58,179.085Z"/><path class="cls-1" d="M65.775,177.958v1.067l-4.57,2.854-.575-.8,4.2-2.579-4.2-2.566.528-.828Z"/><path d="M72.195,180.02c0,1.787-1.2,3.178-3.826,3.9l-.275-.852c2.051-.659,2.963-1.451,2.963-3.094v-5.085h-2.94v-.9h4.078Z"/><path d="M76.049,179.469c.1,1.4.851,2.027,1.811,2.027a2.522,2.522,0,0,0,1.679-.588l.5.731a3.607,3.607,0,0,1-2.207.756c-1.883,0-2.938-1.332-2.938-3.3,0-1.907,1.08-3.31,2.758-3.31,1.656,0,2.651,1.187,2.651,3.118,0,.216-.012.42-.024.564Zm0-.816H79.24c-.024-1.307-.6-1.991-1.584-1.991C76.793,176.662,76.133,177.3,76.049,178.653Z"/><path d="M87.578,181.927a3.379,3.379,0,0,1-1.738.468,1.913,1.913,0,0,1-2.159-1.955v-3.67H82.242v-.839h1.439V174.5l1.1-.132v1.56h2.171l-.132.839H84.784v3.658c0,.708.336,1.055,1.175,1.055a2.34,2.34,0,0,0,1.2-.312Z"/><path d="M90.93,181.328h3.477l-.132.923H89.586v-.828l3.466-4.557H89.861v-.935h4.51v.839Z"/><path d="M101.979,181.927a3.386,3.386,0,0,1-1.739.468,1.913,1.913,0,0,1-2.16-1.955v-3.67H96.642v-.839H98.08V174.5l1.1-.132v1.56h2.171l-.132.839H99.184v3.658c0,.708.336,1.055,1.175,1.055a2.345,2.345,0,0,0,1.2-.312Z"/><path d="M113.368,182.4a3.059,3.059,0,0,1-2.446-1.067l.743-.624a2.058,2.058,0,0,0,1.691.792,1.684,1.684,0,0,0,1.715-1.9c0-1.272-.647-1.727-1.51-1.727a2.744,2.744,0,0,0-1.153.275h-.863v-4.162H115.9l-.13.876H112.6V177.3a2.9,2.9,0,0,1,1.283-.288,2.338,2.338,0,0,1,2.339,2.6A2.723,2.723,0,0,1,113.368,182.4Z"/><path d="M118.062,178.113c0-2.734.934-4.269,2.734-4.269s2.734,1.535,2.734,4.269S122.6,182.4,120.8,182.4,118.062,180.86,118.062,178.113Zm4.329,0c0-2.41-.588-3.394-1.595-3.394s-1.6.984-1.6,3.394.6,3.407,1.6,3.407S122.391,180.536,122.391,178.113Zm-1.595-.78a.786.786,0,1,1-.78.78A.774.774,0,0,1,120.8,177.333Z"/><path d="M129.064,177.49a1.824,1.824,0,1,1,1.751-1.823A1.7,1.7,0,0,1,129.064,177.49Zm-1.019,5.1-.672-.42,5.553-8.407.683.419Zm1.019-5.781c.672,0,.791-.552.791-1.139,0-.564-.119-1.14-.791-1.14s-.839.552-.839,1.152C128.225,176.23,128.393,176.806,129.064,176.806Zm2.951,5.589a1.825,1.825,0,1,1,1.739-1.823A1.7,1.7,0,0,1,132.015,182.4Zm0-.672c.671,0,.827-.563.827-1.151,0-.564-.156-1.128-.827-1.128s-.827.552-.827,1.128S131.343,181.723,132.015,181.723Z"/><path class="cls-1" d="M139.791,175.1l.527.828-4.2,2.566,4.2,2.579-.576.8-4.569-2.854v-1.067Z"/><path class="cls-1" d="M142.828,183.5l-.887-.395,5.121-10.567.876.42Z"/><path class="cls-2" d="M149.705,184.806v-8.875h.947l.084.863a2.291,2.291,0,0,1,1.871-1.007c1.678,0,2.29,1.307,2.29,3.3,0,1.919-.8,3.31-2.434,3.31a2.038,2.038,0,0,1-1.655-.72v3Zm4.018-5.721c0-1.644-.445-2.423-1.392-2.423a1.923,1.923,0,0,0-1.523.984v3.082a1.627,1.627,0,0,0,1.391.768C153.207,181.5,153.723,180.74,153.723,179.085Z"/><path class="cls-1" d="M161.918,177.958v1.067l-4.569,2.854-.577-.8,4.2-2.579-4.2-2.566.529-.828Z"/><path class="cls-1" d="M36.447,189.5l.529.828-4.2,2.566,4.2,2.579-.576.8-4.57-2.854v-1.068Z"/><path class="cls-1" d="M39.486,197.9l-.887-.4,5.121-10.566.876.42Z"/><path class="cls-2" d="M50.128,190.918v-3.262l1.1.132v8.863H50.26l-.1-.816a2.117,2.117,0,0,1-1.787.96c-1.643,0-2.4-1.332-2.4-3.3,0-1.907.923-3.31,2.482-3.31A2.093,2.093,0,0,1,50.128,190.918ZM47.166,193.5c0,1.631.516,2.422,1.463,2.422a1.844,1.844,0,0,0,1.5-.971v-3.107a1.651,1.651,0,0,0-1.379-.779C47.741,191.062,47.166,191.854,47.166,193.5Z"/><path class="cls-2" d="M56.836,195.8H58.6v.852H53.8V195.8h1.929v-4.617h-1.87v-.851h2.974Zm-.551-6.968a.75.75,0,1,1,0-1.5.75.75,0,1,1,0,1.5Z"/><path class="cls-2" d="M63.832,196.651H62.549l-2.267-6.32h1.175l1.74,5.3h.035l1.74-5.3h1.139Z"/><path class="cls-1" d="M72.975,192.357v1.068l-4.57,2.854-.575-.8,4.2-2.579-4.2-2.566.527-.828Z"/><path class="cls-1" d="M22.049,203.9l.527.827-4.2,2.567,4.2,2.578-.576.8-4.569-2.854v-1.068Z"/><path class="cls-1" d="M25.086,212.3l-.887-.4,5.121-10.566.875.42Z"/><path class="cls-2" d="M33.065,205.534a2.21,2.21,0,0,1,1.788-.948c1.678,0,2.362,1.308,2.362,3.3,0,1.919-.875,3.31-2.506,3.31a2.023,2.023,0,0,1-1.7-.792l-.072.648h-.971v-8.863l1.1-.132Zm2.962,2.351c0-1.644-.5-2.423-1.438-2.423a1.924,1.924,0,0,0-1.524.983v3.083a1.647,1.647,0,0,0,1.38.791C35.452,210.319,36.027,209.54,36.027,207.885Z"/><path class="cls-2" d="M41.609,204.586c1.8,0,2.746,1.3,2.746,3.3,0,1.954-.97,3.31-2.757,3.31s-2.76-1.3-2.76-3.3C38.838,205.941,39.811,204.586,41.609,204.586Zm0,.888c-1.055,0-1.595.767-1.595,2.422s.527,2.411,1.584,2.411,1.582-.767,1.582-2.422S42.652,205.474,41.609,205.474Z"/><path class="cls-2" d="M50.128,205.318v-3.262l1.1.132v8.863H50.26l-.1-.816a2.117,2.117,0,0,1-1.787.96c-1.643,0-2.4-1.332-2.4-3.3,0-1.906.923-3.31,2.482-3.31A2.094,2.094,0,0,1,50.128,205.318ZM47.166,207.9c0,1.632.516,2.423,1.463,2.423a1.844,1.844,0,0,0,1.5-.971v-3.107a1.651,1.651,0,0,0-1.379-.779C47.741,205.462,47.166,206.253,47.166,207.9Z"/><path class="cls-2" d="M56.692,211.087a3.216,3.216,0,0,1-2.9,2.518l-.155-.863a2.156,2.156,0,0,0,2.013-1.691h-.371L53.1,204.73H54.27L56,210.163h.048l1.715-5.433H58.9Z"/><path class="cls-1" d="M65.775,206.757v1.068l-4.57,2.854-.575-.8,4.2-2.578-4.2-2.567.528-.827Z"/><path class="cls-1" d="M7.648,218.3l.528.828-4.2,2.566,4.2,2.579-.575.8-4.57-2.855v-1.067Z"/><path class="cls-1" d="M10.687,226.7l-.888-.4,5.121-10.567.875.42Z"/><path class="cls-2" d="M17.562,225.451V216.6l1.1-.12v3.454a2.659,2.659,0,0,1,2-.947c1.224,0,1.775.695,1.775,1.871v4.593h-1.1V220.93c0-.756-.323-1.08-1.044-1.08a2.163,2.163,0,0,0-1.631,1.02v4.581Z"/><path class="cls-2" d="M29.979,225.127a3.383,3.383,0,0,1-1.739.468,1.912,1.912,0,0,1-2.158-1.955v-3.67H24.643v-.839h1.439V217.7l1.1-.133v1.56h2.169l-.13.839H27.186v3.658c0,.708.335,1.056,1.174,1.056a2.359,2.359,0,0,0,1.2-.312Z"/><path class="cls-2" d="M32.382,225.451H31.375v-6.32h.852l.071.719a1.652,1.652,0,0,1,1.367-.863,1.038,1.038,0,0,1,1.128.827,1.642,1.642,0,0,1,1.391-.827c.635,0,1.235.324,1.235,1.763v4.7H36.412v-4.534c0-.755-.012-1.067-.469-1.067a1.292,1.292,0,0,0-1.054.72v4.881h-.984v-4.534c0-.755-.024-1.067-.479-1.067a1.276,1.276,0,0,0-1.044.72Z"/><path class="cls-2" d="M43.947,225.259a3.592,3.592,0,0,1-1.535.336,1.745,1.745,0,0,1-1.918-1.847v-6.309H38.562v-.851H41.6v7.256c0,.612.419.84,1.019.84a2.953,2.953,0,0,0,1.043-.216Z"/><path class="cls-1" d="M51.375,221.158v1.067l-4.569,2.855-.576-.8,4.2-2.579-4.2-2.566.528-.828Z"/></g></svg>