<svg xmlns="http://www.w3.org/2000/svg" viewBox="0 0 430 230"><defs><style>.cls-1{fill:#0054a2;}.cls-2{fill:#b27000;}.cls-3{fill:#006984;}.cls-4,.cls-5,.cls-6{fill:#fff;}.cls-5,.cls-7{stroke:#000;stroke-width:2px;}.cls-5,.cls-6,.cls-7{stroke-miterlimit:10;}.cls-6{stroke:#006984;}.cls-7{fill:none;}</style></defs><title>html-types</title><g id="Layer_1" data-name="Layer 1"><path d="M362.206,13.684c0,1.167-.9,1.567-2.183,1.567H358.5V9.742h1.3c1.358,0,2.159.432,2.159,1.391a1.228,1.228,0,0,1-1.032,1.208C361.574,12.453,362.206,12.749,362.206,13.684Zm-2.942-1.607h.832c.615,0,1.094-.3,1.094-.888,0-.679-.487-.847-1.3-.847h-.623Zm2.142,1.607c0-.776-.575-1.024-1.239-1.024h-.9v1.984h.759C360.822,14.644,361.406,14.483,361.406,13.684Z"/><path d="M365.574,10.989l-.135.72a1.325,1.325,0,0,0-.369-.048c-.527,0-.831.376-1.007,1.183v2.407h-.735V11.037h.631l.072.856a1.2,1.2,0,0,1,1.128-.952A1.834,1.834,0,0,1,365.574,10.989Z"/><path d="M369.79,13.14c0,1.3-.688,2.207-1.879,2.207s-1.88-.864-1.88-2.2c0-1.3.689-2.207,1.888-2.207S369.79,11.805,369.79,13.14Zm-2.967.008c0,1.1.384,1.607,1.088,1.607S369,14.244,369,13.14s-.384-1.607-1.079-1.607S366.823,12.045,366.823,13.148Z"/><path d="M373.782,15.251l-.735-3.55-.76,3.55h-.975l-.984-4.214h.736l.76,3.7.831-3.7h.824l.791,3.7.767-3.7h.7l-.96,4.214Z"/><path d="M379.238,11.421l-.32.488a1.767,1.767,0,0,0-1.087-.384c-.479,0-.775.216-.775.552s.223.5.9.679c.888.224,1.4.576,1.4,1.311,0,.88-.807,1.28-1.663,1.28A2.339,2.339,0,0,1,376.1,14.8l.408-.463a1.759,1.759,0,0,0,1.168.423c.55,0,.9-.248.9-.615,0-.44-.208-.6-1.023-.816-.912-.24-1.272-.632-1.272-1.231,0-.664.648-1.152,1.519-1.152A2.236,2.236,0,0,1,379.238,11.421Z"/><path d="M383.566,13.4H380.88c.072.976.528,1.351,1.136,1.351a1.772,1.772,0,0,0,1.095-.368l.32.44a2.3,2.3,0,0,1-1.472.528c-1.175,0-1.863-.824-1.863-2.159,0-1.311.664-2.247,1.752-2.247,1.134,0,1.734.792,1.734,2.079C383.582,13.164,383.574,13.3,383.566,13.4Zm-.711-.592c0-.823-.328-1.279-.992-1.279-.559,0-.927.392-.983,1.328h1.975Z"/><path d="M387.047,10.989l-.137.72a1.315,1.315,0,0,0-.367-.048c-.527,0-.832.376-1.008,1.183v2.407H384.8V11.037h.632l.072.856a1.2,1.2,0,0,1,1.127-.952A1.856,1.856,0,0,1,387.047,10.989Z"/><path d="M2.779,15.251V6.939H4.746v8.312Z"/><path d="M11.764,10.6v4.653H9.869v-4.33c0-.671-.228-.851-.6-.851-.42,0-.768.3-1.1.827v4.354h-1.9V8.882H7.926l.133.756A2.419,2.419,0,0,1,10,8.679,1.691,1.691,0,0,1,11.764,10.6Z"/><path d="M18.688,10.6v4.653H16.793v-4.33c0-.671-.24-.851-.6-.851-.42,0-.767.3-1.1.815v4.366H13.2v-8.9L15.09,6.16V9.566a2.323,2.323,0,0,1,1.835-.887A1.691,1.691,0,0,1,18.688,10.6Z"/><path d="M25.612,14.184l-.395,1.235a1.591,1.591,0,0,1-1.535-.923,2.146,2.146,0,0,1-1.92.959,1.924,1.924,0,0,1-2.074-1.991c0-1.391,1.054-2.147,2.986-2.147h.647v-.275c0-.756-.3-.984-1.079-.984a5.747,5.747,0,0,0-1.668.336l-.431-1.248a7.216,7.216,0,0,1,2.4-.467c1.847,0,2.638.779,2.638,2.255V13.4C25.18,13.9,25.312,14.076,25.612,14.184Zm-2.291-.7V12.36h-.467c-.864,0-1.284.3-1.284.936a.711.711,0,0,0,.744.8A1.133,1.133,0,0,0,23.321,13.488Z"/><path d="M28.854,13.956a.906.906,0,0,0,.312-.06l.371,1.343a3.425,3.425,0,0,1-1.223.216,1.576,1.576,0,0,1-1.679-1.8v-7.3l1.894-.2v7.316C28.529,13.824,28.65,13.956,28.854,13.956Z"/><path d="M32.525,15.455c-1.4-.012-2.087-.8-2.087-2.3V10.2h-.9V8.882h.9V7.5l1.9-.216V8.882H33.8l-.2,1.32H32.334v2.926c0,.612.2.828.6.828a1.263,1.263,0,0,0,.683-.216l.635,1.211A3.148,3.148,0,0,1,32.525,15.455Z"/><path d="M8.38,81.127a3.383,3.383,0,0,1-1.739.468A1.913,1.913,0,0,1,4.482,79.64V75.97H3.043v-.839H4.482V73.7l1.1-.133v1.56h2.17l-.131.839H5.586v3.658c0,.708.336,1.056,1.175,1.056a2.352,2.352,0,0,0,1.2-.312Z"/><path d="M12.809,74.987c1.8,0,2.747,1.3,2.747,3.3,0,1.955-.972,3.31-2.759,3.31s-2.758-1.3-2.758-3.3C10.039,76.342,11.01,74.987,12.809,74.987Zm0,.887c-1.055,0-1.595.768-1.595,2.423s.528,2.411,1.583,2.411,1.584-.768,1.584-2.423S13.853,75.874,12.809,75.874Z"/><path d="M17.982,81.451H16.975v-6.32h.851l.072.719a1.655,1.655,0,0,1,1.368-.863,1.037,1.037,0,0,1,1.127.827,1.641,1.641,0,0,1,1.392-.827c.635,0,1.235.324,1.235,1.763v4.7H22.012V76.917c0-.755-.012-1.067-.467-1.067a1.293,1.293,0,0,0-1.056.72v4.881h-.983V76.917c0-.755-.024-1.067-.481-1.067a1.277,1.277,0,0,0-1.043.72Z"/><path d="M29.38,80.024c0,.5.155.7.5.8l-.265.767a1.321,1.321,0,0,1-1.2-.887,2.457,2.457,0,0,1-1.99.887,1.9,1.9,0,0,1-2.087-1.955c0-1.307,1.091-2.039,3.011-2.039h.922v-.492c0-.887-.551-1.223-1.475-1.223a5.233,5.233,0,0,0-1.655.324l-.288-.815a6.088,6.088,0,0,1,2.111-.408c1.607,0,2.411.779,2.411,2.063Zm-1.1-.132V78.333h-.863c-1.355,0-1.858.492-1.858,1.259a1.037,1.037,0,0,0,1.174,1.176A1.87,1.87,0,0,0,28.276,79.892Z"/><path d="M37.18,81.127a3.389,3.389,0,0,1-1.74.468,1.913,1.913,0,0,1-2.159-1.955V75.97H31.842v-.839h1.439V73.7l1.1-.133v1.56h2.171l-.132.839H34.385v3.658c0,.708.336,1.056,1.176,1.056a2.354,2.354,0,0,0,1.2-.312Z"/><path d="M40.05,78.669c.1,1.4.851,2.027,1.811,2.027a2.524,2.524,0,0,0,1.679-.588l.5.731a3.609,3.609,0,0,1-2.207.756c-1.883,0-2.939-1.331-2.939-3.3,0-1.907,1.081-3.31,2.759-3.31,1.655,0,2.651,1.187,2.651,3.118,0,.216-.013.42-.025.564Zm0-.816h3.19c-.023-1.307-.6-1.991-1.583-1.991C40.793,75.862,40.134,76.5,40.05,77.853Z"/><path d="M48.785,79.424a1.086,1.086,0,1,1-1.08,1.08A1.071,1.071,0,0,1,48.785,79.424Z"/><path d="M56.933,80.708c0,1.823-1.368,2.734-3.119,3.3l-.335-.852c1.187-.444,2.35-1.019,2.35-2.375v-4.8H53.778v-.851h3.155Zm-.672-7.077a.75.75,0,1,1,0-1.5.75.75,0,1,1,0,1.5Z"/><path d="M60.762,84.006V75.131h.947l.084.863a2.3,2.3,0,0,1,1.871-1.007c1.68,0,2.291,1.307,2.291,3.3,0,1.919-.8,3.31-2.434,3.31a2.041,2.041,0,0,1-1.656-.72v3Zm4.017-5.721c0-1.643-.443-2.423-1.39-2.423a1.925,1.925,0,0,0-1.524.984v3.082a1.63,1.63,0,0,0,1.392.768C64.264,80.7,64.779,79.94,64.779,78.285Z"/><path d="M68.489,81.751a1.208,1.208,0,0,0-.108.492c0,.564.541.9,1.8.9,1.4,0,1.823-.432,1.823-.971s-.348-.8-1.512-.852c-1.583-.06-2.446-.407-2.446-1.283a1.307,1.307,0,0,1,.636-1.067,1.978,1.978,0,0,1-1.008-1.763,2.277,2.277,0,0,1,2.518-2.219,6.6,6.6,0,0,0,2.9-.564l.324,1a5.932,5.932,0,0,1-1.775.192v.036a1.685,1.685,0,0,1,1.007,1.571,2.183,2.183,0,0,1-2.434,2.136,3.5,3.5,0,0,1-.876-.109.727.727,0,0,0-.264.492c0,.384.239.576,1.56.612,1.594.048,2.482.611,2.482,1.763,0,1.319-1.319,1.895-2.938,1.895-1.992,0-2.783-.648-2.783-1.559a1.618,1.618,0,0,1,.24-.924Zm1.7-3.13a1.3,1.3,0,0,0,1.368-1.428,1.259,1.259,0,0,0-1.368-1.415,1.422,1.422,0,0,0,0,2.843Z"/><path d="M6.149,88.547v7.3H5.01v-7.3H2.455v-.96H8.74l-.12.96Z"/><path d="M12.809,89.387c1.8,0,2.747,1.3,2.747,3.3,0,1.955-.972,3.31-2.759,3.31s-2.758-1.3-2.758-3.3C10.039,90.742,11.01,89.387,12.809,89.387Zm0,.887c-1.055,0-1.595.768-1.595,2.423s.528,2.41,1.583,2.41,1.584-.767,1.584-2.422S13.853,90.274,12.809,90.274Z"/><path d="M17.982,95.851H16.975v-6.32h.851l.072.719a1.655,1.655,0,0,1,1.368-.863,1.036,1.036,0,0,1,1.127.827,1.641,1.641,0,0,1,1.392-.827c.635,0,1.235.323,1.235,1.762v4.7H22.012V91.317c0-.755-.012-1.067-.467-1.067a1.293,1.293,0,0,0-1.056.72v4.881h-.983V91.317c0-.755-.024-1.067-.481-1.067a1.277,1.277,0,0,0-1.043.72Z"/><path d="M29.38,94.424c0,.5.155.7.5.8L29.619,96a1.321,1.321,0,0,1-1.2-.888A2.455,2.455,0,0,1,26.43,96a1.9,1.9,0,0,1-2.087-1.955c0-1.307,1.091-2.039,3.011-2.039h.922v-.492c0-.887-.551-1.223-1.475-1.223a5.233,5.233,0,0,0-1.655.324l-.288-.816a6.108,6.108,0,0,1,2.111-.407c1.607,0,2.411.779,2.411,2.063Zm-1.1-.132V92.733h-.863c-1.355,0-1.858.492-1.858,1.259a1.037,1.037,0,0,0,1.174,1.175A1.869,1.869,0,0,0,28.276,94.292Z"/><path d="M37.18,95.527A3.389,3.389,0,0,1,35.44,96a1.913,1.913,0,0,1-2.159-1.955V90.37H31.842v-.839h1.439V88.1l1.1-.133v1.56h2.171l-.132.839H34.385v3.658c0,.708.336,1.055,1.176,1.055a2.344,2.344,0,0,0,1.2-.312Z"/><path d="M40.05,93.068c.1,1.4.851,2.028,1.811,2.028a2.524,2.524,0,0,0,1.679-.588l.5.731A3.609,3.609,0,0,1,41.837,96c-1.883,0-2.939-1.331-2.939-3.3,0-1.907,1.081-3.31,2.759-3.31,1.655,0,2.651,1.187,2.651,3.118,0,.216-.013.42-.025.563Zm0-.815h3.19c-.023-1.307-.6-1.991-1.583-1.991C40.793,90.262,40.134,90.9,40.05,92.253Z"/><path d="M46.362,95.851v-6.32h.948l.084.863a2.726,2.726,0,0,1,2.075-1.007c1.222,0,1.774.695,1.774,1.871v4.593h-1.1V91.977c0-1.235-.121-1.727-1.044-1.727a2.165,2.165,0,0,0-1.632,1.02v4.581Z"/><path d="M7.1,110.251v-3.874h-3v3.874H2.959v-8.264H4.1v3.454h3v-3.454H8.236v8.264Z"/><path d="M11.25,107.469c.1,1.4.852,2.027,1.811,2.027a2.522,2.522,0,0,0,1.679-.588l.5.731a3.607,3.607,0,0,1-2.207.756c-1.883,0-2.938-1.332-2.938-3.3,0-1.907,1.079-3.31,2.758-3.31,1.655,0,2.651,1.187,2.651,3.118,0,.216-.012.42-.024.564Zm0-.816h3.19c-.024-1.307-.6-1.991-1.583-1.991C11.994,104.662,11.334,105.3,11.25,106.653Z"/><path d="M18.666,103.931v4.461c0,.816.324,1.139,1.02,1.139a2.077,2.077,0,0,0,1.642-.971v-4.629h1.1v6.32h-.948l-.084-.839a2.585,2.585,0,0,1-2.014.983,1.66,1.66,0,0,1-1.824-1.871v-4.593Z"/><path d="M29.979,109.927a3.383,3.383,0,0,1-1.739.468,1.913,1.913,0,0,1-2.158-1.955v-3.67H24.643v-.839h1.439V102.5l1.1-.132v1.56h2.169l-.13.839H27.186v3.658c0,.708.335,1.055,1.174,1.055a2.349,2.349,0,0,0,1.2-.312Z"/><path d="M32.85,107.469c.095,1.4.851,2.027,1.81,2.027a2.524,2.524,0,0,0,1.68-.588l.5.731a3.609,3.609,0,0,1-2.207.756c-1.883,0-2.939-1.332-2.939-3.3,0-1.907,1.079-3.31,2.759-3.31,1.654,0,2.65,1.187,2.65,3.118,0,.216-.011.42-.023.564Zm0-.816h3.19c-.024-1.307-.6-1.991-1.583-1.991C33.594,104.662,32.934,105.3,32.85,106.653Z"/><path d="M51.771,101.6l-.347.8a3.391,3.391,0,0,0-1.356-.263c-.863,0-1.295.335-1.295,1.031v1.235h2.135l-.121.852H48.773v4.989h-1.1v-4.989H46.182v-.852H47.67v-1.223c0-1.175.982-1.931,2.338-1.931A4.307,4.307,0,0,1,51.771,101.6Z"/><path d="M57.82,110.251H53.5V109.4h1.451v-4.617H53.5v-.851h2.411l.132,1.211a1.966,1.966,0,0,1,1.8-1.355,3.732,3.732,0,0,1,.84.095l-.2,1.092a2.612,2.612,0,0,0-.767-.108c-.792,0-1.439.8-1.655,1.679V109.4H57.82Z"/><path d="M64.036,109.4H65.8v.852H61V109.4h1.931v-4.617H61.062v-.851h2.974Zm-.552-6.968a.75.75,0,1,1,0-1.5.75.75,0,1,1,0,1.5Z"/><path d="M71.607,108.548c0-.612-.2-.84-1.51-1.175-1.247-.324-2.087-.732-2.087-1.835,0-1.068.97-1.751,2.447-1.751a3.7,3.7,0,0,1,2.194.671l-.492.744a2.754,2.754,0,0,0-1.679-.54c-.983,0-1.332.3-1.332.8,0,.527.385.719,1.62,1.067,1.211.336,2.027.708,2.027,1.931,0,1.379-1.319,1.931-2.7,1.931a3.841,3.841,0,0,1-2.568-.864l.613-.7a3.128,3.128,0,0,0,1.955.671C71.032,109.507,71.607,109.136,71.607,108.548Z"/><path d="M79.647,108.92l.529.755a3.569,3.569,0,0,1-2.16.72c-1.907,0-3-1.3-3-3.274,0-1.907,1.1-3.334,3.01-3.334a3.264,3.264,0,0,1,2.148.707l-.541.744a2.618,2.618,0,0,0-1.607-.54c-1.067,0-1.823.78-1.823,2.423s.768,2.338,1.823,2.338A2.7,2.7,0,0,0,79.647,108.92Z"/><path d="M82.361,110.251V101.4l1.1-.12v3.454a2.659,2.659,0,0,1,2-.947c1.223,0,1.775.695,1.775,1.871v4.593h-1.1v-4.522c0-.755-.324-1.079-1.044-1.079a2.164,2.164,0,0,0-1.631,1.019v4.582Z"/><path d="M91.984,108.728a.834.834,0,1,1-.828.827A.824.824,0,0,1,91.984,108.728Zm-.492-1.235-.131-5.506h1.223l-.119,5.506Z"/><path d="M7.78,152.024c0,.5.156.7.5.8l-.264.767a1.323,1.323,0,0,1-1.2-.887,2.456,2.456,0,0,1-1.99.887,1.9,1.9,0,0,1-2.087-1.955c0-1.307,1.091-2.039,3.011-2.039h.923v-.492c0-.887-.552-1.223-1.476-1.223a5.223,5.223,0,0,0-1.654.324l-.288-.815a6.078,6.078,0,0,1,2.11-.408c1.608,0,2.411.779,2.411,2.063Zm-1.1-.132v-1.559H5.813c-1.355,0-1.858.492-1.858,1.259a1.037,1.037,0,0,0,1.175,1.176A1.872,1.872,0,0,0,6.677,151.892Z"/><path d="M10.363,156.006v-8.875h.948l.084.863a2.291,2.291,0,0,1,1.871-1.007c1.677,0,2.29,1.307,2.29,3.3,0,1.919-.8,3.31-2.435,3.31a2.039,2.039,0,0,1-1.655-.72v3Zm4.018-5.721c0-1.643-.444-2.423-1.392-2.423a1.923,1.923,0,0,0-1.523.984v3.082a1.627,1.627,0,0,0,1.391.768C13.865,152.7,14.381,151.94,14.381,150.285Z"/><path d="M22.972,144.8l-.348.8a3.387,3.387,0,0,0-1.355-.263c-.864,0-1.295.336-1.295,1.031v1.235h2.134l-.12.852H19.974v4.989h-1.1v-4.989H17.383v-.852H18.87v-1.223c0-1.175.984-1.931,2.339-1.931A4.31,4.31,0,0,1,22.972,144.8Z"/><path d="M25.65,150.669c.1,1.4.852,2.027,1.811,2.027a2.526,2.526,0,0,0,1.68-.588l.5.731a3.606,3.606,0,0,1-2.206.756c-1.883,0-2.94-1.331-2.94-3.3,0-1.907,1.08-3.31,2.76-3.31,1.654,0,2.65,1.187,2.65,3.118,0,.216-.012.42-.024.564Zm0-.816h3.19c-.024-1.307-.6-1.991-1.582-1.991C26.394,147.862,25.734,148.5,25.65,149.853Z"/><path d="M36.748,153.259a3.6,3.6,0,0,1-1.535.336,1.746,1.746,0,0,1-1.92-1.847v-6.309H31.362v-.851H34.4v7.256c0,.612.42.84,1.02.84a2.954,2.954,0,0,0,1.044-.216Z"/><path d="M41.585,151.424a1.086,1.086,0,1,1-1.079,1.08A1.07,1.07,0,0,1,41.585,151.424Z"/><path d="M49.732,152.708c0,1.823-1.367,2.734-3.119,3.3l-.335-.852c1.187-.444,2.351-1.019,2.351-2.375v-4.8H46.578v-.851h3.154Zm-.671-7.077a.75.75,0,1,1,0-1.5.75.75,0,1,1,0,1.5Z"/><path d="M53.562,156.006v-8.875h.948l.084.863a2.293,2.293,0,0,1,1.871-1.007c1.679,0,2.291,1.307,2.291,3.3,0,1.919-.8,3.31-2.436,3.31a2.037,2.037,0,0,1-1.654-.72v3Zm4.018-5.721c0-1.643-.443-2.423-1.391-2.423a1.925,1.925,0,0,0-1.523.984v3.082a1.625,1.625,0,0,0,1.391.768C57.064,152.7,57.58,151.94,57.58,150.285Z"/><path d="M61.289,153.751a1.192,1.192,0,0,0-.107.492c0,.564.54.9,1.8.9,1.4,0,1.824-.432,1.824-.971s-.348-.8-1.511-.852c-1.584-.06-2.447-.407-2.447-1.283a1.308,1.308,0,0,1,.635-1.067,1.978,1.978,0,0,1-1.006-1.763,2.276,2.276,0,0,1,2.517-2.219,6.6,6.6,0,0,0,2.9-.564l.324,1a5.931,5.931,0,0,1-1.776.192v.036a1.686,1.686,0,0,1,1.008,1.571,2.183,2.183,0,0,1-2.434,2.136,3.5,3.5,0,0,1-.876-.109.723.723,0,0,0-.264.492c0,.384.24.576,1.56.612,1.594.048,2.482.611,2.482,1.763,0,1.319-1.319,1.9-2.939,1.9-1.99,0-2.782-.648-2.782-1.559a1.618,1.618,0,0,1,.24-.924Zm1.7-3.13a1.3,1.3,0,0,0,1.367-1.428,1.258,1.258,0,0,0-1.367-1.415,1.422,1.422,0,0,0,0,2.843Z"/><path d="M7.156,165.776H3.979l-.636,2.075H2.2l2.675-8.264H6.317l2.675,8.264h-1.2Zm-3.513-7.832a.665.665,0,0,1,.683-.671.678.678,0,1,1-.683.671Zm.611,6.909H6.881L5.6,160.619H5.55Zm1.9-6.909a.669.669,0,0,1,.7-.671.678.678,0,1,1-.7.671Z"/><path d="M10.363,170.406v-8.875h.948l.084.863a2.291,2.291,0,0,1,1.871-1.007c1.677,0,2.29,1.307,2.29,3.3,0,1.919-.8,3.31-2.435,3.31a2.039,2.039,0,0,1-1.655-.72v3Zm4.018-5.721c0-1.643-.444-2.423-1.392-2.423a1.923,1.923,0,0,0-1.523.984v3.082a1.627,1.627,0,0,0,1.391.768C13.865,167.1,14.381,166.34,14.381,164.685Z"/><path d="M22.972,159.2l-.348.8a3.387,3.387,0,0,0-1.355-.263c-.864,0-1.295.335-1.295,1.031v1.235h2.134l-.12.852H19.974v4.989h-1.1v-4.989H17.383v-.852H18.87v-1.223c0-1.175.984-1.931,2.339-1.931A4.31,4.31,0,0,1,22.972,159.2Z"/><path d="M25.65,165.068c.1,1.4.852,2.028,1.811,2.028a2.526,2.526,0,0,0,1.68-.588l.5.731a3.606,3.606,0,0,1-2.206.756c-1.883,0-2.94-1.331-2.94-3.3,0-1.907,1.08-3.31,2.76-3.31,1.654,0,2.65,1.187,2.65,3.118,0,.216-.012.42-.024.563Zm0-.815h3.19c-.024-1.307-.6-1.991-1.582-1.991C26.394,162.262,25.734,162.9,25.65,164.253Z"/><path d="M36.748,167.659a3.6,3.6,0,0,1-1.535.336,1.746,1.746,0,0,1-1.92-1.847v-6.309H31.362v-.851H34.4v7.256c0,.611.42.839,1.02.839a2.953,2.953,0,0,0,1.044-.215Z"/><path d="M7.4,180.02c0,1.787-1.2,3.178-3.826,3.9l-.275-.852c2.051-.659,2.963-1.451,2.963-3.094v-5.085H3.318v-.9H7.4Z"/><path d="M11.25,179.469c.1,1.4.852,2.027,1.811,2.027a2.522,2.522,0,0,0,1.679-.588l.5.731a3.607,3.607,0,0,1-2.207.756c-1.883,0-2.938-1.332-2.938-3.3,0-1.907,1.079-3.31,2.758-3.31,1.655,0,2.651,1.187,2.651,3.118,0,.216-.012.42-.024.564Zm0-.816h3.19c-.024-1.307-.6-1.991-1.583-1.991C11.994,176.662,11.334,177.3,11.25,178.653Z"/><path d="M22.779,181.927a3.379,3.379,0,0,1-1.738.468,1.913,1.913,0,0,1-2.159-1.955v-3.67H17.443v-.839h1.439V174.5l1.1-.132v1.56h2.171l-.132.839H19.985v3.658c0,.708.336,1.055,1.175,1.055a2.34,2.34,0,0,0,1.2-.312Z"/><path d="M26.13,181.328h3.477l-.13.923h-4.69v-.828l3.465-4.557h-3.19v-.935h4.51v.839Z"/><path d="M37.18,181.927a3.389,3.389,0,0,1-1.74.468,1.913,1.913,0,0,1-2.159-1.955v-3.67H31.842v-.839h1.439V174.5l1.1-.132v1.56h2.171l-.132.839H34.385v3.658c0,.708.336,1.055,1.176,1.055a2.344,2.344,0,0,0,1.2-.312Z"/><path d="M48.568,182.4a3.061,3.061,0,0,1-2.446-1.067l.743-.624a2.06,2.06,0,0,0,1.692.792,1.683,1.683,0,0,0,1.714-1.9c0-1.272-.646-1.727-1.51-1.727a2.74,2.74,0,0,0-1.152.275h-.863v-4.162H51.1l-.132.876H47.8V177.3a2.908,2.908,0,0,1,1.283-.288,2.339,2.339,0,0,1,2.34,2.6A2.723,2.723,0,0,1,48.568,182.4Z"/><path d="M53.263,178.113c0-2.734.934-4.269,2.734-4.269s2.734,1.535,2.734,4.269S57.8,182.4,56,182.4,53.263,180.86,53.263,178.113Zm4.329,0c0-2.41-.588-3.394-1.595-3.394s-1.595.984-1.595,3.394S55,181.52,56,181.52,57.592,180.536,57.592,178.113ZM56,177.333a.786.786,0,1,1-.78.78A.774.774,0,0,1,56,177.333Z"/><path d="M68.922,177.49a1.825,1.825,0,1,1,1.75-1.823A1.7,1.7,0,0,1,68.922,177.49Zm-1.02,5.1-.672-.42,5.553-8.407.684.419Zm1.02-5.781c.671,0,.791-.552.791-1.139,0-.564-.12-1.14-.791-1.14s-.84.552-.84,1.152C68.082,176.23,68.25,176.806,68.922,176.806Zm2.949,5.589a1.825,1.825,0,1,1,1.739-1.823A1.7,1.7,0,0,1,71.871,182.4Zm0-.672c.672,0,.828-.563.828-1.151,0-.564-.156-1.128-.828-1.128s-.827.552-.827,1.128S71.2,181.723,71.871,181.723Z"/><path class="cls-1" d="M100.648,31.1l.528.828-4.2,2.566,4.2,2.579-.575.8-4.57-2.854V33.958Z"/><path class="cls-2" d="M103.363,38.251V29.4l1.1-.12v3.454a2.657,2.657,0,0,1,2-.947c1.223,0,1.775.7,1.775,1.871v4.593h-1.1V33.729c0-.755-.325-1.079-1.043-1.079a2.166,2.166,0,0,0-1.632,1.019v4.582Z"/><path class="cls-2" d="M115.779,37.927a3.379,3.379,0,0,1-1.738.468,1.913,1.913,0,0,1-2.159-1.955V32.77h-1.439v-.839h1.439V30.5l1.1-.132v1.56h2.171l-.132.839h-2.039v3.658c0,.708.336,1.055,1.175,1.055a2.34,2.34,0,0,0,1.2-.312Z"/><path class="cls-2" d="M118.182,38.251h-1.007v-6.32h.851l.072.719a1.653,1.653,0,0,1,1.367-.863,1.037,1.037,0,0,1,1.128.827,1.642,1.642,0,0,1,1.391-.827c.635,0,1.236.323,1.236,1.763v4.7h-1.008V33.717c0-.755-.012-1.067-.468-1.067a1.293,1.293,0,0,0-1.055.72v4.881h-.984V33.717c0-.755-.023-1.067-.479-1.067a1.276,1.276,0,0,0-1.044.72Z"/><path class="cls-2" d="M129.748,38.059a3.6,3.6,0,0,1-1.535.336,1.747,1.747,0,0,1-1.92-1.847V30.239h-1.931v-.851H127.4v7.256c0,.611.42.839,1.02.839a2.975,2.975,0,0,0,1.044-.215Z"/><path class="cls-1" d="M137.176,33.958v1.067L132.6,37.879l-.575-.8,4.2-2.579-4.2-2.566.529-.828Z"/><path class="cls-1" d="M115.049,45.5l.527.828-4.2,2.566,4.2,2.579-.576.8-4.569-2.854V48.357Z"/><path class="cls-2" d="M118.865,47.134a2.212,2.212,0,0,1,1.787-.947c1.68,0,2.364,1.307,2.364,3.3,0,1.919-.875,3.311-2.507,3.311a2.023,2.023,0,0,1-1.7-.792l-.072.648h-.971V43.788l1.1-.132Zm2.963,2.35c0-1.643-.5-2.422-1.439-2.422a1.926,1.926,0,0,0-1.524.983v3.083a1.647,1.647,0,0,0,1.38.791C121.252,51.919,121.828,51.14,121.828,49.484Z"/><path class="cls-2" d="M127.408,46.187c1.8,0,2.747,1.3,2.747,3.3,0,1.955-.971,3.311-2.759,3.311s-2.757-1.3-2.757-3.3C124.639,47.542,125.609,46.187,127.408,46.187Zm0,.887c-1.054,0-1.595.767-1.595,2.423s.529,2.41,1.583,2.41,1.584-.767,1.584-2.423S128.452,47.074,127.408,47.074Z"/><path class="cls-2" d="M135.928,46.918V43.656l1.1.132v8.863h-.97l-.1-.816a2.117,2.117,0,0,1-1.787.96c-1.644,0-2.4-1.332-2.4-3.3,0-1.907.923-3.31,2.483-3.31A2.09,2.09,0,0,1,135.928,46.918ZM132.966,49.5c0,1.631.515,2.422,1.464,2.422a1.844,1.844,0,0,0,1.5-.971V47.841a1.65,1.65,0,0,0-1.379-.779C133.541,47.062,132.966,47.854,132.966,49.5Z"/><path class="cls-2" d="M142.492,52.687a3.217,3.217,0,0,1-2.9,2.519l-.156-.864a2.159,2.159,0,0,0,2.015-1.691h-.372l-2.182-6.32h1.175l1.727,5.432h.048l1.715-5.432H144.7Z"/><path class="cls-1" d="M151.576,48.357v1.068l-4.57,2.854-.576-.8,4.2-2.579-4.2-2.566.528-.828Z"/><path class="cls-1" d="M129.447,59.9l.529.827-4.2,2.567,4.2,2.578-.576.8-4.57-2.854V62.757Z"/><path class="cls-2" d="M135.928,61.318V58.056l1.1.132v8.863h-.97l-.1-.816a2.117,2.117,0,0,1-1.787.96c-1.644,0-2.4-1.332-2.4-3.3,0-1.906.923-3.31,2.483-3.31A2.09,2.09,0,0,1,135.928,61.318ZM132.966,63.9c0,1.632.515,2.423,1.464,2.423a1.844,1.844,0,0,0,1.5-.971V62.241a1.65,1.65,0,0,0-1.379-.779C133.541,61.462,132.966,62.253,132.966,63.9Z"/><path class="cls-2" d="M142.637,66.2H144.4v.852h-4.8V66.2h1.931V61.582h-1.871V60.73h2.975Zm-.553-6.968a.75.75,0,1,1,.78-.755A.743.743,0,0,1,142.084,59.231Z"/><path class="cls-2" d="M149.633,67.051H148.35l-2.268-6.321h1.176l1.739,5.3h.036l1.738-5.3h1.14Z"/><path class="cls-2" d="M165.447,65.72l.528.755a3.568,3.568,0,0,1-2.159.72c-1.907,0-3-1.3-3-3.275,0-1.906,1.1-3.334,3.01-3.334a3.262,3.262,0,0,1,2.147.708l-.539.744a2.621,2.621,0,0,0-1.608-.54c-1.067,0-1.823.779-1.823,2.422s.767,2.339,1.823,2.339A2.7,2.7,0,0,0,165.447,65.72Z"/><path class="cls-2" d="M172.947,66.859a3.6,3.6,0,0,1-1.535.336,1.746,1.746,0,0,1-1.919-1.847V59.039h-1.931v-.851H170.6v7.256c0,.611.419.839,1.019.839a2.949,2.949,0,0,0,1.043-.216Z"/><path class="cls-2" d="M179.979,65.624c0,.5.156.7.5.8l-.263.768a1.318,1.318,0,0,1-1.2-.888,2.457,2.457,0,0,1-1.991.888,1.9,1.9,0,0,1-2.088-1.955c0-1.307,1.092-2.039,3.011-2.039h.923v-.492c0-.887-.551-1.223-1.475-1.223a5.218,5.218,0,0,0-1.654.324l-.289-.816a6.107,6.107,0,0,1,2.111-.408c1.608,0,2.411.78,2.411,2.063Zm-1.1-.132V63.933h-.863c-1.356,0-1.859.491-1.859,1.259a1.037,1.037,0,0,0,1.175,1.175A1.871,1.871,0,0,0,178.875,65.492Z"/><path class="cls-2" d="M186.208,65.348c0-.612-.2-.84-1.511-1.176-1.248-.323-2.088-.731-2.088-1.835,0-1.067.972-1.751,2.448-1.751a3.7,3.7,0,0,1,2.194.672L186.76,62a2.763,2.763,0,0,0-1.68-.539c-.982,0-1.331.3-1.331.8,0,.527.384.719,1.619,1.067,1.212.335,2.027.708,2.027,1.931,0,1.379-1.319,1.931-2.7,1.931a3.834,3.834,0,0,1-2.567-.864l.612-.7a3.132,3.132,0,0,0,1.955.671C185.633,66.307,186.208,65.936,186.208,65.348Z"/><path class="cls-2" d="M193.408,65.348c0-.612-.2-.84-1.512-1.176-1.248-.323-2.086-.731-2.086-1.835,0-1.067.971-1.751,2.446-1.751a3.7,3.7,0,0,1,2.195.672l-.492.743a2.76,2.76,0,0,0-1.679-.539c-.983,0-1.331.3-1.331.8,0,.527.383.719,1.619,1.067,1.211.335,2.027.708,2.027,1.931,0,1.379-1.32,1.931-2.7,1.931a3.829,3.829,0,0,1-2.566-.864l.611-.7a3.136,3.136,0,0,0,1.955.671C192.832,66.307,193.408,65.936,193.408,65.348Z"/><path class="cls-2" d="M197.021,62.637V61.7h4.75v.935Zm0,2.3V64h4.75v.936Z"/><path class="cls-3" d="M205.109,61.33l-.192-3.142h1.319l-.191,3.142Zm2.039,0-.192-3.142h1.319l-.192,3.142Z"/><path class="cls-3" d="M216.578,66.727a3.379,3.379,0,0,1-1.738.468,1.913,1.913,0,0,1-2.16-1.955V61.57h-1.439v-.84h1.439V59.3l1.1-.132V60.73h2.172l-.133.84h-2.039v3.658c0,.708.336,1.055,1.176,1.055a2.339,2.339,0,0,0,1.2-.312Z"/><path class="cls-3" d="M219.448,64.269c.1,1.4.852,2.026,1.812,2.026a2.527,2.527,0,0,0,1.678-.587l.5.731a3.607,3.607,0,0,1-2.207.756c-1.882,0-2.938-1.332-2.938-3.3,0-1.906,1.08-3.31,2.759-3.31,1.655,0,2.65,1.187,2.65,3.119,0,.215-.013.42-.024.564Zm0-.816h3.191c-.024-1.307-.6-1.991-1.583-1.991C220.191,61.462,219.532,62.1,219.448,63.453Z"/><path class="cls-3" d="M230.379,65.624c0,.5.155.7.5.8l-.265.768a1.32,1.32,0,0,1-1.2-.888,2.458,2.458,0,0,1-1.991.888,1.9,1.9,0,0,1-2.086-1.955c0-1.307,1.091-2.039,3.01-2.039h.923v-.492c0-.887-.551-1.223-1.475-1.223a5.228,5.228,0,0,0-1.655.324l-.288-.816a6.1,6.1,0,0,1,2.111-.408c1.606,0,2.411.78,2.411,2.063Zm-1.1-.132V63.933h-.863c-1.355,0-1.859.491-1.859,1.259a1.038,1.038,0,0,0,1.176,1.175A1.872,1.872,0,0,0,229.275,65.492Z"/><path class="cls-3" d="M236.607,65.348c0-.612-.205-.84-1.511-1.176-1.248-.323-2.087-.731-2.087-1.835,0-1.067.971-1.751,2.446-1.751a3.7,3.7,0,0,1,2.195.672l-.492.743a2.76,2.76,0,0,0-1.679-.539c-.983,0-1.331.3-1.331.8,0,.527.383.719,1.62,1.067,1.211.335,2.026.708,2.026,1.931,0,1.379-1.319,1.931-2.7,1.931a3.832,3.832,0,0,1-2.567-.864l.612-.7a3.134,3.134,0,0,0,1.955.671C236.031,66.307,236.607,65.936,236.607,65.348Z"/><path class="cls-3" d="M241.048,64.269c.1,1.4.851,2.026,1.811,2.026a2.528,2.528,0,0,0,1.679-.587l.5.731a3.609,3.609,0,0,1-2.207.756c-1.883,0-2.939-1.332-2.939-3.3,0-1.906,1.081-3.31,2.759-3.31,1.656,0,2.651,1.187,2.651,3.119,0,.215-.013.42-.025.564Zm0-.816h3.19c-.023-1.307-.6-1.991-1.583-1.991C241.791,61.462,241.132,62.1,241.048,63.453Z"/><path class="cls-3" d="M251.618,67.051H247.3V66.2h1.451V61.582H247.3V60.73h2.41l.133,1.211a1.965,1.965,0,0,1,1.8-1.355,3.664,3.664,0,0,1,.838.1l-.2,1.091a2.655,2.655,0,0,0-.767-.107c-.792,0-1.44.8-1.656,1.679V66.2h1.763Z"/><path class="cls-3" d="M255.508,61.33l-.192-3.142h1.32l-.193,3.142Zm2.039,0-.192-3.142h1.32l-.193,3.142Z"/><path class="cls-1" d="M266.773,62.757v1.068L262.2,66.679l-.576-.8,4.2-2.578-4.2-2.567.528-.827Z"/><path class="cls-1" d="M143.848,74.3l.527.828-4.2,2.566,4.2,2.579-.575.8-4.57-2.855V77.158Z"/><path class="cls-2" d="M149.836,80.6H151.6v.851h-4.8V80.6h1.929V75.982h-1.87v-.851h2.974Zm-.551-6.969a.75.75,0,1,1,0-1.5.75.75,0,1,1,0,1.5Z"/><path class="cls-2" d="M154.182,81.451h-1.008v-6.32h.851l.073.719a1.652,1.652,0,0,1,1.367-.863,1.037,1.037,0,0,1,1.127.827,1.642,1.642,0,0,1,1.392-.827c.635,0,1.235.324,1.235,1.763v4.7h-1.008V76.917c0-.755-.012-1.067-.467-1.067a1.293,1.293,0,0,0-1.056.72v4.881h-.983V76.917c0-.755-.023-1.067-.48-1.067a1.276,1.276,0,0,0-1.043.72Z"/><path class="cls-2" d="M161.489,81.751a1.208,1.208,0,0,0-.108.492c0,.564.541.9,1.8.9,1.4,0,1.823-.432,1.823-.971s-.348-.8-1.512-.852c-1.583-.06-2.446-.407-2.446-1.283a1.307,1.307,0,0,1,.636-1.067,1.978,1.978,0,0,1-1.008-1.763,2.277,2.277,0,0,1,2.518-2.219,6.6,6.6,0,0,0,2.9-.564l.324,1a5.932,5.932,0,0,1-1.775.192v.036a1.685,1.685,0,0,1,1.007,1.571,2.183,2.183,0,0,1-2.434,2.136,3.5,3.5,0,0,1-.876-.109.727.727,0,0,0-.264.492c0,.384.239.576,1.56.612,1.594.048,2.482.611,2.482,1.763,0,1.319-1.319,1.895-2.938,1.895-1.992,0-2.783-.648-2.783-1.559a1.618,1.618,0,0,1,.24-.924Zm1.7-3.13a1.3,1.3,0,0,0,1.368-1.428,1.259,1.259,0,0,0-1.368-1.415,1.422,1.422,0,0,0,0,2.843Z"/><path class="cls-2" d="M179.008,79.748c0-.612-.2-.839-1.512-1.175-1.247-.324-2.086-.732-2.086-1.835,0-1.068.971-1.751,2.446-1.751a3.7,3.7,0,0,1,2.195.671l-.492.744a2.751,2.751,0,0,0-1.678-.54c-.985,0-1.332.3-1.332.8,0,.527.384.719,1.619,1.067,1.211.336,2.027.708,2.027,1.931,0,1.379-1.32,1.931-2.7,1.931a3.831,3.831,0,0,1-2.566-.864l.611-.695a3.131,3.131,0,0,0,1.955.672C178.432,80.708,179.008,80.336,179.008,79.748Z"/><path class="cls-2" d="M186.819,81.451H182.5V80.6h1.451V75.982H182.5v-.851h2.41l.133,1.211a1.966,1.966,0,0,1,1.8-1.355,3.692,3.692,0,0,1,.84.1l-.2,1.091a2.618,2.618,0,0,0-.768-.108c-.791,0-1.439.8-1.654,1.679V80.6h1.762Z"/><path class="cls-2" d="M194.247,80.12l.528.755a3.565,3.565,0,0,1-2.16.72c-1.906,0-3-1.3-3-3.274,0-1.907,1.1-3.334,3.011-3.334a3.267,3.267,0,0,1,2.147.707l-.541.744a2.613,2.613,0,0,0-1.606-.54c-1.067,0-1.823.78-1.823,2.423s.767,2.339,1.823,2.339A2.7,2.7,0,0,0,194.247,80.12Z"/><path class="cls-2" d="M197.021,77.038V76.1h4.75v.936Zm0,2.3v-.935h4.75v.935Z"/><path class="cls-3" d="M205.109,75.73l-.192-3.142h1.319l-.191,3.142Zm2.039,0-.192-3.142h1.319l-.192,3.142Z"/><path class="cls-3" d="M212.309,75.73l-.192-3.142h1.319l-.192,3.142Zm2.039,0-.192-3.142h1.319l-.192,3.142Z"/><path class="cls-1" d="M218.885,82.7,218,82.3l5.121-10.567.876.42Z"/><path class="cls-1" d="M230.774,77.158v1.067l-4.569,2.855-.576-.8,4.2-2.579-4.2-2.566.527-.828Z"/><path class="cls-1" d="M143.848,88.7l.527.828-4.2,2.566,4.2,2.579-.575.8-4.57-2.854V91.558Z"/><path class="cls-2" d="M146.562,95.851V87l1.1-.12v3.454a2.657,2.657,0,0,1,2-.947c1.225,0,1.775.695,1.775,1.871v4.593h-1.1V91.33c0-.756-.323-1.08-1.043-1.08a2.163,2.163,0,0,0-1.631,1.02v4.581Z"/><path class="cls-2" d="M156.16,88.8,154.182,90l-.528-.768,2.639-1.643h.971v7.376h1.691v.888h-4.821v-.888h2.026Z"/><path class="cls-1" d="M165.975,91.558v1.067l-4.57,2.854-.575-.8,4.2-2.579-4.2-2.566.527-.828Z"/><path class="cls-1" d="M172.647,88.7l.529.828-4.2,2.566,4.2,2.579-.576.8-4.571-2.854V91.558Z"/><path class="cls-1" d="M175.686,97.1l-.888-.4,5.121-10.567.876.42Z"/><path class="cls-2" d="M182.562,95.851V87l1.1-.12v3.454a2.657,2.657,0,0,1,2-.947c1.224,0,1.775.695,1.775,1.871v4.593h-1.1V91.33c0-.756-.324-1.08-1.043-1.08a2.165,2.165,0,0,0-1.632,1.02v4.581Z"/><path class="cls-2" d="M192.16,88.8,190.182,90l-.529-.768,2.639-1.643h.972v7.376h1.691v.888h-4.822v-.888h2.027Z"/><path class="cls-1" d="M201.975,91.558v1.067L197.4,95.479l-.575-.8,4.2-2.579-4.2-2.566.528-.828Z"/><path class="cls-1" d="M143.848,103.1l.527.828-4.2,2.566,4.2,2.579-.575.8-4.57-2.854v-1.067Z"/><path class="cls-2" d="M146.562,112.806v-8.875h.948l.084.863a2.291,2.291,0,0,1,1.871-1.007c1.679,0,2.291,1.307,2.291,3.3,0,1.919-.805,3.31-2.436,3.31a2.037,2.037,0,0,1-1.654-.72v3Zm4.018-5.721c0-1.644-.443-2.423-1.391-2.423a1.925,1.925,0,0,0-1.523.984v3.082a1.625,1.625,0,0,0,1.391.768C150.064,109.5,150.58,108.74,150.58,107.085Z"/><path class="cls-1" d="M158.775,105.958v1.067l-4.57,2.854-.575-.8,4.2-2.579-4.2-2.566.528-.828Z"/><path class="cls-1" d="M165.447,103.1l.528.828-4.2,2.566,4.2,2.579-.576.8-4.569-2.854v-1.067Z"/><path class="cls-1" d="M168.486,111.5l-.888-.4,5.121-10.567.876.42Z"/><path class="cls-2" d="M175.361,112.806v-8.875h.948l.084.863a2.292,2.292,0,0,1,1.871-1.007c1.679,0,2.291,1.307,2.291,3.3,0,1.919-.8,3.31-2.435,3.31a2.04,2.04,0,0,1-1.655-.72v3Zm4.018-5.721c0-1.644-.443-2.423-1.391-2.423a1.923,1.923,0,0,0-1.523.984v3.082a1.628,1.628,0,0,0,1.391.768C178.863,109.5,179.379,108.74,179.379,107.085Z"/><path class="cls-1" d="M187.575,105.958v1.067l-4.569,2.854-.576-.8,4.2-2.579-4.2-2.566.527-.828Z"/><path class="cls-1" d="M129.447,117.5l.529.828-4.2,2.566,4.2,2.579-.576.8-4.57-2.854v-1.068Z"/><path class="cls-1" d="M132.486,125.9l-.887-.4,5.121-10.566.876.42Z"/><path class="cls-2" d="M143.128,118.918v-3.262l1.1.132v8.863h-.971l-.1-.816a2.117,2.117,0,0,1-1.787.96c-1.643,0-2.4-1.332-2.4-3.3,0-1.907.923-3.31,2.482-3.31A2.093,2.093,0,0,1,143.128,118.918Zm-2.962,2.579c0,1.631.516,2.422,1.463,2.422a1.844,1.844,0,0,0,1.5-.971v-3.107a1.651,1.651,0,0,0-1.379-.779C140.741,119.062,140.166,119.854,140.166,121.5Z"/><path class="cls-2" d="M149.836,123.8H151.6v.852h-4.8V123.8h1.929v-4.617h-1.87v-.851h2.974Zm-.551-6.968a.75.75,0,1,1,0-1.5.75.75,0,1,1,0,1.5Z"/><path class="cls-2" d="M156.832,124.651h-1.283l-2.267-6.32h1.175l1.74,5.3h.035l1.74-5.3h1.139Z"/><path class="cls-1" d="M165.975,120.357v1.068l-4.57,2.854-.575-.8,4.2-2.579-4.2-2.566.527-.828Z"/><path class="cls-1" d="M129.447,131.9l.529.827-4.2,2.567,4.2,2.578-.576.8-4.57-2.854v-1.068Z"/><path class="cls-2" d="M135.928,133.318v-3.262l1.1.132v8.863h-.97l-.1-.816a2.117,2.117,0,0,1-1.787.96c-1.644,0-2.4-1.332-2.4-3.3,0-1.906.923-3.31,2.483-3.31A2.09,2.09,0,0,1,135.928,133.318Zm-2.962,2.578c0,1.632.515,2.423,1.464,2.423a1.844,1.844,0,0,0,1.5-.971v-3.107a1.65,1.65,0,0,0-1.379-.779C133.541,133.462,132.966,134.253,132.966,135.9Z"/><path class="cls-2" d="M142.637,138.2H144.4v.852h-4.8V138.2h1.931v-4.617h-1.871v-.852h2.975Zm-.553-6.968a.75.75,0,1,1,.78-.755A.743.743,0,0,1,142.084,131.231Z"/><path class="cls-2" d="M149.633,139.051H148.35l-2.268-6.321h1.176l1.739,5.3h.036l1.738-5.3h1.14Z"/><path class="cls-2" d="M165.447,137.72l.528.755a3.568,3.568,0,0,1-2.159.72c-1.907,0-3-1.3-3-3.275,0-1.906,1.1-3.334,3.01-3.334a3.262,3.262,0,0,1,2.147.708l-.539.744a2.621,2.621,0,0,0-1.608-.54c-1.067,0-1.823.779-1.823,2.422s.767,2.339,1.823,2.339A2.7,2.7,0,0,0,165.447,137.72Z"/><path class="cls-2" d="M172.947,138.859a3.6,3.6,0,0,1-1.535.336,1.746,1.746,0,0,1-1.919-1.847v-6.309h-1.931v-.851H170.6v7.256c0,.611.419.839,1.019.839a2.949,2.949,0,0,0,1.043-.216Z"/><path class="cls-2" d="M179.979,137.624c0,.5.156.695.5.8l-.263.768a1.318,1.318,0,0,1-1.2-.888,2.457,2.457,0,0,1-1.991.888,1.9,1.9,0,0,1-2.088-1.955c0-1.307,1.092-2.039,3.011-2.039h.923v-.492c0-.887-.551-1.223-1.475-1.223a5.218,5.218,0,0,0-1.654.324l-.289-.816a6.107,6.107,0,0,1,2.111-.408c1.608,0,2.411.78,2.411,2.063Zm-1.1-.132v-1.559h-.863c-1.356,0-1.859.491-1.859,1.259a1.037,1.037,0,0,0,1.175,1.175A1.871,1.871,0,0,0,178.875,137.492Z"/><path class="cls-2" d="M186.208,137.348c0-.612-.2-.84-1.511-1.176-1.248-.323-2.088-.731-2.088-1.835,0-1.067.972-1.751,2.448-1.751a3.7,3.7,0,0,1,2.194.672l-.491.743a2.763,2.763,0,0,0-1.68-.539c-.982,0-1.331.3-1.331.8,0,.527.384.719,1.619,1.067,1.212.335,2.027.708,2.027,1.931,0,1.379-1.319,1.931-2.7,1.931a3.834,3.834,0,0,1-2.567-.864l.612-.695a3.132,3.132,0,0,0,1.955.671C185.633,138.307,186.208,137.936,186.208,137.348Z"/><path class="cls-2" d="M193.408,137.348c0-.612-.2-.84-1.512-1.176-1.248-.323-2.086-.731-2.086-1.835,0-1.067.971-1.751,2.446-1.751a3.7,3.7,0,0,1,2.195.672l-.492.743a2.76,2.76,0,0,0-1.679-.539c-.983,0-1.331.3-1.331.8,0,.527.383.719,1.619,1.067,1.211.335,2.027.708,2.027,1.931,0,1.379-1.32,1.931-2.7,1.931a3.829,3.829,0,0,1-2.566-.864l.611-.695a3.136,3.136,0,0,0,1.955.671C192.832,138.307,193.408,137.936,193.408,137.348Z"/><path class="cls-2" d="M197.021,134.637V133.7h4.75v.935Zm0,2.3V136h4.75v.936Z"/><path class="cls-3" d="M205.109,133.33l-.192-3.142h1.319l-.191,3.142Zm2.039,0-.192-3.142h1.319l-.192,3.142Z"/><path class="cls-3" d="M216.578,138.727a3.379,3.379,0,0,1-1.738.468,1.913,1.913,0,0,1-2.16-1.955v-3.67h-1.439v-.84h1.439V131.3l1.1-.132v1.559h2.172l-.133.84h-2.039v3.658c0,.708.336,1.055,1.176,1.055a2.339,2.339,0,0,0,1.2-.312Z"/><path class="cls-3" d="M219.448,136.269c.1,1.4.852,2.026,1.812,2.026a2.527,2.527,0,0,0,1.678-.587l.5.731a3.607,3.607,0,0,1-2.207.756c-1.882,0-2.938-1.332-2.938-3.3,0-1.906,1.08-3.31,2.759-3.31,1.655,0,2.65,1.187,2.65,3.119,0,.215-.013.42-.024.564Zm0-.816h3.191c-.024-1.307-.6-1.991-1.583-1.991C220.191,133.462,219.532,134.1,219.448,135.453Z"/><path class="cls-3" d="M230.379,137.624c0,.5.155.695.5.8l-.265.768a1.32,1.32,0,0,1-1.2-.888,2.458,2.458,0,0,1-1.991.888,1.9,1.9,0,0,1-2.086-1.955c0-1.307,1.091-2.039,3.01-2.039h.923v-.492c0-.887-.551-1.223-1.475-1.223a5.228,5.228,0,0,0-1.655.324l-.288-.816a6.1,6.1,0,0,1,2.111-.408c1.606,0,2.411.78,2.411,2.063Zm-1.1-.132v-1.559h-.863c-1.355,0-1.859.491-1.859,1.259a1.038,1.038,0,0,0,1.176,1.175A1.872,1.872,0,0,0,229.275,137.492Z"/><path class="cls-3" d="M236.607,137.348c0-.612-.205-.84-1.511-1.176-1.248-.323-2.087-.731-2.087-1.835,0-1.067.971-1.751,2.446-1.751a3.7,3.7,0,0,1,2.195.672l-.492.743a2.76,2.76,0,0,0-1.679-.539c-.983,0-1.331.3-1.331.8,0,.527.383.719,1.62,1.067,1.211.335,2.026.708,2.026,1.931,0,1.379-1.319,1.931-2.7,1.931a3.832,3.832,0,0,1-2.567-.864l.612-.695a3.134,3.134,0,0,0,1.955.671C236.031,138.307,236.607,137.936,236.607,137.348Z"/><path class="cls-3" d="M241.048,136.269c.1,1.4.851,2.026,1.811,2.026a2.528,2.528,0,0,0,1.679-.587l.5.731a3.609,3.609,0,0,1-2.207.756c-1.883,0-2.939-1.332-2.939-3.3,0-1.906,1.081-3.31,2.759-3.31,1.656,0,2.651,1.187,2.651,3.119,0,.215-.013.42-.025.564Zm0-.816h3.19c-.023-1.307-.6-1.991-1.583-1.991C241.791,133.462,241.132,134.1,241.048,135.453Z"/><path class="cls-3" d="M251.618,139.051H247.3V138.2h1.451v-4.617H247.3v-.852h2.41l.133,1.211a1.965,1.965,0,0,1,1.8-1.355,3.664,3.664,0,0,1,.838.1l-.2,1.091a2.655,2.655,0,0,0-.767-.107c-.792,0-1.44.8-1.656,1.679V138.2h1.763Z"/><path class="cls-3" d="M255.508,133.33l-.192-3.142h1.32l-.193,3.142Zm2.039,0-.192-3.142h1.32l-.193,3.142Z"/><path class="cls-1" d="M266.773,134.757v1.068l-4.569,2.854-.576-.8,4.2-2.578-4.2-2.567.528-.827Z"/><path class="cls-1" d="M143.848,146.3l.527.828-4.2,2.566,4.2,2.579-.575.8-4.57-2.855v-1.067Z"/><path class="cls-2" d="M149.836,152.6H151.6v.851h-4.8V152.6h1.929v-4.618h-1.87v-.851h2.974Zm-.551-6.969a.75.75,0,1,1,0-1.5.75.75,0,1,1,0,1.5Z"/><path class="cls-2" d="M154.182,153.451h-1.008v-6.32h.851l.073.719a1.652,1.652,0,0,1,1.367-.863,1.037,1.037,0,0,1,1.127.827,1.642,1.642,0,0,1,1.392-.827c.635,0,1.235.324,1.235,1.763v4.7h-1.008v-4.534c0-.755-.012-1.067-.467-1.067a1.293,1.293,0,0,0-1.056.72v4.881h-.983v-4.534c0-.755-.023-1.067-.48-1.067a1.276,1.276,0,0,0-1.043.72Z"/><path class="cls-2" d="M161.489,153.751a1.208,1.208,0,0,0-.108.492c0,.564.541.9,1.8.9,1.4,0,1.823-.432,1.823-.971s-.348-.8-1.512-.852c-1.583-.06-2.446-.407-2.446-1.283a1.307,1.307,0,0,1,.636-1.067,1.978,1.978,0,0,1-1.008-1.763,2.277,2.277,0,0,1,2.518-2.219,6.6,6.6,0,0,0,2.9-.564l.324,1a5.932,5.932,0,0,1-1.775.192v.036a1.685,1.685,0,0,1,1.007,1.571,2.183,2.183,0,0,1-2.434,2.136,3.5,3.5,0,0,1-.876-.109.727.727,0,0,0-.264.492c0,.384.239.576,1.56.612,1.594.048,2.482.611,2.482,1.763,0,1.319-1.319,1.9-2.938,1.9-1.992,0-2.783-.648-2.783-1.559a1.618,1.618,0,0,1,.24-.924Zm1.7-3.13a1.3,1.3,0,0,0,1.368-1.428,1.259,1.259,0,0,0-1.368-1.415,1.422,1.422,0,0,0,0,2.843Z"/><path class="cls-2" d="M179.008,151.748c0-.612-.2-.839-1.512-1.175-1.247-.324-2.086-.732-2.086-1.835,0-1.068.971-1.751,2.446-1.751a3.7,3.7,0,0,1,2.195.671l-.492.744a2.751,2.751,0,0,0-1.678-.54c-.985,0-1.332.3-1.332.8,0,.527.384.719,1.619,1.067,1.211.336,2.027.708,2.027,1.931,0,1.379-1.32,1.931-2.7,1.931a3.831,3.831,0,0,1-2.566-.864l.611-.695a3.131,3.131,0,0,0,1.955.672C178.432,152.708,179.008,152.336,179.008,151.748Z"/><path class="cls-2" d="M186.819,153.451H182.5V152.6h1.451v-4.618H182.5v-.851h2.41l.133,1.211a1.966,1.966,0,0,1,1.8-1.355,3.692,3.692,0,0,1,.84.1l-.2,1.091a2.618,2.618,0,0,0-.768-.108c-.791,0-1.439.8-1.654,1.679V152.6h1.762Z"/><path class="cls-2" d="M194.247,152.12l.528.755a3.565,3.565,0,0,1-2.16.72c-1.906,0-3-1.295-3-3.274,0-1.907,1.1-3.334,3.011-3.334a3.267,3.267,0,0,1,2.147.707l-.541.744a2.613,2.613,0,0,0-1.606-.54c-1.067,0-1.823.78-1.823,2.423s.767,2.339,1.823,2.339A2.7,2.7,0,0,0,194.247,152.12Z"/><path class="cls-2" d="M197.021,149.038V148.1h4.75v.936Zm0,2.3v-.935h4.75v.935Z"/><path class="cls-3" d="M205.109,147.73l-.192-3.142h1.319l-.191,3.142Zm2.039,0-.192-3.142h1.319l-.192,3.142Z"/><path class="cls-3" d="M212.309,147.73l-.192-3.142h1.319l-.192,3.142Zm2.039,0-.192-3.142h1.319l-.192,3.142Z"/><path class="cls-1" d="M218.885,154.7l-.888-.4,5.121-10.567.876.42Z"/><path class="cls-1" d="M230.774,149.158v1.067l-4.569,2.855-.576-.8,4.2-2.579-4.2-2.566.527-.828Z"/><path class="cls-1" d="M143.848,160.7l.527.828-4.2,2.566,4.2,2.579-.575.8-4.57-2.854v-1.067Z"/><path class="cls-2" d="M146.562,167.851V159l1.1-.12v3.454a2.657,2.657,0,0,1,2-.947c1.225,0,1.775.695,1.775,1.871v4.593h-1.1V163.33c0-.756-.323-1.08-1.043-1.08a2.163,2.163,0,0,0-1.631,1.02v4.581Z"/><path class="cls-2" d="M156.16,160.8l-1.978,1.2-.528-.768,2.639-1.643h.971v7.376h1.691v.888h-4.821v-.888h2.026Z"/><path class="cls-1" d="M165.975,163.558v1.067l-4.57,2.854-.575-.8,4.2-2.579-4.2-2.566.527-.828Z"/><path class="cls-1" d="M172.647,160.7l.529.828-4.2,2.566,4.2,2.579-.576.8-4.571-2.854v-1.067Z"/><path class="cls-1" d="M175.686,169.1l-.888-.4,5.121-10.567.876.42Z"/><path class="cls-2" d="M182.562,167.851V159l1.1-.12v3.454a2.657,2.657,0,0,1,2-.947c1.224,0,1.775.695,1.775,1.871v4.593h-1.1V163.33c0-.756-.324-1.08-1.043-1.08a2.165,2.165,0,0,0-1.632,1.02v4.581Z"/><path class="cls-2" d="M192.16,160.8l-1.978,1.2-.529-.768,2.639-1.643h.972v7.376h1.691v.888h-4.822v-.888h2.027Z"/><path class="cls-1" d="M201.975,163.558v1.067l-4.571,2.854-.575-.8,4.2-2.579-4.2-2.566.528-.828Z"/><path class="cls-1" d="M143.848,175.1l.527.828-4.2,2.566,4.2,2.579-.575.8-4.57-2.854v-1.067Z"/><path class="cls-2" d="M146.562,184.806v-8.875h.948l.084.863a2.291,2.291,0,0,1,1.871-1.007c1.679,0,2.291,1.307,2.291,3.3,0,1.919-.805,3.31-2.436,3.31a2.037,2.037,0,0,1-1.654-.72v3Zm4.018-5.721c0-1.644-.443-2.423-1.391-2.423a1.925,1.925,0,0,0-1.523.984v3.082a1.625,1.625,0,0,0,1.391.768C150.064,181.5,150.58,180.74,150.58,179.085Z"/><path class="cls-1" d="M158.775,177.958v1.067l-4.57,2.854-.575-.8,4.2-2.579-4.2-2.566.528-.828Z"/><path class="cls-1" d="M165.447,175.1l.528.828-4.2,2.566,4.2,2.579-.576.8-4.569-2.854v-1.067Z"/><path class="cls-1" d="M168.486,183.5l-.888-.395,5.121-10.567.876.42Z"/><path class="cls-2" d="M175.361,184.806v-8.875h.948l.084.863a2.292,2.292,0,0,1,1.871-1.007c1.679,0,2.291,1.307,2.291,3.3,0,1.919-.8,3.31-2.435,3.31a2.04,2.04,0,0,1-1.655-.72v3Zm4.018-5.721c0-1.644-.443-2.423-1.391-2.423a1.923,1.923,0,0,0-1.523.984v3.082a1.628,1.628,0,0,0,1.391.768C178.863,181.5,179.379,180.74,179.379,179.085Z"/><path class="cls-1" d="M187.575,177.958v1.067l-4.569,2.854-.576-.8,4.2-2.579-4.2-2.566.527-.828Z"/><path class="cls-1" d="M129.447,189.5l.529.828-4.2,2.566,4.2,2.579-.576.8-4.57-2.854v-1.068Z"/><path class="cls-1" d="M132.486,197.9l-.887-.4,5.121-10.566.876.42Z"/><path class="cls-2" d="M143.128,190.918v-3.262l1.1.132v8.863h-.971l-.1-.816a2.117,2.117,0,0,1-1.787.96c-1.643,0-2.4-1.332-2.4-3.3,0-1.907.923-3.31,2.482-3.31A2.093,2.093,0,0,1,143.128,190.918Zm-2.962,2.579c0,1.631.516,2.422,1.463,2.422a1.844,1.844,0,0,0,1.5-.971v-3.107a1.651,1.651,0,0,0-1.379-.779C140.741,191.062,140.166,191.854,140.166,193.5Z"/><path class="cls-2" d="M149.836,195.8H151.6v.852h-4.8V195.8h1.929v-4.617h-1.87v-.851h2.974Zm-.551-6.968a.75.75,0,1,1,0-1.5.75.75,0,1,1,0,1.5Z"/><path class="cls-2" d="M156.832,196.651h-1.283l-2.267-6.32h1.175l1.74,5.3h.035l1.74-5.3h1.139Z"/><path class="cls-1" d="M165.975,192.357v1.068l-4.57,2.854-.575-.8,4.2-2.579-4.2-2.566.527-.828Z"/><path class="cls-1" d="M115.049,203.9l.527.827-4.2,2.567,4.2,2.578-.576.8-4.569-2.854v-1.068Z"/><path class="cls-1" d="M118.086,212.3l-.887-.4,5.121-10.566.875.42Z"/><path class="cls-2" d="M126.065,205.534a2.21,2.21,0,0,1,1.788-.948c1.678,0,2.362,1.308,2.362,3.3,0,1.919-.875,3.31-2.506,3.31a2.023,2.023,0,0,1-1.7-.792l-.072.648h-.971v-8.863l1.1-.132Zm2.962,2.351c0-1.644-.5-2.423-1.438-2.423a1.924,1.924,0,0,0-1.524.983v3.083a1.647,1.647,0,0,0,1.38.791C128.452,210.319,129.027,209.54,129.027,207.885Z"/><path class="cls-2" d="M134.609,204.586c1.8,0,2.746,1.3,2.746,3.3,0,1.954-.97,3.31-2.757,3.31s-2.76-1.3-2.76-3.3C131.838,205.941,132.811,204.586,134.609,204.586Zm0,.888c-1.055,0-1.595.767-1.595,2.422s.527,2.411,1.584,2.411,1.582-.767,1.582-2.422S135.652,205.474,134.609,205.474Z"/><path class="cls-2" d="M143.128,205.318v-3.262l1.1.132v8.863h-.971l-.1-.816a2.117,2.117,0,0,1-1.787.96c-1.643,0-2.4-1.332-2.4-3.3,0-1.906.923-3.31,2.482-3.31A2.094,2.094,0,0,1,143.128,205.318Zm-2.962,2.578c0,1.632.516,2.423,1.463,2.423a1.844,1.844,0,0,0,1.5-.971v-3.107a1.651,1.651,0,0,0-1.379-.779C140.741,205.462,140.166,206.253,140.166,207.9Z"/><path class="cls-2" d="M149.692,211.087a3.216,3.216,0,0,1-2.9,2.518l-.155-.863a2.156,2.156,0,0,0,2.013-1.691h-.371L146.1,204.73h1.175L149,210.163h.048l1.715-5.433H151.9Z"/><path class="cls-1" d="M158.775,206.757v1.068l-4.57,2.854-.575-.8,4.2-2.578-4.2-2.567.528-.827Z"/><path class="cls-1" d="M100.648,218.3l.528.828-4.2,2.566,4.2,2.579-.575.8-4.57-2.855v-1.067Z"/><path class="cls-1" d="M103.687,226.7l-.888-.4,5.121-10.567.875.42Z"/><path class="cls-2" d="M110.562,225.451V216.6l1.1-.12v3.454a2.659,2.659,0,0,1,2-.947c1.224,0,1.775.695,1.775,1.871v4.593h-1.1V220.93c0-.756-.323-1.08-1.044-1.08a2.163,2.163,0,0,0-1.631,1.02v4.581Z"/><path class="cls-2" d="M122.979,225.127a3.383,3.383,0,0,1-1.739.468,1.912,1.912,0,0,1-2.158-1.955v-3.67h-1.439v-.839h1.439V217.7l1.1-.133v1.56h2.169l-.13.839h-2.039v3.658c0,.708.335,1.056,1.174,1.056a2.359,2.359,0,0,0,1.2-.312Z"/><path class="cls-2" d="M125.382,225.451h-1.007v-6.32h.852l.071.719a1.652,1.652,0,0,1,1.367-.863,1.038,1.038,0,0,1,1.128.827,1.642,1.642,0,0,1,1.391-.827c.635,0,1.235.324,1.235,1.763v4.7h-1.007v-4.534c0-.755-.012-1.067-.469-1.067a1.292,1.292,0,0,0-1.054.72v4.881h-.984v-4.534c0-.755-.024-1.067-.479-1.067a1.276,1.276,0,0,0-1.044.72Z"/><path class="cls-2" d="M136.947,225.259a3.592,3.592,0,0,1-1.535.336,1.745,1.745,0,0,1-1.918-1.847v-6.309h-1.932v-.851H134.6v7.256c0,.612.419.84,1.019.84a2.953,2.953,0,0,0,1.043-.216Z"/><path class="cls-1" d="M144.375,221.158v1.067l-4.569,2.855-.576-.8,4.2-2.579-4.2-2.566.528-.828Z"/><path d="M101.332,7.8l-.924,1.068a2.721,2.721,0,0,0-1.81-.7c-.684,0-1.116.288-1.116.815s.312.744,1.608,1.152c1.57.5,2.471,1.151,2.471,2.686s-1.225,2.627-3.3,2.627a4.411,4.411,0,0,1-3.155-1.187l1.008-1.1a3.009,3.009,0,0,0,2.086.828c.817,0,1.32-.384,1.32-1.02,0-.612-.312-.887-1.523-1.259-1.859-.576-2.543-1.343-2.543-2.579,0-1.463,1.272-2.4,3-2.4A3.881,3.881,0,0,1,101.332,7.8Z"/><path d="M108.124,12.625h-3.946c.133,1.139.672,1.451,1.451,1.451a2.578,2.578,0,0,0,1.523-.564l.78,1.055a3.915,3.915,0,0,1-2.483.888c-2.123,0-3.2-1.368-3.2-3.358,0-1.907,1.044-3.418,2.975-3.418,1.823,0,2.938,1.2,2.938,3.262A6.361,6.361,0,0,1,108.124,12.625ZM106.3,11.4c-.012-.863-.276-1.463-1.031-1.463-.636,0-1.008.408-1.092,1.547H106.3Z"/><path d="M117.962,10.6v4.653h-1.9v-4.33c0-.671-.251-.851-.539-.851-.408,0-.7.3-.971.827v4.354h-1.895v-4.33c0-.671-.252-.851-.54-.851-.395,0-.695.3-.971.827v4.354h-1.9V8.882h1.655l.132.744a2.219,2.219,0,0,1,1.847-.947,1.514,1.514,0,0,1,1.5,1.007A2.233,2.233,0,0,1,116.3,8.679C117.278,8.679,117.962,9.386,117.962,10.6Z"/><path d="M124.888,14.184l-.4,1.235a1.591,1.591,0,0,1-1.535-.923,2.146,2.146,0,0,1-1.92.959,1.924,1.924,0,0,1-2.074-1.991c0-1.391,1.055-2.147,2.986-2.147h.648v-.275c0-.756-.3-.984-1.079-.984a5.735,5.735,0,0,0-1.668.336l-.432-1.248a7.225,7.225,0,0,1,2.4-.467c1.847,0,2.638.779,2.638,2.255V13.4C124.455,13.9,124.588,14.076,124.888,14.184Zm-2.291-.7V12.36h-.468c-.863,0-1.283.3-1.283.936a.711.711,0,0,0,.744.8A1.135,1.135,0,0,0,122.6,13.488Z"/><path d="M131.464,10.6v4.653h-1.9v-4.33c0-.671-.227-.851-.6-.851-.42,0-.768.3-1.1.827v4.354h-1.894V8.882h1.655l.132.756a2.421,2.421,0,0,1,1.943-.959A1.691,1.691,0,0,1,131.464,10.6Z"/><path d="M135.161,15.455c-1.4-.012-2.087-.8-2.087-2.3V10.2h-.9V8.882h.9V7.5l1.895-.216V8.882h1.464l-.2,1.32h-1.26v2.926c0,.612.205.828.6.828a1.256,1.256,0,0,0,.684-.216l.637,1.211A3.161,3.161,0,0,1,135.161,15.455Z"/><path d="M139.59,6.6a1.123,1.123,0,1,1-1.128-1.08A1.073,1.073,0,0,1,139.59,6.6Zm-2.064,8.647V8.882h1.9v6.369Z"/><path d="M140.91,15.251v-8.9l1.9-.2v9.1Zm5.985,0H144.76l-1.895-3.478,1.944-2.891h1.929l-1.929,2.8Z"/><path d="M295.412,11.053c0,3.346-2.016,4.2-4.139,4.2h-2.494V6.939h2.315C293.312,6.939,295.412,7.623,295.412,11.053Zm-4.666,2.771h.648c1.187,0,1.979-.564,1.979-2.771,0-2.231-.852-2.686-2-2.686h-.623Z"/><path d="M301.928,14.184l-.4,1.235A1.592,1.592,0,0,1,300,14.5a2.145,2.145,0,0,1-1.919.959A1.924,1.924,0,0,1,296,13.464c0-1.391,1.055-2.147,2.986-2.147h.647v-.275c0-.756-.3-.984-1.079-.984a5.729,5.729,0,0,0-1.667.336l-.432-1.248a7.22,7.22,0,0,1,2.4-.467c1.848,0,2.639.779,2.639,2.255V13.4C301.5,13.9,301.628,14.076,301.928,14.184Zm-2.291-.7V12.36h-.467c-.863,0-1.283.3-1.283.936a.711.711,0,0,0,.743.8A1.134,1.134,0,0,0,299.637,13.488Z"/><path d="M307.1,8.787l-.3,1.835a2.3,2.3,0,0,0-.576-.084c-.791,0-1.116.587-1.319,1.559v3.154h-1.895V8.882h1.655l.156,1.236A1.8,1.8,0,0,1,306.465,8.7,2.151,2.151,0,0,1,307.1,8.787Z"/><path d="M312.284,9.458l-.7,1.08a2.8,2.8,0,0,0-1.511-.5c-.575,0-.827.192-.827.48,0,.336.168.479,1.307.815,1.259.36,1.966.888,1.966,2.027,0,1.319-1.247,2.1-2.83,2.1a3.957,3.957,0,0,1-2.662-.948l.936-1.043a2.659,2.659,0,0,0,1.666.636c.588,0,.935-.216.935-.588,0-.444-.191-.576-1.342-.9-1.259-.36-1.883-1.007-1.883-1.99,0-1.092,1-1.943,2.6-1.943A3.71,3.71,0,0,1,312.284,9.458Z"/><path d="M315.766,15.455c-1.405-.012-2.088-.8-2.088-2.3V10.2h-.9V8.882h.9V7.5l1.895-.216V8.882h1.464l-.2,1.32h-1.259v2.926c0,.612.2.828.6.828a1.255,1.255,0,0,0,.683-.216l.636,1.211A3.15,3.15,0,0,1,315.766,15.455Z"/><path d="M323.527,12.625h-3.945c.132,1.139.672,1.451,1.451,1.451a2.585,2.585,0,0,0,1.524-.564l.779,1.055a3.914,3.914,0,0,1-2.482.888c-2.124,0-3.2-1.368-3.2-3.358,0-1.907,1.044-3.418,2.975-3.418,1.823,0,2.938,1.2,2.938,3.262A6.114,6.114,0,0,1,323.527,12.625ZM321.705,11.4c-.012-.863-.276-1.463-1.031-1.463-.637,0-1.008.408-1.092,1.547h2.123Z"/><path d="M326.816,13.956a.9.9,0,0,0,.313-.06l.371,1.343a3.421,3.421,0,0,1-1.223.216,1.577,1.577,0,0,1-1.679-1.8v-7.3l1.895-.2v7.316C326.493,13.824,326.613,13.956,326.816,13.956Z"/><path d="M330.381,13.956a.9.9,0,0,0,.312-.06l.371,1.343a3.424,3.424,0,0,1-1.222.216,1.577,1.577,0,0,1-1.68-1.8v-7.3l1.9-.2v7.316C330.057,13.824,330.178,13.956,330.381,13.956Z"/><path d="M335.516,15.251l-.084-.8a2.2,2.2,0,0,1-1.931,1.008c-1.187,0-1.774-.767-1.774-2V8.882h1.894v4.33c0,.648.216.84.611.84a1.247,1.247,0,0,0,1.032-.744V8.882h1.895v6.369Z"/><path d="M344.144,10.6v4.653h-1.9v-4.33c0-.671-.227-.851-.6-.851-.419,0-.767.3-1.1.827v4.354h-1.9V8.882h1.656l.132.756a2.421,2.421,0,0,1,1.943-.959A1.691,1.691,0,0,1,344.144,10.6Z"/><path d="M349.6,9.506a1.653,1.653,0,0,1,1.2,1.643c0,1.236-1.02,2.135-2.674,2.135a3.539,3.539,0,0,1-.733-.072.411.411,0,0,0-.2.36c0,.192.084.384.7.384h.959c1.488,0,2.435.779,2.435,1.847,0,1.307-1.151,2.111-3.334,2.111-2.411,0-3.047-.792-3.047-2.051h1.7c0,.552.241.791,1.392.791,1.115,0,1.379-.312,1.379-.719,0-.372-.276-.624-.911-.624h-.924c-1.391,0-1.955-.576-1.955-1.259a1.518,1.518,0,0,1,.756-1.224,1.876,1.876,0,0,1-1.14-1.823c0-1.439,1.128-2.326,2.8-2.326a5.047,5.047,0,0,0,3-.828l.444,1.4A4.984,4.984,0,0,1,349.6,9.506Zm-2.518,1.475c0,.7.383,1.08.959,1.08.623,0,.959-.372.959-1.1,0-.708-.323-1.032-.959-1.032A.935.935,0,0,0,347.086,10.981Z"/><rect class="cls-4" x="289" y="28" width="140" height="107"/><path d="M428,29V134H290V29H428m2-2H288V136H430V27Z"/><rect class="cls-4" x="289" y="28" width="140" height="8"/><path d="M428,29v6H290V29H428m2-2H288V37H430V27Z"/><line class="cls-5" x1="302" y1="32" x2="426" y2="32"/><rect x="292" y="31" width="2" height="2"/><rect x="295" y="31" width="2" height="2"/><line class="cls-5" x1="345" y1="45" x2="416" y2="45"/><line class="cls-6" x1="345" y1="81" x2="416" y2="81"/><line class="cls-5" x1="345" y1="90" x2="416" y2="90"/><line class="cls-6" x1="345" y1="126" x2="416" y2="126"/><path class="cls-7" d="M306.559,87.123a11.251,11.251,0,0,0,9.1,10.684,7.622,7.622,0,0,0-9.1-10.684Z"/><path class="cls-7" d="M317.466,106.626c1.131-7.222,1.666-13.82,7.373-15.96"/><path class="cls-4" d="M322.429,126.051a10.485,10.485,0,0,1-4.023-1.54l-.516-.313-.517.313a10.483,10.483,0,0,1-4.022,1.54c-1.3,0-3.089,0-8.7-6.7a15.5,15.5,0,0,1-3.784-11.5,8.172,8.172,0,0,1,3.094-5.758,10.341,10.341,0,0,1,6.021-2.113,10.132,10.132,0,0,1,7.193,3.334l.712.72.712-.72a10.129,10.129,0,0,1,7.193-3.334,10.338,10.338,0,0,1,6.02,2.113,8.166,8.166,0,0,1,3.1,5.758,15.494,15.494,0,0,1-3.784,11.5C325.519,126.051,323.732,126.051,322.429,126.051Z"/><path d="M325.794,100.979a9.353,9.353,0,0,1,5.436,1.924,7.184,7.184,0,0,1,2.687,5.07,14.483,14.483,0,0,1-3.559,10.734c-5.307,6.344-6.948,6.344-7.929,6.344a9.829,9.829,0,0,1-3.5-1.4l-1.034-.625-1.034.625a9.829,9.829,0,0,1-3.5,1.4c-.981,0-2.622,0-7.93-6.344a14.492,14.492,0,0,1-3.559-10.734,7.189,7.189,0,0,1,2.688-5.07,9.353,9.353,0,0,1,5.435-1.924,9.046,9.046,0,0,1,6.481,3.036l1.424,1.442,1.423-1.442a9.043,9.043,0,0,1,6.481-3.036m0-2a11.054,11.054,0,0,0-7.9,3.631,11.055,11.055,0,0,0-7.9-3.631,11.276,11.276,0,0,0-6.607,2.3c-4.732,3.421-5.032,12.084.509,18.708s7.633,7.061,9.464,7.061a11.164,11.164,0,0,0,4.539-1.684,11.159,11.159,0,0,0,4.539,1.684c1.831,0,3.921-.437,9.463-7.061s5.241-15.287.51-18.708a11.279,11.279,0,0,0-6.608-2.3Z"/><path class="cls-1" d="M348.3,103.247l-.42,1.787h-2.039l2.506-8.311h2.386l2.508,8.311h-2.088l-.431-1.787Zm-1.128-8.359a.971.971,0,1,1,.971.947A.955.955,0,0,1,347.175,94.888Zm2.339,3.262-.875,3.67h1.75Zm.443-3.262a.972.972,0,1,1,.972.947A.955.955,0,0,1,349.957,94.888Z"/><path class="cls-1" d="M359.8,101.832c0,1.967-.96,3.406-2.53,3.406a1.987,1.987,0,0,1-1.547-.659v2.914l-1.9.2V98.666h1.667l.1.707a2.3,2.3,0,0,1,1.8-.911C359.064,98.462,359.8,99.769,359.8,101.832Zm-1.967.024c0-1.583-.384-2-1.044-2a1.287,1.287,0,0,0-1.066.744v2.686a1.126,1.126,0,0,0,.97.564C357.4,103.847,357.829,103.283,357.829,101.856Z"/><path class="cls-1" d="M363.134,98.174v.492h1.5l-.2,1.319h-1.295v5.049h-1.9V99.985h-.959V98.666h.959V98.1a2.14,2.14,0,0,1,2.436-2.171,3.872,3.872,0,0,1,1.738.408l-.516,1.235a2.271,2.271,0,0,0-1-.24C363.35,97.334,363.134,97.574,363.134,98.174Z"/><path class="cls-1" d="M370.656,102.408H366.71c.132,1.139.671,1.451,1.451,1.451a2.578,2.578,0,0,0,1.523-.564l.78,1.056a3.921,3.921,0,0,1-2.484.887c-2.122,0-3.2-1.367-3.2-3.358,0-1.907,1.043-3.418,2.974-3.418,1.823,0,2.938,1.2,2.938,3.262A6.365,6.365,0,0,1,370.656,102.408Zm-1.824-1.224c-.012-.863-.275-1.463-1.031-1.463-.635,0-1.007.408-1.091,1.547h2.122Z"/><path class="cls-1" d="M373.945,103.739a.907.907,0,0,0,.313-.06l.371,1.343a3.425,3.425,0,0,1-1.223.216,1.576,1.576,0,0,1-1.679-1.8v-7.3l1.894-.2v7.316C373.621,103.607,373.742,103.739,373.945,103.739Z"/><path d="M346.359,121.077l-.3-.827a1.751,1.751,0,0,0,1.319-2.015V111.17h1.139v7.113A2.587,2.587,0,0,1,346.359,121.077Z"/><path d="M355.548,116.651h-4.03c.108,1.464.792,2.028,1.7,2.028a2.659,2.659,0,0,0,1.643-.552l.48.66a3.447,3.447,0,0,1-2.207.791c-1.763,0-2.794-1.235-2.794-3.238,0-1.967,1-3.37,2.626-3.37,1.7,0,2.6,1.187,2.6,3.118C355.572,116.3,355.561,116.508,355.548,116.651Zm-1.068-.887c0-1.235-.492-1.919-1.487-1.919-.839,0-1.391.588-1.475,1.991h2.962Z"/><path d="M359.174,119.578a1.588,1.588,0,0,1-1.7-1.8v-3.814h-1.1v-.851h1.1v-1.427l1.1-.133v1.56h1.5l-.12.851h-1.379v3.766c0,.636.2.936.756.936a1.545,1.545,0,0,0,.839-.276l.42.755A2.41,2.41,0,0,1,359.174,119.578Z"/><path d="M362.258,118.511h3.334l-.131.923h-4.45v-.828l3.286-4.557h-3.01v-.935h4.27v.839Z"/><path d="M368.869,119.578a1.589,1.589,0,0,1-1.7-1.8v-3.814h-1.1v-.851h1.1v-1.427l1.1-.133v1.56h1.5l-.122.851H368.27v3.766c0,.636.2.936.755.936a1.545,1.545,0,0,0,.84-.276l.42.755A2.411,2.411,0,0,1,368.869,119.578Z"/><path d="M375.373,112.274v2.363a2.774,2.774,0,0,1,1.284-.312,2.258,2.258,0,0,1,2.279,2.543,2.614,2.614,0,0,1-2.783,2.71,3.143,3.143,0,0,1-2.374-1.019l.671-.648a2.161,2.161,0,0,0,1.691.768c1.007,0,1.643-.66,1.643-1.835,0-1.236-.636-1.668-1.463-1.668a2.493,2.493,0,0,0-1.139.276h-.864v-4.041h4.342l-.156.863Z"/><path d="M385.512,115.428c0,2.663-.888,4.15-2.687,4.15s-2.686-1.487-2.686-4.15.887-4.137,2.686-4.137S385.512,112.778,385.512,115.428Zm-4.222,0c0,2.363.528,3.275,1.535,3.275s1.535-.912,1.535-3.275-.54-3.262-1.535-3.262S381.29,113.078,381.29,115.428Z"/><path d="M391.566,113.317a1.95,1.95,0,1,1-1.955-2.026A1.889,1.889,0,0,1,391.566,113.317Zm-2.925,0c0,.624.2,1.284.97,1.284s.972-.636.972-1.284c0-.623-.192-1.283-.972-1.283S388.641,112.67,388.641,113.317Zm1.054,6.489-.767-.5,5.552-8.4.768.5Zm6.8-2.255a1.951,1.951,0,1,1-1.943-2.027A1.881,1.881,0,0,1,396.5,117.551Zm-2.914,0c0,.624.2,1.283.971,1.283s.971-.635.971-1.283c0-.624-.192-1.271-.971-1.271S393.582,116.9,393.582,117.551Z"/><path class="cls-1" d="M350.065,52.292v6.8H348.1v-6.8h-2.147V50.781h6.357l-.193,1.511Z"/><path class="cls-1" d="M357.984,55.915c0,2.039-1.174,3.382-3.118,3.382s-3.118-1.248-3.118-3.395c0-2.038,1.176-3.381,3.118-3.381S357.984,53.768,357.984,55.915Zm-4.269-.013c0,1.416.384,2,1.151,2s1.152-.611,1.152-1.99c0-1.415-.384-2-1.152-2S353.715,54.523,353.715,55.9Z"/><path class="cls-1" d="M367.823,54.439v4.654h-1.895v-4.33c0-.672-.252-.851-.539-.851-.409,0-.7.3-.972.827v4.354h-1.9v-4.33c0-.672-.251-.851-.539-.851-.4,0-.7.3-.971.827v4.354h-1.9V52.724h1.656l.131.744a2.223,2.223,0,0,1,1.848-.947,1.511,1.511,0,0,1,1.5,1.007,2.234,2.234,0,0,1,1.907-1.007C367.14,52.521,367.823,53.228,367.823,54.439Z"/><path class="cls-1" d="M374.748,58.025l-.395,1.236a1.593,1.593,0,0,1-1.536-.924,2.143,2.143,0,0,1-1.919.96,1.925,1.925,0,0,1-2.075-1.991c0-1.391,1.056-2.147,2.987-2.147h.648v-.276c0-.756-.3-.984-1.08-.984a5.775,5.775,0,0,0-1.667.336l-.432-1.247a7.191,7.191,0,0,1,2.4-.467c1.847,0,2.638.779,2.638,2.254v2.471C374.316,57.737,374.448,57.917,374.748,58.025Zm-2.29-.7V56.2h-.468c-.864,0-1.284.3-1.284.936a.711.711,0,0,0,.744.8A1.137,1.137,0,0,0,372.458,57.33Z"/><path class="cls-1" d="M378.1,59.3c-1.4-.012-2.087-.8-2.087-2.3V54.043h-.9V52.724h.9V51.345l1.894-.216v1.595h1.463l-.2,1.319h-1.26V56.97c0,.612.2.827.6.827a1.262,1.262,0,0,0,.683-.215l.636,1.211A3.15,3.15,0,0,1,378.1,59.3Z"/><path class="cls-1" d="M385.86,56.466h-3.946c.132,1.139.672,1.451,1.451,1.451a2.588,2.588,0,0,0,1.524-.563l.779,1.055a3.914,3.914,0,0,1-2.482.888c-2.124,0-3.2-1.368-3.2-3.359,0-1.906,1.043-3.417,2.975-3.417,1.823,0,2.938,1.2,2.938,3.262A6.356,6.356,0,0,1,385.86,56.466Zm-1.823-1.223c-.012-.864-.275-1.463-1.031-1.463-.636,0-1.008.408-1.092,1.547h2.123Z"/><path class="cls-1" d="M392.483,54.439v4.654h-1.894v-4.33c0-.672-.229-.851-.6-.851-.42,0-.767.3-1.1.827v4.354h-1.9V52.724h1.656l.131.756a2.424,2.424,0,0,1,1.944-.959A1.69,1.69,0,0,1,392.483,54.439Z"/><path d="M348.183,69.619v3.874h-1.14V65.229h1.14v3.454h3.477V65.229h1.14v8.264h-1.14V69.619Z"/><path d="M359.893,70.71h-4.03c.108,1.463.791,2.027,1.7,2.027a2.666,2.666,0,0,0,1.643-.551l.479.659a3.442,3.442,0,0,1-2.206.792c-1.763,0-2.794-1.236-2.794-3.239,0-1.966,1-3.37,2.626-3.37,1.7,0,2.6,1.188,2.6,3.118C359.917,70.362,359.9,70.566,359.893,70.71Zm-1.068-.887c0-1.236-.491-1.919-1.487-1.919-.84,0-1.391.587-1.475,1.991h2.962Z"/><path d="M365.5,73.493l-.084-.984a2.121,2.121,0,0,1-1.967,1.128,1.69,1.69,0,0,1-1.763-1.931V67.172h1.1v4.414c0,.863.288,1.187.972,1.187a1.906,1.906,0,0,0,1.583-1.091v-4.51h1.1v6.321Z"/><path d="M370.5,73.637a1.588,1.588,0,0,1-1.7-1.8V68.023h-1.1v-.851h1.1V65.745l1.1-.132v1.559h1.5l-.119.851H369.9V71.79c0,.635.2.935.756.935a1.545,1.545,0,0,0,.84-.276l.42.756A2.411,2.411,0,0,1,370.5,73.637Z"/><path d="M377.688,70.71h-4.03c.108,1.463.791,2.027,1.7,2.027A2.666,2.666,0,0,0,377,72.186l.479.659a3.442,3.442,0,0,1-2.206.792c-1.763,0-2.795-1.236-2.795-3.239,0-1.966,1-3.37,2.627-3.37,1.7,0,2.6,1.188,2.6,3.118C377.712,70.362,377.7,70.566,377.688,70.71Zm-1.068-.887c0-1.236-.491-1.919-1.487-1.919-.84,0-1.391.587-1.475,1.991h2.962Z"/><path d="M383.93,66.3v.875h1.535l-.12.851H383.93v5.47h-1.1v-5.47H381.7v-.851h1.127v-.863a1.763,1.763,0,0,1,1.98-1.811,3.481,3.481,0,0,1,1.51.323l-.347.8a2.7,2.7,0,0,0-1.1-.24C384.17,65.385,383.93,65.685,383.93,66.3Z"/><path d="M390.108,67.1l-.2,1.08a1.98,1.98,0,0,0-.551-.073c-.792,0-1.248.564-1.511,1.776v3.61h-1.1V67.172h.948l.107,1.284a1.805,1.805,0,0,1,1.691-1.428A2.69,2.69,0,0,1,390.108,67.1Z"/><path d="M392.689,64.894a.774.774,0,1,1-.78-.756A.735.735,0,0,1,392.689,64.894Zm-1.319,8.6V67.172h1.1v6.321Z"/><path d="M398.616,67.748l-.479.731a2.654,2.654,0,0,0-1.631-.575c-.72,0-1.164.324-1.164.827s.336.756,1.355,1.02c1.332.335,2.1.863,2.1,1.967,0,1.319-1.212,1.919-2.5,1.919a3.5,3.5,0,0,1-2.387-.828l.611-.7a2.641,2.641,0,0,0,1.751.636c.828,0,1.356-.372,1.356-.923,0-.66-.312-.9-1.535-1.224-1.368-.359-1.907-.947-1.907-1.847,0-.995.971-1.727,2.279-1.727A3.353,3.353,0,0,1,398.616,67.748Z"/><path d="M404.592,67.712l-.54.72a2,2,0,0,0-1.343-.492c-1,0-1.619.779-1.619,2.422s.623,2.339,1.619,2.339a2.067,2.067,0,0,0,1.355-.515l.528.755a2.987,2.987,0,0,1-1.931.7c-1.7,0-2.759-1.212-2.759-3.251,0-2.014,1.043-3.358,2.759-3.358A2.81,2.81,0,0,1,404.592,67.712Z"/><path d="M410.9,68.959v4.534h-1.1V69.115c0-.948-.408-1.223-1.008-1.223a1.932,1.932,0,0,0-1.6,1.1v4.5h-1.1V64.642l1.1-.121v3.527a2.267,2.267,0,0,1,1.87-1.02A1.741,1.741,0,0,1,410.9,68.959Z"/><path d="M414.265,72.8a.834.834,0,1,1-.839-.827A.827.827,0,0,1,414.265,72.8Zm-1.331-2.063-.132-5.5h1.223l-.12,5.5Z"/><path class="cls-7" d="M336,64.539c0,8.792-7.127,15.365-15.919,15.365s-15.919-6.573-15.919-15.365,6.9-15.282,15.919-12.319C329.653,49.652,336,55.747,336,64.539Z"/><path d="M320.577,52.332h-.992l-4.558,2.6,2.059-1.691,1.091-.445-.321-1.894,2.036.393h.379l2.035-.393-.321,1.894,1.091.445,2.059,1.691Zm4.837-1.6-.182-.007-2.709.141,2.511-.484,1.69.522Zm-10.286-.35,2.511.484-2.708-.141-.183.007-1.31.172Z"/><polygon points="325.091 49.349 320.081 50.316 315.071 49.349 312.096 50.269 309.458 51.764 309.552 52.42 314.878 51.72 317.799 51.873 316.569 52.375 314.215 54.308 313.396 56.083 313.29 59.335 315.477 55.83 320.081 53.2 324.685 55.83 326.872 59.335 326.766 56.083 325.948 54.308 323.594 52.375 322.364 51.873 325.285 51.72 330.61 52.42 330.704 51.764 328.066 50.269 325.091 49.349 325.091 49.349"/><polygon points="319.13 51.613 320.055 46.62 321.391 44.548 324.121 42.794 324.301 43.082 320.76 46.221 320.605 51.334 319.874 51.875 319.13 51.613"/><polygon points="324.431 41.405 320.668 43.824 319.108 46.243 317.99 52.273 320.041 52.993 321.591 51.851 321.747 46.683 325.597 43.269 324.431 41.405 324.431 41.405"/></g></svg>