<svg xmlns="http://www.w3.org/2000/svg" xmlns:xlink="http://www.w3.org/1999/xlink" viewBox="0 0 394 240"><defs><style>.cls-1,.cls-19,.cls-21,.cls-3,.cls-5{fill:none;}.cls-17,.cls-2,.cls-4{fill:#fff;}.cls-3{stroke:#006984;}.cls-19,.cls-21,.cls-3,.cls-4,.cls-5{stroke-miterlimit:10;stroke-width:2px;}.cls-4,.cls-5{stroke:#000;}.cls-17,.cls-6{font-size:12px;font-weight:700;}.cls-6{font-family:FiraSans-Bold, Fira Sans;}.cls-7{letter-spacing:-0.02em;}.cls-8{letter-spacing:-0.01em;}.cls-9{letter-spacing:-0.01em;}.cls-10{letter-spacing:0em;}.cls-11{letter-spacing:-0.016em;}.cls-12,.cls-13,.cls-14{font-size:8px;font-family:FiraSans-Regular, Fira Sans;}.cls-12,.cls-13{font-weight:400;}.cls-13,.cls-22{letter-spacing:-0.02em;}.cls-15{letter-spacing:0.01em;}.cls-16{fill:#0054a2;}.cls-17{font-family:FiraMonoOT-Bold, Fira Mono OT;}.cls-18{fill:#006984;}.cls-19,.cls-21{stroke:#ca0022;}.cls-19{stroke-dasharray:3 3;}.cls-20{fill:#ca0022;}.cls-21{stroke-dasharray:3;}.cls-23{letter-spacing:-0.015em;}.cls-24{letter-spacing:0em;}.cls-25{letter-spacing:-0.01em;}.cls-26{letter-spacing:-0.01em;}.cls-27{letter-spacing:-0.02em;}.cls-28{clip-path:url(#clip-path);}.cls-29{clip-path:url(#clip-path-2);}.cls-30{clip-path:url(#clip-path-3);}</style><clipPath id="clip-path"><path class="cls-1" d="M9,58v80H80V58Zm17,67c-4.418,0-8-2.686-8-6s3.582-6,8-6,8,2.686,8,6S30.418,125,26,125Z"/></clipPath><clipPath id="clip-path-2"><path class="cls-1" d="M192,54v82H297V54Zm51,52a8,8,0,1,1,8-8A8,8,0,0,1,243,106Z"/></clipPath><clipPath id="clip-path-3"><path class="cls-1" d="M196,17V136H382V17Zm150,89a8,8,0,1,1,8-8A8,8,0,0,1,346,106Z"/></clipPath></defs><title>html-new</title><g id="Layer_2" data-name="Layer 2"><path class="cls-2" d="M141.8,17.338a19.285,19.285,0,0,0-4.034.432,18.977,18.977,0,0,0-33.9-8.754A10.207,10.207,0,0,0,90.853,20.5,18.423,18.423,0,0,0,97.9,55.71v.027h43.9a19.2,19.2,0,1,0,0-38.4Z"/><path class="cls-3" d="M141.8,17.338a19.285,19.285,0,0,0-4.034.432,18.977,18.977,0,0,0-33.9-8.754A10.207,10.207,0,0,0,90.853,20.5,18.423,18.423,0,0,0,97.9,55.71v.027h43.9a19.2,19.2,0,1,0,0-38.4Z"/><rect class="cls-2" x="109" y="162" width="78" height="62"/><path d="M186,163v60H110V163h76m2-2H108v64h80V161Z"/><rect class="cls-2" x="109" y="162" width="78" height="8"/><path d="M186,163v6H110v-6h76m2-2H108v10h80V161Z"/><line class="cls-4" x1="122" y1="166" x2="184" y2="166"/><rect x="112" y="165" width="2" height="2"/><rect x="115" y="165" width="2" height="2"/><rect class="cls-2" x="212" y="162" width="78" height="62"/><path d="M289,163v60H213V163h76m2-2H211v64h80V161Z"/><rect class="cls-2" x="212" y="162" width="78" height="8"/><path d="M289,163v6H213v-6h76m2-2H211v10h80V161Z"/><line class="cls-4" x1="225" y1="166" x2="287" y2="166"/><rect x="215" y="165" width="2" height="2"/><rect x="218" y="165" width="2" height="2"/><rect class="cls-2" x="315" y="162" width="78" height="62"/><path d="M392,163v60H316V163h76m2-2H314v64h80V161Z"/><rect class="cls-2" x="315" y="162" width="78" height="8"/><path d="M392,163v6H316v-6h76m2-2H314v10h80V161Z"/><line class="cls-4" x1="328" y1="166" x2="390" y2="166"/><rect x="318" y="165" width="2" height="2"/><rect x="321" y="165" width="2" height="2"/><rect class="cls-2" x="1" y="162" width="78" height="62"/><path d="M78,163v60H2V163H78m2-2H0v64H80V161Z"/><rect class="cls-2" x="1" y="162" width="78" height="8"/><path d="M78,163v6H2v-6H78m2-2H0v10H80V161Z"/><line class="cls-4" x1="14" y1="166" x2="76" y2="166"/><rect x="4" y="165" width="2" height="2"/><rect x="7" y="165" width="2" height="2"/></g><g id="Layer_1" data-name="Layer 1"><rect class="cls-2" x="102" y="49" width="78" height="18"/><path d="M179,50V66H103V50h76m2-2H101V68h80V48Z"/><path d="M114,56v4h-4V56h4m2-2h-8v8h8V54Z"/><path d="M127,56v4h-4V56h4m2-2h-8v8h8V54Z"/><line class="cls-5" x1="155" y1="52" x2="155" y2="63"/><line class="cls-5" x1="137" y1="52" x2="137" y2="63"/><line class="cls-5" x1="146" y1="52" x2="146" y2="63"/><line class="cls-5" x1="173" y1="52" x2="173" y2="63"/><line class="cls-5" x1="164" y1="52" x2="164" y2="63"/><rect class="cls-2" x="102" y="25" width="78" height="18"/><path d="M179,26V42H103V26h76m2-2H101V44h80V24Z"/><path d="M114,32v4h-4V32h4m2-2h-8v8h8V30Z"/><path d="M127,32v4h-4V32h4m2-2h-8v8h8V30Z"/><line class="cls-5" x1="155" y1="28" x2="155" y2="39"/><line class="cls-5" x1="137" y1="28" x2="137" y2="39"/><line class="cls-5" x1="146" y1="28" x2="146" y2="39"/><line class="cls-5" x1="173" y1="28" x2="173" y2="39"/><line class="cls-5" x1="164" y1="28" x2="164" y2="39"/><text class="cls-6" transform="translate(0.705 147.651)">ww<tspan class="cls-7" x="17.976" y="0">w</tspan><tspan x="26.724" y="0">.</tspan><tspan class="cls-8" x="29.604" y="0">t</tspan><tspan x="34.116" y="0">est</tspan><tspan class="cls-9" x="51.191" y="0">.</tspan><tspan class="cls-10" x="53.951" y="0">ch</tspan></text><line class="cls-4" x1="286" y1="182.929" x2="251" y2="182.929"/><line class="cls-4" x1="251" y1="188" x2="280" y2="188"/><line class="cls-4" x1="251" y1="194" x2="284" y2="194"/><line class="cls-4" x1="251" y1="200" x2="280" y2="200"/><line class="cls-4" x1="251" y1="206" x2="286" y2="206"/><line class="cls-4" x1="251" y1="212" x2="280" y2="212"/><rect class="cls-5" x="219" y="183" width="26" height="29"/><polyline class="cls-5" points="219 203.194 224.597 197.597 231 204 240 195 244.75 199.75"/><circle class="cls-5" cx="231" cy="191" r="4"/><rect class="cls-5" x="116" y="183" width="26" height="29"/><line class="cls-4" x1="354" y1="182.929" x2="380" y2="182.929"/><line class="cls-4" x1="354" y1="188" x2="389" y2="188"/><line class="cls-4" x1="354" y1="194" x2="382" y2="194"/><line class="cls-4" x1="354" y1="200" x2="387" y2="200"/><line class="cls-4" x1="354" y1="206" x2="374" y2="206"/><line class="cls-4" x1="354" y1="212" x2="380" y2="212"/><rect class="cls-5" x="322" y="183" width="26" height="29"/><circle class="cls-2" cx="110" cy="98" r="8"/><text class="cls-6" transform="translate(57.582 102.251)">J<tspan class="cls-11" x="3.804" y="0">a</tspan><tspan x="10.188" y="0">vaScript </tspan><tspan class="cls-12" x="58.367" y="0">+ H</tspan><tspan class="cls-13" x="69.918" y="0">T</tspan><tspan class="cls-12" x="73.895" y="0">ML</tspan></text><text class="cls-14" transform="translate(101.705 20.251)">Se<tspan class="cls-15" x="8.76" y="0">r</tspan><tspan class="cls-8" x="11.928" y="0">v</tspan><tspan x="15.784" y="0">er</tspan></text><text class="cls-6" transform="translate(184.705 102.251)"><tspan class="cls-8">D</tspan><tspan x="7.692" y="0">a</tspan><tspan class="cls-9" x="14.268" y="0">t</tspan><tspan class="cls-10" x="18.78" y="0">en/Bi</tspan><tspan class="cls-8" x="49.379" y="0">ld</tspan><tspan class="cls-10" x="59.903" y="0">er</tspan></text><circle class="cls-16" cx="110" cy="77" r="12"/><path d="M110,66A11,11,0,1,1,99,77a11.013,11.013,0,0,1,11-11m0-2a13,13,0,1,0,13,13,13,13,0,0,0-13-13Z"/><text class="cls-17" transform="translate(106.104 80.651)">2</text><circle class="cls-16" cx="172" cy="165" r="12"/><path d="M172,154a11,11,0,1,1-11,11,11.013,11.013,0,0,1,11-11m0-2a13,13,0,1,0,13,13,13,13,0,0,0-13-13Z"/><text class="cls-17" transform="translate(168.104 168.651)">3</text><circle class="cls-16" cx="253" cy="151" r="12"/><path d="M253,140a11,11,0,1,1-11,11,11.013,11.013,0,0,1,11-11m0-2a13,13,0,1,0,13,13,13,13,0,0,0-13-13Z"/><text class="cls-17" transform="translate(249.104 154.651)">4</text><circle class="cls-16" cx="356" cy="151" r="12"/><path d="M356,140a11,11,0,1,1-11,11,11.013,11.013,0,0,1,11-11m0-2a13,13,0,1,0,13,13,13,13,0,0,0-13-13Z"/><text class="cls-17" transform="translate(352.104 154.651)">6</text><line class="cls-3" x1="110" y1="106" x2="110" y2="142.824"/><polygon class="cls-18" points="105.014 141.365 110 150 114.986 141.365 105.014 141.365"/><line class="cls-19" x1="172" y1="110" x2="172" y2="84.176"/><polygon class="cls-20" points="176.986 85.635 172 77 167.014 85.635 176.986 85.635"/><line class="cls-21" x1="172" y1="147" x2="172" y2="125"/><text class="cls-14" transform="translate(133.281 121.251)">Anf<tspan class="cls-22" x="11.952" y="0">r</tspan><tspan x="14.88" y="0">a</tspan><tspan class="cls-23" x="19.232" y="0">g</tspan><tspan class="cls-24" x="23.271" y="0">e </tspan><tspan class="cls-25" x="29.792" y="0">D</tspan><tspan x="34.864" y="0">a</tspan><tspan class="cls-26" x="39.216" y="0">t</tspan><tspan x="42.023" y="0">en/Bi</tspan><tspan class="cls-8" x="62.391" y="0">ld</tspan><tspan x="69.359" y="0">er</tspan></text><text class="cls-14" transform="translate(0.925 121.251)">Anf<tspan class="cls-22" x="11.952" y="0">r</tspan><tspan x="14.88" y="0">a</tspan><tspan class="cls-23" x="19.232" y="0">g</tspan><tspan class="cls-24" x="23.271" y="0">e H</tspan><tspan class="cls-27" x="35.231" y="0">T</tspan><tspan x="39.208" y="0">ML</tspan></text><circle class="cls-5" cx="333" cy="195" r="4"/><path class="cls-5" d="M333,202a6,6,0,0,0-6,6v4h12v-4A6,6,0,0,0,333,202Z"/><path class="cls-19" d="M203.06,39.851A97.178,97.178,0,0,1,279,134.67V179"/><polygon class="cls-20" points="203.545 45.07 196 38.552 205.417 35.276 203.545 45.07"/><circle class="cls-16" cx="279" cy="188" r="12"/><path d="M279,177a11,11,0,1,1-11,11,11.013,11.013,0,0,1,11-11m0-2a13,13,0,1,0,13,13,13,13,0,0,0-13-13Z"/><text class="cls-17" transform="translate(275.104 191.651)">5</text><text class="cls-6" transform="translate(321.705 102.251)"><tspan class="cls-8">D</tspan><tspan x="7.692" y="0">a</tspan><tspan class="cls-9" x="14.268" y="0">t</tspan><tspan class="cls-10" x="18.78" y="0">en/Bi</tspan><tspan class="cls-8" x="49.379" y="0">ld</tspan><tspan class="cls-10" x="59.903" y="0">er</tspan></text><ellipse class="cls-2" cx="278.5" cy="119" rx="8.5" ry="9"/><text class="cls-14" transform="translate(258.281 121.251)">Anf<tspan class="cls-22" x="11.952" y="0">r</tspan><tspan x="14.88" y="0">a</tspan><tspan class="cls-23" x="19.232" y="0">g</tspan><tspan class="cls-24" x="23.271" y="0">e </tspan><tspan class="cls-25" x="29.792" y="0">D</tspan><tspan x="34.864" y="0">a</tspan><tspan class="cls-26" x="39.216" y="0">t</tspan><tspan x="42.023" y="0">en/Bi</tspan><tspan class="cls-8" x="62.391" y="0">ld</tspan><tspan x="69.359" y="0">er</tspan></text><line class="cls-5" x1="116" y1="183" x2="142" y2="212"/><rect class="cls-4" x="148" y="183" width="32" height="29"/><text class="cls-14" transform="translate(25.993 180.251)">B<tspan class="cls-8" x="4.864" y="0">ro</tspan><tspan x="12.464" y="0">wser</tspan></text><circle class="cls-16" cx="41" cy="197" r="12"/><path d="M41,186a11,11,0,1,1-11,11,11.013,11.013,0,0,1,11-11m0-2a13,13,0,1,0,13,13,13,13,0,0,0-13-13Z"/><text class="cls-17" transform="translate(37.104 200.651)">1</text><g class="cls-28"><path class="cls-19" d="M69.924,67.747a69.807,69.807,0,0,0-45.85,62.973V138"/><polygon class="cls-20" points="67.036 63.547 76.783 65.648 70.09 73.039 67.036 63.547"/></g><g class="cls-29"><path class="cls-3" d="M252.645,127.329A71.553,71.553,0,0,0,199,65.166"/><polygon class="cls-18" points="257.423 125.564 253 134.5 247.472 126.202 257.423 125.564"/></g><g class="cls-30"><path class="cls-3" d="M354.769,127.324A109.507,109.507,0,0,0,245.5,25H199"/><polygon class="cls-18" points="359.625 125.667 355 134.5 349.661 126.079 359.625 125.667"/></g></g></svg>