<svg xmlns="http://www.w3.org/2000/svg" viewBox="0 0 478 136"><defs><style>.cls-1,.cls-3,.cls-7{fill:#fff;}.cls-1,.cls-2,.cls-3,.cls-5,.cls-6,.cls-7{stroke:#000;}.cls-1,.cls-2,.cls-3{stroke-miterlimit:10;}.cls-1,.cls-2{stroke-width:2px;}.cls-2,.cls-5,.cls-6{fill:none;}.cls-3{stroke-width:3px;}.cls-4{fill:#ca0022;}.cls-5{stroke-width:1.496px;}.cls-6,.cls-7{stroke-width:8px;}.cls-8{fill:#0054a2;}.cls-9{fill:#006984;}</style></defs><title>design-tradition</title><g id="Layer_1" data-name="Layer 1"><rect class="cls-1" x="299" y="75" width="41" height="58"/><line class="cls-1" x1="164" y1="76.929" x2="129" y2="76.929"/><line class="cls-1" x1="129" y1="82" x2="158" y2="82"/><line class="cls-1" x1="129" y1="88" x2="162" y2="88"/><line class="cls-1" x1="129" y1="94" x2="158" y2="94"/><line class="cls-1" x1="129" y1="100" x2="164" y2="100"/><line class="cls-1" x1="129" y1="106" x2="158" y2="106"/><rect class="cls-2" x="97" y="77" width="26" height="29"/><polyline class="cls-2" points="97 97.194 102.597 91.597 109 98 118 89 122.75 93.75"/><circle class="cls-2" cx="109" cy="85" r="4"/><line class="cls-3" x1="318" y1="115.682" x2="302" y2="115.682"/><line class="cls-1" x1="323" y1="116" x2="334.6" y2="116"/><line class="cls-1" x1="323" y1="119.5" x2="336.2" y2="119.5"/><line class="cls-1" x1="323" y1="123" x2="334.6" y2="123"/><line class="cls-1" x1="323" y1="126.5" x2="337" y2="126.5"/><polyline class="cls-2" points="299 104.667 307.911 95.755 318.107 105.951 332.437 91.621 340 99.184"/><circle class="cls-2" cx="317.621" cy="85.414" r="6.207"/><path class="cls-4" d="M106.607,64.611V56.3h1.967v8.31Z"/><path class="cls-4" d="M115.593,59.959v4.652h-1.9V60.282c0-.672-.228-.851-.6-.851-.42,0-.768.3-1.1.827v4.353h-1.9V58.243h1.655l.132.756a2.423,2.423,0,0,1,1.943-.96A1.692,1.692,0,0,1,115.593,59.959Z"/><path class="cls-4" d="M122.517,59.959v4.652h-1.895V60.282c0-.672-.24-.851-.6-.851-.419,0-.767.3-1.1.815v4.365h-1.9v-8.9l1.9-.192v3.406a2.324,2.324,0,0,1,1.835-.888A1.692,1.692,0,0,1,122.517,59.959Z"/><path class="cls-4" d="M129.44,63.545l-.4,1.234a1.589,1.589,0,0,1-1.535-.923,2.143,2.143,0,0,1-1.919.96,1.925,1.925,0,0,1-2.075-1.992c0-1.39,1.055-2.146,2.986-2.146h.648V60.4c0-.756-.3-.984-1.08-.984a5.775,5.775,0,0,0-1.667.336l-.431-1.246a7.161,7.161,0,0,1,2.4-.469c1.848,0,2.639.779,2.639,2.255v2.471C129.009,63.256,129.141,63.437,129.44,63.545Zm-2.29-.7V61.721h-.467c-.865,0-1.285.3-1.285.935a.713.713,0,0,0,.745.8A1.137,1.137,0,0,0,127.15,62.849Z"/><path class="cls-4" d="M132.682,63.316a.878.878,0,0,0,.311-.06l.372,1.344a3.425,3.425,0,0,1-1.223.216,1.577,1.577,0,0,1-1.679-1.8v-7.3l1.894-.2v7.315C132.357,63.185,132.478,63.316,132.682,63.316Z"/><path class="cls-4" d="M136.354,64.816c-1.4-.012-2.086-.8-2.086-2.3V59.562h-.9V58.243h.9V56.864l1.894-.216v1.595h1.463l-.2,1.319h-1.26v2.926c0,.613.2.828.6.828a1.264,1.264,0,0,0,.683-.215l.636,1.211A3.15,3.15,0,0,1,136.354,64.816Z"/><path class="cls-5" d="M167.4,38.974l6.942,6.942M163.3,38.974l6.943,6.942M159.2,38.974l6.942,6.942M155.1,38.974l6.942,6.942m-11.039-6.942,6.942,6.942m-11.039-6.942,6.943,6.942m-11.039-6.942,6.942,6.942m-11.039-6.942,6.942,6.942m-11.039-6.942,6.942,6.942m-11.039-6.942,6.943,6.942m-11.039-6.942,6.942,6.942m-11.039-6.942,6.942,6.942m-11.039-6.942,6.942,6.942m-11.039-6.942,6.943,6.942m-11.039-6.942,6.942,6.942m-11.039-6.942,6.942,6.942m-11.039-6.942,6.942,6.942M97.75,38.974l6.943,6.942M93.654,38.974l6.942,6.942M89.557,38.974,96.5,45.916M85.46,38.974,92.4,45.916M81.363,38.974l6.943,6.942M77.267,38.974l6.942,6.942M73.17,38.974l6.942,6.942M69.073,38.974l6.942,6.942M64.976,38.974l6.943,6.942M60.88,38.974l6.942,6.942M56.783,38.974l6.942,6.942M52.686,38.974l6.942,6.942M48.589,38.974l6.943,6.942M44.493,38.974l6.942,6.942M40.4,38.974l6.942,6.942M36.3,38.974l6.942,6.942M32.2,38.974l6.943,6.942M28.106,38.974l6.942,6.942M24.009,38.974l6.942,6.942"/><polyline class="cls-6" points="166.363 63.08 185.444 44 166.363 24.92"/><circle class="cls-7" cx="44" cy="44" r="39"/><path class="cls-8" d="M25.455,46.979V38.668h1.966v8.311Zm6.956,0H30.132l-2.651-4.438,2.639-3.873H32.2L29.544,42.4Z"/><path class="cls-8" d="M36.5,46.979l-.084-.8a2.2,2.2,0,0,1-1.931,1.008c-1.187,0-1.775-.768-1.775-2V40.611h1.9v4.328c0,.649.216.84.612.84a1.244,1.244,0,0,0,1.031-.744V40.611h1.895v6.368Z"/><path class="cls-8" d="M45.131,42.326v4.653H43.237V42.648c0-.669-.228-.851-.6-.851-.42,0-.767.3-1.1.828v4.354H39.639V40.611h1.654l.133.754a2.424,2.424,0,0,1,1.943-.959A1.691,1.691,0,0,1,45.131,42.326Z"/><path class="cls-8" d="M52.271,46.979H50.592l-.1-.743a2.122,2.122,0,0,1-1.811.948c-1.619,0-2.422-1.344-2.422-3.407,0-1.966,1-3.371,2.638-3.371a2.067,2.067,0,0,1,1.475.6V37.877l1.9.2Zm-1.9-1.907V42.326a1.24,1.24,0,0,0-.983-.541c-.684,0-1.164.576-1.164,2,0,1.582.432,2,1.056,2A1.265,1.265,0,0,0,50.376,45.072Z"/><path class="cls-8" d="M55.825,38.332a1.122,1.122,0,1,1-1.127-1.08A1.073,1.073,0,0,1,55.825,38.332Zm-2.063,8.647V40.611h1.895v6.368Z"/><path class="cls-8" d="M62.639,42.326v4.653H60.745V42.648c0-.669-.228-.851-.6-.851-.42,0-.768.3-1.1.828v4.354h-1.9V40.611H58.8l.133.754a2.423,2.423,0,0,1,1.942-.959A1.691,1.691,0,0,1,62.639,42.326Z"/><path class="cls-4" d="M305.846,57.857v2.207h2.423v1.4h-2.423v3.3h-1.967V56.454h4.953l-.2,1.4Z"/><path class="cls-4" d="M315.324,61.588c0,2.039-1.175,3.382-3.118,3.382s-3.118-1.247-3.118-3.395c0-2.038,1.176-3.382,3.118-3.382S315.324,59.44,315.324,61.588Zm-4.269-.013c0,1.416.383,2,1.151,2s1.151-.611,1.151-1.99c0-1.415-.383-2-1.151-2S311.055,60.2,311.055,61.575Z"/><path class="cls-4" d="M320.545,58.3l-.3,1.835a2.289,2.289,0,0,0-.575-.084c-.792,0-1.115.588-1.319,1.558v3.155h-1.9V58.4h1.655l.157,1.236a1.8,1.8,0,0,1,1.642-1.415A2.11,2.11,0,0,1,320.545,58.3Z"/><path class="cls-4" d="M329.975,60.112v4.654h-1.9V60.437c0-.672-.252-.852-.539-.852-.408,0-.7.3-.972.827v4.354h-1.895V60.437c0-.672-.252-.852-.539-.852-.4,0-.7.3-.972.827v4.354h-1.895V58.4h1.655l.132.744a2.223,2.223,0,0,1,1.847-.948,1.513,1.513,0,0,1,1.5,1.008,2.235,2.235,0,0,1,1.908-1.008A1.684,1.684,0,0,1,329.975,60.112Z"/><path class="cls-9" d="M102.482,23.189c0,1.895-1.535,2.422-3.622,2.422H96.186V17.3h2.35c2.232,0,3.6.563,3.6,2.123a1.809,1.809,0,0,1-1.524,1.787C101.535,21.391,102.482,21.846,102.482,23.189Zm-4.33-2.566h.733c.815,0,1.247-.312,1.247-1.008s-.456-.924-1.4-.924h-.577Zm2.3,2.458c0-.839-.587-1.151-1.438-1.151h-.865v2.255h.72C99.8,24.185,100.455,23.992,100.455,23.081Z"/><path class="cls-9" d="M109.431,22.434c0,2.039-1.175,3.382-3.119,3.382s-3.118-1.248-3.118-3.394c0-2.039,1.176-3.383,3.118-3.383S109.431,20.287,109.431,22.434Zm-4.27-.012c0,1.415.384,2,1.151,2s1.152-.612,1.152-1.99c0-1.415-.384-2-1.152-2S105.161,21.043,105.161,22.422Z"/><path class="cls-9" d="M112.829,25.816c-1.4-.012-2.087-.8-2.087-2.3V20.562h-.9V19.243h.9V17.864l1.895-.216v1.595H114.1l-.2,1.319h-1.259v2.926c0,.613.2.828.6.828a1.267,1.267,0,0,0,.684-.215l.636,1.211A3.155,3.155,0,0,1,112.829,25.816Z"/><path class="cls-9" d="M119.775,19.818l-.7,1.08a2.8,2.8,0,0,0-1.512-.5c-.575,0-.827.191-.827.48,0,.336.168.479,1.307.814,1.26.361,1.968.889,1.968,2.028,0,1.319-1.248,2.1-2.831,2.1a3.959,3.959,0,0,1-2.663-.948l.936-1.044a2.66,2.66,0,0,0,1.667.637c.588,0,.936-.217.936-.588,0-.443-.193-.576-1.344-.9-1.259-.36-1.883-1.007-1.883-1.991,0-1.091.995-1.943,2.6-1.943A3.715,3.715,0,0,1,119.775,19.818Z"/><path class="cls-9" d="M125.931,19.818l-.827,1.141a1.812,1.812,0,0,0-1.2-.469c-.815,0-1.283.553-1.283,1.98s.5,1.846,1.259,1.846a1.778,1.778,0,0,0,1.187-.467l.864,1.212a3.32,3.32,0,0,1-2.147.755,3.029,3.029,0,0,1-3.154-3.335c0-2.026,1.211-3.442,3.118-3.442A3.205,3.205,0,0,1,125.931,19.818Z"/><path class="cls-9" d="M132.23,20.959v4.652h-1.894V21.282c0-.672-.24-.851-.6-.851-.42,0-.767.3-1.1.815v4.365h-1.9v-8.9l1.9-.192v3.406a2.322,2.322,0,0,1,1.835-.888A1.691,1.691,0,0,1,132.23,20.959Z"/><path class="cls-9" d="M139.154,24.545l-.4,1.234a1.589,1.589,0,0,1-1.535-.923,2.143,2.143,0,0,1-1.919.96,1.925,1.925,0,0,1-2.076-1.992c0-1.39,1.056-2.146,2.987-2.146h.648V21.4c0-.756-.3-.984-1.08-.984a5.775,5.775,0,0,0-1.667.336l-.431-1.246a7.161,7.161,0,0,1,2.4-.469c1.848,0,2.639.779,2.639,2.255v2.471C138.723,24.256,138.854,24.437,139.154,24.545Zm-2.29-.7V22.721H136.4c-.864,0-1.284.3-1.284.935a.713.713,0,0,0,.744.8A1.137,1.137,0,0,0,136.864,23.849Z"/><path class="cls-9" d="M142.384,18.752v.491h1.5l-.2,1.319h-1.3v5.049h-1.9V20.562h-.959V19.243h.959V18.68a2.14,2.14,0,0,1,2.435-2.171,3.886,3.886,0,0,1,1.739.407l-.516,1.236a2.271,2.271,0,0,0-.995-.24C142.6,17.912,142.384,18.152,142.384,18.752Z"/><path class="cls-9" d="M146.776,25.816c-1.4-.012-2.087-.8-2.087-2.3V20.562h-.9V19.243h.9V17.864l1.9-.216v1.595h1.463l-.2,1.319h-1.26v2.926c0,.613.2.828.6.828a1.267,1.267,0,0,0,.683-.215l.636,1.211A3.153,3.153,0,0,1,146.776,25.816Z"/><path class="cls-9" d="M294.037,18.27l-1.019,1.068a2.359,2.359,0,0,0-1.667-.66c-1.164,0-2.028.863-2.028,2.926,0,2.183.576,2.926,1.728,2.926a2.285,2.285,0,0,0,1.127-.275V22.372H291.1l-.193-1.392h3.179V25.1a5.652,5.652,0,0,1-3.023.875c-2.506,0-3.778-1.524-3.778-4.366,0-2.818,1.764-4.353,3.97-4.353A4.073,4.073,0,0,1,294.037,18.27Z"/><path class="cls-9" d="M300.89,23.14h-3.947c.132,1.138.672,1.451,1.452,1.451a2.584,2.584,0,0,0,1.523-.565l.779,1.056a3.912,3.912,0,0,1-2.482.888c-2.123,0-3.2-1.367-3.2-3.359,0-1.906,1.043-3.418,2.974-3.418,1.824,0,2.939,1.2,2.939,3.263A6.66,6.66,0,0,1,300.89,23.14Zm-1.824-1.224c-.011-.863-.275-1.463-1.031-1.463-.636,0-1.008.407-1.092,1.547h2.123Z"/><path class="cls-9" d="M306.6,19.973l-.7,1.08a2.8,2.8,0,0,0-1.511-.5c-.576,0-.828.191-.828.479,0,.336.168.48,1.307.816,1.26.36,1.968.887,1.968,2.027,0,1.319-1.248,2.1-2.831,2.1a3.955,3.955,0,0,1-2.662-.948l.935-1.043a2.669,2.669,0,0,0,1.667.635c.588,0,.936-.216.936-.588,0-.443-.193-.575-1.344-.9-1.259-.359-1.883-1.007-1.883-1.99,0-1.092.995-1.944,2.6-1.944A3.7,3.7,0,0,1,306.6,19.973Z"/><path class="cls-9" d="M310.083,25.97c-1.4-.012-2.087-.8-2.087-2.3v-2.95h-.9V19.4h.9V18.019l1.9-.216V19.4h1.463l-.2,1.32h-1.259v2.926c0,.612.2.828.6.828a1.269,1.269,0,0,0,.684-.216l.636,1.211A3.155,3.155,0,0,1,310.083,25.97Z"/><path class="cls-9" d="M317.94,24.7l-.395,1.236a1.592,1.592,0,0,1-1.535-.923,2.145,2.145,0,0,1-1.919.959,1.924,1.924,0,0,1-2.075-1.991c0-1.391,1.055-2.147,2.986-2.147h.648v-.275c0-.756-.3-.985-1.08-.985a5.741,5.741,0,0,0-1.667.336l-.431-1.247a7.183,7.183,0,0,1,2.4-.468c1.848,0,2.639.78,2.639,2.255v2.471C317.509,24.41,317.641,24.591,317.94,24.7Zm-2.29-.7V22.875h-.467c-.865,0-1.285.3-1.285.936a.712.712,0,0,0,.745.8A1.134,1.134,0,0,0,315.65,24Z"/><path class="cls-9" d="M321.183,24.471a.9.9,0,0,0,.311-.061l.372,1.344a3.421,3.421,0,0,1-1.223.216,1.577,1.577,0,0,1-1.679-1.8v-7.3l1.894-.2v7.316C320.858,24.339,320.979,24.471,321.183,24.471Z"/><path class="cls-9" d="M324.854,25.97c-1.4-.012-2.086-.8-2.086-2.3v-2.95h-.9V19.4h.9V18.019l1.894-.216V19.4h1.463l-.2,1.32h-1.26v2.926c0,.612.2.828.6.828a1.266,1.266,0,0,0,.683-.216l.636,1.211A3.15,3.15,0,0,1,324.854,25.97Z"/><path class="cls-9" d="M330.949,25.766l-.084-.8a2.2,2.2,0,0,1-1.93,1.008c-1.188,0-1.776-.768-1.776-2V19.4h1.895v4.33c0,.648.217.839.612.839a1.244,1.244,0,0,0,1.031-.743V19.4h1.895v6.369Z"/><path class="cls-9" d="M339.576,21.112v4.654h-1.894V21.437c0-.672-.229-.852-.6-.852-.42,0-.768.3-1.1.827v4.354h-1.9V19.4h1.655l.132.756a2.426,2.426,0,0,1,1.943-.96A1.691,1.691,0,0,1,339.576,21.112Z"/><path class="cls-9" d="M345.037,20.021a1.653,1.653,0,0,1,1.2,1.643c0,1.235-1.019,2.135-2.674,2.135a3.529,3.529,0,0,1-.732-.072.408.408,0,0,0-.2.36c0,.191.084.384.7.384h.959c1.488,0,2.435.779,2.435,1.846,0,1.308-1.152,2.112-3.334,2.112-2.41,0-3.046-.792-3.046-2.051h1.7c0,.552.239.791,1.391.791,1.115,0,1.38-.312,1.38-.72,0-.371-.277-.623-.913-.623h-.922c-1.392,0-1.955-.576-1.955-1.26a1.517,1.517,0,0,1,.754-1.223,1.875,1.875,0,0,1-1.138-1.822c0-1.44,1.127-2.328,2.794-2.328a5.053,5.053,0,0,0,3-.827l.443,1.4A5.005,5.005,0,0,1,345.037,20.021ZM342.519,21.5c0,.7.383,1.079.959,1.079.624,0,.959-.371.959-1.1,0-.708-.324-1.033-.959-1.033A.936.936,0,0,0,342.519,21.5Z"/><path class="cls-5" d="M362.376,39.128l6.942,6.942m-11.039-6.942,6.943,6.942m-11.039-6.942,6.942,6.942m-11.039-6.942,6.942,6.942m-11.039-6.942,6.942,6.942m-11.039-6.942,6.943,6.942M337.8,39.128l6.942,6.942M333.7,39.128l6.942,6.942M329.6,39.128l6.942,6.942m-11.039-6.942,6.943,6.942m-11.039-6.942,6.942,6.942m-11.039-6.942,6.942,6.942m-11.039-6.942,6.942,6.942m-11.039-6.942,6.943,6.942m-11.039-6.942,6.942,6.942m-11.039-6.942,6.942,6.942m-11.039-6.942,6.942,6.942m-11.039-6.942,6.943,6.942m-11.039-6.942,6.942,6.942m-11.039-6.942,6.942,6.942m-11.039-6.942,6.942,6.942m-11.039-6.942,6.943,6.942m-11.039-6.942,6.942,6.942m-11.039-6.942,6.942,6.942m-11.039-6.942L271,46.07m-11.039-6.942L266.9,46.07m-11.039-6.942L262.8,46.07m-11.039-6.942,6.942,6.942m-11.039-6.942,6.942,6.942M243.57,39.128l6.943,6.942m-11.039-6.942,6.942,6.942m-11.039-6.942,6.942,6.942M231.28,39.128l6.942,6.942m-11.039-6.942,6.943,6.942m-11.039-6.942,6.942,6.942M218.99,39.128l6.942,6.942"/><polyline class="cls-6" points="361.343 63.235 380.424 44.154 361.343 25.074"/><circle class="cls-7" cx="238.98" cy="44.154" r="39"/><path class="cls-8" d="M220.665,39.637l-1.019,1.068a2.361,2.361,0,0,0-1.667-.66c-1.164,0-2.027.863-2.027,2.926,0,2.183.575,2.927,1.727,2.927a2.285,2.285,0,0,0,1.127-.275V43.738h-1.079l-.192-1.39h3.178v4.113a5.63,5.63,0,0,1-3.022.877c-2.507,0-3.778-1.524-3.778-4.367,0-2.819,1.763-4.354,3.97-4.354A4.072,4.072,0,0,1,220.665,39.637Z"/><path class="cls-8" d="M227.518,44.506h-3.946c.132,1.14.671,1.451,1.451,1.451a2.59,2.59,0,0,0,1.523-.562l.78,1.054a3.915,3.915,0,0,1-2.483.889c-2.123,0-3.2-1.367-3.2-3.359,0-1.907,1.043-3.418,2.974-3.418,1.823,0,2.938,1.2,2.938,3.261A6.351,6.351,0,0,1,227.518,44.506Zm-1.824-1.223c-.011-.863-.276-1.463-1.031-1.463-.636,0-1.008.409-1.091,1.547h2.122Z"/><path class="cls-8" d="M233.23,41.34l-.7,1.08a2.8,2.8,0,0,0-1.511-.5c-.576,0-.828.191-.828.48,0,.336.168.479,1.308.815,1.259.359,1.967.889,1.967,2.027,0,1.319-1.247,2.1-2.831,2.1a3.968,3.968,0,0,1-2.662-.947l.935-1.045a2.667,2.667,0,0,0,1.667.636c.588,0,.936-.216.936-.587,0-.444-.192-.577-1.344-.9-1.259-.359-1.882-1.008-1.882-1.99,0-1.092,1-1.943,2.6-1.943A3.712,3.712,0,0,1,233.23,41.34Z"/><path class="cls-8" d="M236.711,47.338c-1.4-.014-2.087-.8-2.087-2.3V42.084h-.9V40.766h.9V39.385l1.9-.215v1.6h1.463l-.2,1.318h-1.259V45.01c0,.613.2.828.6.828a1.273,1.273,0,0,0,.683-.215l.636,1.211A3.153,3.153,0,0,1,236.711,47.338Z"/><path class="cls-8" d="M244.569,46.066l-.4,1.235a1.59,1.59,0,0,1-1.535-.924,2.141,2.141,0,0,1-1.919.961,1.924,1.924,0,0,1-2.074-1.992c0-1.391,1.055-2.147,2.986-2.147h.647v-.275c0-.756-.3-.985-1.079-.985a5.8,5.8,0,0,0-1.667.336l-.432-1.246a7.193,7.193,0,0,1,2.4-.468c1.847,0,2.638.779,2.638,2.255v2.471C244.137,45.777,244.269,45.957,244.569,46.066Zm-2.291-.7V44.242h-.467c-.864,0-1.284.3-1.284.936a.711.711,0,0,0,.744.8A1.135,1.135,0,0,0,242.278,45.371Z"/><path class="cls-8" d="M247.811,45.838a.88.88,0,0,0,.312-.061l.371,1.344a3.4,3.4,0,0,1-1.223.217,1.577,1.577,0,0,1-1.679-1.8v-7.3l1.895-.2v7.315C247.487,45.707,247.607,45.838,247.811,45.838Z"/><path class="cls-8" d="M251.482,47.338c-1.4-.014-2.086-.8-2.086-2.3V42.084h-.9V40.766h.9V39.385l1.9-.215v1.6h1.463l-.2,1.318h-1.259V45.01c0,.613.2.828.6.828a1.276,1.276,0,0,0,.684-.215l.635,1.211A3.15,3.15,0,0,1,251.482,47.338Z"/><path class="cls-8" d="M259.245,44.506H255.3c.132,1.14.672,1.451,1.451,1.451a2.588,2.588,0,0,0,1.523-.562l.78,1.054a3.915,3.915,0,0,1-2.483.889c-2.122,0-3.2-1.367-3.2-3.359,0-1.907,1.044-3.418,2.975-3.418,1.822,0,2.938,1.2,2.938,3.261A6.348,6.348,0,0,1,259.245,44.506Zm-1.823-1.223c-.012-.863-.276-1.463-1.031-1.463-.636,0-1.008.409-1.092,1.547h2.123Z"/><path class="cls-8" d="M264.465,40.668l-.3,1.836a2.244,2.244,0,0,0-.575-.084c-.792,0-1.115.588-1.319,1.559v3.154h-1.9V40.766h1.655L262.187,42a1.8,1.8,0,0,1,1.642-1.416A2.175,2.175,0,0,1,264.465,40.668Z"/><circle class="cls-7" cx="433.961" cy="44.309" r="39"/><path class="cls-8" d="M407.53,40.379V42.37h2.555v1.379H407.53v2.123h3.13v1.415h-5.1V38.976h5.1l-.2,1.4Z"/><path class="cls-8" d="M417.332,42.634v4.653h-1.895v-4.33c0-.671-.228-.852-.6-.852-.419,0-.768.3-1.1.829v4.353h-1.895V40.919h1.655l.132.755a2.422,2.422,0,0,1,1.943-.959A1.691,1.691,0,0,1,417.332,42.634Z"/><path class="cls-8" d="M424.472,47.287h-1.679l-.1-.743a2.123,2.123,0,0,1-1.81.947c-1.619,0-2.423-1.344-2.423-3.406,0-1.967,1-3.37,2.639-3.37a2.064,2.064,0,0,1,1.475.6V38.185l1.895.2Zm-1.895-1.907V42.634a1.239,1.239,0,0,0-.983-.54c-.684,0-1.164.576-1.164,2,0,1.583.431,2,1.055,2A1.271,1.271,0,0,0,422.577,45.38Z"/><path class="cls-8" d="M425.963,47.287v-8.9l1.894-.2v9.1Zm5.984,0h-2.135l-1.894-3.478,1.942-2.89h1.931l-1.931,2.794Z"/><path class="cls-8" d="M436.316,47.287l-.084-.8a2.2,2.2,0,0,1-1.93,1.008c-1.188,0-1.776-.767-1.776-2V40.919h1.9v4.329c0,.648.216.84.611.84a1.246,1.246,0,0,0,1.031-.744V40.919h1.9v6.368Z"/><path class="cls-8" d="M444.943,42.634v4.653h-1.894v-4.33c0-.671-.229-.852-.6-.852-.419,0-.767.3-1.1.829v4.353h-1.9V40.919h1.655l.132.755a2.424,2.424,0,0,1,1.944-.959A1.691,1.691,0,0,1,444.943,42.634Z"/><path class="cls-8" d="M452.083,47.287H450.4l-.1-.743a2.125,2.125,0,0,1-1.811.947c-1.619,0-2.423-1.344-2.423-3.406,0-1.967,1-3.37,2.639-3.37a2.062,2.062,0,0,1,1.475.6V38.185l1.9.2Zm-1.9-1.907V42.634a1.239,1.239,0,0,0-.983-.54c-.684,0-1.164.576-1.164,2,0,1.583.432,2,1.056,2A1.27,1.27,0,0,0,450.188,45.38Z"/><path class="cls-8" d="M455.637,38.64a1.122,1.122,0,0,1-2.243,0,1.122,1.122,0,0,1,2.243,0Zm-2.064,8.647V40.919h1.9v6.368Z"/><path class="cls-8" d="M462.451,42.634v4.653h-1.894v-4.33c0-.671-.229-.852-.6-.852-.42,0-.768.3-1.1.829v4.353h-1.9V40.919h1.655l.132.755a2.422,2.422,0,0,1,1.943-.959A1.691,1.691,0,0,1,462.451,42.634Z"/></g></svg>