<svg xmlns="http://www.w3.org/2000/svg" viewBox="0 0 208 137"><defs><style>.cls-1{fill:#e0e0e0;}.cls-2{fill:#9d9d9d;}</style></defs><title>design-templates</title><g id="bg"><rect class="cls-1" width="99" height="137"/><rect class="cls-1" x="109" width="99" height="137"/></g><g id="Layer_2" data-name="Layer 2"><rect class="cls-2" x="4" y="4" width="16" height="7"/><rect class="cls-2" x="4" y="13" width="91" height="2"/><rect class="cls-2" x="4" y="122" width="91" height="11"/><rect class="cls-2" x="25" y="23" width="43" height="4"/><rect class="cls-2" x="25" y="31" width="43" height="2"/><rect class="cls-2" x="25" y="35" width="43" height="2"/><rect class="cls-2" x="25" y="39" width="43" height="2"/><rect class="cls-2" x="25" y="43" width="43" height="2"/><rect class="cls-2" x="25" y="47" width="43" height="2"/><rect class="cls-2" x="25" y="51" width="43" height="2"/><rect class="cls-2" x="25" y="55" width="30.353" height="2"/><rect class="cls-2" x="25" y="61" width="43" height="2"/><rect class="cls-2" x="25" y="65" width="43" height="2"/><rect class="cls-2" x="25" y="69" width="43" height="2"/><rect class="cls-2" x="25" y="73" width="43" height="2"/><rect class="cls-2" x="25" y="77" width="43" height="2"/><rect class="cls-2" x="25" y="81" width="43" height="2"/><rect class="cls-2" x="25" y="85" width="30.353" height="2"/><rect class="cls-2" x="25" y="91" width="43" height="2"/><rect class="cls-2" x="25" y="95" width="43" height="2"/><rect class="cls-2" x="25" y="99" width="43" height="2"/><rect class="cls-2" x="25" y="103" width="43" height="2"/><rect class="cls-2" x="25" y="107" width="43" height="2"/><rect class="cls-2" x="25" y="111" width="43" height="2"/><rect class="cls-2" x="25" y="115" width="30.353" height="2"/><rect class="cls-2" x="4" y="23" width="16" height="2"/><rect class="cls-2" x="4" y="27" width="16" height="1"/><rect class="cls-2" x="4" y="29" width="16" height="1"/><rect class="cls-2" x="4" y="31" width="16" height="1"/><rect class="cls-2" x="4" y="33" width="16" height="1"/><rect class="cls-2" x="4" y="35" width="16" height="1"/><rect class="cls-2" x="4" y="37" width="16" height="1"/><rect class="cls-2" x="4" y="39" width="16" height="1"/><rect class="cls-2" x="4" y="47" width="16" height="2"/><rect class="cls-2" x="4" y="51" width="16" height="1"/><rect class="cls-2" x="4" y="53" width="16" height="1"/><rect class="cls-2" x="4" y="55" width="16" height="1"/><rect class="cls-2" x="4" y="57" width="16" height="1"/><rect class="cls-2" x="4" y="59" width="16" height="1"/><rect class="cls-2" x="4" y="61" width="16" height="1"/><rect class="cls-2" x="4" y="63" width="16" height="1"/><rect class="cls-2" x="72" y="7" width="23" height="4"/><rect class="cls-2" x="72" y="23" width="23" height="23"/><rect class="cls-2" x="72" y="50" width="23" height="23"/><rect class="cls-2" x="113" y="70" width="6" height="6"/><rect class="cls-2" x="113" y="4" width="16" height="7"/><rect class="cls-2" x="113" y="13" width="91" height="2"/><rect class="cls-2" x="113" y="122" width="91" height="11"/><rect class="cls-2" x="138" y="23" width="43" height="4"/><rect class="cls-2" x="138" y="92" width="43" height="2"/><rect class="cls-2" x="138" y="96" width="43" height="2"/><rect class="cls-2" x="138" y="100" width="43" height="2"/><rect class="cls-2" x="138" y="104" width="43" height="2"/><rect class="cls-2" x="138" y="108" width="43" height="2"/><rect class="cls-2" x="138" y="112" width="43" height="2"/><rect class="cls-2" x="138" y="116" width="30.353" height="2"/><rect class="cls-2" x="138" y="70" width="43" height="2"/><rect class="cls-2" x="138" y="74" width="43" height="2"/><rect class="cls-2" x="138" y="78" width="43" height="2"/><rect class="cls-2" x="138" y="82" width="43" height="2"/><rect class="cls-2" x="138" y="86" width="30.353" height="2"/><rect class="cls-2" x="188" y="70" width="16" height="2"/><rect class="cls-2" x="188" y="74" width="16" height="1"/><rect class="cls-2" x="188" y="76" width="16" height="1"/><rect class="cls-2" x="188" y="78" width="16" height="1"/><rect class="cls-2" x="188" y="80" width="16" height="1"/><rect class="cls-2" x="188" y="82" width="16" height="1"/><rect class="cls-2" x="188" y="84" width="16" height="1"/><rect class="cls-2" x="188" y="86" width="16" height="1"/><rect class="cls-2" x="120" y="70" width="10" height="1"/><rect class="cls-2" x="120" y="72" width="10" height="1"/><rect class="cls-2" x="181" y="7" width="23" height="4"/><rect class="cls-2" x="109" y="31" width="99" height="34"/></g></svg>