<svg xmlns="http://www.w3.org/2000/svg" viewBox="0 0 430 160"><defs><style>.cls-1,.cls-2{fill:#fff;}.cls-2{stroke:#000;stroke-miterlimit:10;stroke-width:2px;}.cls-3{fill:#0054a2;}.cls-4{fill:#b27000;}.cls-5{fill:#006984;}.cls-6{fill:#ca0022;}</style></defs><title>html-component-page</title><g id="Layer_2" data-name="Layer 2"><rect class="cls-1" x="229" y="28" width="140" height="107"/><path d="M368,29V134H230V29H368m2-2H228V136H370V27Z"/><rect class="cls-1" x="239" y="44" width="120" height="81"/><path d="M358,45v79H240V45H358m2-2H238v83H360V43Z"/><rect class="cls-1" x="229" y="28" width="140" height="8"/><path d="M368,29v6H230V29H368m2-2H228V37H370V27Z"/><line class="cls-2" x1="242" y1="32" x2="366" y2="32"/><rect x="232" y="31" width="2" height="2"/><rect x="235" y="31" width="2" height="2"/></g><g id="Layer_1" data-name="Layer 1"><path d="M8.332,7.8,7.408,8.871a2.721,2.721,0,0,0-1.81-.7c-.684,0-1.116.288-1.116.815s.312.744,1.608,1.152c1.57.5,2.471,1.151,2.471,2.686s-1.225,2.627-3.3,2.627a4.411,4.411,0,0,1-3.155-1.187l1.008-1.1a3.009,3.009,0,0,0,2.086.828c.817,0,1.32-.384,1.32-1.02,0-.612-.312-.887-1.523-1.259-1.859-.576-2.543-1.343-2.543-2.579,0-1.463,1.272-2.4,3-2.4A3.881,3.881,0,0,1,8.332,7.8Z"/><path d="M15.725,12.625H11.778c.132,1.139.671,1.451,1.451,1.451a2.578,2.578,0,0,0,1.523-.564l.78,1.055a3.915,3.915,0,0,1-2.483.888c-2.122,0-3.2-1.368-3.2-3.358,0-1.907,1.043-3.418,2.973-3.418,1.824,0,2.939,1.2,2.939,3.262A6.634,6.634,0,0,1,15.725,12.625ZM13.9,11.4c-.011-.863-.275-1.463-1.031-1.463-.635,0-1.007.408-1.091,1.547H13.9Z"/><path d="M19.518,6.6a1.122,1.122,0,1,1-1.127-1.08A1.072,1.072,0,0,1,19.518,6.6Zm-2.063,8.647V8.882h1.9v6.369Z"/><path d="M23.705,15.455c-1.4-.012-2.086-.8-2.086-2.3V10.2h-.9V8.882h.9V7.5l1.895-.216V8.882h1.463l-.2,1.32H23.514v2.926c0,.612.2.828.6.828a1.261,1.261,0,0,0,.684-.216l.636,1.211A3.156,3.156,0,0,1,23.705,15.455Z"/><path d="M32.068,12.625H28.122c.132,1.139.671,1.451,1.451,1.451a2.578,2.578,0,0,0,1.523-.564l.78,1.055a3.915,3.915,0,0,1-2.483.888c-2.122,0-3.2-1.368-3.2-3.358,0-1.907,1.043-3.418,2.974-3.418,1.823,0,2.939,1.2,2.939,3.262A6.361,6.361,0,0,1,32.068,12.625ZM30.244,11.4c-.012-.863-.275-1.463-1.031-1.463-.635,0-1.007.408-1.091,1.547h2.122Z"/><path d="M42.735,14.184l-.395,1.235a1.591,1.591,0,0,1-1.535-.923,2.145,2.145,0,0,1-1.919.959,1.924,1.924,0,0,1-2.075-1.991c0-1.391,1.055-2.147,2.986-2.147h.648v-.275c0-.756-.3-.984-1.08-.984a5.735,5.735,0,0,0-1.667.336l-.431-1.248a7.206,7.206,0,0,1,2.4-.467c1.847,0,2.639.779,2.639,2.255V13.4C42.3,13.9,42.436,14.076,42.735,14.184Zm-2.29-.7V12.36h-.468c-.864,0-1.284.3-1.284.936a.712.712,0,0,0,.745.8A1.135,1.135,0,0,0,40.445,13.488Z"/><path d="M46.577,13.956a.9.9,0,0,0,.312-.06l.372,1.343a3.427,3.427,0,0,1-1.224.216,1.577,1.577,0,0,1-1.679-1.8v-7.3l1.9-.2v7.316C46.254,13.824,46.373,13.956,46.577,13.956Z"/><path d="M53.164,9.458l-.7,1.08a2.806,2.806,0,0,0-1.512-.5c-.576,0-.828.192-.828.48,0,.336.168.479,1.309.815,1.258.36,1.966.888,1.966,2.027,0,1.319-1.248,2.1-2.831,2.1a3.963,3.963,0,0,1-2.663-.948l.936-1.043a2.667,2.667,0,0,0,1.668.636c.588,0,.935-.216.935-.588,0-.444-.192-.576-1.344-.9-1.259-.36-1.882-1.007-1.882-1.99,0-1.092,1-1.943,2.6-1.943A3.712,3.712,0,0,1,53.164,9.458Z"/><path d="M58.459,15.251V6.939h1.967v8.312Zm6.955,0H63.136l-2.651-4.438,2.638-3.874H65.2l-2.651,3.73Z"/><path d="M72.255,12.073c0,2.039-1.175,3.382-3.118,3.382s-3.118-1.247-3.118-3.394c0-2.039,1.174-3.382,3.118-3.382S72.255,9.926,72.255,12.073Zm-4.27-.012c0,1.415.384,2,1.152,2s1.151-.611,1.151-1.99c0-1.415-.384-2-1.151-2S67.985,10.682,67.985,12.061Z"/><path d="M82.693,10.6v4.653H80.8v-4.33c0-.671-.252-.851-.54-.851-.407,0-.7.3-.972.827v4.354H77.393v-4.33c0-.671-.252-.851-.54-.851-.4,0-.7.3-.972.827v4.354H73.986V8.882h1.656l.131.744a2.223,2.223,0,0,1,1.847-.947,1.512,1.512,0,0,1,1.5,1.007,2.237,2.237,0,0,1,1.907-1.007C82.01,8.679,82.693,9.386,82.693,10.6Z"/><path d="M90.7,12.049c0,1.967-.96,3.406-2.531,3.406a1.988,1.988,0,0,1-1.547-.66v2.914l-1.894.205V8.882h1.666l.1.708a2.3,2.3,0,0,1,1.8-.911C89.967,8.679,90.7,9.986,90.7,12.049Zm-1.967.024c0-1.583-.384-2-1.044-2a1.29,1.29,0,0,0-1.067.743V13.5a1.127,1.127,0,0,0,.971.563C88.3,14.063,88.732,13.5,88.732,12.073Z"/><path d="M98.366,12.073c0,2.039-1.175,3.382-3.118,3.382s-3.118-1.247-3.118-3.394c0-2.039,1.175-3.382,3.118-3.382S98.366,9.926,98.366,12.073ZM94.1,12.061c0,1.415.383,2,1.151,2s1.151-.611,1.151-1.99c0-1.415-.383-2-1.151-2S94.1,10.682,94.1,12.061Z"/><path d="M105.591,10.6v4.653H103.7v-4.33c0-.671-.227-.851-.6-.851-.42,0-.768.3-1.1.827v4.354H100.1V8.882h1.655l.132.756a2.424,2.424,0,0,1,1.943-.959A1.691,1.691,0,0,1,105.591,10.6Z"/><path d="M113.139,12.625h-3.946c.132,1.139.672,1.451,1.452,1.451a2.585,2.585,0,0,0,1.523-.564l.779,1.055a3.912,3.912,0,0,1-2.482.888c-2.123,0-3.2-1.368-3.2-3.358,0-1.907,1.044-3.418,2.974-3.418,1.824,0,2.939,1.2,2.939,3.262A6.361,6.361,0,0,1,113.139,12.625ZM111.316,11.4c-.011-.863-.276-1.463-1.031-1.463-.637,0-1.008.408-1.092,1.547h2.123Z"/><path d="M120.362,10.6v4.653h-1.894v-4.33c0-.671-.228-.851-.6-.851-.42,0-.767.3-1.1.827v4.354h-1.9V8.882h1.655l.132.756a2.426,2.426,0,0,1,1.944-.959A1.691,1.691,0,0,1,120.362,10.6Z"/><path d="M124.66,15.455c-1.4-.012-2.087-.8-2.087-2.3V10.2h-.9V8.882h.9V7.5l1.9-.216V8.882h1.463l-.2,1.32h-1.259v2.926c0,.612.2.828.6.828a1.263,1.263,0,0,0,.684-.216l.635,1.211A3.15,3.15,0,0,1,124.66,15.455Z"/><path d="M133.022,12.625h-3.946c.133,1.139.672,1.451,1.451,1.451a2.583,2.583,0,0,0,1.524-.564l.779,1.055a3.912,3.912,0,0,1-2.482.888c-2.123,0-3.2-1.368-3.2-3.358,0-1.907,1.043-3.418,2.974-3.418,1.823,0,2.939,1.2,2.939,3.262A6.111,6.111,0,0,1,133.022,12.625ZM131.2,11.4c-.011-.863-.275-1.463-1.031-1.463-.636,0-1.008.408-1.092,1.547H131.2Z"/><path class="cls-3" d="M3.163,40.806V31.931H4.11l.084.863a2.294,2.294,0,0,1,1.871-1.007c1.679,0,2.29,1.307,2.29,3.3,0,1.919-.8,3.31-2.433,3.31a2.041,2.041,0,0,1-1.656-.72v3Zm4.018-5.721c0-1.644-.445-2.423-1.392-2.423a1.923,1.923,0,0,0-1.523.984v3.082a1.628,1.628,0,0,0,1.392.768C6.665,37.5,7.181,36.74,7.181,35.085Z"/><path class="cls-3" d="M14.98,36.824c0,.5.156.7.5.8l-.264.768a1.319,1.319,0,0,1-1.2-.888,2.46,2.46,0,0,1-1.992.888A1.9,1.9,0,0,1,9.943,36.44c0-1.307,1.091-2.039,3.01-2.039h.924v-.492c0-.887-.552-1.223-1.476-1.223a5.233,5.233,0,0,0-1.655.324l-.287-.816a6.09,6.09,0,0,1,2.11-.407c1.607,0,2.411.779,2.411,2.063Zm-1.1-.132V35.133h-.863c-1.356,0-1.86.492-1.86,1.259a1.038,1.038,0,0,0,1.176,1.175A1.87,1.87,0,0,0,13.877,36.692Z"/><path class="cls-3" d="M18.09,38.551a1.19,1.19,0,0,0-.108.491c0,.564.54.9,1.8.9,1.4,0,1.823-.432,1.823-.971s-.347-.8-1.51-.852c-1.584-.06-2.448-.408-2.448-1.283a1.309,1.309,0,0,1,.636-1.067,1.978,1.978,0,0,1-1.007-1.764,2.276,2.276,0,0,1,2.518-2.218,6.592,6.592,0,0,0,2.9-.564l.325,1a5.931,5.931,0,0,1-1.776.192v.036a1.686,1.686,0,0,1,1.008,1.571,2.183,2.183,0,0,1-2.435,2.135,3.51,3.51,0,0,1-.876-.108.726.726,0,0,0-.263.492c0,.384.24.576,1.559.611,1.6.048,2.483.612,2.483,1.764,0,1.319-1.32,1.895-2.939,1.895-1.99,0-2.782-.648-2.782-1.559a1.622,1.622,0,0,1,.239-.924Zm1.7-3.131a1.3,1.3,0,0,0,1.367-1.427,1.258,1.258,0,0,0-1.367-1.415,1.421,1.421,0,0,0,0,2.842Z"/><path class="cls-3" d="M25.65,35.469c.1,1.4.852,2.027,1.811,2.027a2.526,2.526,0,0,0,1.68-.588l.5.731a3.606,3.606,0,0,1-2.206.756c-1.883,0-2.94-1.332-2.94-3.3,0-1.907,1.08-3.31,2.76-3.31,1.654,0,2.65,1.187,2.65,3.118,0,.216-.012.42-.024.564Zm0-.816h3.19c-.024-1.307-.6-1.991-1.582-1.991C26.394,32.662,25.734,33.3,25.65,34.653Z"/><path class="cls-3" d="M39.223,33.837V32.9h4.749v.935Zm0,2.3v-.935h4.749v.935Z"/><path class="cls-3" d="M57.076,30.6,54.57,29.592l.563-.936,2.279,1.356Z"/><path class="cls-3" d="M7.648,45.5l.528.828L3.979,48.9l4.2,2.579-.575.8-4.57-2.854V48.357Z"/><path class="cls-4" d="M14.129,46.918V43.656l1.1.132v8.863H14.26l-.1-.816a2.114,2.114,0,0,1-1.787.96c-1.643,0-2.4-1.332-2.4-3.3,0-1.907.923-3.31,2.482-3.31A2.094,2.094,0,0,1,14.129,46.918ZM11.166,49.5c0,1.631.516,2.422,1.463,2.422a1.846,1.846,0,0,0,1.5-.971V47.841a1.653,1.653,0,0,0-1.38-.779C11.742,47.062,11.166,47.854,11.166,49.5Z"/><path class="cls-4" d="M20.837,51.8H22.6v.852H17.8V51.8h1.93V47.182h-1.87v-.851h2.974Zm-.552-6.968a.75.75,0,1,1,.779-.755A.743.743,0,0,1,20.285,44.831Z"/><path class="cls-4" d="M27.833,52.651H26.549l-2.266-6.32h1.175l1.739,5.3h.035l1.741-5.3h1.138Z"/><path class="cls-4" d="M43.648,51.32l.528.755a3.568,3.568,0,0,1-2.159.72c-1.908,0-3-1.3-3-3.274,0-1.907,1.1-3.334,3.01-3.334a3.264,3.264,0,0,1,2.147.707l-.54.744a2.62,2.62,0,0,0-1.607-.54c-1.068,0-1.823.779-1.823,2.423s.768,2.338,1.823,2.338A2.7,2.7,0,0,0,43.648,51.32Z"/><path class="cls-4" d="M51.147,52.459a3.592,3.592,0,0,1-1.535.336,1.746,1.746,0,0,1-1.919-1.847V44.639H45.762v-.851H48.8v7.256c0,.611.42.839,1.019.839a2.949,2.949,0,0,0,1.043-.216Z"/><path class="cls-4" d="M58.18,51.224c0,.5.156.7.5.8l-.264.768a1.317,1.317,0,0,1-1.2-.888,2.46,2.46,0,0,1-1.992.888,1.9,1.9,0,0,1-2.086-1.955c0-1.307,1.091-2.039,3.009-2.039h.924v-.492c0-.887-.552-1.223-1.474-1.223a5.234,5.234,0,0,0-1.656.324l-.288-.816a6.1,6.1,0,0,1,2.112-.407c1.606,0,2.41.779,2.41,2.063Zm-1.1-.132V49.533h-.863c-1.356,0-1.859.491-1.859,1.259a1.037,1.037,0,0,0,1.175,1.175A1.869,1.869,0,0,0,57.076,51.092Z"/><path class="cls-4" d="M64.408,50.948c0-.612-.2-.84-1.512-1.176-1.247-.323-2.085-.731-2.085-1.834,0-1.068.97-1.751,2.446-1.751a3.7,3.7,0,0,1,2.194.671l-.492.744a2.749,2.749,0,0,0-1.678-.54c-.984,0-1.332.3-1.332.8,0,.527.384.719,1.619,1.067,1.211.336,2.028.708,2.028,1.931,0,1.379-1.321,1.931-2.7,1.931a3.833,3.833,0,0,1-2.566-.864l.611-.7a3.133,3.133,0,0,0,1.955.671C63.832,51.907,64.408,51.536,64.408,50.948Z"/><path class="cls-4" d="M71.607,50.948c0-.612-.2-.84-1.51-1.176-1.247-.323-2.087-.731-2.087-1.834,0-1.068.97-1.751,2.447-1.751a3.7,3.7,0,0,1,2.194.671l-.492.744a2.754,2.754,0,0,0-1.679-.54c-.983,0-1.332.3-1.332.8,0,.527.385.719,1.62,1.067,1.211.336,2.027.708,2.027,1.931,0,1.379-1.319,1.931-2.7,1.931a3.841,3.841,0,0,1-2.568-.864l.613-.7a3.128,3.128,0,0,0,1.955.671C71.032,51.907,71.607,51.536,71.607,50.948Z"/><path class="cls-4" d="M75.222,48.237V47.3h4.749v.935Zm0,2.3V49.6h4.749v.936Z"/><path class="cls-5" d="M83.309,46.93l-.192-3.142h1.32l-.193,3.142Zm2.039,0-.192-3.142h1.32l-.193,3.142Z"/><path class="cls-5" d="M89.562,55.206V46.331h.948l.084.863a2.289,2.289,0,0,1,1.871-1.007c1.678,0,2.29,1.307,2.29,3.3,0,1.919-.8,3.311-2.435,3.311a2.039,2.039,0,0,1-1.655-.72v3Zm4.018-5.722c0-1.643-.444-2.422-1.392-2.422a1.926,1.926,0,0,0-1.523.983v3.083a1.627,1.627,0,0,0,1.392.768C93.064,51.9,93.58,51.14,93.58,49.484Z"/><path class="cls-5" d="M101.379,51.224c0,.5.156.7.5.8l-.264.768a1.318,1.318,0,0,1-1.2-.888,2.458,2.458,0,0,1-1.991.888,1.9,1.9,0,0,1-2.087-1.955c0-1.307,1.092-2.039,3.01-2.039h.923v-.492c0-.887-.551-1.223-1.474-1.223a5.223,5.223,0,0,0-1.655.324l-.289-.816a6.1,6.1,0,0,1,2.112-.407c1.606,0,2.41.779,2.41,2.063Zm-1.1-.132V49.533h-.863c-1.355,0-1.859.491-1.859,1.259a1.038,1.038,0,0,0,1.176,1.175A1.868,1.868,0,0,0,100.275,51.092Z"/><path class="cls-5" d="M104.488,52.951a1.2,1.2,0,0,0-.107.491c0,.564.54.9,1.8.9,1.4,0,1.823-.432,1.823-.971s-.348-.8-1.511-.852c-1.584-.06-2.447-.408-2.447-1.283a1.312,1.312,0,0,1,.636-1.068,1.976,1.976,0,0,1-1.007-1.763,2.276,2.276,0,0,1,2.517-2.218,6.6,6.6,0,0,0,2.9-.564l.324,1a5.925,5.925,0,0,1-1.775.192v.036a1.684,1.684,0,0,1,1.007,1.571,2.182,2.182,0,0,1-2.434,2.135,3.5,3.5,0,0,1-.876-.108.727.727,0,0,0-.264.492c0,.384.24.576,1.56.611,1.594.049,2.482.612,2.482,1.764,0,1.319-1.319,1.9-2.938,1.9-1.991,0-2.783-.648-2.783-1.56a1.623,1.623,0,0,1,.24-.923Zm1.7-3.131a1.3,1.3,0,0,0,1.368-1.427,1.258,1.258,0,0,0-1.368-1.415,1.421,1.421,0,0,0,0,2.842Z"/><path class="cls-5" d="M112.049,49.868c.1,1.4.851,2.028,1.81,2.028a2.528,2.528,0,0,0,1.68-.588l.5.731a3.609,3.609,0,0,1-2.207.756c-1.883,0-2.939-1.332-2.939-3.3,0-1.907,1.08-3.31,2.759-3.31,1.655,0,2.651,1.187,2.651,3.118,0,.216-.012.42-.024.563Zm0-.815h3.19c-.024-1.307-.6-1.991-1.583-1.991C112.793,47.062,112.133,47.7,112.049,49.053Z"/><path class="cls-5" d="M119.309,46.93l-.192-3.142h1.319l-.192,3.142Zm2.039,0-.192-3.142h1.319l-.192,3.142Z"/><path class="cls-3" d="M130.574,48.357v1.068L126,52.279l-.575-.8,4.2-2.579-4.2-2.566.528-.828Z"/><path class="cls-6" d="M19.722,67.183a3.96,3.96,0,0,1-2.531-1.128l.635-.707a2.945,2.945,0,0,0,1.9.923V63.045c-1.44-.48-2.219-1.188-2.219-2.3a2.174,2.174,0,0,1,2.219-2.075v-1.8h.827v1.8a3.879,3.879,0,0,1,2.219.96l-.648.671a2.789,2.789,0,0,0-1.571-.743v2.662c1.248.408,2.327,1.08,2.327,2.543a2.413,2.413,0,0,1-2.327,2.386V68.9h-.827Zm0-5.242V59.579a1.131,1.131,0,0,0-1.079,1.127C18.643,61.246,18.87,61.594,19.722,61.941Zm.827,1.392v2.89A1.314,1.314,0,0,0,21.713,64.8C21.713,64.148,21.425,63.705,20.549,63.333Z"/><path class="cls-6" d="M25.35,62.409c.828,0,1.2-.419,1.2-1.247V58.931c0-1.5,1.044-1.907,2.483-1.907v.852c-.864,0-1.439.216-1.439.936V61.2a1.419,1.419,0,0,1-1.259,1.631v.048c.779.132,1.259.564,1.259,1.631V66.9c0,.731.575.936,1.439.936v.851c-1.439,0-2.483-.408-2.483-1.907V64.556c0-.827-.371-1.259-1.2-1.259Z"/><path d="M35.236,66.2H37v.852H32.2V66.2h1.931V61.582H32.262V60.73h2.974Zm-.551-6.968a.75.75,0,1,1,0-1.5.75.75,0,1,1,0,1.5Z"/><path d="M39.162,67.051V60.73h.947l.084.864a2.728,2.728,0,0,1,2.076-1.008c1.223,0,1.775.7,1.775,1.872v4.593h-1.1V63.177c0-1.236-.12-1.727-1.044-1.727a2.164,2.164,0,0,0-1.63,1.019v4.582Z"/><path d="M46.362,67.051V58.2l1.1-.12v3.454a2.66,2.66,0,0,1,2-.948c1.222,0,1.774.7,1.774,1.872v4.593h-1.1V62.529c0-.756-.325-1.079-1.044-1.079a2.166,2.166,0,0,0-1.632,1.019v4.582Z"/><path d="M58.18,65.624c0,.5.156.7.5.8l-.264.768a1.317,1.317,0,0,1-1.2-.888,2.46,2.46,0,0,1-1.992.888,1.9,1.9,0,0,1-2.086-1.955c0-1.307,1.091-2.039,3.009-2.039h.924v-.492c0-.887-.552-1.223-1.474-1.223a5.234,5.234,0,0,0-1.656.324l-.288-.816a6.108,6.108,0,0,1,2.112-.408c1.606,0,2.41.78,2.41,2.063Zm-1.1-.132V63.933h-.863c-1.356,0-1.859.491-1.859,1.259a1.037,1.037,0,0,0,1.175,1.175A1.871,1.871,0,0,0,57.076,65.492Z"/><path d="M65.547,66.859a3.6,3.6,0,0,1-1.535.336,1.745,1.745,0,0,1-1.918-1.847V59.039H60.162v-.851H63.2v7.256c0,.611.419.839,1.02.839a2.953,2.953,0,0,0,1.043-.216Z"/><path d="M73.179,66.727a3.389,3.389,0,0,1-1.74.468,1.913,1.913,0,0,1-2.158-1.955V61.57H67.842v-.84h1.439V59.3l1.1-.132V60.73h2.17l-.131.84H70.385v3.658c0,.708.336,1.055,1.175,1.055a2.345,2.345,0,0,0,1.2-.312Z"/><path class="cls-6" d="M79.443,63.3c-.827,0-1.2.432-1.2,1.259v2.219c0,1.5-1.043,1.907-2.482,1.907v-.851c.863,0,1.439-.2,1.439-.936V64.508c0-1.067.48-1.5,1.259-1.631v-.048A1.419,1.419,0,0,1,77.2,61.2V58.812c0-.72-.576-.936-1.439-.936v-.852c1.439,0,2.482.408,2.482,1.907v2.231c0,.828.372,1.247,1.2,1.247Z"/><path class="cls-3" d="M7.648,74.3l.528.828L3.979,77.7l4.2,2.579-.575.8-4.57-2.855V77.158Z"/><path class="cls-3" d="M10.687,82.7,9.8,82.3,14.92,71.736l.875.42Z"/><path class="cls-4" d="M18.666,75.934a2.207,2.207,0,0,1,1.787-.947c1.68,0,2.363,1.307,2.363,3.3,0,1.919-.876,3.31-2.507,3.31a2.025,2.025,0,0,1-1.7-.791l-.072.647h-.972V72.588l1.1-.132Zm2.963,2.351c0-1.643-.5-2.423-1.44-2.423a1.925,1.925,0,0,0-1.523.984v3.082a1.647,1.647,0,0,0,1.379.792C21.053,80.72,21.629,79.94,21.629,78.285Z"/><path class="cls-4" d="M27.209,74.987c1.8,0,2.746,1.3,2.746,3.3,0,1.955-.971,3.31-2.758,3.31s-2.759-1.3-2.759-3.3C24.438,76.342,25.41,74.987,27.209,74.987Zm0,.887c-1.055,0-1.595.768-1.595,2.423s.528,2.411,1.583,2.411,1.583-.768,1.583-2.423S28.252,75.874,27.209,75.874Z"/><path class="cls-4" d="M35.729,75.718V72.456l1.1.132v8.863h-.973l-.095-.815a2.115,2.115,0,0,1-1.787.959c-1.643,0-2.4-1.331-2.4-3.3,0-1.907.924-3.31,2.483-3.31A2.1,2.1,0,0,1,35.729,75.718ZM32.766,78.3c0,1.631.515,2.423,1.463,2.423a1.846,1.846,0,0,0,1.5-.972V76.642a1.652,1.652,0,0,0-1.38-.78C33.342,75.862,32.766,76.654,32.766,78.3Z"/><path class="cls-4" d="M42.293,81.487a3.218,3.218,0,0,1-2.9,2.519l-.157-.864a2.157,2.157,0,0,0,2.015-1.691h-.372L38.7,75.131H39.87L41.6,80.563h.047l1.714-5.432H44.5Z"/><path class="cls-3" d="M51.375,77.158v1.067L46.806,81.08l-.576-.8,4.2-2.579-4.2-2.566.528-.828Z"/><path class="cls-3" d="M57.076,73.8,54.57,72.792l.563-.936,2.279,1.356Z"/><path d="M302.206,13.684c0,1.167-.9,1.567-2.183,1.567H298.5V9.742h1.3c1.358,0,2.159.432,2.159,1.391a1.228,1.228,0,0,1-1.032,1.208C301.574,12.453,302.206,12.749,302.206,13.684Zm-2.942-1.607h.832c.615,0,1.094-.3,1.094-.888,0-.679-.487-.847-1.3-.847h-.623Zm2.142,1.607c0-.776-.575-1.024-1.239-1.024h-.9v1.984h.759C300.822,14.644,301.406,14.483,301.406,13.684Z"/><path d="M305.574,10.989l-.135.72a1.325,1.325,0,0,0-.369-.048c-.527,0-.831.376-1.007,1.183v2.407h-.735V11.037h.631l.072.856a1.2,1.2,0,0,1,1.128-.952A1.834,1.834,0,0,1,305.574,10.989Z"/><path d="M309.79,13.14c0,1.3-.688,2.207-1.879,2.207s-1.88-.864-1.88-2.2c0-1.3.689-2.207,1.888-2.207S309.79,11.805,309.79,13.14Zm-2.967.008c0,1.1.384,1.607,1.088,1.607S309,14.244,309,13.14s-.384-1.607-1.079-1.607S306.823,12.045,306.823,13.148Z"/><path d="M313.782,15.251l-.735-3.55-.76,3.55h-.975l-.984-4.214h.736l.76,3.7.831-3.7h.824l.791,3.7.767-3.7h.7l-.96,4.214Z"/><path d="M319.238,11.421l-.32.488a1.767,1.767,0,0,0-1.087-.384c-.479,0-.775.216-.775.552s.223.5.9.679c.888.224,1.4.576,1.4,1.311,0,.88-.807,1.28-1.663,1.28A2.339,2.339,0,0,1,316.1,14.8l.408-.463a1.759,1.759,0,0,0,1.168.423c.55,0,.9-.248.9-.615,0-.44-.208-.6-1.023-.816-.912-.24-1.272-.632-1.272-1.231,0-.664.648-1.152,1.519-1.152A2.236,2.236,0,0,1,319.238,11.421Z"/><path d="M323.566,13.4H320.88c.072.976.528,1.351,1.136,1.351a1.772,1.772,0,0,0,1.095-.368l.32.44a2.3,2.3,0,0,1-1.472.528c-1.175,0-1.863-.824-1.863-2.159,0-1.311.664-2.247,1.752-2.247,1.134,0,1.734.792,1.734,2.079C323.582,13.164,323.574,13.3,323.566,13.4Zm-.711-.592c0-.823-.328-1.279-.992-1.279-.559,0-.927.392-.983,1.328h1.975Z"/><path d="M327.047,10.989l-.137.72a1.315,1.315,0,0,0-.367-.048c-.527,0-.832.376-1.008,1.183v2.407H324.8V11.037h.632l.072.856a1.2,1.2,0,0,1,1.127-.952A1.856,1.856,0,0,1,327.047,10.989Z"/><path d="M274.966,76.286l-.432.48a1.77,1.77,0,0,0-1.239-.5c-.552,0-.992.255-.992.783,0,.464.217.688,1.208.992.88.271,1.631.615,1.631,1.671,0,.959-.728,1.631-1.967,1.631a2.575,2.575,0,0,1-1.871-.712l.44-.488a1.955,1.955,0,0,0,1.423.576c.647,0,1.183-.32,1.183-.983,0-.536-.256-.776-1.192-1.064-1.07-.327-1.631-.735-1.631-1.591a1.542,1.542,0,0,1,1.736-1.439A2.324,2.324,0,0,1,274.966,76.286Z"/><path d="M279.39,79.4H276.7c.072.976.527,1.351,1.135,1.351a1.775,1.775,0,0,0,1.1-.368l.32.44a2.3,2.3,0,0,1-1.471.528c-1.176,0-1.863-.824-1.863-2.159,0-1.311.663-2.247,1.751-2.247,1.136,0,1.735.792,1.735,2.079C279.406,79.164,279.4,79.3,279.39,79.4Zm-.712-.592c0-.823-.328-1.279-.991-1.279-.56,0-.927.392-.984,1.328h1.975Z"/><path d="M281.5,75.518a.516.516,0,1,1-.52-.5A.49.49,0,0,1,281.5,75.518Zm-.88,5.733V77.037h.736v4.214Z"/><path d="M284.062,81.347a1.059,1.059,0,0,1-1.134-1.2V77.605h-.737v-.568h.737v-.951l.735-.088v1.039h1l-.079.568h-.92v2.511c0,.424.136.623.5.623a1.028,1.028,0,0,0,.56-.184l.279.5A1.6,1.6,0,0,1,284.062,81.347Z"/><path d="M288.854,79.4h-2.687c.072.976.528,1.351,1.136,1.351a1.772,1.772,0,0,0,1.1-.368l.32.44a2.3,2.3,0,0,1-1.472.528c-1.175,0-1.863-.824-1.863-2.159,0-1.311.664-2.247,1.752-2.247,1.135,0,1.734.792,1.734,2.079C288.869,79.164,288.861,79.3,288.854,79.4Zm-.711-.592c0-.823-.329-1.279-.993-1.279-.559,0-.927.392-.983,1.328h1.976Z"/><path d="M297.58,78.229v3.022h-.735V78.333c0-.632-.273-.816-.592-.816-.456,0-.7.3-.991.744v2.99h-.737V78.333c0-.632-.271-.816-.59-.816-.456,0-.712.3-.992.744v2.99h-.736V77.037h.632l.063.616a1.41,1.41,0,0,1,1.216-.712,1.063,1.063,0,0,1,1.064.76,1.46,1.46,0,0,1,1.256-.76A1.143,1.143,0,0,1,297.58,78.229Z"/><path d="M299.943,75.518a.516.516,0,1,1-.52-.5A.49.49,0,0,1,299.943,75.518Zm-.88,5.733V77.037h.736v4.214Z"/><path d="M302.5,81.347a1.059,1.059,0,0,1-1.135-1.2V77.605h-.736v-.568h.736v-.951L302.1,76v1.039h1l-.08.568H302.1v2.511c0,.424.135.623.5.623a1.028,1.028,0,0,0,.56-.184l.279.5A1.6,1.6,0,0,1,302.5,81.347Z"/><path d="M306.367,81.251V75.742h.768v5.509Z"/><path d="M311.9,78.229v3.022h-.735V78.333c0-.632-.256-.816-.664-.816a1.273,1.273,0,0,0-1.071.744v2.99H308.7V77.037h.631l.065.624a1.529,1.529,0,0,1,1.287-.72A1.153,1.153,0,0,1,311.9,78.229Z"/><path d="M316.59,78.229v3.022h-.736V78.333c0-.632-.272-.816-.672-.816a1.29,1.29,0,0,0-1.063.735v3h-.736v-5.9l.736-.079v2.35a1.511,1.511,0,0,1,1.247-.68A1.161,1.161,0,0,1,316.59,78.229Z"/><path d="M321.262,80.835l-.168.512a.85.85,0,0,1-.824-.632,1.435,1.435,0,0,1-1.255.632,1.225,1.225,0,0,1-1.343-1.271c0-.9.68-1.391,1.854-1.391h.648v-.312c0-.608-.3-.832-.879-.832a3.768,3.768,0,0,0-1.136.224l-.184-.536a4.127,4.127,0,0,1,1.455-.288c1.015,0,1.48.52,1.48,1.4v1.927C320.91,80.635,321.045,80.755,321.262,80.835Zm-1.088-.695v-.968h-.552c-.775,0-1.167.288-1.167.864a.664.664,0,0,0,.728.759A1.084,1.084,0,0,0,320.174,80.14Z"/><path d="M323.383,80.739a.716.716,0,0,0,.271-.048l.192.512a1.424,1.424,0,0,1-.623.144c-.535,0-.84-.32-.84-.928V75.342l.736-.088V80.4C323.119,80.627,323.191,80.739,323.383,80.739Z"/><path d="M325.95,81.347a1.059,1.059,0,0,1-1.136-1.2V77.605h-.735v-.568h.735v-.951l.737-.088v1.039h1l-.08.568h-.919v2.511c0,.424.136.623.5.623a1.024,1.024,0,0,0,.558-.184l.281.5A1.607,1.607,0,0,1,325.95,81.347Z"/><path d="M235.412,11.053c0,3.346-2.016,4.2-4.139,4.2h-2.494V6.939h2.315C233.312,6.939,235.412,7.623,235.412,11.053Zm-4.666,2.771h.648c1.187,0,1.979-.564,1.979-2.771,0-2.231-.852-2.686-2-2.686h-.623Z"/><path d="M241.928,14.184l-.4,1.235A1.592,1.592,0,0,1,240,14.5a2.145,2.145,0,0,1-1.919.959A1.924,1.924,0,0,1,236,13.464c0-1.391,1.055-2.147,2.986-2.147h.647v-.275c0-.756-.3-.984-1.079-.984a5.729,5.729,0,0,0-1.667.336l-.432-1.248a7.22,7.22,0,0,1,2.4-.467c1.848,0,2.639.779,2.639,2.255V13.4C241.5,13.9,241.628,14.076,241.928,14.184Zm-2.291-.7V12.36h-.467c-.863,0-1.283.3-1.283.936a.711.711,0,0,0,.743.8A1.134,1.134,0,0,0,239.637,13.488Z"/><path d="M247.1,8.787l-.3,1.835a2.3,2.3,0,0,0-.576-.084c-.791,0-1.116.587-1.319,1.559v3.154h-1.9V8.882h1.655l.156,1.236A1.8,1.8,0,0,1,246.465,8.7,2.151,2.151,0,0,1,247.1,8.787Z"/><path d="M252.284,9.458l-.7,1.08a2.8,2.8,0,0,0-1.511-.5c-.575,0-.827.192-.827.48,0,.336.168.479,1.307.815,1.259.36,1.966.888,1.966,2.027,0,1.319-1.247,2.1-2.83,2.1a3.957,3.957,0,0,1-2.662-.948l.936-1.043a2.659,2.659,0,0,0,1.666.636c.588,0,.935-.216.935-.588,0-.444-.191-.576-1.342-.9-1.259-.36-1.883-1.007-1.883-1.99,0-1.092,1-1.943,2.6-1.943A3.71,3.71,0,0,1,252.284,9.458Z"/><path d="M255.766,15.455c-1.405-.012-2.088-.8-2.088-2.3V10.2h-.9V8.882h.9V7.5l1.9-.216V8.882h1.464l-.2,1.32h-1.259v2.926c0,.612.2.828.6.828a1.255,1.255,0,0,0,.683-.216l.636,1.211A3.15,3.15,0,0,1,255.766,15.455Z"/><path d="M263.527,12.625h-3.945c.132,1.139.672,1.451,1.451,1.451a2.585,2.585,0,0,0,1.524-.564l.779,1.055a3.914,3.914,0,0,1-2.482.888c-2.124,0-3.2-1.368-3.2-3.358,0-1.907,1.044-3.418,2.975-3.418,1.823,0,2.938,1.2,2.938,3.262A6.114,6.114,0,0,1,263.527,12.625ZM261.705,11.4c-.012-.863-.276-1.463-1.031-1.463-.637,0-1.008.408-1.092,1.547h2.123Z"/><path d="M266.816,13.956a.9.9,0,0,0,.313-.06l.371,1.343a3.421,3.421,0,0,1-1.223.216,1.577,1.577,0,0,1-1.679-1.8v-7.3l1.895-.2v7.316C266.493,13.824,266.613,13.956,266.816,13.956Z"/><path d="M270.381,13.956a.9.9,0,0,0,.312-.06l.371,1.343a3.424,3.424,0,0,1-1.222.216,1.577,1.577,0,0,1-1.68-1.8v-7.3l1.9-.2v7.316C270.057,13.824,270.178,13.956,270.381,13.956Z"/><path d="M275.516,15.251l-.084-.8a2.2,2.2,0,0,1-1.931,1.008c-1.187,0-1.774-.767-1.774-2V8.882h1.894v4.33c0,.648.216.84.611.84a1.247,1.247,0,0,0,1.032-.744V8.882h1.895v6.369Z"/><path d="M284.144,10.6v4.653h-1.9v-4.33c0-.671-.227-.851-.6-.851-.419,0-.767.3-1.1.827v4.354h-1.9V8.882h1.656l.132.756a2.421,2.421,0,0,1,1.943-.959A1.691,1.691,0,0,1,284.144,10.6Z"/><path d="M289.6,9.506a1.653,1.653,0,0,1,1.2,1.643c0,1.236-1.02,2.135-2.674,2.135a3.539,3.539,0,0,1-.733-.072.411.411,0,0,0-.2.36c0,.192.084.384.7.384h.959c1.488,0,2.435.779,2.435,1.847,0,1.307-1.151,2.111-3.334,2.111-2.411,0-3.047-.792-3.047-2.051h1.7c0,.552.241.791,1.392.791,1.115,0,1.379-.312,1.379-.719,0-.372-.276-.624-.911-.624h-.924c-1.391,0-1.955-.576-1.955-1.259a1.518,1.518,0,0,1,.756-1.224,1.876,1.876,0,0,1-1.14-1.823c0-1.439,1.128-2.326,2.8-2.326a5.047,5.047,0,0,0,3-.828l.444,1.4A4.984,4.984,0,0,1,289.6,9.506Zm-2.518,1.475c0,.7.383,1.08.959,1.08.623,0,.959-.372.959-1.1,0-.708-.323-1.032-.959-1.032A.935.935,0,0,0,287.086,10.981Z"/></g></svg>