<svg xmlns="http://www.w3.org/2000/svg" viewBox="0 0 1410 410"><defs><style>.cls-1{fill:#fff;}.cls-2{fill:#646464;}.cls-3{fill:none;stroke:#9e9e9e;stroke-miterlimit:10;stroke-width:10px;}.cls-4{fill:#0054a2;}</style></defs><g id="bg"><rect class="cls-1" width="410" height="410"/><rect class="cls-1" x="500" width="410" height="410"/><rect class="cls-1" x="1000" width="410" height="410"/></g><g id="bg-2" data-name="bg"><rect class="cls-2" x="5" y="5" width="200" height="200"/><rect class="cls-2" x="505" y="5" width="200" height="200"/><rect class="cls-2" x="1005" y="5" width="200" height="200"/></g><g id="grid"><line class="cls-3" x1="5" x2="5" y2="410"/><line class="cls-3" x1="505" x2="505" y2="410"/><line class="cls-3" x1="1005" x2="1005" y2="410"/><line class="cls-3" y1="405" x2="410" y2="405"/><line class="cls-3" x1="500" y1="405" x2="910" y2="405"/><line class="cls-3" x1="1000" y1="405" x2="1410" y2="405"/><line class="cls-3" x1="605" x2="605" y2="410"/><line class="cls-3" x1="1071.67" x2="1071.67" y2="410"/><line class="cls-3" x1="500" y1="305" x2="910" y2="305"/><line class="cls-3" x1="1000" y1="338.33" x2="1410" y2="338.33"/><line class="cls-3" x1="205" x2="205" y2="410"/><line class="cls-3" x1="705" x2="705" y2="410"/><line class="cls-3" x1="1205" x2="1205" y2="410"/><line class="cls-3" x1="1271.67" y1="0.5" x2="1271.67" y2="410.5"/><line class="cls-3" x1="1138.33" y1="0.5" x2="1138.33" y2="410.5"/><line class="cls-3" y1="205" x2="410" y2="205"/><line class="cls-3" x1="500" y1="205" x2="910" y2="205"/><line class="cls-3" x1="1000" y1="205" x2="1410" y2="205"/><line class="cls-3" x1="1000" y1="271.67" x2="1410" y2="271.67"/><line class="cls-3" x1="805" x2="805" y2="410"/><line class="cls-3" x1="1338.33" x2="1338.33" y2="410"/><line class="cls-3" x1="500" y1="105" x2="910" y2="105"/><line class="cls-3" x1="1000" y1="138.33" x2="1410" y2="138.33"/><line class="cls-3" x1="1000" y1="71.67" x2="1410" y2="71.67"/><line class="cls-3" x1="405" x2="405" y2="410"/><line class="cls-3" x1="905" x2="905" y2="410"/><line class="cls-3" x1="1405" x2="1405" y2="410"/><line class="cls-3" y1="5" x2="410" y2="5"/><line class="cls-3" x1="500" y1="5" x2="910" y2="5"/><line class="cls-3" x1="1000" y1="5" x2="1410" y2="5"/></g><g id="Layer_6" data-name="Layer 6"><circle class="cls-4" cx="305" cy="104" r="48"/><path d="M305,60a44,44,0,1,1-44,44,44.05,44.05,0,0,1,44-44m0-8a52,52,0,1,0,52,52,52,52,0,0,0-52-52Z"/><path class="cls-1" d="M294.22,112.8h8V92.88l-6.68,4-3.4-5,10.75-6.53h6.81V112.8h6.2v5.81h-21.7Z"/><circle class="cls-4" cx="805" cy="104" r="48"/><path d="M805,60a44,44,0,1,1-44,44,44.05,44.05,0,0,1,44-44m0-8a52,52,0,1,0,52,52,52,52,0,0,0-52-52Z"/><path class="cls-1" d="M801.28,112.75h14.16l-.82,5.86H792.44v-5.43c10.9-10.56,14.4-14.54,14.4-18.48a4.08,4.08,0,0,0-4.41-4.32c-2.31,0-4.08,1-5.95,3.36l-4.71-3.55a13.66,13.66,0,0,1,11.47-5.72c7.54,0,11.43,4.37,11.43,9.56C814.67,99,811.36,103.72,801.28,112.75Z"/><circle class="cls-4" cx="1305" cy="104" r="48"/><path d="M1305,60a44,44,0,1,1-44,44,44.05,44.05,0,0,1,44-44m0-8a52,52,0,1,0,52,52,52,52,0,0,0-52-52Z"/><path class="cls-1" d="M1291.44,89a15.81,15.81,0,0,1,11.42-4.52c7.2,0,11.38,3.89,11.38,8.55,0,4.22-2.69,6.77-6.34,7.82v.2c4,.57,7.39,2.92,7.39,8.21,0,5.61-4.89,10.17-12.91,10.17a15.07,15.07,0,0,1-11.76-5l4.32-4a8.87,8.87,0,0,0,6.91,3.17c3.27,0,5.57-1.73,5.57-4.85,0-3.51-2.06-5-5.62-5h-3l.86-5.28h2.16c2.93,0,5-1.44,5-4.32,0-2.45-2-4-4.8-4a9.34,9.34,0,0,0-6.63,2.88Z"/></g></svg>