<svg xmlns="http://www.w3.org/2000/svg" viewBox="0 0 478 136"><defs><style>.cls-1,.cls-3,.cls-4,.cls-8{fill:#fff;}.cls-2,.cls-6,.cls-7{fill:none;}.cls-2,.cls-3,.cls-4,.cls-6,.cls-7,.cls-8{stroke:#000;}.cls-2,.cls-3,.cls-4{stroke-miterlimit:10;}.cls-2,.cls-3{stroke-width:2px;}.cls-4{stroke-width:5px;}.cls-5{fill:#ca0022;}.cls-6{stroke-width:1.496px;}.cls-7,.cls-8{stroke-width:8px;}.cls-9{fill:#0054a2;}.cls-10{fill:#006984;}</style></defs><title>design-web</title><g id="Layer_2" data-name="Layer 2"><path class="cls-1" d="M137.853,83.458a12.1,12.1,0,0,0-2.536.272A11.931,11.931,0,0,0,114,78.226a6.415,6.415,0,0,0-8.178,7.219,11.582,11.582,0,0,0,4.428,22.137v.017h4.45a12.07,12.07,0,0,0,18.641,0h4.511a12.071,12.071,0,0,0,0-24.141Z"/><path class="cls-2" d="M137.853,83.458a12.1,12.1,0,0,0-2.536.272A11.931,11.931,0,0,0,114,78.226a6.415,6.415,0,0,0-8.178,7.219,11.582,11.582,0,0,0,4.428,22.137v.017h4.45a12.07,12.07,0,0,0,18.641,0h4.511a12.071,12.071,0,0,0,0-24.141Z"/><rect class="cls-1" x="284" y="76" width="78" height="57"/><path d="M361,77v55H285V77h76m2-2H283v59h80V75Z"/><rect class="cls-1" x="284" y="76" width="78" height="7.219"/><path d="M361,77v5.219H285V77h76m2-2H283v9.219h80V75Z"/><line class="cls-3" x1="297" y1="79.609" x2="359" y2="79.609"/><rect x="287" y="78.688" width="2" height="1.844"/><rect x="290" y="78.688" width="2" height="1.844"/><circle class="cls-3" cx="105.5" cy="115.5" r="5.5"/><circle class="cls-3" cx="95" cy="120" r="3"/></g><g id="Layer_1" data-name="Layer 1"><rect class="cls-2" x="291" y="91" width="26" height="35"/><line class="cls-2" x1="291" y1="91" x2="317" y2="126"/><rect class="cls-3" x="323" y="99.448" width="32" height="26.552"/><line class="cls-4" x1="356" y1="92.81" x2="322" y2="92.81"/><path class="cls-5" d="M100.061,64.611V56.3h1.966v8.31Zm6.956,0h-2.279l-2.65-4.437,2.639-3.873H106.8L104.15,60.03Z"/><path class="cls-5" d="M113.258,61.434c0,2.039-1.175,3.382-3.118,3.382s-3.119-1.248-3.119-3.394c0-2.039,1.176-3.383,3.119-3.383S113.258,59.287,113.258,61.434Zm-4.27-.012c0,1.415.384,2,1.152,2s1.151-.612,1.151-1.99c0-1.415-.384-2-1.151-2S108.988,60.043,108.988,61.422Z"/><path class="cls-5" d="M119.882,59.959v4.652h-1.9V60.282c0-.672-.228-.851-.6-.851-.42,0-.768.3-1.1.827v4.353h-1.9V58.243h1.655l.132.756a2.423,2.423,0,0,1,1.943-.96A1.692,1.692,0,0,1,119.882,59.959Z"/><path class="cls-5" d="M122.92,63.173h2.938l-.168,1.438h-4.964V63.269l2.889-3.6h-2.637V58.243H125.8v1.331Z"/><path class="cls-5" d="M132.338,61.985h-3.946c.131,1.14.671,1.452,1.451,1.452a2.589,2.589,0,0,0,1.523-.564l.78,1.055a3.917,3.917,0,0,1-2.483.888c-2.123,0-3.2-1.368-3.2-3.359,0-1.906,1.043-3.418,2.975-3.418,1.822,0,2.938,1.2,2.938,3.263A6.611,6.611,0,0,1,132.338,61.985Zm-1.823-1.223c-.012-.864-.276-1.463-1.032-1.463-.635,0-1.007.408-1.091,1.547h2.123Z"/><path class="cls-5" d="M139.441,61.41c0,1.967-.96,3.406-2.531,3.406a1.988,1.988,0,0,1-1.547-.66V67.07l-1.9.2V58.243h1.668l.095.708a2.3,2.3,0,0,1,1.8-.912C138.709,58.039,139.441,59.347,139.441,61.41Zm-1.967.024c0-1.583-.384-2-1.043-2a1.291,1.291,0,0,0-1.068.743v2.687a1.129,1.129,0,0,0,.972.563C137.042,63.424,137.474,62.861,137.474,61.434Z"/><path class="cls-5" d="M142.9,64.816c-1.4-.012-2.087-.8-2.087-2.3V59.562h-.9V58.243h.9V56.864l1.895-.216v1.595h1.463l-.2,1.319h-1.26v2.926c0,.613.2.828.6.828a1.267,1.267,0,0,0,.683-.215l.636,1.211A3.153,3.153,0,0,1,142.9,64.816Z"/><path class="cls-6" d="M167.4,38.974l6.942,6.942M163.3,38.974l6.943,6.942M159.2,38.974l6.942,6.942M155.1,38.974l6.942,6.942m-11.039-6.942,6.942,6.942m-11.039-6.942,6.943,6.942m-11.039-6.942,6.942,6.942m-11.039-6.942,6.942,6.942m-11.039-6.942,6.942,6.942m-11.039-6.942,6.943,6.942m-11.039-6.942,6.942,6.942m-11.039-6.942,6.942,6.942m-11.039-6.942,6.942,6.942m-11.039-6.942,6.943,6.942m-11.039-6.942,6.942,6.942m-11.039-6.942,6.942,6.942m-11.039-6.942,6.942,6.942M97.75,38.974l6.943,6.942M93.654,38.974l6.942,6.942M89.557,38.974,96.5,45.916M85.46,38.974,92.4,45.916M81.363,38.974l6.943,6.942M77.267,38.974l6.942,6.942M73.17,38.974l6.942,6.942M69.073,38.974l6.942,6.942M64.976,38.974l6.943,6.942M60.88,38.974l6.942,6.942M56.783,38.974l6.942,6.942M52.686,38.974l6.942,6.942M48.589,38.974l6.943,6.942M44.493,38.974l6.942,6.942M40.4,38.974l6.942,6.942M36.3,38.974l6.942,6.942M32.2,38.974l6.943,6.942M28.106,38.974l6.942,6.942M24.009,38.974l6.942,6.942"/><polyline class="cls-7" points="166.363 63.08 185.444 44 166.363 24.92"/><circle class="cls-8" cx="44" cy="44" r="39"/><path class="cls-9" d="M27.344,46.979V38.668h1.967v8.311Zm6.956,0H32.021l-2.65-4.438,2.638-3.873h2.075l-2.65,3.73Z"/><path class="cls-9" d="M38.394,46.979l-.084-.8a2.2,2.2,0,0,1-1.931,1.008c-1.187,0-1.775-.768-1.775-2V40.611h1.9v4.328c0,.649.216.84.612.84a1.246,1.246,0,0,0,1.031-.744V40.611h1.895v6.368Z"/><path class="cls-9" d="M47.021,42.326v4.653h-1.9V42.648c0-.669-.228-.851-.6-.851-.42,0-.768.3-1.1.828v4.354h-1.9V40.611h1.655l.132.754a2.427,2.427,0,0,1,1.943-.959A1.691,1.691,0,0,1,47.021,42.326Z"/><path class="cls-9" d="M54.161,46.979H52.482l-.1-.743a2.124,2.124,0,0,1-1.811.948c-1.619,0-2.423-1.344-2.423-3.407,0-1.966,1-3.371,2.639-3.371a2.068,2.068,0,0,1,1.475.6V37.877l1.9.2Zm-1.9-1.907V42.326a1.24,1.24,0,0,0-.983-.541c-.684,0-1.164.576-1.164,2,0,1.582.432,2,1.056,2A1.268,1.268,0,0,0,52.266,45.072Z"/><path class="cls-9" d="M61.049,44.352H57.1c.131,1.14.671,1.451,1.451,1.451a2.587,2.587,0,0,0,1.523-.563l.779,1.055a3.913,3.913,0,0,1-2.482.889c-2.123,0-3.2-1.368-3.2-3.36,0-1.906,1.044-3.418,2.975-3.418,1.823,0,2.938,1.2,2.938,3.262A6.348,6.348,0,0,1,61.049,44.352Zm-1.823-1.223c-.012-.863-.276-1.463-1.031-1.463-.636,0-1.008.408-1.091,1.547h2.122Z"/><path class="cls-5" d="M303.246,57.318l-.923,1.068a2.725,2.725,0,0,0-1.811-.7c-.684,0-1.116.289-1.116.816s.313.744,1.608,1.151c1.571.5,2.471,1.152,2.471,2.687s-1.224,2.627-3.3,2.627a4.406,4.406,0,0,1-3.154-1.188l1.007-1.1a3.011,3.011,0,0,0,2.087.828c.816,0,1.32-.384,1.32-1.02,0-.612-.312-.887-1.524-1.259-1.858-.576-2.542-1.343-2.542-2.579,0-1.462,1.271-2.4,3-2.4A3.879,3.879,0,0,1,303.246,57.318Z"/><path class="cls-5" d="M304.21,67.429l-.2-1.332c1.247-.156,1.7-.516,2.051-1.331h-.648L303.466,58.4h2.015l1.139,5.158,1.248-5.158h1.954L307.8,64.778A3.549,3.549,0,0,1,304.21,67.429Z"/><path class="cls-5" d="M315.079,58.973l-.695,1.08a2.806,2.806,0,0,0-1.512-.5c-.575,0-.827.191-.827.479,0,.336.168.48,1.307.816,1.259.36,1.966.887,1.966,2.027,0,1.319-1.247,2.1-2.83,2.1a3.957,3.957,0,0,1-2.662-.948l.936-1.043a2.665,2.665,0,0,0,1.667.635c.587,0,.935-.216.935-.588,0-.443-.192-.575-1.343-.9-1.259-.359-1.883-1.007-1.883-1.99,0-1.092,1-1.944,2.6-1.944A3.7,3.7,0,0,1,315.079,58.973Z"/><path class="cls-5" d="M318.561,64.97c-1.4-.012-2.087-.8-2.087-2.3v-2.95h-.9V58.4h.9V57.019l1.894-.216V58.4h1.463l-.2,1.32h-1.26v2.926c0,.612.2.828.6.828a1.266,1.266,0,0,0,.683-.216l.636,1.211A3.15,3.15,0,0,1,318.561,64.97Z"/><path class="cls-5" d="M326.322,62.14h-3.946c.132,1.138.672,1.451,1.451,1.451a2.585,2.585,0,0,0,1.524-.565l.779,1.056a3.915,3.915,0,0,1-2.483.888c-2.123,0-3.2-1.367-3.2-3.359,0-1.906,1.043-3.418,2.975-3.418,1.822,0,2.938,1.2,2.938,3.263A6.389,6.389,0,0,1,326.322,62.14ZM324.5,60.916c-.012-.863-.275-1.463-1.031-1.463-.636,0-1.008.407-1.092,1.547H324.5Z"/><path class="cls-5" d="M336.161,60.112v4.654h-1.895V60.437c0-.672-.252-.852-.539-.852-.409,0-.7.3-.972.827v4.354h-1.9V60.437c0-.672-.252-.852-.539-.852-.4,0-.7.3-.971.827v4.354h-1.9V58.4h1.655l.132.744a2.225,2.225,0,0,1,1.848-.948,1.513,1.513,0,0,1,1.5,1.008,2.234,2.234,0,0,1,1.907-1.008C335.478,58.193,336.161,58.9,336.161,60.112Z"/><path class="cls-10" d="M102.326,23.189c0,1.895-1.535,2.422-3.622,2.422H96.029V17.3H98.38c2.231,0,3.6.563,3.6,2.123a1.809,1.809,0,0,1-1.524,1.787C101.379,21.391,102.326,21.846,102.326,23.189ZM98,20.623h.733c.815,0,1.247-.312,1.247-1.008s-.456-.924-1.4-.924H98Zm2.3,2.458c0-.839-.587-1.151-1.439-1.151H98v2.255h.72C99.64,24.185,100.3,23.992,100.3,23.081Z"/><path class="cls-10" d="M108.915,22.985h-3.946c.132,1.14.672,1.452,1.451,1.452a2.585,2.585,0,0,0,1.523-.564l.78,1.055a3.917,3.917,0,0,1-2.483.888c-2.123,0-3.2-1.368-3.2-3.359,0-1.906,1.043-3.418,2.975-3.418,1.823,0,2.938,1.2,2.938,3.263A6.611,6.611,0,0,1,108.915,22.985Zm-1.823-1.223c-.012-.864-.276-1.463-1.031-1.463-.636,0-1.008.408-1.092,1.547h2.123Z"/><path class="cls-10" d="M115.754,25.611h-1.679l-.1-.743a2.124,2.124,0,0,1-1.811.948c-1.619,0-2.423-1.343-2.423-3.406,0-1.967,1-3.371,2.639-3.371a2.067,2.067,0,0,1,1.475.6v-3.13l1.9.2Zm-1.9-1.906V20.959a1.238,1.238,0,0,0-.983-.541c-.684,0-1.163.576-1.163,2,0,1.583.432,2,1.055,2A1.267,1.267,0,0,0,113.859,23.705Z"/><path class="cls-10" d="M120.976,25.611l-.084-.8a2.206,2.206,0,0,1-1.931,1.007c-1.188,0-1.775-.767-1.775-2V19.243h1.894v4.329c0,.649.217.84.612.84a1.249,1.249,0,0,0,1.032-.743V19.243h1.894v6.368Zm-1.488-8.634a.972.972,0,1,1-.971-.948A.948.948,0,0,1,119.488,16.977Zm2.783,0a.972.972,0,1,1-.972-.948A.948.948,0,0,1,122.271,16.977Z"/><path class="cls-10" d="M128.2,19.147l-.3,1.835a2.335,2.335,0,0,0-.575-.084c-.792,0-1.115.588-1.319,1.559v3.154h-1.9V19.243h1.656l.156,1.236a1.8,1.8,0,0,1,1.642-1.416A2.171,2.171,0,0,1,128.2,19.147Z"/><path class="cls-10" d="M131.068,18.752v.491h1.5l-.2,1.319h-1.295v5.049h-1.9V20.562h-.959V19.243h.959V18.68a2.139,2.139,0,0,1,2.434-2.171,3.887,3.887,0,0,1,1.74.407l-.516,1.236a2.274,2.274,0,0,0-.995-.24C131.284,17.912,131.068,18.152,131.068,18.752Z"/><path class="cls-10" d="M138.686,20.959v4.652h-1.9V21.282c0-.672-.229-.851-.6-.851-.42,0-.767.3-1.1.827v4.353h-1.9V19.243h1.656l.131.756a2.427,2.427,0,0,1,1.944-.96A1.692,1.692,0,0,1,138.686,20.959Z"/><path class="cls-10" d="M142.18,16.965a1.122,1.122,0,1,1-1.128-1.08A1.073,1.073,0,0,1,142.18,16.965Zm-2.064,8.646V19.243h1.9v6.368Z"/><path class="cls-10" d="M148.082,19.818l-.695,1.08a2.8,2.8,0,0,0-1.512-.5c-.575,0-.827.191-.827.48,0,.336.168.479,1.306.814,1.26.361,1.968.889,1.968,2.028,0,1.319-1.248,2.1-2.831,2.1a3.957,3.957,0,0,1-2.662-.948l.936-1.044a2.655,2.655,0,0,0,1.667.637c.588,0,.935-.217.935-.588,0-.443-.192-.576-1.344-.9-1.258-.36-1.882-1.007-1.882-1.991,0-1.091,1-1.943,2.6-1.943A3.716,3.716,0,0,1,148.082,19.818Z"/><path class="cls-10" d="M293.114,22.588v3.178h-1.967V17.454h2.723c2.255,0,3.418.8,3.418,2.531a2.286,2.286,0,0,1-1.6,2.243l2.111,3.538h-2.219l-1.7-3.178Zm.828-1.356c.864,0,1.32-.372,1.32-1.247,0-.8-.468-1.151-1.44-1.151h-.708v2.4Z"/><path class="cls-10" d="M303.732,23.14h-3.946c.132,1.138.672,1.451,1.451,1.451a2.585,2.585,0,0,0,1.524-.565l.779,1.056a3.914,3.914,0,0,1-2.482.888c-2.123,0-3.2-1.367-3.2-3.359,0-1.906,1.043-3.418,2.975-3.418,1.822,0,2.939,1.2,2.939,3.263A6.387,6.387,0,0,1,303.732,23.14Zm-1.823-1.224c-.012-.863-.275-1.463-1.031-1.463-.636,0-1.008.407-1.092,1.547h2.123Z"/><path class="cls-10" d="M308.894,20.021a1.655,1.655,0,0,1,1.2,1.643c0,1.235-1.02,2.135-2.675,2.135a3.512,3.512,0,0,1-.731-.072.409.409,0,0,0-.2.36c0,.191.084.384.7.384h.959c1.487,0,2.434.779,2.434,1.846,0,1.308-1.151,2.112-3.334,2.112-2.41,0-3.046-.792-3.046-2.051h1.7c0,.552.239.791,1.39.791,1.115,0,1.38-.312,1.38-.72,0-.371-.276-.623-.912-.623h-.923c-1.392,0-1.955-.576-1.955-1.26a1.519,1.519,0,0,1,.755-1.223,1.875,1.875,0,0,1-1.139-1.822c0-1.44,1.127-2.328,2.794-2.328a5.05,5.05,0,0,0,3-.827l.444,1.4A5.012,5.012,0,0,1,308.894,20.021ZM306.375,21.5c0,.7.384,1.079.959,1.079.624,0,.96-.371.96-1.1,0-.708-.324-1.033-.96-1.033A.936.936,0,0,0,306.375,21.5Z"/><path class="cls-10" d="M316.812,23.14h-3.946c.132,1.138.672,1.451,1.451,1.451a2.585,2.585,0,0,0,1.524-.565l.779,1.056a3.914,3.914,0,0,1-2.482.888c-2.123,0-3.2-1.367-3.2-3.359,0-1.906,1.043-3.418,2.974-3.418,1.822,0,2.939,1.2,2.939,3.263A6.387,6.387,0,0,1,316.812,23.14Zm-1.823-1.224c-.011-.863-.275-1.463-1.031-1.463-.636,0-1.008.407-1.092,1.547h2.123Z"/><path class="cls-10" d="M320.1,24.471a.9.9,0,0,0,.311-.061l.372,1.344a3.425,3.425,0,0,1-1.223.216,1.577,1.577,0,0,1-1.679-1.8v-7.3l1.894-.2v7.316C319.777,24.339,319.9,24.471,320.1,24.471Z"/><path class="cls-10" d="M326.089,19.973l-.695,1.08a2.809,2.809,0,0,0-1.512-.5c-.575,0-.827.191-.827.479,0,.336.168.48,1.306.816,1.26.36,1.967.887,1.967,2.027,0,1.319-1.247,2.1-2.83,2.1a3.957,3.957,0,0,1-2.662-.948l.935-1.043a2.669,2.669,0,0,0,1.667.635c.587,0,.936-.216.936-.588,0-.443-.192-.575-1.344-.9-1.259-.359-1.883-1.007-1.883-1.99,0-1.092,1-1.944,2.6-1.944A3.7,3.7,0,0,1,326.089,19.973Z"/><path class="cls-10" d="M332.8,24.7l-.4,1.236a1.593,1.593,0,0,1-1.535-.923,2.145,2.145,0,0,1-1.919.959,1.924,1.924,0,0,1-2.075-1.991c0-1.391,1.056-2.147,2.986-2.147h.649v-.275c0-.756-.3-.985-1.08-.985a5.741,5.741,0,0,0-1.667.336l-.432-1.247a7.193,7.193,0,0,1,2.4-.468c1.847,0,2.638.78,2.638,2.255v2.471C332.364,24.41,332.5,24.591,332.8,24.7Zm-2.29-.7V22.875h-.468c-.864,0-1.284.3-1.284.936a.711.711,0,0,0,.744.8A1.136,1.136,0,0,0,330.506,24Z"/><path class="cls-10" d="M336.146,25.97c-1.4-.012-2.086-.8-2.086-2.3v-2.95h-.9V19.4h.9V18.019l1.894-.216V19.4h1.463l-.2,1.32h-1.26v2.926c0,.612.2.828.6.828a1.266,1.266,0,0,0,.683-.216l.636,1.211A3.15,3.15,0,0,1,336.146,25.97Z"/><path class="cls-10" d="M340.237,24.327h2.939l-.168,1.439h-4.965V24.423l2.89-3.6H338.3V19.4h4.821v1.332Z"/><path class="cls-6" d="M362.376,39.128l6.942,6.942m-11.039-6.942,6.943,6.942m-11.039-6.942,6.942,6.942m-11.039-6.942,6.942,6.942m-11.039-6.942,6.942,6.942m-11.039-6.942,6.943,6.942M337.8,39.128l6.942,6.942M333.7,39.128l6.942,6.942M329.6,39.128l6.942,6.942m-11.039-6.942,6.943,6.942m-11.039-6.942,6.942,6.942m-11.039-6.942,6.942,6.942m-11.039-6.942,6.942,6.942m-11.039-6.942,6.943,6.942m-11.039-6.942,6.942,6.942m-11.039-6.942,6.942,6.942m-11.039-6.942,6.942,6.942m-11.039-6.942,6.943,6.942m-11.039-6.942,6.942,6.942m-11.039-6.942,6.942,6.942m-11.039-6.942,6.942,6.942m-11.039-6.942,6.943,6.942m-11.039-6.942,6.942,6.942m-11.039-6.942,6.942,6.942m-11.039-6.942L271,46.07m-11.039-6.942L266.9,46.07m-11.039-6.942L262.8,46.07m-11.039-6.942,6.942,6.942m-11.039-6.942,6.942,6.942M243.57,39.128l6.943,6.942m-11.039-6.942,6.942,6.942m-11.039-6.942,6.942,6.942M231.28,39.128l6.942,6.942m-11.039-6.942,6.943,6.942m-11.039-6.942,6.942,6.942M218.99,39.128l6.942,6.942"/><polyline class="cls-7" points="361.343 63.235 380.424 44.154 361.343 25.074"/><circle class="cls-8" cx="238.98" cy="44.154" r="39"/><path class="cls-9" d="M215.511,39.637l-1.019,1.068a2.36,2.36,0,0,0-1.667-.66c-1.163,0-2.027.863-2.027,2.926,0,2.183.576,2.927,1.727,2.927a2.28,2.28,0,0,0,1.127-.275V43.738h-1.079l-.192-1.39h3.179v4.113a5.636,5.636,0,0,1-3.023.877c-2.507,0-3.778-1.524-3.778-4.367,0-2.819,1.763-4.354,3.97-4.354A4.071,4.071,0,0,1,215.511,39.637Z"/><path class="cls-9" d="M222.364,44.506h-3.946c.132,1.14.671,1.451,1.451,1.451a2.59,2.59,0,0,0,1.523-.562l.78,1.054a3.915,3.915,0,0,1-2.483.889c-2.123,0-3.2-1.367-3.2-3.359,0-1.907,1.043-3.418,2.974-3.418,1.823,0,2.938,1.2,2.938,3.261A6.351,6.351,0,0,1,222.364,44.506Zm-1.823-1.223c-.012-.863-.276-1.463-1.032-1.463-.635,0-1.007.409-1.091,1.547h2.123Z"/><path class="cls-9" d="M228.076,41.34l-.7,1.08a2.8,2.8,0,0,0-1.511-.5c-.576,0-.827.191-.827.48,0,.336.167.479,1.307.815,1.259.359,1.967.889,1.967,2.027,0,1.319-1.248,2.1-2.831,2.1a3.968,3.968,0,0,1-2.662-.947l.935-1.045a2.667,2.667,0,0,0,1.667.636c.588,0,.936-.216.936-.587,0-.444-.192-.577-1.343-.9-1.26-.359-1.883-1.008-1.883-1.99,0-1.092,1-1.943,2.6-1.943A3.71,3.71,0,0,1,228.076,41.34Z"/><path class="cls-9" d="M231.557,47.338c-1.4-.014-2.087-.8-2.087-2.3V42.084h-.9V40.766h.9V39.385l1.9-.215v1.6h1.464l-.2,1.318h-1.26V45.01c0,.613.2.828.6.828a1.27,1.27,0,0,0,.683-.215l.636,1.211A3.15,3.15,0,0,1,231.557,47.338Z"/><path class="cls-9" d="M239.415,46.066,239.02,47.3a1.59,1.59,0,0,1-1.536-.924,2.141,2.141,0,0,1-1.919.961,1.924,1.924,0,0,1-2.074-1.992c0-1.391,1.055-2.147,2.986-2.147h.648v-.275c0-.756-.3-.985-1.08-.985a5.8,5.8,0,0,0-1.667.336l-.432-1.246a7.193,7.193,0,0,1,2.4-.468c1.847,0,2.638.779,2.638,2.255v2.471C238.983,45.777,239.115,45.957,239.415,46.066Zm-2.29-.7V44.242h-.468c-.864,0-1.283.3-1.283.936a.711.711,0,0,0,.743.8A1.137,1.137,0,0,0,237.125,45.371Z"/><path class="cls-9" d="M242.657,45.838a.88.88,0,0,0,.312-.061l.371,1.344a3.4,3.4,0,0,1-1.223.217,1.577,1.577,0,0,1-1.679-1.8v-7.3l1.9-.2v7.315C242.333,45.707,242.453,45.838,242.657,45.838Z"/><path class="cls-9" d="M246.329,47.338c-1.4-.014-2.087-.8-2.087-2.3V42.084h-.9V40.766h.9V39.385l1.9-.215v1.6H247.6l-.2,1.318h-1.259V45.01c0,.613.2.828.6.828a1.276,1.276,0,0,0,.684-.215l.636,1.211A3.155,3.155,0,0,1,246.329,47.338Z"/><path class="cls-9" d="M254.091,44.506h-3.945c.131,1.14.671,1.451,1.451,1.451a2.592,2.592,0,0,0,1.523-.562l.779,1.054a3.913,3.913,0,0,1-2.482.889c-2.123,0-3.2-1.367-3.2-3.359,0-1.907,1.044-3.418,2.974-3.418,1.824,0,2.939,1.2,2.939,3.261A6.348,6.348,0,0,1,254.091,44.506Zm-1.823-1.223c-.012-.863-.276-1.463-1.031-1.463-.636,0-1.008.409-1.091,1.547h2.122Z"/><path class="cls-9" d="M259.312,40.668l-.3,1.836a2.265,2.265,0,0,0-.576-.084c-.791,0-1.116.588-1.32,1.559v3.154h-1.894V40.766h1.655L257.032,42a1.8,1.8,0,0,1,1.644-1.416A2.185,2.185,0,0,1,259.312,40.668Z"/><path class="cls-9" d="M262.1,38.486a1.122,1.122,0,1,1-1.128-1.08A1.073,1.073,0,0,1,262.1,38.486Zm-2.064,8.647V40.766h1.9v6.367Z"/><path class="cls-9" d="M268.91,42.48v4.653h-1.894V42.8c0-.67-.229-.852-.6-.852-.42,0-.768.3-1.1.828v4.354h-1.9V40.766h1.655l.132.754a2.425,2.425,0,0,1,1.943-.959A1.691,1.691,0,0,1,268.91,42.48Z"/><circle class="cls-8" cx="433.961" cy="44.309" r="39"/><path class="cls-9" d="M409.42,40.379V42.37h2.555v1.379H409.42v2.123h3.131v1.415h-5.1V38.976h5.1l-.2,1.4Z"/><path class="cls-9" d="M419.222,42.634v4.653h-1.895v-4.33c0-.671-.227-.852-.6-.852-.42,0-.768.3-1.1.829v4.353h-1.9V40.919h1.655l.133.755a2.42,2.42,0,0,1,1.942-.959A1.691,1.691,0,0,1,419.222,42.634Z"/><path class="cls-9" d="M426.362,47.287h-1.679l-.1-.743a2.125,2.125,0,0,1-1.812.947c-1.619,0-2.421-1.344-2.421-3.406,0-1.967,1-3.37,2.638-3.37a2.064,2.064,0,0,1,1.475.6V38.185l1.9.2Zm-1.9-1.907V42.634a1.239,1.239,0,0,0-.984-.54c-.683,0-1.163.576-1.163,2,0,1.583.432,2,1.056,2A1.271,1.271,0,0,0,424.467,45.38Z"/><path class="cls-9" d="M427.853,47.287v-8.9l1.895-.2v9.1Zm5.985,0H431.7l-1.894-3.478,1.943-2.89h1.931l-1.931,2.794Z"/><path class="cls-9" d="M438.207,47.287l-.084-.8a2.205,2.205,0,0,1-1.932,1.008c-1.186,0-1.774-.767-1.774-2V40.919h1.9v4.329c0,.648.215.84.612.84a1.248,1.248,0,0,0,1.031-.744V40.919h1.9v6.368Z"/><path class="cls-9" d="M446.833,42.634v4.653h-1.9v-4.33c0-.671-.227-.852-.6-.852-.42,0-.768.3-1.1.829v4.353h-1.894V40.919H443l.133.755a2.42,2.42,0,0,1,1.942-.959A1.691,1.691,0,0,1,446.833,42.634Z"/><path class="cls-9" d="M453.973,47.287h-1.679l-.1-.743a2.126,2.126,0,0,1-1.811.947c-1.619,0-2.422-1.344-2.422-3.406,0-1.967,1-3.37,2.638-3.37a2.064,2.064,0,0,1,1.475.6V38.185l1.9.2Zm-1.9-1.907V42.634a1.237,1.237,0,0,0-.983-.54c-.684,0-1.163.576-1.163,2,0,1.583.431,2,1.054,2A1.27,1.27,0,0,0,452.078,45.38Z"/><path class="cls-9" d="M460.861,44.66h-3.946c.132,1.14.672,1.451,1.451,1.451a2.581,2.581,0,0,0,1.524-.563l.779,1.056a3.919,3.919,0,0,1-2.482.887c-2.124,0-3.2-1.367-3.2-3.358,0-1.907,1.043-3.418,2.975-3.418,1.823,0,2.938,1.2,2.938,3.262A6.329,6.329,0,0,1,460.861,44.66Zm-1.823-1.222c-.012-.865-.275-1.464-1.031-1.464-.636,0-1.008.408-1.092,1.547h2.123Z"/></g></svg>