<?xml version="1.0" encoding="utf-8"?>
<!-- Generator: Adobe Illustrator 24.0.0, SVG Export Plug-In . SVG Version: 6.00 Build 0)  -->
<svg version="1.1" xmlns="http://www.w3.org/2000/svg" xmlns:xlink="http://www.w3.org/1999/xlink" x="0px" y="0px"
	 viewBox="0 0 475.9 539.9" style="enable-background:new 0 0 475.9 539.9;" xml:space="preserve">
<style type="text/css">
	.st0{fill:none;stroke:#000000;stroke-width:0.5;}
	.st1{font-family:'OpenSans-Bold';}
	.st2{font-size:16px;}
	.st3{font-family:'OpenSans';}
	.st4{clip-path:url(#SVGID_2_);}
	.st5{fill:none;stroke:#000000;stroke-width:2;stroke-miterlimit:4.6583;}
	.st6{fill:none;stroke:#000000;stroke-width:2;}
</style>
<g id="grid" xmlns:cc="http://creativecommons.org/ns#" xmlns:dc="http://purl.org/dc/elements/1.1/" xmlns:rdf="http://www.w3.org/1999/02/22-rdf-syntax-ns#" xmlns:svg="http://www.w3.org/2000/svg">
	<g id="g3253">
		<line id="line3255" class="st0" x1="47.8" y1="492.8" x2="457.9" y2="492.8"/>
		<line id="line3257" class="st0" x1="47.8" y1="441.6" x2="457.9" y2="441.6"/>
		<line id="line3261" class="st0" x1="47.8" y1="390.4" x2="457.9" y2="390.4"/>
		<line id="line3265" class="st0" x1="47.8" y1="339.2" x2="457.9" y2="339.2"/>
		<line id="line3269" class="st0" x1="47.8" y1="288" x2="457.9" y2="288"/>
		<line id="line3273" class="st0" x1="47.8" y1="236.8" x2="457.9" y2="236.8"/>
		<line id="line3277" class="st0" x1="47.8" y1="185.6" x2="457.9" y2="185.6"/>
		<line id="line3281" class="st0" x1="47.8" y1="134.4" x2="457.9" y2="134.4"/>
		<line id="line3285" class="st0" x1="47.8" y1="83.2" x2="457.9" y2="83.2"/>
		<line id="line3291" class="st0" x1="99" y1="32" x2="99" y2="492.8"/>
		<line id="line3295" class="st0" x1="150.2" y1="32" x2="150.2" y2="492.8"/>
		<line id="line3299" class="st0" x1="201.4" y1="32" x2="201.4" y2="492.8"/>
		<line id="line3303" class="st0" x1="252.6" y1="32" x2="252.6" y2="492.8"/>
		<line id="line3307" class="st0" x1="303.8" y1="32" x2="303.8" y2="492.8"/>
		<line id="line3311" class="st0" x1="355" y1="32" x2="355" y2="492.8"/>
		<line id="line3315" class="st0" x1="406.2" y1="32" x2="406.2" y2="492.8"/>
		<line id="line3317" class="st0" x1="47.8" y1="32" x2="47.8" y2="492.8"/>
	</g>
	<text id="text3423" transform="matrix(1 0 0 1 446.8173 512.2246)" class="st1 st2">x</text>
	<text id="text3425" transform="matrix(1 0 0 1 29.5115 36.9849)" class="st1 st2">y</text>
	<text id="text3429" transform="matrix(1 0 0 1 16.0587 89.2021)" class="st3 st2">0.8</text>
	<text id="text3431" transform="matrix(1 0 0 1 16.0587 140.4023)" class="st3 st2">0.7</text>
	<text id="text3433" transform="matrix(1 0 0 1 16.0587 191.6016)" class="st3 st2">0.6</text>
	<text id="text3435" transform="matrix(1 0 0 1 16.0587 242.8018)" class="st3 st2">0.5</text>
	<text id="text3437" transform="matrix(1 0 0 1 16.0587 294.001)" class="st3 st2">0.4</text>
	<text id="text3439" transform="matrix(1 0 0 1 16.0587 345.2012)" class="st3 st2">0.3</text>
	<text id="text3441" transform="matrix(1 0 0 1 16.0587 396.4004)" class="st3 st2">0.2</text>
	<text id="text3443" transform="matrix(1 0 0 1 16.0587 447.6006)" class="st3 st2">0.1</text>
	<text id="text3447" transform="matrix(1 0 0 1 16.0586 512.2246)" class="st3 st2">0.0</text>
	<text id="text3449" transform="matrix(1 0 0 1 88.9531 512.2246)" class="st3 st2">0.1</text>
	<text id="text3451" transform="matrix(1 0 0 1 140.1538 512.2246)" class="st3 st2">0.2</text>
	<text id="text3453" transform="matrix(1 0 0 1 191.3545 512.2246)" class="st3 st2">0.3</text>
	<text id="text3455" transform="matrix(1 0 0 1 242.5547 512.2246)" class="st3 st2">0.4</text>
	<text id="text3457" transform="matrix(1 0 0 1 293.7559 512.2246)" class="st3 st2">0.5</text>
	<text id="text3459" transform="matrix(1 0 0 1 344.957 512.2246)" class="st3 st2">0.6</text>
	<text id="text3461" transform="matrix(1 0 0 1 396.1572 512.2246)" class="st3 st2">0.7</text>
</g>
<g id="Layer_3">
	<g id="color">
		<defs>
			<path id="SVGID_1_" d="M426.8,358.8C320.5,252.5,249.6,184.6,204.1,139.1c-39.2-39.2-94-73.4-114.3-73.4
				c-28.7,0-39.5,45.1-39.5,98.5c0,59.3,18.4,227.4,66,306.4c0,0,10.3,15.6,21.7,20L426.8,358.8z"/>
		</defs>
		<clipPath id="SVGID_2_">
			<use xlink:href="#SVGID_1_"  style="overflow:visible;"/>
		</clipPath>
		<g id="g3321" class="st4">

				<image style="overflow:visible;enable-background:new    ;" width="384" height="448" id="image3323" xlink:href="./9C20A0B85935655E.jpeg"  transform="matrix(1 0 0 1 47.748 44.8)">
			</image>
		</g>
	</g>
	<path id="sRGB-Gammut" class="st5" d="M132,451.6l70.9-264.8L374.3,322L132,451.6z"/>
	<path id="p3-Gammut" class="st6" d="M124.4,461.7l61.3-321l211.6,190L124.4,461.7z"/>
	<path id="d65-point" d="M210.9,324.3c0,1.7-1.4,3.1-3.1,3.1c-1.7,0-3.1-1.4-3.1-3.1c0-1.7,1.4-3.1,3.1-3.1
		C209.5,321.2,210.9,322.6,210.9,324.3z"/>
	<text transform="matrix(1 0 0 1 212.3011 340.6067)" class="st1 st2">D65</text>
	<text transform="matrix(1 0 0 1 198.4757 231.0193)" class="st1 st2">sRGB</text>
	<text transform="matrix(1 0 0 1 124.3918 154.955)" class="st1 st2">DCI-P3</text>
	<path id="outline" class="st0" d="M426.8,358.8C320.5,252.5,249.6,184.6,204.1,139.1c-39.2-39.2-94-73.4-114.3-73.4
		c-28.7,0-39.5,45.1-39.5,98.5c0,59.3,18.4,227.4,66,306.4c0,0,10.3,15.6,21.7,20L426.8,358.8z"/>
</g>
</svg>
