<svg xmlns="http://www.w3.org/2000/svg" viewBox="0 0 320 120"><defs><style>.cls-1,.cls-2,.cls-3{font-size:12px;}.cls-1{font-family:FiraMonoOT-Bold, Fira Mono OT;font-weight:700;}.cls-2,.cls-3{font-family:FiraMonoOT, Fira Mono OT;}.cls-3,.cls-6,.cls-7,.cls-9{fill:#0054a2;}.cls-4,.cls-5{fill:#b27000;}.cls-11,.cls-4,.cls-7,.cls-8{letter-spacing:0em;}.cls-10,.cls-8{fill:#006984;}.cls-9{letter-spacing:0em;}</style></defs><title>html-types</title><g id="Layer_1" data-name="Layer 1"><text class="cls-1" transform="translate(2 15.251)">Daten</text><text class="cls-2" transform="translate(2 38.251)">Titel<tspan x="0" y="14.4">Heute neu!</tspan></text><text class="cls-1" transform="translate(99 15.251)">Semantik</text><text class="cls-3" transform="translate(99 38.251)">&lt;<tspan class="cls-4" x="7.2" y="0">html</tspan><tspan x="36" y="0">&gt;</tspan><tspan class="cls-5"><tspan x="0" y="14.4" xml:space="preserve">  </tspan><tspan class="cls-6" x="14.4" y="14.4">&lt;</tspan><tspan x="21.6" y="14.4">body</tspan><tspan class="cls-6" x="50.399" y="14.4">&gt;</tspan><tspan x="0" y="28.8" xml:space="preserve">    </tspan><tspan class="cls-7" x="28.799" y="28.8">&lt;</tspan><tspan x="36" y="28.8">h1 class=</tspan><tspan class="cls-8" x="100.798" y="28.8">&quot;special&quot;</tspan><tspan class="cls-6" x="165.597" y="28.8">&gt;&lt;/</tspan><tspan x="187.197" y="28.8">h1</tspan><tspan class="cls-9" x="201.597" y="28.8">&gt;</tspan><tspan x="0" y="43.2" xml:space="preserve">    </tspan><tspan class="cls-7" x="28.799" y="43.2">&lt;</tspan><tspan x="36" y="43.2">p class=</tspan><tspan class="cls-10" x="93.599" y="43.2">&quot;newsflash&quot;</tspan><tspan class="cls-6" x="172.797" y="43.2">&gt;&lt;/</tspan><tspan x="194.397" y="43.2">p</tspan><tspan class="cls-9" x="201.597" y="43.2">&gt;</tspan><tspan x="0" y="57.6" xml:space="preserve">  </tspan><tspan class="cls-6" x="14.4" y="57.6">&lt;/</tspan><tspan class="cls-11" x="28.799" y="57.6">body</tspan><tspan class="cls-6" x="57.599" y="57.6">&gt;</tspan></tspan><tspan x="0" y="72">&lt;/</tspan><tspan class="cls-5" x="14.4" y="72">html</tspan><tspan class="cls-11" x="43.199" y="72">&gt;</tspan></text></g></svg>