<svg xmlns="http://www.w3.org/2000/svg" viewBox="0 0 291 225"><defs><style>.cls-1,.cls-10,.cls-3{fill:#fff;}.cls-2,.cls-4,.cls-7{fill:none;}.cls-2{stroke:#006984;}.cls-2,.cls-3,.cls-4,.cls-7{stroke-miterlimit:10;stroke-width:2px;}.cls-3,.cls-4{stroke:#000;}.cls-10,.cls-5{font-size:12px;font-family:FiraMonoOT-Bold, Fira Mono OT;font-weight:700;}.cls-6{fill:#006984;}.cls-7{stroke:#ca0022;stroke-dasharray:3 3;}.cls-8{fill:#ca0022;}.cls-9{fill:#0054a2;}</style></defs><title>html-traditional</title><g id="Layer_2" data-name="Layer 2"><path class="cls-1" d="M141.8,17.338a19.285,19.285,0,0,0-4.034.432,18.977,18.977,0,0,0-33.9-8.754A10.207,10.207,0,0,0,90.853,20.5,18.423,18.423,0,0,0,97.9,55.71v.027h43.9a19.2,19.2,0,1,0,0-38.4Z"/><path class="cls-2" d="M141.8,17.338a19.285,19.285,0,0,0-4.034.432,18.977,18.977,0,0,0-33.9-8.754A10.207,10.207,0,0,0,90.853,20.5,18.423,18.423,0,0,0,97.9,55.71v.027h43.9a19.2,19.2,0,1,0,0-38.4Z"/><rect class="cls-1" x="109" y="162" width="78" height="62"/><path d="M186,163v60H110V163h76m2-2H108v64h80V161Z"/><rect class="cls-1" x="109" y="162" width="78" height="8"/><path d="M186,163v6H110v-6h76m2-2H108v10h80V161Z"/><line class="cls-3" x1="122" y1="166" x2="184" y2="166"/><rect x="112" y="165" width="2" height="2"/><rect x="115" y="165" width="2" height="2"/><rect class="cls-1" x="212" y="162" width="78" height="62"/><path d="M289,163v60H213V163h76m2-2H211v64h80V161Z"/><rect class="cls-1" x="212" y="162" width="78" height="8"/><path d="M289,163v6H213v-6h76m2-2H211v10h80V161Z"/><line class="cls-3" x1="225" y1="166" x2="287" y2="166"/><rect x="215" y="165" width="2" height="2"/><rect x="218" y="165" width="2" height="2"/><rect class="cls-1" x="1" y="162" width="78" height="62"/><path d="M78,163v60H2V163H78m2-2H0v64H80V161Z"/><rect class="cls-1" x="1" y="162" width="78" height="8"/><path d="M78,163v6H2v-6H78m2-2H0v10H80V161Z"/><line class="cls-3" x1="14" y1="166" x2="76" y2="166"/><rect x="4" y="165" width="2" height="2"/><rect x="7" y="165" width="2" height="2"/></g><g id="Layer_1" data-name="Layer 1"><line class="cls-3" x1="117" y1="179" x2="176" y2="179"/><line class="cls-3" x1="117" y1="185" x2="177" y2="185"/><line class="cls-3" x1="117" y1="191" x2="176" y2="191"/><line class="cls-3" x1="117" y1="197" x2="179" y2="197"/><line class="cls-3" x1="117" y1="203" x2="176" y2="203"/><line class="cls-3" x1="117" y1="209" x2="179" y2="209"/><line class="cls-3" x1="117" y1="215" x2="176" y2="215"/><line class="cls-3" x1="251" y1="182.929" x2="286" y2="182.929"/><line class="cls-3" x1="251" y1="188" x2="280" y2="188"/><line class="cls-3" x1="251" y1="194" x2="284" y2="194"/><line class="cls-3" x1="251" y1="200" x2="280" y2="200"/><line class="cls-3" x1="251" y1="206" x2="286" y2="206"/><line class="cls-3" x1="251" y1="212" x2="280" y2="212"/><rect class="cls-1" x="102" y="50" width="78" height="18"/><path d="M179,51V67H103V51h76m2-2H101V69h80V49Z"/><path d="M114,57v4h-4V57h4m2-2h-8v8h8V55Z"/><path d="M127,57v4h-4V57h4m2-2h-8v8h8V55Z"/><line class="cls-4" x1="155" y1="53" x2="155" y2="64"/><line class="cls-4" x1="137" y1="53" x2="137" y2="64"/><line class="cls-4" x1="146" y1="53" x2="146" y2="64"/><line class="cls-4" x1="173" y1="53" x2="173" y2="64"/><line class="cls-4" x1="164" y1="53" x2="164" y2="64"/><rect class="cls-1" x="102" y="26" width="78" height="18"/><path d="M179,27V43H103V27h76m2-2H101V45h80V25Z"/><path d="M114,33v4h-4V33h4m2-2h-8v8h8V31Z"/><path d="M127,33v4h-4V33h4m2-2h-8v8h8V31Z"/><line class="cls-4" x1="155" y1="29" x2="155" y2="40"/><line class="cls-4" x1="137" y1="29" x2="137" y2="40"/><line class="cls-4" x1="146" y1="29" x2="146" y2="40"/><line class="cls-4" x1="173" y1="29" x2="173" y2="40"/><line class="cls-4" x1="164" y1="29" x2="164" y2="40"/><text class="cls-5" transform="translate(0.705 147.651)">www.test.ch</text><text class="cls-5" transform="translate(143.705 133.251)">img.jpg<tspan x="0" y="14.4">style.css</tspan></text><line class="cls-2" x1="110" y1="78.5" x2="110" y2="142.824"/><polygon class="cls-6" points="105.014 141.365 110 150 114.986 141.365 105.014 141.365"/><line class="cls-7" x1="172" y1="119" x2="172" y2="84.176"/><polygon class="cls-8" points="176.986 85.635 172 77 167.014 85.635 176.986 85.635"/><path class="cls-7" d="M69.924,67.747a69.807,69.807,0,0,0-45.85,62.973"/><polygon class="cls-8" points="67.036 63.547 76.783 65.648 70.09 73.039 67.036 63.547"/><rect class="cls-4" x="219" y="183" width="26" height="29"/><polyline class="cls-4" points="219 203.194 224.597 197.597 231 204 240 195 244.75 199.75"/><circle class="cls-4" cx="231" cy="191" r="4"/><circle class="cls-1" cx="110" cy="98" r="8"/><text class="cls-5" transform="translate(96.305 102.251)">HTML</text><path class="cls-2" d="M252.645,127.329A71.553,71.553,0,0,0,199,65.166"/><polygon class="cls-6" points="257.423 125.564 253 134.5 247.472 126.202 257.423 125.564"/><circle class="cls-1" cx="243" cy="98" r="8"/><text class="cls-5" transform="translate(224.705 102.251)">Assets</text><circle class="cls-9" cx="40" cy="187" r="12"/><path d="M40,176a11,11,0,1,1-11,11,11.013,11.013,0,0,1,11-11m0-2a13,13,0,1,0,13,13,13,13,0,0,0-13-13Z"/><text class="cls-10" transform="translate(36.104 190.651)">1</text><circle class="cls-9" cx="110" cy="77" r="12"/><path d="M110,66A11,11,0,1,1,99,77a11.013,11.013,0,0,1,11-11m0-2a13,13,0,1,0,13,13,13,13,0,0,0-13-13Z"/><text class="cls-10" transform="translate(106.104 80.651)">2</text><circle class="cls-9" cx="172" cy="164" r="12"/><path d="M172,153a11,11,0,1,1-11,11,11.013,11.013,0,0,1,11-11m0-2a13,13,0,1,0,13,13,13,13,0,0,0-13-13Z"/><text class="cls-10" transform="translate(168.104 167.651)">3</text><circle class="cls-9" cx="253" cy="151" r="12"/><path d="M253,140a11,11,0,1,1-11,11,11.013,11.013,0,0,1,11-11m0-2a13,13,0,1,0,13,13,13,13,0,0,0-13-13Z"/><text class="cls-10" transform="translate(249.104 154.651)">4</text></g></svg>