<svg xmlns="http://www.w3.org/2000/svg" viewBox="0 0 1410 410"><defs><style>.cls-1{isolation:isolate;}.cls-2{fill:red;}.cls-3{fill:lime;}.cls-4{fill:blue;}.cls-5{fill:#646464;mix-blend-mode:multiply;}.cls-6{fill:none;stroke:#000;stroke-miterlimit:10;stroke-width:10px;}.cls-7{fill:#0054a2;}.cls-8{fill:#fff;}</style></defs><g class="cls-1"><g id="bg"><rect y="-0.5" width="410" height="410"/><rect x="500" y="-0.5" width="410" height="410"/><rect x="1000" y="-0.5" width="410" height="410"/></g><g id="bg-2" data-name="bg"><rect class="cls-2" x="510" y="209.5" width="30" height="90"/><rect class="cls-2" x="510" y="309.5" width="30" height="90"/><rect class="cls-2" x="710" y="9.5" width="30" height="90"/><rect class="cls-2" x="710" y="209.5" width="30" height="90"/><rect class="cls-2" x="710" y="109.5" width="30" height="90"/><rect class="cls-2" x="710" y="309.5" width="30" height="90"/><rect class="cls-2" x="610" y="209.5" width="30" height="90"/><rect class="cls-2" x="610" y="309.5" width="30" height="90"/><rect class="cls-2" x="810" y="9.5" width="30" height="90"/><rect class="cls-2" x="810" y="209.5" width="30" height="90"/><rect class="cls-2" x="810" y="109.5" width="30" height="90"/><rect class="cls-2" x="810" y="309.5" width="30" height="90"/><rect class="cls-3" x="540" y="209.5" width="30" height="90"/><rect class="cls-3" x="540" y="309.5" width="30" height="90"/><rect class="cls-3" x="740" y="9.5" width="30" height="90"/><rect class="cls-3" x="740" y="209.5" width="30" height="90"/><rect class="cls-3" x="740" y="109.5" width="30" height="90"/><rect class="cls-3" x="740" y="309.5" width="30" height="90"/><rect class="cls-3" x="640" y="209.5" width="30" height="90"/><rect class="cls-3" x="640" y="309.5" width="30" height="90"/><rect class="cls-3" x="840" y="9.5" width="30" height="90"/><rect class="cls-3" x="840" y="209.5" width="30" height="90"/><rect class="cls-3" x="840" y="109.5" width="30" height="90"/><rect class="cls-3" x="840" y="309.5" width="30" height="90"/><rect class="cls-4" x="570" y="209.5" width="30" height="90"/><rect class="cls-4" x="570" y="309.5" width="30" height="90"/><rect class="cls-4" x="770" y="9.5" width="30" height="90"/><rect class="cls-4" x="770" y="209.5" width="30" height="90"/><rect class="cls-4" x="770" y="109.5" width="30" height="90"/><rect class="cls-4" x="770" y="309.5" width="30" height="90"/><rect class="cls-4" x="670" y="209.5" width="30" height="90"/><rect class="cls-4" x="670" y="309.5" width="30" height="90"/><rect class="cls-4" x="870" y="9.5" width="30" height="90"/><rect class="cls-4" x="870" y="209.5" width="30" height="90"/><rect class="cls-4" x="870" y="109.5" width="30" height="90"/><rect class="cls-4" x="870" y="309.5" width="30" height="90"/><rect class="cls-2" x="10" y="209.5" width="63.33" height="190"/><rect class="cls-2" x="210" y="209.5" width="63.33" height="190"/><rect class="cls-3" x="73.33" y="209.5" width="63.33" height="190"/><rect class="cls-3" x="273.33" y="209.5" width="63.33" height="190"/><rect class="cls-4" x="136.67" y="209.5" width="63.33" height="190"/><rect class="cls-4" x="336.67" y="209.5" width="63.33" height="190"/><rect class="cls-2" x="510" y="9.5" width="30" height="90"/><rect class="cls-2" x="510" y="109.5" width="30" height="90"/><rect class="cls-2" x="610" y="9.5" width="30" height="90"/><rect class="cls-2" x="610" y="109.5" width="30" height="90"/><rect class="cls-3" x="540" y="9.5" width="30" height="90"/><rect class="cls-3" x="540" y="109.5" width="30" height="90"/><rect class="cls-3" x="640" y="9.5" width="30" height="90"/><rect class="cls-3" x="640" y="109.5" width="30" height="90"/><rect class="cls-4" x="570" y="9.5" width="30" height="90"/><rect class="cls-4" x="570" y="109.5" width="30" height="90"/><rect class="cls-4" x="670" y="9.5" width="30" height="90"/><rect class="cls-4" x="670" y="109.5" width="30" height="90"/><rect class="cls-2" x="10" y="9.5" width="63.33" height="190"/><rect class="cls-2" x="210" y="9.5" width="63.33" height="190"/><rect class="cls-3" x="73.33" y="9.5" width="63.33" height="190"/><rect class="cls-3" x="273.33" y="9.5" width="63.33" height="190"/><rect class="cls-4" x="136.67" y="9.5" width="63.33" height="190"/><rect class="cls-4" x="336.67" y="9.5" width="63.33" height="190"/></g><g id="oled"><rect class="cls-3" x="1027.5" y="395.16" width="9" height="6" transform="translate(20.72 846.35) rotate(-45)"/><rect class="cls-3" x="1062.33" y="393.66" width="6" height="9" transform="translate(30.49 869.92) rotate(-45)"/><rect class="cls-3" x="1094.17" y="395.16" width="9" height="6" transform="translate(40.25 893.49) rotate(-45)"/><rect class="cls-3" x="1129" y="393.66" width="6" height="9" transform="translate(50.01 917.06) rotate(-45)"/><rect class="cls-3" x="1160.83" y="395.16" width="9" height="6" transform="translate(59.77 940.63) rotate(-45)"/><rect class="cls-3" x="1195.67" y="393.66" width="6" height="9" transform="translate(69.54 964.2) rotate(-45)"/><rect class="cls-3" x="1227.5" y="395.16" width="9" height="6" transform="translate(79.3 987.77) rotate(-45)"/><rect class="cls-3" x="1262.33" y="393.66" width="6" height="9" transform="translate(89.06 1011.34) rotate(-45)"/><rect class="cls-3" x="1294.17" y="395.16" width="9" height="6" transform="translate(98.83 1034.92) rotate(-45)"/><rect class="cls-3" x="1329" y="393.66" width="6" height="9" transform="translate(108.59 1058.49) rotate(-45)"/><rect class="cls-3" x="1360.83" y="395.16" width="9" height="6" transform="translate(118.35 1082.06) rotate(-45)"/><rect class="cls-3" x="1395.67" y="393.66" width="6" height="9" transform="translate(128.12 1105.63) rotate(-45)"/><rect class="cls-3" x="1394.17" y="361.83" width="9" height="6" transform="translate(151.68 1095.86) rotate(-45)"/><rect class="cls-3" x="1362.33" y="360.33" width="6" height="9" transform="translate(141.92 1072.29) rotate(-45)"/><rect class="cls-3" x="1327.5" y="361.83" width="9" height="6" transform="translate(132.16 1048.72) rotate(-45)"/><rect class="cls-3" x="1295.67" y="360.33" width="6" height="9" transform="translate(122.39 1025.15) rotate(-45)"/><rect class="cls-3" x="1260.83" y="361.83" width="9" height="6" transform="translate(112.63 1001.58) rotate(-45)"/><rect class="cls-3" x="1229" y="360.33" width="6" height="9" transform="translate(102.87 978.01) rotate(-45)"/><rect class="cls-3" x="1194.17" y="361.83" width="9" height="6" transform="translate(93.11 954.44) rotate(-45)"/><rect class="cls-3" x="1162.33" y="360.33" width="6" height="9" transform="translate(83.34 930.87) rotate(-45)"/><rect class="cls-3" x="1127.5" y="361.83" width="9" height="6" transform="translate(73.58 907.3) rotate(-45)"/><rect class="cls-3" x="1095.67" y="360.33" width="6" height="9" transform="translate(63.82 883.73) rotate(-45)"/><rect class="cls-3" x="1060.83" y="361.83" width="9" height="6" transform="translate(54.05 860.16) rotate(-45)"/><rect class="cls-3" x="1029" y="360.33" width="6" height="9" transform="translate(44.29 836.59) rotate(-45)"/><rect class="cls-3" x="1027.5" y="328.5" width="9" height="6" transform="translate(67.86 826.83) rotate(-45)"/><rect class="cls-3" x="1062.33" y="327" width="6" height="9" transform="translate(77.63 850.4) rotate(-45)"/><rect class="cls-3" x="1094.17" y="328.5" width="9" height="6" transform="translate(87.39 873.97) rotate(-45)"/><rect class="cls-3" x="1129" y="327" width="6" height="9" transform="translate(97.15 897.54) rotate(-45)"/><rect class="cls-3" x="1160.83" y="328.5" width="9" height="6" transform="translate(106.91 921.11) rotate(-45)"/><rect class="cls-3" x="1195.67" y="327" width="6" height="9" transform="translate(116.68 944.68) rotate(-45)"/><rect class="cls-3" x="1227.5" y="328.5" width="9" height="6" transform="translate(126.44 968.25) rotate(-45)"/><rect class="cls-3" x="1262.33" y="327" width="6" height="9" transform="translate(136.2 991.82) rotate(-45)"/><rect class="cls-3" x="1294.17" y="328.5" width="9" height="6" transform="translate(145.97 1015.39) rotate(-45)"/><rect class="cls-3" x="1329" y="327" width="6" height="9" transform="translate(155.73 1038.96) rotate(-45)"/><rect class="cls-3" x="1360.83" y="328.5" width="9" height="6" transform="translate(165.49 1062.53) rotate(-45)"/><rect class="cls-3" x="1395.67" y="327" width="6" height="9" transform="translate(175.26 1086.1) rotate(-45)"/><rect class="cls-3" x="1394.17" y="295.17" width="9" height="6" transform="translate(198.82 1076.34) rotate(-45)"/><rect class="cls-3" x="1362.33" y="293.67" width="6" height="9" transform="translate(189.06 1052.77) rotate(-45)"/><rect class="cls-3" x="1327.5" y="295.17" width="9" height="6" transform="translate(179.3 1029.2) rotate(-45)"/><rect class="cls-3" x="1295.67" y="293.67" width="6" height="9" transform="translate(169.54 1005.63) rotate(-45)"/><rect class="cls-3" x="1260.83" y="295.17" width="9" height="6" transform="translate(159.77 982.06) rotate(-45)"/><rect class="cls-3" x="1229" y="293.67" width="6" height="9" transform="translate(150.01 958.49) rotate(-45)"/><rect class="cls-3" x="1194.17" y="295.17" width="9" height="6" transform="translate(140.25 934.92) rotate(-45)"/><rect class="cls-3" x="1162.33" y="293.67" width="6" height="9" transform="translate(130.48 911.35) rotate(-45)"/><rect class="cls-3" x="1127.5" y="295.17" width="9" height="6" transform="translate(120.72 887.78) rotate(-45)"/><rect class="cls-3" x="1095.67" y="293.67" width="6" height="9" transform="translate(110.96 864.21) rotate(-45)"/><rect class="cls-3" x="1060.83" y="295.17" width="9" height="6" transform="translate(101.19 840.64) rotate(-45)"/><rect class="cls-3" x="1029" y="293.67" width="6" height="9" transform="translate(91.43 817.07) rotate(-45)"/><rect class="cls-3" x="1027.5" y="261.83" width="9" height="6" transform="translate(115 807.3) rotate(-45)"/><rect class="cls-3" x="1062.33" y="260.33" width="6" height="9" transform="translate(124.77 830.87) rotate(-45)"/><rect class="cls-3" x="1094.17" y="261.83" width="9" height="6" transform="translate(134.53 854.44) rotate(-45)"/><rect class="cls-3" x="1129" y="260.33" width="6" height="9" transform="translate(144.29 878.01) rotate(-45)"/><rect class="cls-3" x="1160.83" y="261.83" width="9" height="6" transform="translate(154.06 901.58) rotate(-45)"/><rect class="cls-3" x="1195.67" y="260.33" width="6" height="9" transform="translate(163.82 925.15) rotate(-45)"/><rect class="cls-3" x="1227.5" y="261.83" width="9" height="6" transform="translate(173.58 948.72) rotate(-45)"/><rect class="cls-3" x="1262.33" y="260.33" width="6" height="9" transform="translate(183.34 972.29) rotate(-45)"/><rect class="cls-3" x="1294.17" y="261.83" width="9" height="6" transform="translate(193.11 995.86) rotate(-45)"/><rect class="cls-3" x="1329" y="260.33" width="6" height="9" transform="translate(202.87 1019.43) rotate(-45)"/><rect class="cls-3" x="1360.83" y="261.83" width="9" height="6" transform="translate(212.63 1043) rotate(-45)"/><rect class="cls-3" x="1395.67" y="260.33" width="6" height="9" transform="translate(222.4 1066.57) rotate(-45)"/><rect class="cls-3" x="1394.17" y="228.5" width="9" height="6" transform="translate(245.96 1056.81) rotate(-45)"/><rect class="cls-3" x="1362.33" y="227" width="6" height="9" transform="translate(236.2 1033.24) rotate(-45)"/><rect class="cls-3" x="1327.5" y="228.5" width="9" height="6" transform="translate(226.44 1009.67) rotate(-45)"/><rect class="cls-3" x="1295.67" y="227" width="6" height="9" transform="translate(216.68 986.1) rotate(-45)"/><rect class="cls-3" x="1260.83" y="228.5" width="9" height="6" transform="translate(206.91 962.53) rotate(-45)"/><rect class="cls-3" x="1229" y="227" width="6" height="9" transform="translate(197.15 938.96) rotate(-45)"/><rect class="cls-3" x="1194.17" y="228.5" width="9" height="6" transform="translate(187.39 915.39) rotate(-45)"/><rect class="cls-3" x="1162.33" y="227" width="6" height="9" transform="translate(177.62 891.82) rotate(-45)"/><rect class="cls-3" x="1127.5" y="228.5" width="9" height="6" transform="translate(167.86 868.25) rotate(-45)"/><rect class="cls-3" x="1095.67" y="227" width="6" height="9" transform="translate(158.1 844.68) rotate(-45)"/><rect class="cls-3" x="1060.83" y="228.5" width="9" height="6" transform="translate(148.33 821.11) rotate(-45)"/><rect class="cls-3" x="1029" y="227" width="6" height="9" transform="translate(138.57 797.54) rotate(-45)"/><rect class="cls-3" x="1027.5" y="195.16" width="9" height="6" transform="translate(162.14 787.77) rotate(-45)"/><rect class="cls-3" x="1062.33" y="193.66" width="6" height="9" transform="translate(171.91 811.34) rotate(-45)"/><rect class="cls-3" x="1094.17" y="195.16" width="9" height="6" transform="translate(181.67 834.92) rotate(-45)"/><rect class="cls-3" x="1129" y="193.66" width="6" height="9" transform="translate(191.43 858.49) rotate(-45)"/><rect class="cls-3" x="1160.83" y="195.16" width="9" height="6" transform="translate(201.2 882.06) rotate(-45)"/><rect class="cls-3" x="1195.67" y="193.66" width="6" height="9" transform="translate(210.96 905.63) rotate(-45)"/><rect class="cls-3" x="1227.5" y="195.16" width="9" height="6" transform="translate(220.72 929.2) rotate(-45)"/><rect class="cls-3" x="1262.33" y="193.66" width="6" height="9" transform="translate(230.48 952.77) rotate(-45)"/><rect class="cls-3" x="1294.17" y="195.16" width="9" height="6" transform="translate(240.25 976.34) rotate(-45)"/><rect class="cls-3" x="1329" y="193.66" width="6" height="9" transform="translate(250.01 999.91) rotate(-45)"/><rect class="cls-3" x="1360.83" y="195.16" width="9" height="6" transform="translate(259.77 1023.48) rotate(-45)"/><rect class="cls-3" x="1395.67" y="193.66" width="6" height="9" transform="translate(269.54 1047.05) rotate(-45)"/><rect class="cls-3" x="1394.17" y="161.83" width="9" height="6" transform="translate(293.11 1037.28) rotate(-45)"/><rect class="cls-3" x="1362.33" y="160.33" width="6" height="9" transform="translate(283.34 1013.71) rotate(-45)"/><rect class="cls-3" x="1327.5" y="161.83" width="9" height="6" transform="translate(273.58 990.14) rotate(-45)"/><rect class="cls-3" x="1295.67" y="160.33" width="6" height="9" transform="translate(263.82 966.57) rotate(-45)"/><rect class="cls-3" x="1260.83" y="161.83" width="9" height="6" transform="translate(254.05 943) rotate(-45)"/><rect class="cls-3" x="1229" y="160.33" width="6" height="9" transform="translate(244.29 919.43) rotate(-45)"/><rect class="cls-3" x="1194.17" y="161.83" width="9" height="6" transform="translate(234.53 895.86) rotate(-45)"/><rect class="cls-3" x="1162.33" y="160.33" width="6" height="9" transform="translate(224.76 872.29) rotate(-45)"/><rect class="cls-3" x="1127.5" y="161.83" width="9" height="6" transform="translate(215 848.72) rotate(-45)"/><rect class="cls-3" x="1095.67" y="160.33" width="6" height="9" transform="translate(205.24 825.15) rotate(-45)"/><rect class="cls-3" x="1060.83" y="161.83" width="9" height="6" transform="translate(195.47 801.58) rotate(-45)"/><rect class="cls-3" x="1029" y="160.33" width="6" height="9" transform="translate(185.71 778.01) rotate(-45)"/><rect class="cls-3" x="1027.5" y="128.5" width="9" height="6" transform="translate(209.28 768.25) rotate(-45)"/><rect class="cls-3" x="1062.33" y="127" width="6" height="9" transform="translate(219.05 791.82) rotate(-45)"/><rect class="cls-3" x="1094.17" y="128.5" width="9" height="6" transform="translate(228.81 815.39) rotate(-45)"/><rect class="cls-3" x="1129" y="127" width="6" height="9" transform="translate(238.57 838.96) rotate(-45)"/><rect class="cls-3" x="1160.83" y="128.5" width="9" height="6" transform="translate(248.34 862.53) rotate(-45)"/><rect class="cls-3" x="1195.67" y="127" width="6" height="9" transform="translate(258.1 886.1) rotate(-45)"/><rect class="cls-3" x="1227.5" y="128.5" width="9" height="6" transform="translate(267.86 909.67) rotate(-45)"/><rect class="cls-3" x="1262.33" y="127" width="6" height="9" transform="translate(277.63 933.24) rotate(-45)"/><rect class="cls-3" x="1294.17" y="128.5" width="9" height="6" transform="translate(287.39 956.81) rotate(-45)"/><rect class="cls-3" x="1329" y="127" width="6" height="9" transform="translate(297.15 980.38) rotate(-45)"/><rect class="cls-3" x="1360.83" y="128.5" width="9" height="6" transform="translate(306.91 1003.95) rotate(-45)"/><rect class="cls-3" x="1395.67" y="127" width="6" height="9" transform="translate(316.68 1027.52) rotate(-45)"/><rect class="cls-3" x="1394.17" y="95.17" width="9" height="6" transform="translate(340.25 1017.76) rotate(-45)"/><rect class="cls-3" x="1362.33" y="93.67" width="6" height="9" transform="translate(330.48 994.19) rotate(-45)"/><rect class="cls-3" x="1327.5" y="95.17" width="9" height="6" transform="translate(320.72 970.62) rotate(-45)"/><rect class="cls-3" x="1295.67" y="93.67" width="6" height="9" transform="translate(310.96 947.05) rotate(-45)"/><rect class="cls-3" x="1260.83" y="95.17" width="9" height="6" transform="translate(301.19 923.48) rotate(-45)"/><rect class="cls-3" x="1229" y="93.67" width="6" height="9" transform="translate(291.43 899.91) rotate(-45)"/><rect class="cls-3" x="1194.17" y="95.17" width="9" height="6" transform="translate(281.67 876.34) rotate(-45)"/><rect class="cls-3" x="1162.33" y="93.67" width="6" height="9" transform="translate(271.9 852.77) rotate(-45)"/><rect class="cls-3" x="1127.5" y="95.17" width="9" height="6" transform="translate(262.14 829.2) rotate(-45)"/><rect class="cls-3" x="1095.67" y="93.67" width="6" height="9" transform="translate(252.38 805.63) rotate(-45)"/><rect class="cls-3" x="1060.83" y="95.17" width="9" height="6" transform="translate(242.61 782.06) rotate(-45)"/><rect class="cls-3" x="1029" y="93.67" width="6" height="9" transform="translate(232.85 758.49) rotate(-45)"/><rect class="cls-3" x="1027.5" y="61.83" width="9" height="6" transform="translate(256.42 748.72) rotate(-45)"/><rect class="cls-3" x="1062.33" y="60.33" width="6" height="9" transform="translate(266.19 772.29) rotate(-45)"/><rect class="cls-3" x="1094.17" y="61.83" width="9" height="6" transform="translate(275.95 795.86) rotate(-45)"/><rect class="cls-3" x="1129" y="60.33" width="6" height="9" transform="translate(285.71 819.43) rotate(-45)"/><rect class="cls-3" x="1160.83" y="61.83" width="9" height="6" transform="translate(295.48 843) rotate(-45)"/><rect class="cls-3" x="1195.67" y="60.33" width="6" height="9" transform="translate(305.24 866.57) rotate(-45)"/><rect class="cls-3" x="1227.5" y="61.83" width="9" height="6" transform="translate(315 890.14) rotate(-45)"/><rect class="cls-3" x="1262.33" y="60.33" width="6" height="9" transform="translate(324.77 913.71) rotate(-45)"/><rect class="cls-3" x="1294.17" y="61.83" width="9" height="6" transform="translate(334.53 937.28) rotate(-45)"/><rect class="cls-3" x="1329" y="60.33" width="6" height="9" transform="translate(344.29 960.85) rotate(-45)"/><rect class="cls-3" x="1360.83" y="61.83" width="9" height="6" transform="translate(354.06 984.42) rotate(-45)"/><rect class="cls-3" x="1395.67" y="60.33" width="6" height="9" transform="translate(363.82 1007.99) rotate(-45)"/><rect class="cls-3" x="1394.17" y="28.5" width="9" height="6" transform="translate(387.39 998.23) rotate(-45)"/><rect class="cls-3" x="1362.33" y="27" width="6" height="9" transform="translate(377.62 974.66) rotate(-45)"/><rect class="cls-3" x="1327.5" y="28.5" width="9" height="6" transform="translate(367.86 951.09) rotate(-45)"/><rect class="cls-3" x="1295.67" y="27" width="6" height="9" transform="translate(358.1 927.52) rotate(-45)"/><rect class="cls-3" x="1260.83" y="28.5" width="9" height="6" transform="translate(348.33 903.95) rotate(-45)"/><rect class="cls-3" x="1229" y="27" width="6" height="9" transform="translate(338.57 880.38) rotate(-45)"/><rect class="cls-3" x="1194.17" y="28.5" width="9" height="6" transform="translate(328.81 856.81) rotate(-45)"/><rect class="cls-3" x="1162.33" y="27" width="6" height="9" transform="translate(319.04 833.24) rotate(-45)"/><rect class="cls-3" x="1127.5" y="28.5" width="9" height="6" transform="translate(309.28 809.67) rotate(-45)"/><rect class="cls-3" x="1095.67" y="27" width="6" height="9" transform="translate(299.52 786.1) rotate(-45)"/><rect class="cls-3" x="1060.83" y="28.5" width="9" height="6" transform="translate(289.75 762.53) rotate(-45)"/><rect class="cls-3" x="1029" y="27" width="6" height="9" transform="translate(279.99 738.96) rotate(-45)"/><rect class="cls-4" x="1376.67" y="376.17" width="11" height="11" transform="translate(134.95 1089.13) rotate(-45)"/><rect class="cls-4" x="1343.33" y="342.83" width="11" height="11" transform="translate(148.76 1055.79) rotate(-45)"/><rect class="cls-4" x="1310" y="376.17" width="11" height="11" transform="translate(115.42 1041.99) rotate(-45)"/><rect class="cls-4" x="1276.67" y="342.83" width="11" height="11" transform="translate(129.23 1008.65) rotate(-45)"/><rect class="cls-4" x="1243.33" y="376.17" width="11" height="11" transform="translate(95.9 994.85) rotate(-45)"/><rect class="cls-4" x="1210" y="342.83" width="11" height="11" transform="translate(109.7 961.51) rotate(-45)"/><rect class="cls-4" x="1176.67" y="376.17" width="11" height="11" transform="translate(76.37 947.71) rotate(-45)"/><rect class="cls-4" x="1143.33" y="342.83" width="11" height="11" transform="translate(90.18 914.37) rotate(-45)"/><rect class="cls-4" x="1110" y="376.17" width="11" height="11" transform="translate(56.84 900.57) rotate(-45)"/><rect class="cls-4" x="1076.67" y="342.83" width="11" height="11" transform="translate(70.65 867.23) rotate(-45)"/><rect class="cls-4" x="1043.33" y="376.17" width="11" height="11" transform="translate(37.32 853.42) rotate(-45)"/><rect class="cls-4" x="1010" y="342.83" width="11" height="11" transform="translate(51.12 820.09) rotate(-45)"/><rect class="cls-4" x="1376.67" y="309.5" width="11" height="11" transform="translate(182.09 1069.6) rotate(-45)"/><rect class="cls-4" x="1343.33" y="276.17" width="11" height="11" transform="translate(195.9 1036.27) rotate(-45)"/><rect class="cls-4" x="1310" y="309.5" width="11" height="11" transform="translate(162.56 1022.46) rotate(-45)"/><rect class="cls-4" x="1276.67" y="276.17" width="11" height="11" transform="translate(176.37 989.13) rotate(-45)"/><rect class="cls-4" x="1243.33" y="309.5" width="11" height="11" transform="translate(143.04 975.32) rotate(-45)"/><rect class="cls-4" x="1210" y="276.17" width="11" height="11" transform="translate(156.84 941.99) rotate(-45)"/><rect class="cls-4" x="1176.67" y="309.5" width="11" height="11" transform="translate(123.51 928.18) rotate(-45)"/><rect class="cls-4" x="1143.33" y="276.17" width="11" height="11" transform="translate(137.32 894.85) rotate(-45)"/><rect class="cls-4" x="1110" y="309.5" width="11" height="11" transform="translate(103.98 881.04) rotate(-45)"/><rect class="cls-4" x="1076.67" y="276.17" width="11" height="11" transform="translate(117.79 847.71) rotate(-45)"/><rect class="cls-4" x="1043.33" y="309.5" width="11" height="11" transform="translate(84.46 833.9) rotate(-45)"/><rect class="cls-4" x="1010" y="276.17" width="11" height="11" transform="translate(98.26 800.57) rotate(-45)"/><rect class="cls-4" x="1376.67" y="242.83" width="11" height="11" transform="translate(229.23 1050.07) rotate(-45)"/><rect class="cls-4" x="1343.33" y="209.5" width="11" height="11" transform="translate(243.04 1016.74) rotate(-45)"/><rect class="cls-4" x="1310" y="242.83" width="11" height="11" transform="translate(209.7 1002.93) rotate(-45)"/><rect class="cls-4" x="1276.67" y="209.5" width="11" height="11" transform="translate(223.51 969.6) rotate(-45)"/><rect class="cls-4" x="1243.33" y="242.83" width="11" height="11" transform="translate(190.18 955.79) rotate(-45)"/><rect class="cls-4" x="1210" y="209.5" width="11" height="11" transform="translate(203.98 922.46) rotate(-45)"/><rect class="cls-4" x="1176.67" y="242.83" width="11" height="11" transform="translate(170.65 908.65) rotate(-45)"/><rect class="cls-4" x="1143.33" y="209.5" width="11" height="11" transform="translate(184.46 875.32) rotate(-45)"/><rect class="cls-4" x="1110" y="242.83" width="11" height="11" transform="translate(151.12 861.51) rotate(-45)"/><rect class="cls-4" x="1076.67" y="209.5" width="11" height="11" transform="translate(164.93 828.18) rotate(-45)"/><rect class="cls-4" x="1043.33" y="242.83" width="11" height="11" transform="translate(131.6 814.37) rotate(-45)"/><rect class="cls-4" x="1010" y="209.5" width="11" height="11" transform="translate(145.41 781.04) rotate(-45)"/><rect class="cls-4" x="1376.67" y="176.17" width="11" height="11" transform="translate(276.37 1030.55) rotate(-45)"/><rect class="cls-4" x="1343.33" y="142.83" width="11" height="11" transform="translate(290.18 997.21) rotate(-45)"/><rect class="cls-4" x="1310" y="176.17" width="11" height="11" transform="translate(256.84 983.41) rotate(-45)"/><rect class="cls-4" x="1276.67" y="142.83" width="11" height="11" transform="translate(270.65 950.07) rotate(-45)"/><rect class="cls-4" x="1243.33" y="176.17" width="11" height="11" transform="translate(237.32 936.27) rotate(-45)"/><rect class="cls-4" x="1210" y="142.83" width="11" height="11" transform="translate(251.12 902.93) rotate(-45)"/><rect class="cls-4" x="1176.67" y="176.17" width="11" height="11" transform="translate(217.79 889.13) rotate(-45)"/><rect class="cls-4" x="1143.33" y="142.83" width="11" height="11" transform="translate(231.6 855.79) rotate(-45)"/><rect class="cls-4" x="1110" y="176.17" width="11" height="11" transform="translate(198.26 841.99) rotate(-45)"/><rect class="cls-4" x="1076.67" y="142.83" width="11" height="11" transform="translate(212.07 808.65) rotate(-45)"/><rect class="cls-4" x="1043.33" y="176.17" width="11" height="11" transform="translate(178.74 794.85) rotate(-45)"/><rect class="cls-4" x="1010" y="142.83" width="11" height="11" transform="translate(192.55 761.51) rotate(-45)"/><rect class="cls-4" x="1376.67" y="109.5" width="11" height="11" transform="translate(323.51 1011.02) rotate(-45)"/><rect class="cls-4" x="1343.33" y="76.17" width="11" height="11" transform="translate(337.32 977.69) rotate(-45)"/><rect class="cls-4" x="1310" y="109.5" width="11" height="11" transform="translate(303.98 963.88) rotate(-45)"/><rect class="cls-4" x="1276.67" y="76.17" width="11" height="11" transform="translate(317.79 930.55) rotate(-45)"/><rect class="cls-4" x="1243.33" y="109.5" width="11" height="11" transform="translate(284.46 916.74) rotate(-45)"/><rect class="cls-4" x="1210" y="76.17" width="11" height="11" transform="translate(298.26 883.41) rotate(-45)"/><rect class="cls-4" x="1176.67" y="109.5" width="11" height="11" transform="translate(264.93 869.6) rotate(-45)"/><rect class="cls-4" x="1143.33" y="76.17" width="11" height="11" transform="translate(278.74 836.27) rotate(-45)"/><rect class="cls-4" x="1110" y="109.5" width="11" height="11" transform="translate(245.41 822.46) rotate(-45)"/><rect class="cls-4" x="1076.67" y="76.17" width="11" height="11" transform="translate(259.21 789.13) rotate(-45)"/><rect class="cls-4" x="1043.33" y="109.5" width="11" height="11" transform="translate(225.88 775.32) rotate(-45)"/><rect class="cls-4" x="1010" y="76.17" width="11" height="11" transform="translate(239.69 741.99) rotate(-45)"/><rect class="cls-4" x="1376.67" y="42.83" width="11" height="11" transform="translate(370.65 991.5) rotate(-45)"/><rect class="cls-4" x="1343.33" y="9.5" width="11" height="11" transform="translate(384.46 958.16) rotate(-45)"/><rect class="cls-4" x="1310" y="42.83" width="11" height="11" transform="translate(351.12 944.36) rotate(-45)"/><rect class="cls-4" x="1276.67" y="9.5" width="11" height="11" transform="translate(364.93 911.02) rotate(-45)"/><rect class="cls-4" x="1243.33" y="42.83" width="11" height="11" transform="translate(331.6 897.21) rotate(-45)"/><rect class="cls-4" x="1210" y="9.5" width="11" height="11" transform="translate(345.41 863.88) rotate(-45)"/><rect class="cls-4" x="1176.67" y="42.83" width="11" height="11" transform="translate(312.07 850.07) rotate(-45)"/><rect class="cls-4" x="1143.33" y="9.5" width="11" height="11" transform="translate(325.88 816.74) rotate(-45)"/><rect class="cls-4" x="1110" y="42.83" width="11" height="11" transform="translate(292.55 802.93) rotate(-45)"/><rect class="cls-4" x="1076.67" y="9.5" width="11" height="11" transform="translate(306.35 769.6) rotate(-45)"/><rect class="cls-4" x="1043.33" y="42.83" width="11" height="11" transform="translate(273.02 755.79) rotate(-45)"/><rect class="cls-4" x="1010" y="9.5" width="11" height="11" transform="translate(286.83 722.46) rotate(-45)"/><rect class="cls-2" x="1343.33" y="376.67" width="11" height="11" transform="translate(124.83 1065.7) rotate(-45)"/><rect class="cls-2" x="1376.67" y="343.33" width="11" height="11" transform="translate(158.17 1079.51) rotate(-45)"/><rect class="cls-2" x="1276.67" y="376.67" width="11" height="11" transform="translate(105.31 1018.56) rotate(-45)"/><rect class="cls-2" x="1310" y="343.33" width="11" height="11" transform="translate(138.64 1032.37) rotate(-45)"/><rect class="cls-2" x="1210" y="376.67" width="11" height="11" transform="translate(85.78 971.42) rotate(-45)"/><rect class="cls-2" x="1243.33" y="343.33" width="11" height="11" transform="translate(119.11 985.23) rotate(-45)"/><rect class="cls-2" x="1143.33" y="376.67" width="11" height="11" transform="translate(66.25 924.28) rotate(-45)"/><rect class="cls-2" x="1176.67" y="343.33" width="11" height="11" transform="translate(99.59 938.09) rotate(-45)"/><rect class="cls-2" x="1076.67" y="376.67" width="11" height="11" transform="translate(46.73 877.14) rotate(-45)"/><rect class="cls-2" x="1110" y="343.33" width="11" height="11" transform="translate(80.06 890.95) rotate(-45)"/><rect class="cls-2" x="1010" y="376.67" width="11" height="11" transform="translate(27.2 830) rotate(-45)"/><rect class="cls-2" x="1043.33" y="343.33" width="11" height="11" transform="translate(60.53 843.81) rotate(-45)"/><rect class="cls-2" x="1343.33" y="310" width="11" height="11" transform="translate(171.97 1046.18) rotate(-45)"/><rect class="cls-2" x="1376.67" y="276.67" width="11" height="11" transform="translate(205.31 1059.98) rotate(-45)"/><rect class="cls-2" x="1276.67" y="310" width="11" height="11" transform="translate(152.45 999.04) rotate(-45)"/><rect class="cls-2" x="1310" y="276.67" width="11" height="11" transform="translate(185.78 1012.84) rotate(-45)"/><rect class="cls-2" x="1210" y="310" width="11" height="11" transform="translate(132.92 951.9) rotate(-45)"/><rect class="cls-2" x="1243.33" y="276.67" width="11" height="11" transform="translate(166.25 965.7) rotate(-45)"/><rect class="cls-2" x="1143.33" y="310" width="11" height="11" transform="translate(113.39 904.76) rotate(-45)"/><rect class="cls-2" x="1176.67" y="276.67" width="11" height="11" transform="translate(146.73 918.56) rotate(-45)"/><rect class="cls-2" x="1076.67" y="310" width="11" height="11" transform="translate(93.87 857.62) rotate(-45)"/><rect class="cls-2" x="1110" y="276.67" width="11" height="11" transform="translate(127.2 871.42) rotate(-45)"/><rect class="cls-2" x="1010" y="310" width="11" height="11" transform="translate(74.34 810.47) rotate(-45)"/><rect class="cls-2" x="1043.33" y="276.67" width="11" height="11" transform="translate(107.67 824.28) rotate(-45)"/><rect class="cls-2" x="1343.33" y="243.33" width="11" height="11" transform="translate(219.11 1026.65) rotate(-45)"/><rect class="cls-2" x="1376.67" y="210" width="11" height="11" transform="translate(252.45 1040.46) rotate(-45)"/><rect class="cls-2" x="1276.67" y="243.33" width="11" height="11" transform="translate(199.59 979.51) rotate(-45)"/><rect class="cls-2" x="1310" y="210" width="11" height="11" transform="translate(232.92 993.32) rotate(-45)"/><rect class="cls-2" x="1210" y="243.33" width="11" height="11" transform="translate(180.06 932.37) rotate(-45)"/><rect class="cls-2" x="1243.33" y="210" width="11" height="11" transform="translate(213.39 946.18) rotate(-45)"/><rect class="cls-2" x="1143.33" y="243.33" width="11" height="11" transform="translate(160.53 885.23) rotate(-45)"/><rect class="cls-2" x="1176.67" y="210" width="11" height="11" transform="translate(193.87 899.04) rotate(-45)"/><rect class="cls-2" x="1076.67" y="243.33" width="11" height="11" transform="translate(141.01 838.09) rotate(-45)"/><rect class="cls-2" x="1110" y="210" width="11" height="11" transform="translate(174.34 851.9) rotate(-45)"/><rect class="cls-2" x="1010" y="243.33" width="11" height="11" transform="translate(121.48 790.95) rotate(-45)"/><rect class="cls-2" x="1043.33" y="210" width="11" height="11" transform="translate(154.81 804.76) rotate(-45)"/><rect class="cls-2" x="1343.33" y="176.67" width="11" height="11" transform="translate(266.25 1007.12) rotate(-45)"/><rect class="cls-2" x="1376.67" y="143.33" width="11" height="11" transform="translate(299.59 1020.93) rotate(-45)"/><rect class="cls-2" x="1276.67" y="176.67" width="11" height="11" transform="translate(246.73 959.98) rotate(-45)"/><rect class="cls-2" x="1310" y="143.33" width="11" height="11" transform="translate(280.06 973.79) rotate(-45)"/><rect class="cls-2" x="1210" y="176.67" width="11" height="11" transform="translate(227.2 912.84) rotate(-45)"/><rect class="cls-2" x="1243.33" y="143.33" width="11" height="11" transform="translate(260.53 926.65) rotate(-45)"/><rect class="cls-2" x="1143.33" y="176.67" width="11" height="11" transform="translate(207.67 865.7) rotate(-45)"/><rect class="cls-2" x="1176.67" y="143.33" width="11" height="11" transform="translate(241.01 879.51) rotate(-45)"/><rect class="cls-2" x="1076.67" y="176.67" width="11" height="11" transform="translate(188.15 818.56) rotate(-45)"/><rect class="cls-2" x="1110" y="143.33" width="11" height="11" transform="translate(221.48 832.37) rotate(-45)"/><rect class="cls-2" x="1010" y="176.67" width="11" height="11" transform="translate(168.62 771.42) rotate(-45)"/><rect class="cls-2" x="1043.33" y="143.33" width="11" height="11" transform="translate(201.96 785.23) rotate(-45)"/><rect class="cls-2" x="1343.33" y="110" width="11" height="11" transform="translate(313.39 987.6) rotate(-45)"/><rect class="cls-2" x="1376.67" y="76.67" width="11" height="11" transform="translate(346.73 1001.41) rotate(-45)"/><rect class="cls-2" x="1276.67" y="110" width="11" height="11" transform="translate(293.87 940.46) rotate(-45)"/><rect class="cls-2" x="1310" y="76.67" width="11" height="11" transform="translate(327.2 954.26) rotate(-45)"/><rect class="cls-2" x="1210" y="110" width="11" height="11" transform="translate(274.34 893.32) rotate(-45)"/><rect class="cls-2" x="1243.33" y="76.67" width="11" height="11" transform="translate(307.67 907.12) rotate(-45)"/><rect class="cls-2" x="1143.33" y="110" width="11" height="11" transform="translate(254.81 846.18) rotate(-45)"/><rect class="cls-2" x="1176.67" y="76.67" width="11" height="11" transform="translate(288.15 859.98) rotate(-45)"/><rect class="cls-2" x="1076.67" y="110" width="11" height="11" transform="translate(235.29 799.04) rotate(-45)"/><rect class="cls-2" x="1110" y="76.67" width="11" height="11" transform="translate(268.62 812.84) rotate(-45)"/><rect class="cls-2" x="1010" y="110" width="11" height="11" transform="translate(215.76 751.9) rotate(-45)"/><rect class="cls-2" x="1043.33" y="76.67" width="11" height="11" transform="translate(249.1 765.7) rotate(-45)"/><rect class="cls-2" x="1343.33" y="43.33" width="11" height="11" transform="translate(360.53 968.07) rotate(-45)"/><rect class="cls-2" x="1376.67" y="10" width="11" height="11" transform="translate(393.87 981.88) rotate(-45)"/><rect class="cls-2" x="1276.67" y="43.33" width="11" height="11" transform="translate(341.01 920.93) rotate(-45)"/><rect class="cls-2" x="1310" y="10" width="11" height="11" transform="translate(374.34 934.74) rotate(-45)"/><rect class="cls-2" x="1210" y="43.33" width="11" height="11" transform="translate(321.48 873.79) rotate(-45)"/><rect class="cls-2" x="1243.33" y="10" width="11" height="11" transform="translate(354.81 887.6) rotate(-45)"/><rect class="cls-2" x="1143.33" y="43.33" width="11" height="11" transform="translate(301.96 826.65) rotate(-45)"/><rect class="cls-2" x="1176.67" y="10" width="11" height="11" transform="translate(335.29 840.46) rotate(-45)"/><rect class="cls-2" x="1076.67" y="43.33" width="11" height="11" transform="translate(282.43 779.51) rotate(-45)"/><rect class="cls-2" x="1110" y="10" width="11" height="11" transform="translate(315.76 793.32) rotate(-45)"/><rect class="cls-2" x="1010" y="43.33" width="11" height="11" transform="translate(262.9 732.37) rotate(-45)"/><rect class="cls-2" x="1043.33" y="10" width="11" height="11" transform="translate(296.24 746.18) rotate(-45)"/></g><g id="darken_pixel" data-name="darken pixel"><rect class="cls-5" x="5" y="4.5" width="200" height="200"/><rect class="cls-5" x="505" y="4.5" width="200" height="200"/><rect class="cls-5" x="1005" y="4.5" width="200" height="200"/></g><g id="grid"><line class="cls-6" x1="5" y1="-0.5" x2="5" y2="409.5"/><line class="cls-6" x1="505" y1="-0.5" x2="505" y2="409.5"/><line class="cls-6" y1="404.5" x2="410" y2="404.5"/><line class="cls-6" x1="500" y1="404.5" x2="910" y2="404.5"/><line class="cls-6" x1="605" y1="-0.5" x2="605" y2="409.5"/><line class="cls-6" x1="500" y1="304.5" x2="910" y2="304.5"/><line class="cls-6" x1="205" y1="-0.5" x2="205" y2="409.5"/><line class="cls-6" x1="705" y1="-0.5" x2="705" y2="409.5"/><line class="cls-6" y1="204.5" x2="410" y2="204.5"/><line class="cls-6" x1="500" y1="204.5" x2="910" y2="204.5"/><line class="cls-6" x1="805" y1="-0.5" x2="805" y2="409.5"/><line class="cls-6" x1="500" y1="104.5" x2="910" y2="104.5"/><line class="cls-6" x1="405" y1="-0.5" x2="405" y2="409.5"/><line class="cls-6" x1="905" y1="-0.5" x2="905" y2="409.5"/><line class="cls-6" y1="4.5" x2="410" y2="4.5"/><line class="cls-6" x1="500" y1="4.5" x2="910" y2="4.5"/></g><g id="Layer_6" data-name="Layer 6"><circle class="cls-7" cx="305" cy="103.5" r="48"/><path d="M305,59.5a44,44,0,1,1-44,44,44.05,44.05,0,0,1,44-44m0-8a52,52,0,1,0,52,52,52,52,0,0,0-52-52Z"/><path class="cls-8" d="M294.22,112.3h8V92.38l-6.68,4-3.4-5,10.75-6.53h6.81V112.3h6.2v5.81h-21.7Z"/><circle class="cls-7" cx="805" cy="103.5" r="48"/><path d="M805,59.5a44,44,0,1,1-44,44,44.05,44.05,0,0,1,44-44m0-8a52,52,0,1,0,52,52,52,52,0,0,0-52-52Z"/><path class="cls-8" d="M801.28,112.25h14.16l-.82,5.86H792.44v-5.43c10.9-10.56,14.4-14.54,14.4-18.48a4.08,4.08,0,0,0-4.41-4.32c-2.31,0-4.08,1-5.95,3.36l-4.71-3.55A13.66,13.66,0,0,1,803.24,84c7.54,0,11.43,4.37,11.43,9.56C814.67,98.47,811.36,103.22,801.28,112.25Z"/><circle class="cls-7" cx="1305" cy="103.5" r="48"/><path d="M1305,59.5a44,44,0,1,1-44,44,44.05,44.05,0,0,1,44-44m0-8a52,52,0,1,0,52,52,52,52,0,0,0-52-52Z"/><path class="cls-8" d="M1291.44,88.49A15.81,15.81,0,0,1,1302.86,84c7.2,0,11.38,3.89,11.38,8.55,0,4.22-2.69,6.77-6.34,7.82v.2c4,.57,7.39,2.92,7.39,8.21,0,5.61-4.89,10.17-12.91,10.17a15.07,15.07,0,0,1-11.76-5l4.32-4a8.87,8.87,0,0,0,6.91,3.17c3.27,0,5.57-1.73,5.57-4.85,0-3.51-2.06-5-5.62-5h-3l.86-5.28h2.16c2.93,0,5-1.44,5-4.32,0-2.45-2-4-4.8-4a9.34,9.34,0,0,0-6.63,2.88Z"/></g></g></svg>