<svg xmlns="http://www.w3.org/2000/svg" viewBox="0 0 447 292"><defs><style>.cls-1{fill:#e0e0e0;}.cls-2{fill:#9d9d9d;}</style></defs><title>design-modules</title><g id="bg"><rect class="cls-1" width="99" height="137"/><rect class="cls-1" x="116" width="99" height="137"/><rect class="cls-1" x="232" width="99" height="137"/><rect class="cls-1" x="348" width="99" height="137"/><rect class="cls-1" x="116" y="155" width="99" height="137"/><rect class="cls-1" x="232" y="155" width="99" height="137"/></g><g id="Layer_2" data-name="Layer 2"><rect class="cls-2" x="4" y="4" width="16" height="7"/><rect class="cls-2" x="4" y="13" width="91" height="2"/><rect class="cls-2" x="4" y="122" width="91" height="11"/><rect class="cls-2" x="25" y="23" width="70" height="4"/><rect class="cls-2" x="25" y="32" width="69" height="2"/><rect class="cls-2" x="25" y="36" width="69" height="2"/><rect class="cls-2" x="25" y="40" width="48.706" height="2"/><rect class="cls-2" x="4" y="49" width="16" height="2"/><rect class="cls-2" x="4" y="53" width="16" height="1"/><rect class="cls-2" x="4" y="55" width="16" height="1"/><rect class="cls-2" x="4" y="57" width="16" height="1"/><rect class="cls-2" x="4" y="59" width="16" height="1"/><rect class="cls-2" x="4" y="61" width="16" height="1"/><rect class="cls-2" x="4" y="63" width="16" height="1"/><rect class="cls-2" x="4" y="65" width="16" height="1"/><rect class="cls-2" x="72" y="7" width="23" height="4"/><rect class="cls-2" x="25" y="49" width="21" height="21"/><rect class="cls-2" x="73" y="49" width="21" height="21"/><rect class="cls-2" x="49" y="49" width="21" height="21"/><rect class="cls-2" x="25" y="73" width="21" height="21"/><rect class="cls-2" x="73" y="73" width="21" height="21"/><rect class="cls-2" x="49" y="73" width="21" height="21"/><rect class="cls-2" x="25" y="97" width="21" height="21"/><rect class="cls-2" x="73" y="97" width="21" height="21"/><rect class="cls-2" x="49" y="97" width="21" height="21"/><rect class="cls-2" x="120" y="4" width="16" height="7"/><rect class="cls-2" x="120" y="13" width="91" height="2"/><rect class="cls-2" x="120" y="122" width="91" height="11"/><rect class="cls-2" x="145" y="23" width="43" height="4"/><rect class="cls-2" x="145" y="88" width="43" height="2"/><rect class="cls-2" x="145" y="92" width="43" height="2"/><rect class="cls-2" x="145" y="96" width="43" height="2"/><rect class="cls-2" x="145" y="100" width="43" height="2"/><rect class="cls-2" x="145" y="104" width="43" height="2"/><rect class="cls-2" x="145" y="108" width="43" height="2"/><rect class="cls-2" x="145" y="112" width="30.353" height="2"/><rect class="cls-2" x="145" y="37" width="43" height="2"/><rect class="cls-2" x="145" y="41" width="43" height="2"/><rect class="cls-2" x="145" y="45" width="43" height="2"/><rect class="cls-2" x="145" y="49" width="43" height="2"/><rect class="cls-2" x="145" y="53" width="30.353" height="2"/><rect class="cls-2" x="140" y="61" width="20" height="2"/><rect class="cls-2" x="140" y="65" width="20" height="1"/><rect class="cls-2" x="140" y="67" width="20" height="1"/><rect class="cls-2" x="140" y="69" width="13" height="1"/><rect class="cls-2" x="188" y="7" width="23" height="4"/><rect class="cls-2" x="125" y="61" width="13" height="9"/><rect class="cls-2" x="140" y="73" width="20" height="2"/><rect class="cls-2" x="140" y="77" width="20" height="1"/><rect class="cls-2" x="140" y="79" width="20" height="1"/><rect class="cls-2" x="140" y="81" width="13" height="1"/><rect class="cls-2" x="125" y="73" width="13" height="9"/><rect class="cls-2" x="180" y="61" width="20" height="2"/><rect class="cls-2" x="180" y="65" width="20" height="1"/><rect class="cls-2" x="180" y="67" width="20" height="1"/><rect class="cls-2" x="180" y="69" width="13" height="1"/><rect class="cls-2" x="165" y="61" width="13" height="9"/><rect class="cls-2" x="180" y="73" width="20" height="2"/><rect class="cls-2" x="180" y="77" width="20" height="1"/><rect class="cls-2" x="180" y="79" width="20" height="1"/><rect class="cls-2" x="180" y="81" width="13" height="1"/><rect class="cls-2" x="165" y="73" width="13" height="9"/><rect class="cls-2" x="236" y="4" width="16" height="7"/><rect class="cls-2" x="236" y="13" width="91" height="2"/><rect class="cls-2" x="236" y="122" width="91" height="11"/><rect class="cls-2" x="257" y="23" width="43" height="4"/><rect class="cls-2" x="257" y="31" width="43" height="2"/><rect class="cls-2" x="257" y="35" width="43" height="2"/><rect class="cls-2" x="257" y="39" width="43" height="2"/><rect class="cls-2" x="257" y="43" width="43" height="2"/><rect class="cls-2" x="257" y="47" width="43" height="2"/><rect class="cls-2" x="257" y="51" width="43" height="2"/><rect class="cls-2" x="257" y="55" width="30.353" height="2"/><rect class="cls-2" x="257" y="104" width="43" height="2"/><rect class="cls-2" x="257" y="108" width="43" height="2"/><rect class="cls-2" x="257" y="112" width="43" height="2"/><rect class="cls-2" x="257" y="116" width="30.353" height="2"/><rect class="cls-2" x="236" y="23" width="16" height="2"/><rect class="cls-2" x="236" y="27" width="16" height="1"/><rect class="cls-2" x="236" y="29" width="16" height="1"/><rect class="cls-2" x="236" y="31" width="16" height="1"/><rect class="cls-2" x="236" y="33" width="16" height="1"/><rect class="cls-2" x="236" y="35" width="16" height="1"/><rect class="cls-2" x="236" y="37" width="16" height="1"/><rect class="cls-2" x="236" y="39" width="16" height="1"/><rect class="cls-2" x="304" y="7" width="23" height="4"/><rect class="cls-2" x="304" y="23" width="23" height="16"/><rect class="cls-2" x="377" y="70" width="18" height="18"/><rect class="cls-2" x="242" y="61" width="79" height="37"/><rect class="cls-2" x="232" y="61" width="7" height="37"/><rect class="cls-2" x="324" y="61" width="7" height="37"/><rect class="cls-2" x="352" y="70" width="6" height="6"/><rect class="cls-2" x="352" y="4" width="16" height="7"/><rect class="cls-2" x="352" y="13" width="91" height="2"/><rect class="cls-2" x="352" y="122" width="91" height="11"/><rect class="cls-2" x="377" y="23" width="43" height="4"/><rect class="cls-2" x="377" y="92" width="43" height="2"/><rect class="cls-2" x="377" y="96" width="43" height="2"/><rect class="cls-2" x="377" y="100" width="43" height="2"/><rect class="cls-2" x="377" y="104" width="43" height="2"/><rect class="cls-2" x="377" y="108" width="43" height="2"/><rect class="cls-2" x="377" y="112" width="43" height="2"/><rect class="cls-2" x="377" y="116" width="30.353" height="2"/><rect class="cls-2" x="399" y="70" width="21" height="2"/><rect class="cls-2" x="399" y="74" width="21" height="2"/><rect class="cls-2" x="399" y="78" width="21" height="2"/><rect class="cls-2" x="399" y="82" width="21" height="2"/><rect class="cls-2" x="399" y="86" width="14.824" height="2"/><rect class="cls-2" x="359" y="70" width="10" height="1"/><rect class="cls-2" x="359" y="72" width="10" height="1"/><rect class="cls-2" x="420" y="7" width="23" height="4"/><rect class="cls-2" x="399" y="31" width="43" height="29"/><polygon class="cls-1" points="424.25 45.5 416.75 41.17 416.75 49.83 424.25 45.5"/><rect class="cls-2" x="352" y="31" width="43" height="29"/><polygon class="cls-1" points="377.25 45.5 369.75 41.17 369.75 49.83 377.25 45.5"/><rect class="cls-2" x="304" y="219" width="23" height="2"/><rect class="cls-2" x="304" y="223" width="23" height="1"/><rect class="cls-2" x="304" y="225" width="23" height="1"/><rect class="cls-2" x="304" y="227" width="23" height="1"/><rect class="cls-2" x="304" y="229" width="23" height="1"/><rect class="cls-2" x="304" y="231" width="23" height="1"/><rect class="cls-2" x="304" y="233" width="23" height="1"/><rect class="cls-2" x="304" y="235" width="23" height="1"/><rect class="cls-2" x="120" y="159" width="16" height="7"/><rect class="cls-2" x="120" y="168" width="91" height="2"/><rect class="cls-2" x="120" y="277" width="91" height="11"/><rect class="cls-2" x="145" y="178" width="43" height="4"/><rect class="cls-2" x="145" y="247" width="43" height="2"/><rect class="cls-2" x="145" y="251" width="43" height="2"/><rect class="cls-2" x="145" y="255" width="43" height="2"/><rect class="cls-2" x="145" y="259" width="43" height="2"/><rect class="cls-2" x="145" y="263" width="43" height="2"/><rect class="cls-2" x="145" y="267" width="43" height="2"/><rect class="cls-2" x="145" y="271" width="30.353" height="2"/><rect class="cls-2" x="145" y="225" width="43" height="2"/><rect class="cls-2" x="145" y="229" width="43" height="2"/><rect class="cls-2" x="145" y="233" width="43" height="2"/><rect class="cls-2" x="145" y="237" width="43" height="2"/><rect class="cls-2" x="145" y="241" width="30.353" height="2"/><rect class="cls-2" x="195" y="225" width="16" height="2"/><rect class="cls-2" x="195" y="229" width="16" height="1"/><rect class="cls-2" x="195" y="231" width="16" height="1"/><rect class="cls-2" x="195" y="233" width="16" height="1"/><rect class="cls-2" x="195" y="235" width="16" height="1"/><rect class="cls-2" x="195" y="237" width="16" height="1"/><rect class="cls-2" x="195" y="239" width="16" height="1"/><rect class="cls-2" x="195" y="241" width="16" height="1"/><rect class="cls-2" x="120" y="225" width="6" height="6"/><rect class="cls-2" x="127" y="225" width="10" height="1"/><rect class="cls-2" x="127" y="227" width="10" height="1"/><rect class="cls-2" x="188" y="162" width="23" height="4"/><rect class="cls-2" x="116" y="186" width="99" height="34"/><rect class="cls-2" x="236" y="159" width="16" height="7"/><rect class="cls-2" x="236" y="168" width="91" height="2"/><rect class="cls-2" x="236" y="277" width="91" height="11"/><rect class="cls-2" x="257" y="178" width="43" height="4"/><rect class="cls-2" x="257" y="219" width="43" height="2"/><rect class="cls-2" x="257" y="223" width="43" height="2"/><rect class="cls-2" x="257" y="227" width="43" height="2"/><rect class="cls-2" x="257" y="231" width="43" height="2"/><rect class="cls-2" x="257" y="235" width="43" height="2"/><rect class="cls-2" x="257" y="239" width="43" height="2"/><rect class="cls-2" x="257" y="243" width="30.353" height="2"/><rect class="cls-2" x="257" y="249" width="43" height="2"/><rect class="cls-2" x="257" y="253" width="43" height="2"/><rect class="cls-2" x="257" y="257" width="43" height="2"/><rect class="cls-2" x="257" y="261" width="43" height="2"/><rect class="cls-2" x="257" y="265" width="43" height="2"/><rect class="cls-2" x="257" y="269" width="43" height="2"/><rect class="cls-2" x="257" y="273" width="30.353" height="2"/><rect class="cls-2" x="304" y="162" width="23" height="4"/><rect class="cls-1" x="348" y="155" width="99" height="137"/><rect class="cls-2" x="352" y="159" width="16" height="7"/><rect class="cls-2" x="352" y="168" width="91" height="2"/><rect class="cls-2" x="352" y="277" width="91" height="11"/><rect class="cls-2" x="373" y="178" width="43" height="4"/><rect class="cls-2" x="420" y="186" width="23" height="2"/><rect class="cls-2" x="420" y="190" width="23" height="1"/><rect class="cls-2" x="420" y="192" width="23" height="1"/><rect class="cls-2" x="420" y="194" width="23" height="1"/><rect class="cls-2" x="420" y="196" width="23" height="1"/><rect class="cls-2" x="420" y="198" width="23" height="1"/><rect class="cls-2" x="420" y="200" width="23" height="1"/><rect class="cls-2" x="420" y="202" width="23" height="1"/><rect class="cls-2" x="420" y="162" width="23" height="4"/><rect class="cls-2" x="373" y="186" width="43" height="34"/><rect class="cls-2" x="373" y="247" width="43" height="2"/><rect class="cls-2" x="373" y="251" width="43" height="2"/><rect class="cls-2" x="373" y="255" width="43" height="2"/><rect class="cls-2" x="373" y="259" width="43" height="2"/><rect class="cls-2" x="373" y="263" width="43" height="2"/><rect class="cls-2" x="373" y="267" width="43" height="2"/><rect class="cls-2" x="373" y="271" width="30.353" height="2"/><rect class="cls-2" x="373" y="225" width="18" height="18"/><rect class="cls-2" x="395" y="225" width="21" height="2"/><rect class="cls-2" x="395" y="229" width="21" height="2"/><rect class="cls-2" x="395" y="233" width="21" height="2"/><rect class="cls-2" x="395" y="237" width="21" height="2"/><rect class="cls-2" x="395" y="241" width="14.824" height="2"/><rect class="cls-2" x="304" y="198" width="23" height="17"/><rect class="cls-2" x="236" y="198" width="17" height="17"/><rect class="cls-2" x="236" y="219" width="6" height="6"/><rect class="cls-2" x="243" y="219" width="10" height="1"/><rect class="cls-2" x="243" y="221" width="10" height="1"/><rect class="cls-2" x="352" y="186" width="6" height="6"/><rect class="cls-2" x="359" y="186" width="10" height="1"/><rect class="cls-2" x="359" y="188" width="10" height="1"/><rect class="cls-2" x="236" y="228" width="6" height="6"/><rect class="cls-2" x="243" y="228" width="10" height="1"/><rect class="cls-2" x="243" y="230" width="10" height="1"/><rect class="cls-2" x="236" y="237" width="6" height="6"/><rect class="cls-2" x="243" y="237" width="10" height="1"/><rect class="cls-2" x="243" y="239" width="10" height="1"/><rect class="cls-2" x="257" y="186" width="43" height="29"/><polygon class="cls-1" points="282.25 200.5 274.75 196.17 274.75 204.83 282.25 200.5"/><rect class="cls-1" y="155" width="99" height="137"/><rect class="cls-2" x="29" y="243" width="43" height="2"/><rect class="cls-2" x="29" y="247" width="43" height="2"/><rect class="cls-2" x="29" y="251" width="43" height="2"/><rect class="cls-2" x="29" y="255" width="43" height="2"/><rect class="cls-2" x="29" y="259" width="43" height="2"/><rect class="cls-2" x="29" y="263" width="43" height="2"/><rect class="cls-2" x="29" y="267" width="30.353" height="2"/><rect class="cls-2" x="4" y="243" width="16" height="2"/><rect class="cls-2" x="4" y="247" width="16" height="1"/><rect class="cls-2" x="4" y="249" width="16" height="1"/><rect class="cls-2" x="4" y="251" width="16" height="1"/><rect class="cls-2" x="4" y="253" width="16" height="1"/><rect class="cls-2" x="4" y="255" width="16" height="1"/><rect class="cls-2" x="4" y="257" width="16" height="1"/><rect class="cls-2" x="4" y="259" width="16" height="1"/><rect class="cls-2" x="4" y="159" width="16" height="7"/><rect class="cls-2" x="4" y="168" width="91" height="2"/><rect class="cls-2" x="4" y="277" width="91" height="11"/><rect class="cls-2" x="29" y="178" width="43" height="4"/><rect class="cls-2" x="77" y="243" width="6" height="6"/><rect class="cls-2" x="84" y="243" width="10" height="1"/><rect class="cls-2" x="84" y="245" width="10" height="1"/><rect class="cls-2" x="72" y="162" width="23" height="4"/><rect class="cls-2" y="186" width="99" height="48"/><polygon class="cls-1" points="54.25 210 46.75 205.67 46.75 214.33 54.25 210"/></g></svg>