<svg xmlns="http://www.w3.org/2000/svg" viewBox="0 0 430 160"><defs><style>.cls-1,.cls-2,.cls-3{fill:#fff;}.cls-2{stroke:#000;stroke-width:2px;}.cls-2,.cls-3{stroke-miterlimit:10;}.cls-3{stroke:#006984;}.cls-4{fill:#0054a2;}</style></defs><title>html-component-rendering</title><g id="Layer_2" data-name="Layer 2"><rect class="cls-1" x="229" y="28" width="140" height="107"/><path d="M368,29V134H230V29H368m2-2H228V136H370V27Z"/><rect class="cls-1" x="229" y="28" width="140" height="8"/><path d="M368,29v6H230V29H368m2-2H228V37H370V27Z"/><line class="cls-2" x1="242" y1="32" x2="366" y2="32"/><rect x="232" y="31" width="2" height="2"/><rect x="235" y="31" width="2" height="2"/><line class="cls-2" x1="285" y1="45" x2="356" y2="45"/><line class="cls-3" x1="285" y1="81" x2="356" y2="81"/><line class="cls-2" x1="285" y1="90" x2="356" y2="90"/><line class="cls-3" x1="285" y1="126" x2="356" y2="126"/><circle class="cls-1" cx="258" cy="63" r="19"/><path d="M258,45a18,18,0,1,1-18,18,18.021,18.021,0,0,1,18-18m0-2a20,20,0,1,0,20,20,20,20,0,0,0-20-20Z"/><circle class="cls-1" cx="258" cy="108" r="19"/><path d="M258,90a18,18,0,1,1-18,18,18.021,18.021,0,0,1,18-18m0-2a20,20,0,1,0,20,20,20,20,0,0,0-20-20Z"/></g><g id="Layer_1" data-name="Layer 1"><path class="cls-4" d="M288.3,103.247l-.42,1.787h-2.039l2.506-8.311h2.386l2.508,8.311h-2.088l-.431-1.787Zm-1.128-8.359a.971.971,0,1,1,.971.947A.955.955,0,0,1,287.175,94.888Zm2.339,3.262-.875,3.67h1.75Zm.443-3.262a.972.972,0,1,1,.972.947A.955.955,0,0,1,289.957,94.888Z"/><path class="cls-4" d="M299.8,101.832c0,1.967-.96,3.406-2.53,3.406a1.987,1.987,0,0,1-1.547-.659v2.914l-1.9.2V98.666h1.667l.1.707a2.3,2.3,0,0,1,1.8-.911C299.064,98.462,299.8,99.769,299.8,101.832Zm-1.967.024c0-1.583-.384-2-1.044-2a1.287,1.287,0,0,0-1.066.744v2.686a1.126,1.126,0,0,0,.97.564C297.4,103.847,297.829,103.283,297.829,101.856Z"/><path class="cls-4" d="M303.134,98.174v.492h1.5l-.2,1.319h-1.295v5.049h-1.9V99.985h-.959V98.666h.959V98.1a2.14,2.14,0,0,1,2.436-2.171,3.872,3.872,0,0,1,1.738.408l-.516,1.235a2.271,2.271,0,0,0-1-.24C303.35,97.334,303.134,97.574,303.134,98.174Z"/><path class="cls-4" d="M310.656,102.408H306.71c.132,1.139.671,1.451,1.451,1.451a2.578,2.578,0,0,0,1.523-.564l.78,1.056a3.921,3.921,0,0,1-2.484.887c-2.122,0-3.2-1.367-3.2-3.358,0-1.907,1.043-3.418,2.974-3.418,1.823,0,2.938,1.2,2.938,3.262A6.365,6.365,0,0,1,310.656,102.408Zm-1.824-1.224c-.012-.863-.275-1.463-1.031-1.463-.635,0-1.007.408-1.091,1.547h2.122Z"/><path class="cls-4" d="M313.945,103.739a.907.907,0,0,0,.313-.06l.371,1.343a3.425,3.425,0,0,1-1.223.216,1.576,1.576,0,0,1-1.679-1.8v-7.3l1.894-.2v7.316C313.621,103.607,313.742,103.739,313.945,103.739Z"/><path d="M286.359,121.077l-.3-.827a1.751,1.751,0,0,0,1.319-2.016V111.17h1.139v7.113A2.587,2.587,0,0,1,286.359,121.077Z"/><path d="M295.548,116.651h-4.03c.108,1.464.792,2.028,1.7,2.028a2.659,2.659,0,0,0,1.643-.552l.48.66a3.447,3.447,0,0,1-2.207.791c-1.763,0-2.794-1.235-2.794-3.238,0-1.967,1-3.37,2.626-3.37,1.7,0,2.6,1.187,2.6,3.118C295.572,116.3,295.561,116.508,295.548,116.651Zm-1.068-.887c0-1.235-.492-1.919-1.487-1.919-.839,0-1.391.588-1.475,1.991h2.962Z"/><path d="M299.174,119.578a1.588,1.588,0,0,1-1.7-1.8v-3.814h-1.1v-.851h1.1v-1.427l1.1-.133v1.56h1.5l-.12.851h-1.379v3.766c0,.636.2.935.756.935a1.551,1.551,0,0,0,.839-.275l.42.755A2.41,2.41,0,0,1,299.174,119.578Z"/><path d="M302.258,118.511h3.334l-.131.923h-4.45v-.828l3.286-4.557h-3.01v-.935h4.27v.839Z"/><path d="M308.869,119.578a1.589,1.589,0,0,1-1.7-1.8v-3.814h-1.1v-.851h1.1v-1.427l1.1-.133v1.56h1.5l-.122.851H308.27v3.766c0,.636.2.935.755.935a1.552,1.552,0,0,0,.84-.275l.42.755A2.411,2.411,0,0,1,308.869,119.578Z"/><path d="M315.373,112.274v2.363a2.774,2.774,0,0,1,1.284-.312,2.258,2.258,0,0,1,2.279,2.543,2.613,2.613,0,0,1-2.783,2.71,3.143,3.143,0,0,1-2.374-1.019l.671-.648a2.161,2.161,0,0,0,1.691.768c1.007,0,1.643-.659,1.643-1.835,0-1.236-.636-1.668-1.463-1.668a2.493,2.493,0,0,0-1.139.276h-.864v-4.041h4.342l-.156.863Z"/><path d="M325.512,115.428c0,2.663-.888,4.15-2.687,4.15s-2.686-1.487-2.686-4.15.887-4.137,2.686-4.137S325.512,112.778,325.512,115.428Zm-4.222,0c0,2.363.528,3.275,1.535,3.275s1.535-.912,1.535-3.275-.54-3.262-1.535-3.262S321.29,113.078,321.29,115.428Z"/><path d="M331.566,113.317a1.95,1.95,0,1,1-1.955-2.026A1.889,1.889,0,0,1,331.566,113.317Zm-2.925,0c0,.624.2,1.284.97,1.284s.972-.636.972-1.284c0-.623-.192-1.283-.972-1.283S328.641,112.67,328.641,113.317Zm1.054,6.489-.767-.5,5.552-8.4.768.5Zm6.8-2.255a1.951,1.951,0,1,1-1.943-2.027A1.88,1.88,0,0,1,336.5,117.551Zm-2.914,0c0,.624.2,1.283.971,1.283s.971-.635.971-1.283c0-.624-.192-1.271-.971-1.271S333.582,116.9,333.582,117.551Z"/><path d="M2.779,15.251V6.939H4.746v8.312Z"/><path d="M11.764,10.6v4.653H9.869v-4.33c0-.671-.228-.851-.6-.851-.42,0-.768.3-1.1.827v4.354h-1.9V8.882H7.926l.133.756A2.419,2.419,0,0,1,10,8.679,1.691,1.691,0,0,1,11.764,10.6Z"/><path d="M18.688,10.6v4.653H16.793v-4.33c0-.671-.24-.851-.6-.851-.42,0-.767.3-1.1.815v4.366H13.2v-8.9L15.09,6.16V9.566a2.323,2.323,0,0,1,1.835-.887A1.691,1.691,0,0,1,18.688,10.6Z"/><path d="M25.612,14.184l-.395,1.235a1.591,1.591,0,0,1-1.535-.923,2.146,2.146,0,0,1-1.92.959,1.924,1.924,0,0,1-2.074-1.991c0-1.391,1.054-2.147,2.986-2.147h.647v-.275c0-.756-.3-.984-1.079-.984a5.747,5.747,0,0,0-1.668.336l-.431-1.248a7.216,7.216,0,0,1,2.4-.467c1.847,0,2.638.779,2.638,2.255V13.4C25.18,13.9,25.312,14.076,25.612,14.184Zm-2.291-.7V12.36h-.467c-.864,0-1.284.3-1.284.936a.711.711,0,0,0,.744.8A1.133,1.133,0,0,0,23.321,13.488Z"/><path d="M28.854,13.956a.906.906,0,0,0,.312-.06l.371,1.343a3.425,3.425,0,0,1-1.223.216,1.576,1.576,0,0,1-1.679-1.8v-7.3l1.894-.2v7.316C28.529,13.824,28.65,13.956,28.854,13.956Z"/><path d="M32.525,15.455c-1.4-.012-2.087-.8-2.087-2.3V10.2h-.9V8.882h.9V7.5l1.9-.216V8.882H33.8l-.2,1.32H32.334v2.926c0,.612.2.828.6.828a1.263,1.263,0,0,0,.683-.216l.635,1.211A3.148,3.148,0,0,1,32.525,15.455Z"/><path d="M2.383,34.965v-.936H8.812v.936Z"/><path d="M22.779,37.927a3.379,3.379,0,0,1-1.738.468,1.913,1.913,0,0,1-2.159-1.955V32.77H17.443v-.839h1.439V30.5l1.1-.132v1.56h2.171l-.132.839H19.985v3.658c0,.708.336,1.055,1.175,1.055a2.34,2.34,0,0,0,1.2-.312Z"/><path d="M25.65,35.469c.1,1.4.852,2.027,1.811,2.027a2.526,2.526,0,0,0,1.68-.588l.5.731a3.606,3.606,0,0,1-2.206.756c-1.883,0-2.94-1.332-2.94-3.3,0-1.907,1.08-3.31,2.76-3.31,1.654,0,2.65,1.187,2.65,3.118,0,.216-.012.42-.024.564Zm0-.816h3.19c-.024-1.307-.6-1.991-1.582-1.991C26.394,32.662,25.734,33.3,25.65,34.653Z"/><path d="M36.58,36.824c0,.5.155.7.5.8l-.265.768a1.32,1.32,0,0,1-1.2-.888,2.458,2.458,0,0,1-1.991.888,1.9,1.9,0,0,1-2.086-1.955c0-1.307,1.091-2.039,3.01-2.039h.924v-.492c0-.887-.552-1.223-1.476-1.223a5.228,5.228,0,0,0-1.655.324l-.287-.816a6.09,6.09,0,0,1,2.11-.407c1.606,0,2.411.779,2.411,2.063Zm-1.1-.132V35.133h-.864c-1.355,0-1.859.492-1.859,1.259a1.038,1.038,0,0,0,1.176,1.175A1.873,1.873,0,0,0,35.477,36.692Z"/><path d="M42.809,36.548c0-.612-.2-.84-1.512-1.175-1.247-.324-2.086-.732-2.086-1.835,0-1.068.971-1.751,2.446-1.751a3.7,3.7,0,0,1,2.2.671l-.493.744a2.746,2.746,0,0,0-1.677-.54c-.985,0-1.332.3-1.332.8,0,.527.383.719,1.619,1.067,1.211.336,2.027.708,2.027,1.931,0,1.379-1.32,1.931-2.7,1.931a3.836,3.836,0,0,1-2.567-.864l.612-.7a3.13,3.13,0,0,0,1.955.671C42.232,37.507,42.809,37.136,42.809,36.548Z"/><path d="M47.25,35.469c.1,1.4.852,2.027,1.811,2.027a2.524,2.524,0,0,0,1.679-.588l.5.731a3.6,3.6,0,0,1-2.206.756c-1.883,0-2.939-1.332-2.939-3.3,0-1.907,1.08-3.31,2.759-3.31,1.655,0,2.651,1.187,2.651,3.118,0,.216-.013.42-.025.564Zm0-.816h3.189c-.023-1.307-.6-1.991-1.582-1.991C47.993,32.662,47.334,33.3,47.25,34.653Z"/><path d="M57.82,38.251H53.5V37.4h1.451V32.782H53.5v-.851h2.411l.132,1.211a1.966,1.966,0,0,1,1.8-1.355,3.732,3.732,0,0,1,.84.1l-.2,1.092a2.612,2.612,0,0,0-.767-.108c-.792,0-1.439.8-1.655,1.679V37.4H57.82Z"/><path d="M63.185,32.086a1,1,0,1,1-1,1A.988.988,0,0,1,63.185,32.086Zm0,4.306a1,1,0,1,1-1,1A1,1,0,0,1,63.185,36.392Z"/><path d="M35.236,51.8H37v.852H32.2V51.8h1.931V47.182H32.262v-.851h2.974Zm-.551-6.968a.75.75,0,1,1,0-1.5.75.75,0,1,1,0,1.5Z"/><path d="M39.582,52.651H38.574v-6.32h.852l.072.719a1.653,1.653,0,0,1,1.367-.863,1.035,1.035,0,0,1,1.127.827,1.641,1.641,0,0,1,1.393-.827c.635,0,1.234.323,1.234,1.762v4.7H43.611V48.117c0-.755-.011-1.067-.466-1.067a1.292,1.292,0,0,0-1.056.72v4.881h-.984V48.117c0-.755-.023-1.067-.48-1.067a1.277,1.277,0,0,0-1.043.72Z"/><path d="M46.89,52.951a1.186,1.186,0,0,0-.109.491c0,.564.541.9,1.8.9,1.4,0,1.823-.432,1.823-.971s-.347-.8-1.511-.852c-1.583-.06-2.447-.408-2.447-1.283a1.31,1.31,0,0,1,.636-1.068,1.976,1.976,0,0,1-1.008-1.763,2.277,2.277,0,0,1,2.519-2.218,6.592,6.592,0,0,0,2.9-.564l.324,1a5.932,5.932,0,0,1-1.775.192v.036a1.685,1.685,0,0,1,1.008,1.571,2.183,2.183,0,0,1-2.435,2.135,3.51,3.51,0,0,1-.876-.108.726.726,0,0,0-.263.492c0,.384.239.576,1.559.611,1.595.049,2.483.612,2.483,1.764,0,1.319-1.32,1.9-2.939,1.9-1.991,0-2.782-.648-2.782-1.56a1.613,1.613,0,0,1,.239-.923Zm1.7-3.131a1.3,1.3,0,0,0,1.367-1.427,1.259,1.259,0,0,0-1.367-1.415,1.421,1.421,0,0,0,0,2.842Z"/><path d="M55.984,46.486a1,1,0,1,1-1,1A.988.988,0,0,1,55.984,46.486Zm0,4.306a1,1,0,1,1-1,.995A1,1,0,0,1,55.984,50.792Z"/><path d="M73.179,52.327a3.389,3.389,0,0,1-1.74.468,1.913,1.913,0,0,1-2.158-1.955V47.17H67.842v-.839h1.439V44.9l1.1-.132v1.56h2.17l-.131.839H70.385v3.658c0,.708.336,1.055,1.175,1.055a2.345,2.345,0,0,0,1.2-.312Z"/><path d="M77.608,46.187c1.8,0,2.747,1.3,2.747,3.3,0,1.955-.971,3.311-2.758,3.311s-2.759-1.3-2.759-3.3C74.838,47.542,75.81,46.187,77.608,46.187Zm0,.887c-1.055,0-1.594.767-1.594,2.423s.527,2.41,1.583,2.41,1.583-.767,1.583-2.423S78.652,47.074,77.608,47.074Z"/><path d="M82.781,52.651H81.773v-6.32h.852l.072.719a1.653,1.653,0,0,1,1.367-.863,1.035,1.035,0,0,1,1.127.827,1.641,1.641,0,0,1,1.393-.827c.635,0,1.234.323,1.234,1.762v4.7H86.811V48.117c0-.755-.012-1.067-.467-1.067a1.292,1.292,0,0,0-1.056.72v4.881h-.983V48.117c0-.755-.024-1.067-.481-1.067a1.277,1.277,0,0,0-1.043.72Z"/><path d="M94.18,51.224c0,.5.155.7.5.8l-.265.768a1.319,1.319,0,0,1-1.2-.888,2.459,2.459,0,0,1-1.991.888,1.9,1.9,0,0,1-2.086-1.955c0-1.307,1.09-2.039,3.009-2.039h.924v-.492c0-.887-.552-1.223-1.475-1.223a5.239,5.239,0,0,0-1.656.324l-.287-.816a6.1,6.1,0,0,1,2.111-.407c1.606,0,2.411.779,2.411,2.063Zm-1.1-.132V49.533h-.863c-1.356,0-1.859.491-1.859,1.259a1.037,1.037,0,0,0,1.175,1.175A1.87,1.87,0,0,0,93.076,51.092Z"/><path d="M101.979,52.327a3.386,3.386,0,0,1-1.739.468,1.913,1.913,0,0,1-2.16-1.955V47.17H96.642v-.839H98.08V44.9l1.1-.132v1.56h2.171l-.132.839H99.184v3.658c0,.708.336,1.055,1.175,1.055a2.345,2.345,0,0,0,1.2-.312Z"/><path d="M104.849,49.868c.1,1.4.851,2.028,1.811,2.028a2.531,2.531,0,0,0,1.679-.588l.5.731a3.609,3.609,0,0,1-2.207.756c-1.883,0-2.939-1.332-2.939-3.3,0-1.907,1.08-3.31,2.759-3.31,1.655,0,2.65,1.187,2.65,3.118,0,.216-.012.42-.024.563Zm0-.815h3.19c-.023-1.307-.6-1.991-1.583-1.991C105.592,47.062,104.933,47.7,104.849,49.053Z"/><path d="M113.584,50.624a1.086,1.086,0,1,1-1.079,1.08A1.071,1.071,0,0,1,113.584,50.624Z"/><path d="M121.731,51.907c0,1.823-1.367,2.735-3.118,3.3l-.336-.852c1.188-.444,2.351-1.02,2.351-2.375v-4.8h-2.051v-.851h3.154Zm-.671-7.076a.75.75,0,1,1,0-1.5.75.75,0,1,1,0,1.5Z"/><path d="M125.561,55.206V46.331h.947l.084.863a2.294,2.294,0,0,1,1.871-1.007c1.68,0,2.291,1.307,2.291,3.3,0,1.919-.8,3.311-2.435,3.311a2.04,2.04,0,0,1-1.655-.72v3Zm4.017-5.722c0-1.643-.443-2.422-1.39-2.422a1.926,1.926,0,0,0-1.524.983v3.083a1.628,1.628,0,0,0,1.392.768C129.062,51.9,129.578,51.14,129.578,49.484Z"/><path d="M133.289,52.951a1.187,1.187,0,0,0-.108.491c0,.564.54.9,1.8.9,1.4,0,1.823-.432,1.823-.971s-.348-.8-1.512-.852c-1.582-.06-2.446-.408-2.446-1.283a1.311,1.311,0,0,1,.635-1.068,1.978,1.978,0,0,1-1.007-1.763,2.277,2.277,0,0,1,2.519-2.218,6.6,6.6,0,0,0,2.9-.564l.323,1a5.928,5.928,0,0,1-1.775.192v.036a1.686,1.686,0,0,1,1.007,1.571,2.181,2.181,0,0,1-2.434,2.135,3.5,3.5,0,0,1-.875-.108.719.719,0,0,0-.264.492c0,.384.239.576,1.559.611,1.595.049,2.482.612,2.482,1.764,0,1.319-1.318,1.9-2.938,1.9-1.992,0-2.783-.648-2.783-1.56a1.608,1.608,0,0,1,.241-.923Zm1.7-3.131a1.3,1.3,0,0,0,1.367-1.427,1.259,1.259,0,0,0-1.367-1.415,1.421,1.421,0,0,0,0,2.842Z"/><path d="M37.18,66.727a3.389,3.389,0,0,1-1.74.468,1.913,1.913,0,0,1-2.159-1.955V61.57H31.842v-.84h1.439V59.3l1.1-.132V60.73h2.171l-.132.84H34.385v3.658c0,.708.336,1.055,1.176,1.055a2.344,2.344,0,0,0,1.2-.312Z"/><path d="M42.437,66.2H44.2v.852H39.4V66.2h1.931V61.582h-1.87V60.73h2.974Zm-.552-6.968a.75.75,0,1,1,.779-.755A.743.743,0,0,1,41.885,59.231Z"/><path d="M51.579,66.727a3.383,3.383,0,0,1-1.739.468,1.912,1.912,0,0,1-2.158-1.955V61.57h-1.44v-.84h1.44V59.3l1.1-.132V60.73h2.17l-.131.84H48.785v3.658c0,.708.336,1.055,1.175,1.055a2.343,2.343,0,0,0,1.2-.312Z"/><path d="M54.449,64.269c.1,1.4.852,2.026,1.812,2.026a2.525,2.525,0,0,0,1.678-.587l.5.731a3.6,3.6,0,0,1-2.207.756c-1.882,0-2.937-1.332-2.937-3.3,0-1.906,1.079-3.31,2.758-3.31,1.655,0,2.65,1.187,2.65,3.119,0,.215-.012.42-.023.564Zm0-.816h3.192c-.025-1.307-.6-1.991-1.584-1.991C55.193,61.462,54.533,62.1,54.449,63.453Z"/><path d="M65.547,66.859a3.6,3.6,0,0,1-1.535.336,1.745,1.745,0,0,1-1.918-1.847V59.039H60.162v-.851H63.2v7.256c0,.611.419.839,1.02.839a2.953,2.953,0,0,0,1.043-.216Z"/><path d="M70.385,60.886a1,1,0,1,1-1,1A.989.989,0,0,1,70.385,60.886Zm0,4.306a1,1,0,1,1-1,1A1,1,0,0,1,70.385,65.192Z"/><path d="M85.348,59.747v7.3H84.209v-7.3H81.654v-.96h6.284l-.12.96Z"/><path d="M92.008,60.586c1.8,0,2.747,1.3,2.747,3.3,0,1.954-.972,3.31-2.759,3.31s-2.758-1.3-2.758-3.3C89.238,61.941,90.209,60.586,92.008,60.586Zm0,.888c-1.055,0-1.595.767-1.595,2.422s.528,2.411,1.583,2.411,1.584-.767,1.584-2.422S93.052,61.474,92.008,61.474Z"/><path d="M97.182,67.051H96.174V60.73h.851l.073.72a1.651,1.651,0,0,1,1.367-.864,1.037,1.037,0,0,1,1.127.828,1.639,1.639,0,0,1,1.391-.828c.636,0,1.236.324,1.236,1.764v4.7h-1.008V62.517c0-.755-.012-1.067-.468-1.067a1.291,1.291,0,0,0-1.055.719v4.882h-.983V62.517c0-.755-.024-1.067-.48-1.067a1.277,1.277,0,0,0-1.043.719Z"/><path d="M108.578,65.624c0,.5.156.7.5.8l-.264.768a1.32,1.32,0,0,1-1.2-.888,2.455,2.455,0,0,1-1.99.888,1.9,1.9,0,0,1-2.088-1.955c0-1.307,1.092-2.039,3.011-2.039h.923v-.492c0-.887-.551-1.223-1.475-1.223a5.213,5.213,0,0,0-1.654.324l-.289-.816a6.107,6.107,0,0,1,2.111-.408c1.607,0,2.41.78,2.41,2.063Zm-1.1-.132V63.933h-.864c-1.355,0-1.858.491-1.858,1.259a1.037,1.037,0,0,0,1.175,1.175A1.874,1.874,0,0,0,107.475,65.492Z"/><path d="M116.379,66.727a3.383,3.383,0,0,1-1.739.468,1.913,1.913,0,0,1-2.16-1.955V61.57h-1.439v-.84h1.439V59.3l1.1-.132V60.73h2.171l-.132.84h-2.039v3.658c0,.708.336,1.055,1.176,1.055a2.342,2.342,0,0,0,1.2-.312Z"/><path d="M119.248,64.269c.1,1.4.852,2.026,1.812,2.026a2.525,2.525,0,0,0,1.678-.587l.5.731a3.6,3.6,0,0,1-2.207.756c-1.883,0-2.937-1.332-2.937-3.3,0-1.906,1.079-3.31,2.757-3.31,1.656,0,2.651,1.187,2.651,3.119,0,.215-.012.42-.024.564Zm0-.816h3.191c-.024-1.307-.6-1.991-1.584-1.991C119.992,61.462,119.332,62.1,119.248,63.453Z"/><path d="M125.561,67.051V60.73h.947l.084.864a2.726,2.726,0,0,1,2.075-1.008c1.224,0,1.775.7,1.775,1.872v4.593h-1.1V63.177c0-1.236-.12-1.727-1.044-1.727a2.164,2.164,0,0,0-1.631,1.019v4.582Z"/><path d="M37.18,81.127a3.389,3.389,0,0,1-1.74.468,1.913,1.913,0,0,1-2.159-1.955V75.97H31.842v-.839h1.439V73.7l1.1-.133v1.56h2.171l-.132.839H34.385v3.658c0,.708.336,1.056,1.176,1.056a2.354,2.354,0,0,0,1.2-.312Z"/><path d="M40.05,78.669c.1,1.4.851,2.027,1.811,2.027a2.524,2.524,0,0,0,1.679-.588l.5.731a3.609,3.609,0,0,1-2.207.756c-1.883,0-2.939-1.331-2.939-3.3,0-1.907,1.081-3.31,2.759-3.31,1.655,0,2.651,1.187,2.651,3.118,0,.216-.013.42-.025.564Zm0-.816h3.19c-.023-1.307-.6-1.991-1.583-1.991C40.793,75.862,40.134,76.5,40.05,77.853Z"/><path d="M48.736,78.812,47.07,81.451H45.822l2.315-3.334L46.1,75.131h1.3l1.391,2.278h.047l1.4-2.278h1.247l-2.026,2.938,2.314,3.382H50.439l-1.654-2.639Z"/><path d="M58.779,81.127a3.379,3.379,0,0,1-1.738.468,1.912,1.912,0,0,1-2.16-1.955V75.97H53.442v-.839h1.439V73.7l1.1-.133v1.56h2.172l-.133.839H55.984v3.658c0,.708.336,1.056,1.176,1.056a2.349,2.349,0,0,0,1.2-.312Z"/><path d="M63.185,75.287a.987.987,0,0,1,1.006.995,1,1,0,1,1-2,0A.985.985,0,0,1,63.185,75.287Zm0,4.3a1,1,0,1,1-1,1A1,1,0,0,1,63.185,79.592Z"/><path d="M79.1,81.451V77.577h-3v3.874h-1.14V73.188H76.1v3.454h3V73.188h1.139v8.263Z"/><path d="M83.249,78.669c.1,1.4.852,2.027,1.812,2.027a2.523,2.523,0,0,0,1.678-.588l.5.731a3.607,3.607,0,0,1-2.207.756c-1.883,0-2.938-1.331-2.938-3.3,0-1.907,1.08-3.31,2.758-3.31,1.656,0,2.651,1.187,2.651,3.118,0,.216-.013.42-.025.564Zm0-.816h3.19c-.023-1.307-.6-1.991-1.583-1.991C83.992,75.862,83.333,76.5,83.249,77.853Z"/><path d="M90.665,75.131v4.461c0,.816.324,1.139,1.02,1.139a2.078,2.078,0,0,0,1.643-.971V75.131h1.1v6.32h-.949l-.083-.839a2.587,2.587,0,0,1-2.015.983,1.659,1.659,0,0,1-1.823-1.871V75.131Z"/><path d="M101.979,81.127a3.386,3.386,0,0,1-1.739.468,1.913,1.913,0,0,1-2.16-1.955V75.97H96.642v-.839H98.08V73.7l1.1-.133v1.56h2.171l-.132.839H99.184v3.658c0,.708.336,1.056,1.175,1.056a2.355,2.355,0,0,0,1.2-.312Z"/><path d="M104.849,78.669c.1,1.4.851,2.027,1.811,2.027a2.525,2.525,0,0,0,1.679-.588l.5.731a3.609,3.609,0,0,1-2.207.756c-1.883,0-2.939-1.331-2.939-3.3,0-1.907,1.08-3.31,2.759-3.31,1.655,0,2.65,1.187,2.65,3.118,0,.216-.012.42-.024.564Zm0-.816h3.19c-.023-1.307-.6-1.991-1.583-1.991C105.592,75.862,104.933,76.5,104.849,77.853Z"/><path d="M123.77,72.8l-.348.8a3.385,3.385,0,0,0-1.356-.263c-.863,0-1.3.336-1.3,1.031V75.61h2.135l-.119.852h-2.016v4.989h-1.1V76.462h-1.486V75.61h1.486V74.387c0-1.175.984-1.931,2.34-1.931A4.305,4.305,0,0,1,123.77,72.8Z"/><path d="M129.818,81.451H125.5V80.6h1.451V75.982H125.5v-.851h2.411l.131,1.211a1.968,1.968,0,0,1,1.8-1.355,3.674,3.674,0,0,1,.84.1l-.2,1.091a2.631,2.631,0,0,0-.768-.108c-.792,0-1.44.8-1.655,1.679V80.6h1.762Z"/><path d="M136.035,80.6H137.8v.851H133V80.6h1.931V75.982h-1.871v-.851h2.974Zm-.552-6.969a.75.75,0,1,1,0-1.5.75.75,0,1,1,0,1.5Z"/><path d="M143.607,79.748c0-.612-.205-.839-1.511-1.175-1.248-.324-2.087-.732-2.087-1.835,0-1.068.971-1.751,2.446-1.751a3.7,3.7,0,0,1,2.195.671l-.492.744a2.754,2.754,0,0,0-1.679-.54c-.983,0-1.331.3-1.331.8,0,.527.383.719,1.62,1.067,1.211.336,2.026.708,2.026,1.931,0,1.379-1.319,1.931-2.7,1.931a3.832,3.832,0,0,1-2.567-.864l.612-.695a3.129,3.129,0,0,0,1.955.672C143.031,80.708,143.607,80.336,143.607,79.748Z"/><path d="M151.646,80.12l.528.755a3.568,3.568,0,0,1-2.159.72c-1.908,0-3-1.3-3-3.274,0-1.907,1.1-3.334,3.01-3.334a3.269,3.269,0,0,1,2.147.707l-.54.744a2.62,2.62,0,0,0-1.607-.54c-1.068,0-1.823.78-1.823,2.423s.768,2.339,1.823,2.339A2.7,2.7,0,0,0,151.646,80.12Z"/><path d="M154.36,81.451V72.6l1.1-.12v3.454a2.659,2.659,0,0,1,2-.947c1.223,0,1.775.7,1.775,1.871v4.593h-1.1V76.93c0-.756-.325-1.08-1.044-1.08a2.163,2.163,0,0,0-1.631,1.02v4.581Z"/><path d="M163.983,79.928a.834.834,0,1,1-.827.827A.825.825,0,0,1,163.983,79.928Zm-.491-1.235-.133-5.5h1.224l-.12,5.5Z"/><path d="M2.383,106.965v-.936H8.812v.936Z"/><path d="M22.779,109.927a3.379,3.379,0,0,1-1.738.468,1.913,1.913,0,0,1-2.159-1.955v-3.67H17.443v-.839h1.439V102.5l1.1-.132v1.56h2.171l-.132.839H19.985v3.658c0,.708.336,1.055,1.175,1.055a2.34,2.34,0,0,0,1.2-.312Z"/><path d="M25.65,107.469c.1,1.4.852,2.027,1.811,2.027a2.526,2.526,0,0,0,1.68-.588l.5.731a3.606,3.606,0,0,1-2.206.756c-1.883,0-2.94-1.332-2.94-3.3,0-1.907,1.08-3.31,2.76-3.31,1.654,0,2.65,1.187,2.65,3.118,0,.216-.012.42-.024.564Zm0-.816h3.19c-.024-1.307-.6-1.991-1.582-1.991C26.394,104.662,25.734,105.3,25.65,106.653Z"/><path d="M36.58,108.824c0,.5.155.7.5.8l-.265.768a1.32,1.32,0,0,1-1.2-.888,2.458,2.458,0,0,1-1.991.888,1.9,1.9,0,0,1-2.086-1.955c0-1.307,1.091-2.039,3.01-2.039h.924v-.492c0-.887-.552-1.223-1.476-1.223a5.228,5.228,0,0,0-1.655.324l-.287-.816a6.09,6.09,0,0,1,2.11-.407c1.606,0,2.411.779,2.411,2.063Zm-1.1-.132v-1.559h-.864c-1.355,0-1.859.492-1.859,1.259a1.038,1.038,0,0,0,1.176,1.175A1.873,1.873,0,0,0,35.477,108.692Z"/><path d="M42.809,108.548c0-.612-.2-.84-1.512-1.175-1.247-.324-2.086-.732-2.086-1.835,0-1.068.971-1.751,2.446-1.751a3.7,3.7,0,0,1,2.2.671l-.493.744a2.746,2.746,0,0,0-1.677-.54c-.985,0-1.332.3-1.332.8,0,.527.383.719,1.619,1.067,1.211.336,2.027.708,2.027,1.931,0,1.379-1.32,1.931-2.7,1.931a3.836,3.836,0,0,1-2.567-.864l.612-.7a3.13,3.13,0,0,0,1.955.671C42.232,109.507,42.809,109.136,42.809,108.548Z"/><path d="M47.25,107.469c.1,1.4.852,2.027,1.811,2.027a2.524,2.524,0,0,0,1.679-.588l.5.731a3.6,3.6,0,0,1-2.206.756c-1.883,0-2.939-1.332-2.939-3.3,0-1.907,1.08-3.31,2.759-3.31,1.655,0,2.651,1.187,2.651,3.118,0,.216-.013.42-.025.564Zm0-.816h3.189c-.023-1.307-.6-1.991-1.582-1.991C47.993,104.662,47.334,105.3,47.25,106.653Z"/><path d="M57.82,110.251H53.5V109.4h1.451v-4.617H53.5v-.851h2.411l.132,1.211a1.966,1.966,0,0,1,1.8-1.355,3.732,3.732,0,0,1,.84.095l-.2,1.092a2.612,2.612,0,0,0-.767-.108c-.792,0-1.439.8-1.655,1.679V109.4H57.82Z"/><path d="M63.185,104.086a1,1,0,1,1-1,1A.988.988,0,0,1,63.185,104.086Zm0,4.306a1,1,0,1,1-1,1A1,1,0,0,1,63.185,108.392Z"/><path d="M35.236,123.8H37v.851H32.2V123.8h1.931v-4.617H32.262v-.852h2.974Zm-.551-6.968a.75.75,0,1,1,0-1.5.75.75,0,1,1,0,1.5Z"/><path d="M39.582,124.65H38.574v-6.32h.852l.072.72a1.655,1.655,0,0,1,1.367-.863,1.035,1.035,0,0,1,1.127.827,1.641,1.641,0,0,1,1.393-.827c.635,0,1.234.323,1.234,1.762v4.7H43.611v-4.533c0-.756-.011-1.067-.466-1.067a1.292,1.292,0,0,0-1.056.72v4.88h-.984v-4.533c0-.756-.023-1.067-.48-1.067a1.277,1.277,0,0,0-1.043.72Z"/><path d="M46.89,124.951a1.182,1.182,0,0,0-.109.491c0,.564.541.9,1.8.9,1.4,0,1.823-.432,1.823-.971s-.347-.8-1.511-.851c-1.583-.061-2.447-.409-2.447-1.284a1.31,1.31,0,0,1,.636-1.068,1.975,1.975,0,0,1-1.008-1.763,2.277,2.277,0,0,1,2.519-2.218,6.592,6.592,0,0,0,2.9-.564l.324.995a5.931,5.931,0,0,1-1.775.193v.035a1.685,1.685,0,0,1,1.008,1.571,2.183,2.183,0,0,1-2.435,2.136,3.51,3.51,0,0,1-.876-.109.724.724,0,0,0-.263.492c0,.384.239.576,1.559.611,1.595.049,2.483.612,2.483,1.764,0,1.319-1.32,1.894-2.939,1.894-1.991,0-2.782-.647-2.782-1.559a1.613,1.613,0,0,1,.239-.923Zm1.7-3.131a1.3,1.3,0,0,0,1.367-1.427,1.258,1.258,0,0,0-1.367-1.414,1.421,1.421,0,0,0,0,2.841Z"/><path d="M55.984,118.486a1,1,0,1,1-1,1A.988.988,0,0,1,55.984,118.486Zm0,4.306a1,1,0,1,1-1,1A1,1,0,0,1,55.984,122.792Z"/><path d="M72.579,123.224c0,.5.155.7.5.8l-.265.768a1.322,1.322,0,0,1-1.2-.888,2.455,2.455,0,0,1-1.99.888,1.9,1.9,0,0,1-2.087-1.955c0-1.307,1.091-2.039,3.011-2.039h.923v-.492c0-.887-.552-1.223-1.476-1.223a5.223,5.223,0,0,0-1.654.324l-.288-.816a6.122,6.122,0,0,1,2.11-.407c1.607,0,2.411.779,2.411,2.063Zm-1.1-.132v-1.559h-.864c-1.355,0-1.858.491-1.858,1.259a1.037,1.037,0,0,0,1.175,1.175A1.871,1.871,0,0,0,71.476,123.092Z"/><path d="M75.162,127.205V118.33h.947l.084.863a2.3,2.3,0,0,1,1.871-1.006c1.679,0,2.291,1.307,2.291,3.3,0,1.919-.8,3.311-2.435,3.311a2.039,2.039,0,0,1-1.654-.72v3Zm4.018-5.721c0-1.642-.444-2.422-1.391-2.422a1.922,1.922,0,0,0-1.523.983v3.083a1.627,1.627,0,0,0,1.39.768C78.664,123.9,79.18,123.14,79.18,121.484Z"/><path d="M87.771,116l-.348.8a3.371,3.371,0,0,0-1.356-.264c-.863,0-1.295.336-1.295,1.032v1.236h2.135l-.12.851H84.772v4.988h-1.1v-4.988H82.182v-.851h1.487v-1.224c0-1.175.983-1.931,2.339-1.931A4.327,4.327,0,0,1,87.771,116Z"/><path d="M90.449,121.868c.1,1.4.852,2.028,1.811,2.028a2.522,2.522,0,0,0,1.679-.588l.5.731a3.607,3.607,0,0,1-2.207.756c-1.882,0-2.938-1.332-2.938-3.3,0-1.906,1.079-3.309,2.759-3.309,1.654,0,2.65,1.187,2.65,3.118,0,.216-.012.42-.023.563Zm0-.815H93.64c-.025-1.307-.6-1.991-1.583-1.991C91.193,119.062,90.533,119.7,90.449,121.053Z"/><path d="M101.547,124.459a3.6,3.6,0,0,1-1.535.336,1.746,1.746,0,0,1-1.919-1.848v-6.308H96.162v-.851H99.2v7.256c0,.611.419.839,1.02.839a2.969,2.969,0,0,0,1.043-.215Z"/><path d="M106.384,122.624a1.086,1.086,0,1,1-1.079,1.079A1.07,1.07,0,0,1,106.384,122.624Z"/><path d="M114.531,123.907c0,1.823-1.367,2.735-3.118,3.3l-.335-.851c1.187-.444,2.35-1.02,2.35-2.375v-4.8h-2.051v-.852h3.154Zm-.672-7.076a.75.75,0,1,1,0-1.5.75.75,0,1,1,0,1.5Z"/><path d="M118.361,127.205V118.33h.948l.084.863a2.294,2.294,0,0,1,1.871-1.006c1.678,0,2.291,1.307,2.291,3.3,0,1.919-.805,3.311-2.436,3.311a2.04,2.04,0,0,1-1.654-.72v3Zm4.018-5.721c0-1.642-.443-2.422-1.391-2.422a1.922,1.922,0,0,0-1.523.983v3.083a1.627,1.627,0,0,0,1.39.768C121.863,123.9,122.379,123.14,122.379,121.484Z"/><path d="M126.088,124.951a1.183,1.183,0,0,0-.108.491c0,.564.541.9,1.8.9,1.4,0,1.824-.432,1.824-.971s-.348-.8-1.511-.851c-1.584-.061-2.447-.409-2.447-1.284a1.311,1.311,0,0,1,.635-1.068,1.976,1.976,0,0,1-1.007-1.763,2.276,2.276,0,0,1,2.518-2.218,6.592,6.592,0,0,0,2.9-.564l.325.995a5.93,5.93,0,0,1-1.776.193v.035a1.685,1.685,0,0,1,1.008,1.571,2.183,2.183,0,0,1-2.435,2.136,3.51,3.51,0,0,1-.876-.109.724.724,0,0,0-.263.492c0,.384.24.576,1.559.611,1.595.049,2.483.612,2.483,1.764,0,1.319-1.32,1.894-2.939,1.894-1.99,0-2.782-.647-2.782-1.559a1.621,1.621,0,0,1,.239-.923Zm1.7-3.131a1.3,1.3,0,0,0,1.367-1.427,1.257,1.257,0,0,0-1.367-1.414,1.421,1.421,0,0,0,0,2.841Z"/><path d="M37.18,138.727a3.389,3.389,0,0,1-1.74.468,1.913,1.913,0,0,1-2.159-1.955v-3.67H31.842v-.84h1.439V131.3l1.1-.132v1.559h2.171l-.132.84H34.385v3.658c0,.708.336,1.055,1.176,1.055a2.344,2.344,0,0,0,1.2-.312Z"/><path d="M42.437,138.2H44.2v.852H39.4V138.2h1.931v-4.617h-1.87v-.852h2.974Zm-.552-6.969a.75.75,0,1,1,.779-.754A.742.742,0,0,1,41.885,131.23Z"/><path d="M51.579,138.727a3.383,3.383,0,0,1-1.739.468,1.912,1.912,0,0,1-2.158-1.955v-3.67h-1.44v-.84h1.44V131.3l1.1-.132v1.559h2.17l-.131.84H48.785v3.658c0,.708.336,1.055,1.175,1.055a2.343,2.343,0,0,0,1.2-.312Z"/><path d="M54.449,136.269c.1,1.4.852,2.026,1.812,2.026a2.521,2.521,0,0,0,1.678-.588l.5.732a3.611,3.611,0,0,1-2.207.756c-1.882,0-2.937-1.332-2.937-3.3,0-1.906,1.079-3.31,2.758-3.31,1.655,0,2.65,1.187,2.65,3.119,0,.215-.012.42-.023.564Zm0-.816h3.192c-.025-1.307-.6-1.991-1.584-1.991C55.193,133.462,54.533,134.1,54.449,135.453Z"/><path d="M65.547,138.859a3.6,3.6,0,0,1-1.535.336,1.745,1.745,0,0,1-1.918-1.847v-6.309H60.162v-.851H63.2v7.255c0,.612.419.84,1.02.84a2.953,2.953,0,0,0,1.043-.216Z"/><path d="M70.385,132.887a.988.988,0,0,1,1.007,1,1,1,0,1,1-2,0A.985.985,0,0,1,70.385,132.887Zm0,4.3a1,1,0,1,1-1,1A1,1,0,0,1,70.385,137.191Z"/><path d="M86.355,136.977H83.178l-.637,2.074H81.4l2.674-8.264h1.44l2.674,8.264h-1.2Zm-3.513-7.832a.69.69,0,0,1,1.379,0,.69.69,0,0,1-1.379,0Zm.611,6.908H86.08L84.8,131.818h-.049Zm1.895-6.908a.668.668,0,0,1,.7-.672.678.678,0,1,1-.7.672Z"/><path d="M89.562,141.6V132.73h.948l.084.864a2.291,2.291,0,0,1,1.871-1.008c1.678,0,2.29,1.308,2.29,3.3,0,1.919-.8,3.31-2.435,3.31a2.039,2.039,0,0,1-1.655-.72v3Zm4.018-5.72c0-1.644-.444-2.423-1.392-2.423a1.923,1.923,0,0,0-1.523.983v3.082a1.625,1.625,0,0,0,1.392.768C93.064,138.295,93.58,137.539,93.58,135.885Z"/><path d="M102.17,130.4l-.348.8a3.367,3.367,0,0,0-1.355-.264c-.863,0-1.3.336-1.3,1.032v1.235h2.135l-.119.852H99.172v4.989h-1.1v-4.989H96.582v-.852h1.486v-1.224c0-1.174.985-1.93,2.34-1.93A4.322,4.322,0,0,1,102.17,130.4Z"/><path d="M104.849,136.269c.1,1.4.851,2.026,1.811,2.026a2.525,2.525,0,0,0,1.679-.588l.5.732a3.615,3.615,0,0,1-2.207.756c-1.883,0-2.939-1.332-2.939-3.3,0-1.906,1.08-3.31,2.759-3.31,1.655,0,2.65,1.187,2.65,3.119,0,.215-.012.42-.024.564Zm0-.816h3.19c-.023-1.307-.6-1.991-1.583-1.991C105.592,133.462,104.933,134.1,104.849,135.453Z"/><path d="M115.947,138.859a3.6,3.6,0,0,1-1.535.336,1.746,1.746,0,0,1-1.92-1.847v-6.309h-1.93v-.851H113.6v7.255c0,.612.42.84,1.019.84a2.954,2.954,0,0,0,1.044-.216Z"/><path d="M37.18,153.127a3.39,3.39,0,0,1-1.74.469,1.914,1.914,0,0,1-2.159-1.955v-3.67H31.842v-.84h1.439V145.7l1.1-.132v1.56h2.171l-.132.84H34.385v3.657c0,.708.336,1.056,1.176,1.056a2.344,2.344,0,0,0,1.2-.313Z"/><path d="M40.05,150.669c.1,1.4.851,2.026,1.811,2.026a2.518,2.518,0,0,0,1.679-.588l.5.733a3.615,3.615,0,0,1-2.207.756c-1.883,0-2.939-1.332-2.939-3.3,0-1.906,1.081-3.311,2.759-3.311,1.655,0,2.651,1.188,2.651,3.119,0,.215-.013.42-.025.564Zm0-.815h3.19c-.023-1.308-.6-1.992-1.583-1.992C40.793,147.862,40.134,148.5,40.05,149.854Z"/><path d="M48.736,150.812l-1.666,2.639H45.822l2.315-3.334L46.1,147.131h1.3l1.391,2.278h.047l1.4-2.278h1.247l-2.026,2.937,2.314,3.383H50.439l-1.654-2.639Z"/><path d="M58.779,153.127a3.38,3.38,0,0,1-1.738.469,1.913,1.913,0,0,1-2.16-1.955v-3.67H53.442v-.84h1.439V145.7l1.1-.132v1.56h2.172l-.133.84H55.984v3.657c0,.708.336,1.056,1.176,1.056a2.339,2.339,0,0,0,1.2-.313Z"/><path d="M63.185,147.287a.987.987,0,0,1,1.006,1,1,1,0,1,1-2,0A.985.985,0,0,1,63.185,147.287Zm0,4.305a1,1,0,1,1-1,1A1,1,0,0,1,63.185,151.592Z"/><path d="M79.4,151.221c0,1.787-1.2,3.177-3.826,3.9l-.276-.851c2.051-.66,2.962-1.452,2.962-3.095v-5.084H75.318v-.9H79.4Z"/><path d="M83.249,150.669c.1,1.4.852,2.026,1.812,2.026a2.518,2.518,0,0,0,1.678-.588l.5.733a3.613,3.613,0,0,1-2.207.756c-1.883,0-2.938-1.332-2.938-3.3,0-1.906,1.08-3.311,2.758-3.311,1.656,0,2.651,1.188,2.651,3.119,0,.215-.013.42-.025.564Zm0-.815h3.19c-.023-1.308-.6-1.992-1.583-1.992C83.992,147.862,83.333,148.5,83.249,149.854Z"/><path d="M94.779,153.127a3.383,3.383,0,0,1-1.739.469,1.913,1.913,0,0,1-2.159-1.955v-3.67h-1.44v-.84h1.44V145.7l1.1-.132v1.56h2.171l-.132.84H91.984v3.657c0,.708.336,1.056,1.176,1.056a2.342,2.342,0,0,0,1.2-.313Z"/><path d="M98.129,152.527h3.478l-.132.924h-4.69v-.828l3.467-4.557h-3.19v-.935h4.508v.84Z"/><path d="M109.178,153.127a3.386,3.386,0,0,1-1.739.469,1.914,1.914,0,0,1-2.159-1.955v-3.67h-1.438v-.84h1.438V145.7l1.1-.132v1.56h2.171l-.132.84h-2.039v3.657c0,.708.336,1.056,1.175,1.056a2.343,2.343,0,0,0,1.2-.313Z"/><path d="M120.568,153.6a3.061,3.061,0,0,1-2.447-1.069l.744-.623a2.056,2.056,0,0,0,1.691.791,1.684,1.684,0,0,0,1.715-1.894c0-1.272-.648-1.727-1.511-1.727a2.745,2.745,0,0,0-1.152.276h-.863v-4.162H123.1l-.132.875H119.8V148.5a2.9,2.9,0,0,1,1.283-.288,2.338,2.338,0,0,1,2.338,2.6A2.723,2.723,0,0,1,120.568,153.6Z"/><path d="M125.261,149.313c0-2.734.935-4.269,2.735-4.269s2.734,1.535,2.734,4.269S129.795,153.6,128,153.6,125.261,152.061,125.261,149.313Zm4.33,0c0-2.411-.588-3.393-1.6-3.393s-1.6.982-1.6,3.393.6,3.407,1.6,3.407S129.591,151.736,129.591,149.313Zm-1.6-.78a.786.786,0,1,1-.78.78A.774.774,0,0,1,128,148.533Z"/><path d="M140.92,148.689a1.824,1.824,0,1,1,1.752-1.822A1.7,1.7,0,0,1,140.92,148.689Zm-1.02,5.1-.671-.42,5.553-8.407.684.419Zm1.02-5.781c.672,0,.792-.551.792-1.139,0-.564-.12-1.139-.792-1.139s-.84.551-.84,1.151C140.08,147.431,140.248,148.006,140.92,148.006Zm2.951,5.59a1.826,1.826,0,1,1,1.738-1.825A1.7,1.7,0,0,1,143.871,153.6Zm0-.672c.671,0,.827-.565.827-1.153,0-.562-.156-1.126-.827-1.126s-.828.551-.828,1.126S143.2,152.924,143.871,152.924Z"/><path class="cls-4" d="M290.065,52.292v6.8H288.1v-6.8h-2.147V50.781h6.357l-.193,1.511Z"/><path class="cls-4" d="M297.984,55.915c0,2.039-1.174,3.382-3.118,3.382s-3.118-1.248-3.118-3.395c0-2.038,1.176-3.381,3.118-3.381S297.984,53.768,297.984,55.915Zm-4.269-.013c0,1.416.384,2,1.151,2s1.152-.611,1.152-1.99c0-1.415-.384-2-1.152-2S293.715,54.523,293.715,55.9Z"/><path class="cls-4" d="M307.823,54.439v4.654h-1.895v-4.33c0-.672-.252-.851-.539-.851-.409,0-.7.3-.972.827v4.354h-1.9v-4.33c0-.672-.251-.851-.539-.851-.4,0-.7.3-.971.827v4.354h-1.9V52.724h1.656l.131.744a2.223,2.223,0,0,1,1.848-.947,1.511,1.511,0,0,1,1.5,1.007,2.234,2.234,0,0,1,1.907-1.007C307.14,52.521,307.823,53.228,307.823,54.439Z"/><path class="cls-4" d="M314.748,58.025l-.395,1.236a1.593,1.593,0,0,1-1.536-.924,2.143,2.143,0,0,1-1.919.96,1.925,1.925,0,0,1-2.075-1.991c0-1.391,1.056-2.147,2.987-2.147h.648v-.276c0-.756-.3-.984-1.08-.984a5.775,5.775,0,0,0-1.667.336l-.432-1.247a7.191,7.191,0,0,1,2.4-.467c1.847,0,2.638.779,2.638,2.254v2.471C314.316,57.737,314.448,57.917,314.748,58.025Zm-2.29-.7V56.2h-.468c-.864,0-1.284.3-1.284.936a.711.711,0,0,0,.744.8A1.137,1.137,0,0,0,312.458,57.33Z"/><path class="cls-4" d="M318.1,59.3c-1.4-.012-2.087-.8-2.087-2.3V54.043h-.9V52.724h.9V51.345l1.894-.216v1.595h1.463l-.2,1.319h-1.26V56.97c0,.612.2.827.6.827a1.262,1.262,0,0,0,.683-.215l.636,1.211A3.15,3.15,0,0,1,318.1,59.3Z"/><path class="cls-4" d="M325.86,56.466h-3.946c.132,1.139.672,1.451,1.451,1.451a2.588,2.588,0,0,0,1.524-.563l.779,1.055a3.914,3.914,0,0,1-2.482.888c-2.124,0-3.2-1.368-3.2-3.359,0-1.906,1.043-3.417,2.975-3.417,1.823,0,2.938,1.2,2.938,3.262A6.356,6.356,0,0,1,325.86,56.466Zm-1.823-1.223c-.012-.864-.275-1.463-1.031-1.463-.636,0-1.008.408-1.092,1.547h2.123Z"/><path class="cls-4" d="M332.483,54.439v4.654h-1.894v-4.33c0-.672-.229-.851-.6-.851-.42,0-.767.3-1.1.827v4.354h-1.9V52.724h1.656l.131.756a2.424,2.424,0,0,1,1.944-.959A1.69,1.69,0,0,1,332.483,54.439Z"/><path d="M288.183,69.619v3.874h-1.14V65.229h1.14v3.454h3.477V65.229h1.14v8.264h-1.14V69.619Z"/><path d="M299.893,70.71h-4.03c.108,1.463.791,2.027,1.7,2.027a2.666,2.666,0,0,0,1.643-.551l.479.659a3.442,3.442,0,0,1-2.206.792c-1.763,0-2.794-1.236-2.794-3.239,0-1.966,1-3.37,2.626-3.37,1.7,0,2.6,1.188,2.6,3.118C299.917,70.362,299.9,70.566,299.893,70.71Zm-1.068-.887c0-1.236-.491-1.919-1.487-1.919-.84,0-1.391.587-1.475,1.991h2.962Z"/><path d="M305.5,73.493l-.084-.984a2.121,2.121,0,0,1-1.967,1.128,1.69,1.69,0,0,1-1.763-1.931V67.172h1.1v4.414c0,.863.288,1.187.972,1.187a1.906,1.906,0,0,0,1.583-1.091v-4.51h1.1v6.321Z"/><path d="M310.5,73.637a1.588,1.588,0,0,1-1.7-1.8V68.023h-1.1v-.851h1.1V65.745l1.1-.132v1.559h1.5l-.119.851H309.9V71.79c0,.635.2.935.756.935a1.545,1.545,0,0,0,.84-.276l.42.756A2.411,2.411,0,0,1,310.5,73.637Z"/><path d="M317.688,70.71h-4.03c.108,1.463.791,2.027,1.7,2.027A2.666,2.666,0,0,0,317,72.186l.479.659a3.442,3.442,0,0,1-2.206.792c-1.763,0-2.795-1.236-2.795-3.239,0-1.966,1-3.37,2.627-3.37,1.7,0,2.6,1.188,2.6,3.118C317.712,70.362,317.7,70.566,317.688,70.71Zm-1.068-.887c0-1.236-.491-1.919-1.487-1.919-.84,0-1.391.587-1.475,1.991h2.962Z"/><path d="M323.93,66.3v.875h1.535l-.12.851H323.93v5.47h-1.1v-5.47H321.7v-.851h1.127v-.863a1.763,1.763,0,0,1,1.98-1.811,3.481,3.481,0,0,1,1.51.323l-.347.8a2.7,2.7,0,0,0-1.1-.24C324.17,65.385,323.93,65.685,323.93,66.3Z"/><path d="M330.108,67.1l-.2,1.08a1.98,1.98,0,0,0-.551-.073c-.792,0-1.248.564-1.511,1.776v3.61h-1.1V67.172h.948l.107,1.284a1.805,1.805,0,0,1,1.691-1.428A2.69,2.69,0,0,1,330.108,67.1Z"/><path d="M332.689,64.894a.774.774,0,1,1-.78-.756A.735.735,0,0,1,332.689,64.894Zm-1.319,8.6V67.172h1.1v6.321Z"/><path d="M338.616,67.748l-.479.731a2.654,2.654,0,0,0-1.631-.575c-.72,0-1.164.324-1.164.827s.336.756,1.355,1.02c1.332.335,2.1.863,2.1,1.967,0,1.319-1.212,1.919-2.5,1.919a3.5,3.5,0,0,1-2.387-.828l.611-.7a2.641,2.641,0,0,0,1.751.636c.828,0,1.356-.372,1.356-.923,0-.66-.312-.9-1.535-1.224-1.368-.359-1.907-.947-1.907-1.847,0-.995.971-1.727,2.279-1.727A3.353,3.353,0,0,1,338.616,67.748Z"/><path d="M344.592,67.712l-.54.72a2,2,0,0,0-1.343-.492c-1,0-1.619.779-1.619,2.422s.623,2.339,1.619,2.339a2.067,2.067,0,0,0,1.355-.515l.528.755a2.987,2.987,0,0,1-1.931.7c-1.7,0-2.759-1.212-2.759-3.251,0-2.014,1.043-3.358,2.759-3.358A2.81,2.81,0,0,1,344.592,67.712Z"/><path d="M350.9,68.959v4.534h-1.1V69.115c0-.948-.408-1.223-1.008-1.223a1.932,1.932,0,0,0-1.6,1.1v4.5h-1.1V64.642l1.1-.121v3.527a2.267,2.267,0,0,1,1.87-1.02A1.741,1.741,0,0,1,350.9,68.959Z"/><path d="M354.265,72.8a.834.834,0,1,1-.839-.827A.827.827,0,0,1,354.265,72.8Zm-1.331-2.063-.132-5.5h1.223l-.12,5.5Z"/><path d="M302.206,13.684c0,1.167-.9,1.567-2.183,1.567H298.5V9.742h1.3c1.358,0,2.159.432,2.159,1.391a1.228,1.228,0,0,1-1.032,1.208C301.574,12.453,302.206,12.749,302.206,13.684Zm-2.942-1.607h.832c.615,0,1.094-.3,1.094-.888,0-.679-.487-.847-1.3-.847h-.623Zm2.142,1.607c0-.776-.575-1.024-1.239-1.024h-.9v1.984h.759C300.822,14.644,301.406,14.483,301.406,13.684Z"/><path d="M305.574,10.989l-.135.72a1.325,1.325,0,0,0-.369-.048c-.527,0-.831.376-1.007,1.183v2.407h-.735V11.037h.631l.072.856a1.2,1.2,0,0,1,1.128-.952A1.834,1.834,0,0,1,305.574,10.989Z"/><path d="M309.79,13.14c0,1.3-.688,2.207-1.879,2.207s-1.88-.864-1.88-2.2c0-1.3.689-2.207,1.888-2.207S309.79,11.805,309.79,13.14Zm-2.967.008c0,1.1.384,1.607,1.088,1.607S309,14.244,309,13.14s-.384-1.607-1.079-1.607S306.823,12.045,306.823,13.148Z"/><path d="M313.782,15.251l-.735-3.55-.76,3.55h-.975l-.984-4.214h.736l.76,3.7.831-3.7h.824l.791,3.7.767-3.7h.7l-.96,4.214Z"/><path d="M319.238,11.421l-.32.488a1.767,1.767,0,0,0-1.087-.384c-.479,0-.775.216-.775.552s.223.5.9.679c.888.224,1.4.576,1.4,1.311,0,.88-.807,1.28-1.663,1.28A2.339,2.339,0,0,1,316.1,14.8l.408-.463a1.759,1.759,0,0,0,1.168.423c.55,0,.9-.248.9-.615,0-.44-.208-.6-1.023-.816-.912-.24-1.272-.632-1.272-1.231,0-.664.648-1.152,1.519-1.152A2.236,2.236,0,0,1,319.238,11.421Z"/><path d="M323.566,13.4H320.88c.072.976.528,1.351,1.136,1.351a1.772,1.772,0,0,0,1.095-.368l.32.44a2.3,2.3,0,0,1-1.472.528c-1.175,0-1.863-.824-1.863-2.159,0-1.311.664-2.247,1.752-2.247,1.134,0,1.734.792,1.734,2.079C323.582,13.164,323.574,13.3,323.566,13.4Zm-.711-.592c0-.823-.328-1.279-.992-1.279-.559,0-.927.392-.983,1.328h1.975Z"/><path d="M327.047,10.989l-.137.72a1.315,1.315,0,0,0-.367-.048c-.527,0-.832.376-1.008,1.183v2.407H324.8V11.037h.632l.072.856a1.2,1.2,0,0,1,1.127-.952A1.856,1.856,0,0,1,327.047,10.989Z"/><path d="M235.412,11.053c0,3.346-2.016,4.2-4.139,4.2h-2.494V6.939h2.315C233.312,6.939,235.412,7.623,235.412,11.053Zm-4.666,2.771h.648c1.187,0,1.979-.564,1.979-2.771,0-2.231-.852-2.686-2-2.686h-.623Z"/><path d="M241.928,14.184l-.4,1.235A1.592,1.592,0,0,1,240,14.5a2.145,2.145,0,0,1-1.919.959A1.924,1.924,0,0,1,236,13.464c0-1.391,1.055-2.147,2.986-2.147h.647v-.275c0-.756-.3-.984-1.079-.984a5.729,5.729,0,0,0-1.667.336l-.432-1.248a7.22,7.22,0,0,1,2.4-.467c1.848,0,2.639.779,2.639,2.255V13.4C241.5,13.9,241.628,14.076,241.928,14.184Zm-2.291-.7V12.36h-.467c-.863,0-1.283.3-1.283.936a.711.711,0,0,0,.743.8A1.134,1.134,0,0,0,239.637,13.488Z"/><path d="M247.1,8.787l-.3,1.835a2.3,2.3,0,0,0-.576-.084c-.791,0-1.116.587-1.319,1.559v3.154h-1.9V8.882h1.655l.156,1.236A1.8,1.8,0,0,1,246.465,8.7,2.151,2.151,0,0,1,247.1,8.787Z"/><path d="M252.284,9.458l-.7,1.08a2.8,2.8,0,0,0-1.511-.5c-.575,0-.827.192-.827.48,0,.336.168.479,1.307.815,1.259.36,1.966.888,1.966,2.027,0,1.319-1.247,2.1-2.83,2.1a3.957,3.957,0,0,1-2.662-.948l.936-1.043a2.659,2.659,0,0,0,1.666.636c.588,0,.935-.216.935-.588,0-.444-.191-.576-1.342-.9-1.259-.36-1.883-1.007-1.883-1.99,0-1.092,1-1.943,2.6-1.943A3.71,3.71,0,0,1,252.284,9.458Z"/><path d="M255.766,15.455c-1.405-.012-2.088-.8-2.088-2.3V10.2h-.9V8.882h.9V7.5l1.9-.216V8.882h1.464l-.2,1.32h-1.259v2.926c0,.612.2.828.6.828a1.255,1.255,0,0,0,.683-.216l.636,1.211A3.15,3.15,0,0,1,255.766,15.455Z"/><path d="M263.527,12.625h-3.945c.132,1.139.672,1.451,1.451,1.451a2.585,2.585,0,0,0,1.524-.564l.779,1.055a3.914,3.914,0,0,1-2.482.888c-2.124,0-3.2-1.368-3.2-3.358,0-1.907,1.044-3.418,2.975-3.418,1.823,0,2.938,1.2,2.938,3.262A6.114,6.114,0,0,1,263.527,12.625ZM261.705,11.4c-.012-.863-.276-1.463-1.031-1.463-.637,0-1.008.408-1.092,1.547h2.123Z"/><path d="M266.816,13.956a.9.9,0,0,0,.313-.06l.371,1.343a3.421,3.421,0,0,1-1.223.216,1.577,1.577,0,0,1-1.679-1.8v-7.3l1.895-.2v7.316C266.493,13.824,266.613,13.956,266.816,13.956Z"/><path d="M270.381,13.956a.9.9,0,0,0,.312-.06l.371,1.343a3.424,3.424,0,0,1-1.222.216,1.577,1.577,0,0,1-1.68-1.8v-7.3l1.9-.2v7.316C270.057,13.824,270.178,13.956,270.381,13.956Z"/><path d="M275.516,15.251l-.084-.8a2.2,2.2,0,0,1-1.931,1.008c-1.187,0-1.774-.767-1.774-2V8.882h1.894v4.33c0,.648.216.84.611.84a1.247,1.247,0,0,0,1.032-.744V8.882h1.895v6.369Z"/><path d="M284.144,10.6v4.653h-1.9v-4.33c0-.671-.227-.851-.6-.851-.419,0-.767.3-1.1.827v4.354h-1.9V8.882h1.656l.132.756a2.421,2.421,0,0,1,1.943-.959A1.691,1.691,0,0,1,284.144,10.6Z"/><path d="M289.6,9.506a1.653,1.653,0,0,1,1.2,1.643c0,1.236-1.02,2.135-2.674,2.135a3.539,3.539,0,0,1-.733-.072.411.411,0,0,0-.2.36c0,.192.084.384.7.384h.959c1.488,0,2.435.779,2.435,1.847,0,1.307-1.151,2.111-3.334,2.111-2.411,0-3.047-.792-3.047-2.051h1.7c0,.552.241.791,1.392.791,1.115,0,1.379-.312,1.379-.719,0-.372-.276-.624-.911-.624h-.924c-1.391,0-1.955-.576-1.955-1.259a1.518,1.518,0,0,1,.756-1.224,1.876,1.876,0,0,1-1.14-1.823c0-1.439,1.128-2.326,2.8-2.326a5.047,5.047,0,0,0,3-.828l.444,1.4A4.984,4.984,0,0,1,289.6,9.506Zm-2.518,1.475c0,.7.383,1.08.959,1.08.623,0,.959-.372.959-1.1,0-.708-.323-1.032-.959-1.032A.935.935,0,0,0,287.086,10.981Z"/></g></svg>