<svg xmlns="http://www.w3.org/2000/svg" xmlns:xlink="http://www.w3.org/1999/xlink" viewBox="0 0 394 240"><defs><style>.cls-1,.cls-10,.cls-3,.cls-5,.cls-8{fill:none;}.cls-2,.cls-4{fill:#fff;}.cls-3{stroke:#006984;}.cls-10,.cls-3,.cls-4,.cls-5,.cls-8{stroke-miterlimit:10;stroke-width:2px;}.cls-4,.cls-5{stroke:#000;}.cls-6{fill:#0054a2;}.cls-7{fill:#006984;}.cls-10,.cls-8{stroke:#ca0022;}.cls-8{stroke-dasharray:3 3;}.cls-9{fill:#ca0022;}.cls-10{stroke-dasharray:3;}.cls-11{clip-path:url(#clip-path);}.cls-12{clip-path:url(#clip-path-2);}.cls-13{clip-path:url(#clip-path-3);}</style><clipPath id="clip-path"><path class="cls-1" d="M9,58v80H80V58Zm17,67c-4.418,0-8-2.686-8-6s3.582-6,8-6,8,2.686,8,6S30.418,125,26,125Z"/></clipPath><clipPath id="clip-path-2"><path class="cls-1" d="M192,54v82H297V54Zm51,52a8,8,0,1,1,8-8A8,8,0,0,1,243,106Z"/></clipPath><clipPath id="clip-path-3"><path class="cls-1" d="M196,17V136H382V17Zm150,89a8,8,0,1,1,8-8A8,8,0,0,1,346,106Z"/></clipPath></defs><title>html-new</title><g id="Layer_2" data-name="Layer 2"><path class="cls-2" d="M141.8,17.338a19.285,19.285,0,0,0-4.034.432,18.977,18.977,0,0,0-33.9-8.754A10.207,10.207,0,0,0,90.853,20.5,18.423,18.423,0,0,0,97.9,55.71v.027h43.9a19.2,19.2,0,1,0,0-38.4Z"/><path class="cls-3" d="M141.8,17.338a19.285,19.285,0,0,0-4.034.432,18.977,18.977,0,0,0-33.9-8.754A10.207,10.207,0,0,0,90.853,20.5,18.423,18.423,0,0,0,97.9,55.71v.027h43.9a19.2,19.2,0,1,0,0-38.4Z"/><rect class="cls-2" x="109" y="162" width="78" height="62"/><path d="M186,163v60H110V163h76m2-2H108v64h80V161Z"/><rect class="cls-2" x="109" y="162" width="78" height="8"/><path d="M186,163v6H110v-6h76m2-2H108v10h80V161Z"/><line class="cls-4" x1="122" y1="166" x2="184" y2="166"/><rect x="112" y="165" width="2" height="2"/><rect x="115" y="165" width="2" height="2"/><rect class="cls-2" x="212" y="162" width="78" height="62"/><path d="M289,163v60H213V163h76m2-2H211v64h80V161Z"/><rect class="cls-2" x="212" y="162" width="78" height="8"/><path d="M289,163v6H213v-6h76m2-2H211v10h80V161Z"/><line class="cls-4" x1="225" y1="166" x2="287" y2="166"/><rect x="215" y="165" width="2" height="2"/><rect x="218" y="165" width="2" height="2"/><rect class="cls-2" x="315" y="162" width="78" height="62"/><path d="M392,163v60H316V163h76m2-2H314v64h80V161Z"/><rect class="cls-2" x="315" y="162" width="78" height="8"/><path d="M392,163v6H316v-6h76m2-2H314v10h80V161Z"/><line class="cls-4" x1="328" y1="166" x2="390" y2="166"/><rect x="318" y="165" width="2" height="2"/><rect x="321" y="165" width="2" height="2"/><rect class="cls-2" x="1" y="162" width="78" height="62"/><path d="M78,163v60H2V163H78m2-2H0v64H80V161Z"/><rect class="cls-2" x="1" y="162" width="78" height="8"/><path d="M78,163v6H2v-6H78m2-2H0v10H80V161Z"/><line class="cls-4" x1="14" y1="166" x2="76" y2="166"/><rect x="4" y="165" width="2" height="2"/><rect x="7" y="165" width="2" height="2"/></g><g id="Layer_1" data-name="Layer 1"><rect class="cls-2" x="102" y="49" width="78" height="18"/><path d="M179,50V66H103V50h76m2-2H101V68h80V48Z"/><path d="M114,56v4h-4V56h4m2-2h-8v8h8V54Z"/><path d="M127,56v4h-4V56h4m2-2h-8v8h8V54Z"/><line class="cls-5" x1="155" y1="52" x2="155" y2="63"/><line class="cls-5" x1="137" y1="52" x2="137" y2="63"/><line class="cls-5" x1="146" y1="52" x2="146" y2="63"/><line class="cls-5" x1="173" y1="52" x2="173" y2="63"/><line class="cls-5" x1="164" y1="52" x2="164" y2="63"/><rect class="cls-2" x="102" y="25" width="78" height="18"/><path d="M179,26V42H103V26h76m2-2H101V44h80V24Z"/><path d="M114,32v4h-4V32h4m2-2h-8v8h8V30Z"/><path d="M127,32v4h-4V32h4m2-2h-8v8h8V30Z"/><line class="cls-5" x1="155" y1="28" x2="155" y2="39"/><line class="cls-5" x1="137" y1="28" x2="137" y2="39"/><line class="cls-5" x1="146" y1="28" x2="146" y2="39"/><line class="cls-5" x1="173" y1="28" x2="173" y2="39"/><line class="cls-5" x1="164" y1="28" x2="164" y2="39"/><path d="M6.042,147.65l-.852-4.676-.839,4.676H2.108L.752,141.282H2.671l.66,4.954,1-4.954H6.174l.875,4.954.768-4.954H9.628L8.309,147.65Z"/><path d="M15.029,147.65l-.851-4.676-.84,4.676H11.1L9.74,141.282h1.919l.66,4.954.995-4.954h1.847l.876,4.954.768-4.954h1.81L17.3,147.65Z"/><path d="M24.018,147.65l-.852-4.676-.839,4.676H20.084l-1.355-6.368h1.918l.66,4.954,1-4.954h1.846l.876,4.954.768-4.954H27.6l-1.319,6.368Z"/><path d="M29.947,146.764a1.086,1.086,0,1,1-1.079-1.08A1.085,1.085,0,0,1,29.947,146.764Z"/><path d="M33.319,147.855c-1.4-.012-2.087-.8-2.087-2.3V142.6h-.9v-1.32h.9V139.9l1.9-.215v1.594H34.59l-.2,1.32H33.127v2.925c0,.613.2.828.6.828a1.264,1.264,0,0,0,.683-.215l.636,1.212A3.152,3.152,0,0,1,33.319,147.855Z"/><path d="M41.081,145.024H37.135c.132,1.14.672,1.452,1.451,1.452a2.585,2.585,0,0,0,1.523-.564l.78,1.055a3.915,3.915,0,0,1-2.483.888c-2.122,0-3.2-1.368-3.2-3.359,0-1.906,1.044-3.418,2.975-3.418,1.822,0,2.938,1.2,2.938,3.263A6.343,6.343,0,0,1,41.081,145.024ZM39.258,143.8c-.012-.863-.276-1.463-1.031-1.463-.636,0-1.008.408-1.092,1.547h2.123Z"/><path d="M46.793,141.857l-.7,1.081a2.8,2.8,0,0,0-1.512-.5c-.575,0-.827.191-.827.48,0,.336.168.479,1.307.815,1.26.36,1.967.888,1.967,2.027,0,1.319-1.247,2.1-2.83,2.1a3.961,3.961,0,0,1-2.663-.948l.936-1.044a2.658,2.658,0,0,0,1.667.637c.587,0,.935-.217.935-.588,0-.443-.192-.576-1.343-.9-1.259-.36-1.883-1.007-1.883-1.991,0-1.091,1-1.943,2.6-1.943A3.713,3.713,0,0,1,46.793,141.857Z"/><path d="M50.274,147.855c-1.4-.012-2.087-.8-2.087-2.3V142.6h-.9v-1.32h.9V139.9l1.9-.215v1.594h1.463l-.2,1.32H50.082v2.925c0,.613.2.828.6.828a1.264,1.264,0,0,0,.683-.215L52,147.352A3.152,3.152,0,0,1,50.274,147.855Z"/><path d="M54.414,146.764a1.086,1.086,0,1,1-1.079-1.08A1.085,1.085,0,0,1,54.414,146.764Z"/><path d="M60.341,141.857,59.513,143a1.81,1.81,0,0,0-1.2-.469c-.816,0-1.284.553-1.284,1.98s.5,1.846,1.26,1.846a1.783,1.783,0,0,0,1.187-.467l.864,1.212a3.324,3.324,0,0,1-2.147.755,3.029,3.029,0,0,1-3.154-3.334c0-2.027,1.211-3.443,3.118-3.443A3.207,3.207,0,0,1,60.341,141.857Z"/><path d="M66.64,143v4.652H64.745v-4.329c0-.672-.24-.851-.6-.851-.42,0-.768.3-1.1.815v4.365h-1.9v-8.9l1.9-.191v3.405a2.324,2.324,0,0,1,1.835-.888A1.692,1.692,0,0,1,66.64,143Z"/><line class="cls-4" x1="286" y1="182.929" x2="251" y2="182.929"/><line class="cls-4" x1="251" y1="188" x2="280" y2="188"/><line class="cls-4" x1="251" y1="194" x2="284" y2="194"/><line class="cls-4" x1="251" y1="200" x2="280" y2="200"/><line class="cls-4" x1="251" y1="206" x2="286" y2="206"/><line class="cls-4" x1="251" y1="212" x2="280" y2="212"/><rect class="cls-5" x="219" y="183" width="26" height="29"/><polyline class="cls-5" points="219 203.194 224.597 197.597 231 204 240 195 244.75 199.75"/><circle class="cls-5" cx="231" cy="191" r="4"/><rect class="cls-5" x="116" y="183" width="26" height="29"/><line class="cls-4" x1="354" y1="182.929" x2="380" y2="182.929"/><line class="cls-4" x1="354" y1="188" x2="389" y2="188"/><line class="cls-4" x1="354" y1="194" x2="382" y2="194"/><line class="cls-4" x1="354" y1="200" x2="387" y2="200"/><line class="cls-4" x1="354" y1="206" x2="374" y2="206"/><line class="cls-4" x1="354" y1="212" x2="380" y2="212"/><rect class="cls-5" x="322" y="183" width="26" height="29"/><circle class="cls-2" cx="110" cy="98" r="8"/><path d="M57.978,104.278l-.528-1.391c1.079-.42,1.235-.984,1.235-1.967V93.939h1.967v7.053C60.652,103.09,59.38,103.822,57.978,104.278Z"/><path d="M67.622,101.184l-.4,1.235a1.593,1.593,0,0,1-1.535-.923,2.146,2.146,0,0,1-1.919.959,1.924,1.924,0,0,1-2.075-1.991c0-1.391,1.055-2.147,2.987-2.147h.647v-.275c0-.756-.3-.984-1.08-.984a5.741,5.741,0,0,0-1.667.336l-.431-1.248a7.216,7.216,0,0,1,2.4-.467c1.846,0,2.638.779,2.638,2.255v2.47C67.19,100.9,67.322,101.076,67.622,101.184Zm-2.291-.7V99.36h-.468c-.863,0-1.283.3-1.283.936a.711.711,0,0,0,.744.8A1.134,1.134,0,0,0,65.331,100.488Z"/><path d="M69.749,102.251,67.7,95.882H69.76l1.128,4.93,1.175-4.93h1.931l-2,6.369Z"/><path d="M80.162,101.184l-.4,1.235a1.593,1.593,0,0,1-1.535-.923,2.146,2.146,0,0,1-1.919.959,1.925,1.925,0,0,1-2.075-1.991c0-1.391,1.055-2.147,2.987-2.147h.647v-.275c0-.756-.3-.984-1.079-.984a5.729,5.729,0,0,0-1.667.336l-.432-1.248a7.216,7.216,0,0,1,2.4-.467c1.846,0,2.638.779,2.638,2.255v2.47C79.73,100.9,79.862,101.076,80.162,101.184Zm-2.291-.7V99.36H77.4c-.863,0-1.283.3-1.283.936a.711.711,0,0,0,.744.8A1.134,1.134,0,0,0,77.871,100.488Z"/><path d="M86.833,94.8l-.923,1.068a2.726,2.726,0,0,0-1.811-.7c-.683,0-1.116.288-1.116.815s.312.744,1.608,1.152c1.571.5,2.471,1.151,2.471,2.686s-1.224,2.627-3.3,2.627a4.408,4.408,0,0,1-3.154-1.187l1.007-1.1a3.009,3.009,0,0,0,2.087.828c.816,0,1.319-.384,1.319-1.02,0-.612-.312-.887-1.522-1.259-1.86-.576-2.543-1.343-2.543-2.579,0-1.463,1.271-2.4,3-2.4A3.879,3.879,0,0,1,86.833,94.8Z"/><path d="M93.05,96.458l-.828,1.14a1.809,1.809,0,0,0-1.2-.468c-.816,0-1.284.552-1.284,1.979s.5,1.847,1.26,1.847a1.78,1.78,0,0,0,1.187-.468l.864,1.211a3.314,3.314,0,0,1-2.147.756,3.028,3.028,0,0,1-3.154-3.334c0-2.027,1.211-3.442,3.118-3.442A3.2,3.2,0,0,1,93.05,96.458Z"/><path d="M97.946,95.787l-.3,1.835a2.3,2.3,0,0,0-.575-.084c-.792,0-1.116.587-1.32,1.559v3.154h-1.9V95.882h1.656l.155,1.236A1.8,1.8,0,0,1,97.311,95.7,2.144,2.144,0,0,1,97.946,95.787Z"/><path d="M100.731,93.6a1.122,1.122,0,1,1-1.127-1.08A1.072,1.072,0,0,1,100.731,93.6Zm-2.063,8.647V95.882h1.895v6.369Z"/><path d="M108.025,99.049c0,1.967-.96,3.406-2.531,3.406a1.988,1.988,0,0,1-1.547-.66v2.914l-1.895.2V95.882h1.667l.1.708a2.3,2.3,0,0,1,1.8-.911C107.293,95.679,108.025,96.986,108.025,99.049Zm-1.967.024c0-1.583-.384-2-1.043-2a1.291,1.291,0,0,0-1.068.743V100.5a1.127,1.127,0,0,0,.971.563C105.626,101.063,106.058,100.5,106.058,99.073Z"/><path d="M111.483,102.455c-1.4-.012-2.087-.8-2.087-2.3V97.2h-.9v-1.32h.9V94.5l1.895-.216v1.595h1.463l-.2,1.32h-1.259v2.926c0,.612.2.828.6.828a1.258,1.258,0,0,0,.683-.216l.636,1.211A3.153,3.153,0,0,1,111.483,102.455Z"/><path d="M119.442,99.3v.607h-1.167V101.1H117.6V99.908h-1.16V99.3h1.16V98.1h.671v1.2Z"/><path d="M123.619,99.668v2.583h-.76V96.742h.76v2.3h2.319v-2.3h.759v5.509h-.759V99.668Z"/><path d="M129.947,97.39v4.861h-.76V97.39H127.62v-.648h3.934l-.08.648Z"/><path d="M136.465,102.251l-.192-2.487c-.071-.863-.127-1.791-.135-2.246l-1.192,4.109h-.712l-1.255-4.117c0,.647-.04,1.5-.1,2.31l-.184,2.431h-.719l.456-5.509h1.023l1.159,4.006,1.1-4.006h1.031l.456,5.509Z"/><path d="M141.666,101.587l-.088.664h-2.934V96.742h.759v4.845Z"/><path d="M105.566,15.286l-.431.48a1.772,1.772,0,0,0-1.239-.5c-.552,0-.992.255-.992.783,0,.464.216.688,1.207.992.88.271,1.631.615,1.631,1.671,0,.959-.727,1.631-1.967,1.631a2.577,2.577,0,0,1-1.871-.712l.44-.488a1.959,1.959,0,0,0,1.424.576c.647,0,1.183-.32,1.183-.983,0-.536-.256-.776-1.192-1.064-1.071-.327-1.631-.735-1.631-1.591a1.541,1.541,0,0,1,1.735-1.439A2.32,2.32,0,0,1,105.566,15.286Z"/><path d="M109.99,18.4H107.3c.072.976.528,1.351,1.135,1.351a1.775,1.775,0,0,0,1.1-.368l.319.44a2.3,2.3,0,0,1-1.471.528c-1.175,0-1.863-.824-1.863-2.159,0-1.311.664-2.247,1.751-2.247,1.136,0,1.735.792,1.735,2.079C110.006,18.164,110,18.3,109.99,18.4Zm-.711-.592c0-.823-.328-1.279-.992-1.279-.559,0-.927.392-.983,1.328h1.975Z"/><path d="M113.471,15.989l-.136.72a1.322,1.322,0,0,0-.368-.048c-.528,0-.832.376-1.008,1.183v2.407h-.735V16.037h.631l.073.856a1.2,1.2,0,0,1,1.127-.952A1.849,1.849,0,0,1,113.471,15.989Z"/><path d="M115.167,20.251l-1.455-4.214h.8l1.1,3.558,1.095-3.558h.776l-1.431,4.214Z"/><path d="M121.414,18.4h-2.686c.072.976.527,1.351,1.135,1.351a1.77,1.77,0,0,0,1.095-.368l.32.44a2.3,2.3,0,0,1-1.471.528c-1.175,0-1.863-.824-1.863-2.159,0-1.311.663-2.247,1.751-2.247,1.136,0,1.735.792,1.735,2.079C121.43,18.164,121.422,18.3,121.414,18.4ZM120.7,17.8c0-.823-.328-1.279-.992-1.279-.56,0-.927.392-.983,1.328H120.7Z"/><path d="M124.9,15.989l-.136.72a1.322,1.322,0,0,0-.368-.048c-.528,0-.832.376-1.008,1.183v2.407h-.735V16.037h.631l.073.856a1.2,1.2,0,0,1,1.127-.952A1.849,1.849,0,0,1,124.9,15.989Z"/><path d="M192.117,98.053c0,3.346-2.015,4.2-4.138,4.2h-2.5V93.939H187.8C190.018,93.939,192.117,94.623,192.117,98.053Zm-4.666,2.771h.648c1.187,0,1.979-.564,1.979-2.771,0-2.231-.852-2.686-2-2.686h-.624Z"/><path d="M198.633,101.184l-.4,1.235a1.592,1.592,0,0,1-1.535-.923,2.143,2.143,0,0,1-1.919.959,1.925,1.925,0,0,1-2.075-1.991c0-1.391,1.056-2.147,2.987-2.147h.647v-.275c0-.756-.3-.984-1.079-.984a5.729,5.729,0,0,0-1.667.336l-.432-1.248a7.216,7.216,0,0,1,2.4-.467c1.847,0,2.638.779,2.638,2.255v2.47C198.2,100.9,198.333,101.076,198.633,101.184Zm-2.291-.7V99.36h-.467c-.864,0-1.284.3-1.284.936a.711.711,0,0,0,.744.8A1.134,1.134,0,0,0,196.342,100.488Z"/><path d="M201.982,102.455c-1.4-.012-2.086-.8-2.086-2.3V97.2H199v-1.32h.9V94.5l1.9-.216v1.595h1.463l-.2,1.32h-1.259v2.926c0,.612.2.828.6.828a1.261,1.261,0,0,0,.684-.216l.635,1.211A3.15,3.15,0,0,1,201.982,102.455Z"/><path d="M209.745,99.625H205.8c.132,1.139.672,1.451,1.451,1.451a2.578,2.578,0,0,0,1.523-.564l.78,1.055a3.915,3.915,0,0,1-2.483.888c-2.122,0-3.2-1.368-3.2-3.358,0-1.907,1.044-3.418,2.975-3.418,1.823,0,2.938,1.2,2.938,3.262A6.361,6.361,0,0,1,209.745,99.625ZM207.922,98.4c-.012-.863-.276-1.463-1.031-1.463-.636,0-1.008.408-1.092,1.547h2.123Z"/><path d="M216.368,97.6v4.653h-1.894v-4.33c0-.671-.228-.851-.6-.851-.42,0-.768.3-1.1.827v4.354h-1.9V95.882h1.655l.133.756a2.42,2.42,0,0,1,1.942-.959A1.691,1.691,0,0,1,216.368,97.6Z"/><path d="M219.6,103.594l-1.667-.384,2.83-10.746,1.655.372Z"/><path d="M230.372,99.828c0,1.895-1.535,2.423-3.622,2.423h-2.674V93.939h2.35c2.231,0,3.6.564,3.6,2.123A1.809,1.809,0,0,1,228.5,97.85C229.424,98.029,230.372,98.485,230.372,99.828Zm-4.33-2.566h.732c.815,0,1.247-.312,1.247-1.008s-.456-.923-1.4-.923h-.576Zm2.3,2.458c0-.839-.588-1.151-1.439-1.151h-.864v2.255h.72C227.686,100.824,228.345,100.632,228.345,99.72Z"/><path d="M233.506,93.6a1.122,1.122,0,1,1-1.127-1.08A1.072,1.072,0,0,1,233.506,93.6Zm-2.063,8.647V95.882h1.895v6.369Z"/><path d="M236.986,100.956a.9.9,0,0,0,.312-.06l.372,1.343a3.425,3.425,0,0,1-1.223.216,1.576,1.576,0,0,1-1.679-1.8v-7.3l1.9-.2v7.316C236.663,100.824,236.783,100.956,236.986,100.956Z"/><path d="M243.98,102.251H242.3l-.1-.744a2.123,2.123,0,0,1-1.811.948c-1.619,0-2.422-1.343-2.422-3.406,0-1.967,1-3.37,2.638-3.37a2.062,2.062,0,0,1,1.475.6v-3.13l1.895.2Zm-1.895-1.907V97.6a1.239,1.239,0,0,0-.983-.54c-.684,0-1.164.575-1.164,2,0,1.583.432,2,1.056,2A1.267,1.267,0,0,0,242.085,100.344Z"/><path d="M250.869,99.625h-3.946c.132,1.139.671,1.451,1.451,1.451a2.58,2.58,0,0,0,1.523-.564l.78,1.055a3.915,3.915,0,0,1-2.483.888c-2.123,0-3.2-1.368-3.2-3.358,0-1.907,1.043-3.418,2.974-3.418,1.823,0,2.938,1.2,2.938,3.262A6.365,6.365,0,0,1,250.869,99.625ZM249.045,98.4c-.011-.863-.275-1.463-1.031-1.463-.636,0-1.007.408-1.091,1.547h2.122Z"/><path d="M256.089,95.787l-.3,1.835a2.3,2.3,0,0,0-.576-.084c-.791,0-1.115.587-1.319,1.559v3.154H252V95.882h1.655l.156,1.236a1.8,1.8,0,0,1,1.643-1.415A2.147,2.147,0,0,1,256.089,95.787Z"/><circle class="cls-6" cx="110" cy="77" r="12"/><path d="M110,66A11,11,0,1,1,99,77a11.013,11.013,0,0,1,11-11m0-2a13,13,0,1,0,13,13,13,13,0,0,0-13-13Z"/><path class="cls-2" d="M109.067,79.188h3.538l-.2,1.463H106.86V79.3c2.723-2.638,3.6-3.633,3.6-4.617a1.021,1.021,0,0,0-1.1-1.079,1.815,1.815,0,0,0-1.486.839l-1.176-.887a3.413,3.413,0,0,1,2.867-1.427c1.882,0,2.854,1.091,2.854,2.386C112.413,75.746,111.585,76.933,109.067,79.188Z"/><circle class="cls-6" cx="172" cy="165" r="12"/><path d="M172,154a11,11,0,1,1-11,11,11.013,11.013,0,0,1,11-11m0-2a13,13,0,1,0,13,13,13,13,0,0,0-13-13Z"/><path class="cls-2" d="M168.608,161.251a3.96,3.96,0,0,1,2.855-1.128c1.8,0,2.842.973,2.842,2.135a1.974,1.974,0,0,1-1.583,1.955v.049a1.937,1.937,0,0,1,1.847,2.05c0,1.4-1.223,2.543-3.226,2.543a3.771,3.771,0,0,1-2.939-1.248l1.08-1.007a2.208,2.208,0,0,0,1.727.792c.815,0,1.391-.432,1.391-1.212,0-.875-.516-1.235-1.4-1.235h-.756l.216-1.32h.54c.731,0,1.247-.359,1.247-1.078,0-.612-.491-1-1.2-1a2.331,2.331,0,0,0-1.655.72Z"/><circle class="cls-6" cx="253" cy="151" r="12"/><path d="M253,140a11,11,0,1,1-11,11,11.013,11.013,0,0,1,11-11m0-2a13,13,0,1,0,13,13,13,13,0,0,0-13-13Z"/><path class="cls-2" d="M254.921,152.912v1.738H253.05v-1.738h-3.418v-1.271l2.3-5.518,1.631.6-1.955,4.75h1.439l.216-1.991h1.655v1.991h.828v1.439Z"/><circle class="cls-6" cx="356" cy="151" r="12"/><path d="M356,140a11,11,0,1,1-11,11,11.013,11.013,0,0,1,11-11m0-2a13,13,0,1,0,13,13,13,13,0,0,0-13-13Z"/><path class="cls-2" d="M357.394,147.826a1.835,1.835,0,0,0-1.044-.336c-.887,0-1.559.817-1.655,2.327a2.5,2.5,0,0,1,1.739-.743c1.295,0,2.327.995,2.327,2.758a2.881,2.881,0,0,1-2.963,3.023c-2.206,0-3.106-1.824-3.106-3.959,0-2.806,1.368-4.773,3.622-4.773a3.152,3.152,0,0,1,1.811.54Zm-2.7,3.192c.024,1.654.288,2.469,1.127,2.469.708,0,1.02-.695,1.02-1.547,0-1.128-.336-1.547-.912-1.547A1.7,1.7,0,0,0,354.7,151.018Z"/><line class="cls-3" x1="110" y1="106" x2="110" y2="142.824"/><polygon class="cls-7" points="105.014 141.365 110 150 114.986 141.365 105.014 141.365"/><line class="cls-8" x1="172" y1="110" x2="172" y2="84.176"/><polygon class="cls-9" points="176.986 85.635 172 77 167.014 85.635 176.986 85.635"/><line class="cls-10" x1="172" y1="147" x2="172" y2="125"/><path d="M134.513,119.868l-.416,1.383h-.768l1.767-5.508h.96l1.759,5.508h-.8l-.415-1.383Zm1.047-3.494-.864,2.878h1.72Z"/><path d="M141.831,118.229v3.022H141.1v-2.918c0-.631-.256-.815-.664-.815a1.274,1.274,0,0,0-1.072.743v2.99h-.735v-4.213h.631l.064.624a1.527,1.527,0,0,1,1.288-.72A1.153,1.153,0,0,1,141.831,118.229Z"/><path d="M144.12,116.454v.584h1.024l-.08.567h-.944v3.646h-.735v-3.646h-.752v-.567h.752v-.576a1.175,1.175,0,0,1,1.319-1.207,2.32,2.32,0,0,1,1.007.216l-.232.535a1.8,1.8,0,0,0-.735-.16C144.28,115.846,144.12,116.046,144.12,116.454Z"/><path d="M148.24,116.99l-.136.719a1.323,1.323,0,0,0-.368-.047c-.528,0-.832.375-1.007,1.183v2.406h-.736v-4.213h.632l.072.855a1.2,1.2,0,0,1,1.127-.951A1.793,1.793,0,0,1,148.24,116.99Z"/><path d="M152.111,120.835l-.168.512a.85.85,0,0,1-.823-.631,1.436,1.436,0,0,1-1.256.631,1.224,1.224,0,0,1-1.343-1.271c0-.9.68-1.391,1.855-1.391h.647v-.312c0-.608-.295-.831-.879-.831a3.789,3.789,0,0,0-1.135.223l-.184-.536a4.142,4.142,0,0,1,1.455-.287c1.015,0,1.479.519,1.479,1.4v1.927C151.759,120.636,151.9,120.756,152.111,120.835Zm-1.088-.695v-.968h-.551c-.776,0-1.167.288-1.167.864a.664.664,0,0,0,.727.76A1.081,1.081,0,0,0,151.023,120.14Z"/><path d="M155.439,117.357a1.11,1.11,0,0,1,.744,1.064,1.434,1.434,0,0,1-1.607,1.431,1.7,1.7,0,0,1-.535-.08.505.505,0,0,0-.208.392c0,.192.119.344.551.344h.672c.863,0,1.439.5,1.439,1.167,0,.816-.672,1.28-1.975,1.28-1.375,0-1.807-.424-1.807-1.28h.664c0,.48.216.7,1.143.7.912,0,1.231-.232,1.231-.656,0-.4-.319-.6-.847-.6h-.664c-.751,0-1.087-.376-1.087-.8a.913.913,0,0,1,.464-.743,1.207,1.207,0,0,1-.712-1.168,1.5,1.5,0,0,1,1.623-1.471,3.619,3.619,0,0,0,1.927-.376l.216.663A4.075,4.075,0,0,1,155.439,117.357Zm-1.782,1.056a.853.853,0,0,0,.887.952.838.838,0,0,0,.888-.96.817.817,0,0,0-.9-.935A.842.842,0,0,0,153.657,118.413Z"/><path d="M160.479,119.4h-2.687c.072.976.528,1.352,1.135,1.352a1.775,1.775,0,0,0,1.1-.368l.32.44a2.3,2.3,0,0,1-1.471.527c-1.176,0-1.864-.823-1.864-2.159,0-1.311.664-2.246,1.752-2.246,1.135,0,1.735.791,1.735,2.079C160.5,119.165,160.486,119.3,160.479,119.4Zm-.712-.591c0-.824-.328-1.28-.992-1.28-.559,0-.927.392-.983,1.328h1.975Z"/><path d="M167.782,118.469c0,2.247-1.4,2.782-2.591,2.782h-1.319v-5.508h1.151C166.431,115.743,167.782,116.182,167.782,118.469Zm-3.15,2.183h.616c.863,0,1.727-.368,1.727-2.183,0-1.863-.9-2.119-1.784-2.119h-.559Z"/><path d="M172.1,120.835l-.168.512a.848.848,0,0,1-.823-.631,1.436,1.436,0,0,1-1.256.631,1.225,1.225,0,0,1-1.343-1.271c0-.9.68-1.391,1.855-1.391h.647v-.312c0-.608-.3-.831-.879-.831a3.789,3.789,0,0,0-1.135.223l-.184-.536a4.138,4.138,0,0,1,1.455-.287c1.015,0,1.479.519,1.479,1.4v1.927C171.743,120.636,171.879,120.756,172.1,120.835Zm-1.088-.695v-.968h-.551c-.776,0-1.167.288-1.167.864a.664.664,0,0,0,.727.76A1.081,1.081,0,0,0,171.007,120.14Z"/><path d="M174.44,121.347a1.058,1.058,0,0,1-1.135-1.2v-2.543h-.736v-.567h.736v-.952l.735-.087v1.039h1l-.08.567h-.92v2.511c0,.424.136.624.5.624a1.03,1.03,0,0,0,.56-.184l.279.5A1.608,1.608,0,0,1,174.44,121.347Z"/><path d="M179.23,119.4h-2.686c.072.976.528,1.352,1.135,1.352a1.775,1.775,0,0,0,1.1-.368l.32.44a2.3,2.3,0,0,1-1.471.527c-1.176,0-1.864-.823-1.864-2.159,0-1.311.664-2.246,1.752-2.246,1.135,0,1.735.791,1.735,2.079C179.247,119.165,179.238,119.3,179.23,119.4Zm-.711-.591c0-.824-.328-1.28-.992-1.28-.559,0-.927.392-.983,1.328h1.975Z"/><path d="M183.67,118.229v3.022h-.735v-2.918c0-.631-.256-.815-.664-.815a1.271,1.271,0,0,0-1.071.743v2.99h-.736v-4.213h.632l.064.624a1.527,1.527,0,0,1,1.287-.72A1.153,1.153,0,0,1,183.67,118.229Z"/><path d="M185.864,122.083l-.632-.152,1.855-7.132.624.144Z"/><path d="M193.054,119.684c0,1.168-.9,1.567-2.182,1.567h-1.519v-5.508h1.3c1.359,0,2.158.431,2.158,1.391a1.227,1.227,0,0,1-1.031,1.207C192.423,118.453,193.054,118.749,193.054,119.684Zm-2.942-1.607h.831c.616,0,1.1-.3,1.1-.887,0-.68-.488-.848-1.3-.848h-.623Zm2.143,1.607c0-.775-.576-1.023-1.239-1.023h-.9v1.983h.76C191.671,120.644,192.255,120.484,192.255,119.684Z"/><path d="M195.056,115.519a.516.516,0,1,1-.52-.5A.49.49,0,0,1,195.056,115.519Zm-.88,5.732v-4.213h.736v4.213Z"/><path d="M197.392,120.74a.716.716,0,0,0,.271-.048l.192.512a1.438,1.438,0,0,1-.624.143c-.535,0-.839-.319-.839-.927v-5.077l.735-.088V120.4C197.127,120.628,197.2,120.74,197.392,120.74Z"/><path d="M201.958,121.251h-.647l-.072-.583a1.411,1.411,0,0,1-1.216.679c-1.023,0-1.591-.871-1.591-2.182,0-1.288.624-2.223,1.655-2.223a1.517,1.517,0,0,1,1.136.519v-2.206l.735.088Zm-.735-1.111v-2.063a1.209,1.209,0,0,0-.976-.552c-.631,0-1.023.528-1.023,1.623,0,1.112.352,1.616.959,1.616A1.208,1.208,0,0,0,201.223,120.14Z"/><path d="M206.566,119.4H203.88c.072.976.528,1.352,1.135,1.352a1.775,1.775,0,0,0,1.1-.368l.32.44a2.3,2.3,0,0,1-1.472.527c-1.175,0-1.863-.823-1.863-2.159,0-1.311.664-2.246,1.752-2.246,1.135,0,1.735.791,1.735,2.079C206.583,119.165,206.574,119.3,206.566,119.4Zm-.711-.591c0-.824-.328-1.28-.992-1.28-.559,0-.927.392-.983,1.328h1.975Z"/><path d="M210.047,116.99l-.136.719a1.323,1.323,0,0,0-.368-.047c-.527,0-.832.375-1.007,1.183v2.406H207.8v-4.213h.632l.072.855a1.2,1.2,0,0,1,1.127-.951A1.793,1.793,0,0,1,210.047,116.99Z"/><path d="M2.156,119.868l-.416,1.383H.973l1.767-5.509H3.7l1.759,5.509h-.8l-.416-1.383ZM3.2,116.374l-.864,2.878H4.059Z"/><path d="M9.475,118.229v3.022H8.739v-2.918c0-.632-.256-.816-.664-.816A1.275,1.275,0,0,0,7,118.261v2.99H6.269v-4.214H6.9l.064.624a1.529,1.529,0,0,1,1.287-.72A1.154,1.154,0,0,1,9.475,118.229Z"/><path d="M11.764,116.454v.583h1.023l-.079.568h-.944v3.646h-.736v-3.646h-.751v-.568h.751v-.576a1.175,1.175,0,0,1,1.32-1.207,2.32,2.32,0,0,1,1.007.216l-.232.536a1.8,1.8,0,0,0-.735-.16C11.924,115.846,11.764,116.046,11.764,116.454Z"/><path d="M15.883,116.989l-.135.72a1.33,1.33,0,0,0-.369-.048c-.527,0-.831.376-1.007,1.183v2.407h-.735v-4.214h.631l.072.856a1.2,1.2,0,0,1,1.128-.952A1.84,1.84,0,0,1,15.883,116.989Z"/><path d="M19.754,120.835l-.168.512a.85.85,0,0,1-.823-.632,1.435,1.435,0,0,1-1.255.632,1.225,1.225,0,0,1-1.343-1.271c0-.9.679-1.391,1.855-1.391h.647v-.312c0-.608-.3-.832-.879-.832a3.774,3.774,0,0,0-1.136.224l-.184-.536a4.127,4.127,0,0,1,1.455-.288c1.016,0,1.48.52,1.48,1.4v1.927C19.4,120.635,19.539,120.755,19.754,120.835Zm-1.087-.695v-.968h-.552c-.775,0-1.167.288-1.167.864a.664.664,0,0,0,.728.759A1.084,1.084,0,0,0,18.667,120.14Z"/><path d="M23.083,117.357a1.11,1.11,0,0,1,.744,1.063,1.434,1.434,0,0,1-1.607,1.432,1.706,1.706,0,0,1-.536-.08.508.508,0,0,0-.208.392c0,.191.12.343.552.343H22.7c.864,0,1.44.5,1.44,1.168,0,.815-.672,1.279-1.975,1.279-1.375,0-1.808-.424-1.808-1.279h.665c0,.479.215.7,1.143.7.911,0,1.231-.232,1.231-.655,0-.4-.32-.6-.848-.6h-.663c-.752,0-1.088-.376-1.088-.8a.915.915,0,0,1,.464-.743,1.207,1.207,0,0,1-.712-1.167,1.5,1.5,0,0,1,1.624-1.472,3.612,3.612,0,0,0,1.927-.376l.215.664A4.1,4.1,0,0,1,23.083,117.357ZM21.3,118.413a.854.854,0,0,0,.888.951.838.838,0,0,0,.887-.96.817.817,0,0,0-.9-.935A.844.844,0,0,0,21.3,118.413Z"/><path d="M28.122,119.4H25.436c.072.976.527,1.351,1.135,1.351a1.775,1.775,0,0,0,1.1-.368l.319.44a2.3,2.3,0,0,1-1.471.528c-1.175,0-1.863-.824-1.863-2.159,0-1.311.663-2.247,1.751-2.247,1.136,0,1.735.792,1.735,2.079C28.138,119.164,28.13,119.3,28.122,119.4Zm-.711-.592c0-.823-.328-1.279-.992-1.279-.56,0-.927.392-.983,1.328h1.975Z"/><path d="M32.275,118.668v2.583h-.759v-5.509h.759v2.3h2.319v-2.3h.76v5.509h-.76v-2.583Z"/><path d="M38.6,116.39v4.861h-.76V116.39H36.276v-.648H40.21l-.08.648Z"/><path d="M45.122,121.251l-.192-2.487c-.072-.863-.128-1.791-.136-2.246L43.6,120.627h-.712l-1.255-4.117c0,.647-.04,1.5-.1,2.31l-.184,2.431h-.72l.456-5.509h1.023l1.16,4.006,1.1-4.006H45.4l.456,5.509Z"/><path d="M50.322,120.587l-.088.664H47.3v-5.509h.76v4.845Z"/><circle class="cls-5" cx="333" cy="195" r="4"/><path class="cls-5" d="M333,202a6,6,0,0,0-6,6v4h12v-4A6,6,0,0,0,333,202Z"/><path class="cls-8" d="M203.06,39.851A97.178,97.178,0,0,1,279,134.67V179"/><polygon class="cls-9" points="203.545 45.07 196 38.552 205.417 35.276 203.545 45.07"/><circle class="cls-6" cx="279" cy="188" r="12"/><path d="M279,177a11,11,0,1,1-11,11,11.013,11.013,0,0,1,11-11m0-2a13,13,0,1,0,13,13,13,13,0,0,0-13-13Z"/><path class="cls-2" d="M278.367,191.855a3.456,3.456,0,0,1-2.771-1.248l1.1-1.007a1.9,1.9,0,0,0,1.511.792,1.37,1.37,0,0,0,1.451-1.44c0-1.018-.5-1.415-1.175-1.415a2.042,2.042,0,0,0-1.008.275h-1.295V183.34h5.085l-.216,1.367h-3.034v1.775a2.964,2.964,0,0,1,1.223-.264,2.44,2.44,0,0,1,2.4,2.7A2.992,2.992,0,0,1,278.367,191.855Z"/><path d="M329.117,98.053c0,3.346-2.015,4.2-4.138,4.2h-2.5V93.939H324.8C327.018,93.939,329.117,94.623,329.117,98.053Zm-4.666,2.771h.648c1.187,0,1.979-.564,1.979-2.771,0-2.231-.852-2.686-2-2.686h-.624Z"/><path d="M335.633,101.184l-.4,1.235a1.592,1.592,0,0,1-1.535-.923,2.143,2.143,0,0,1-1.919.959,1.925,1.925,0,0,1-2.075-1.991c0-1.391,1.056-2.147,2.987-2.147h.647v-.275c0-.756-.3-.984-1.079-.984a5.729,5.729,0,0,0-1.667.336l-.432-1.248a7.216,7.216,0,0,1,2.4-.467c1.847,0,2.638.779,2.638,2.255v2.47C335.2,100.9,335.333,101.076,335.633,101.184Zm-2.291-.7V99.36h-.467c-.864,0-1.284.3-1.284.936a.711.711,0,0,0,.744.8A1.134,1.134,0,0,0,333.342,100.488Z"/><path d="M338.982,102.455c-1.4-.012-2.086-.8-2.086-2.3V97.2H336v-1.32h.9V94.5l1.895-.216v1.595h1.463l-.2,1.32h-1.259v2.926c0,.612.2.828.6.828a1.261,1.261,0,0,0,.684-.216l.635,1.211A3.15,3.15,0,0,1,338.982,102.455Z"/><path d="M346.745,99.625H342.8c.132,1.139.672,1.451,1.451,1.451a2.578,2.578,0,0,0,1.523-.564l.78,1.055a3.915,3.915,0,0,1-2.483.888c-2.122,0-3.2-1.368-3.2-3.358,0-1.907,1.044-3.418,2.975-3.418,1.823,0,2.938,1.2,2.938,3.262A6.361,6.361,0,0,1,346.745,99.625ZM344.922,98.4c-.012-.863-.276-1.463-1.031-1.463-.636,0-1.008.408-1.092,1.547h2.123Z"/><path d="M353.368,97.6v4.653h-1.894v-4.33c0-.671-.228-.851-.6-.851-.42,0-.768.3-1.1.827v4.354h-1.9V95.882h1.655l.133.756a2.42,2.42,0,0,1,1.942-.959A1.691,1.691,0,0,1,353.368,97.6Z"/><path d="M356.6,103.594l-1.667-.384,2.83-10.746,1.655.372Z"/><path d="M367.372,99.828c0,1.895-1.535,2.423-3.622,2.423h-2.674V93.939h2.35c2.23,0,3.6.564,3.6,2.123A1.809,1.809,0,0,1,365.5,97.85C366.424,98.029,367.372,98.485,367.372,99.828Zm-4.329-2.566h.73c.817,0,1.248-.312,1.248-1.008s-.456-.923-1.4-.923h-.575Zm2.3,2.458c0-.839-.588-1.151-1.44-1.151h-.863v2.255h.719C364.686,100.824,365.346,100.632,365.346,99.72Z"/><path d="M370.506,93.6a1.122,1.122,0,1,1-1.127-1.08A1.072,1.072,0,0,1,370.506,93.6Zm-2.063,8.647V95.882h1.9v6.369Z"/><path d="M373.986,100.956a.907.907,0,0,0,.313-.06l.371,1.343a3.425,3.425,0,0,1-1.223.216,1.576,1.576,0,0,1-1.679-1.8v-7.3l1.894-.2v7.316C373.662,100.824,373.783,100.956,373.986,100.956Z"/><path d="M380.98,102.251H379.3l-.1-.744a2.121,2.121,0,0,1-1.81.948c-1.62,0-2.423-1.343-2.423-3.406,0-1.967,1-3.37,2.638-3.37a2.068,2.068,0,0,1,1.476.6v-3.13l1.894.2Zm-1.894-1.907V97.6a1.242,1.242,0,0,0-.984-.54c-.684,0-1.164.575-1.164,2,0,1.583.432,2,1.056,2A1.271,1.271,0,0,0,379.086,100.344Z"/><path d="M387.869,99.625h-3.946c.132,1.139.671,1.451,1.451,1.451a2.573,2.573,0,0,0,1.522-.564l.781,1.055a3.916,3.916,0,0,1-2.484.888c-2.122,0-3.2-1.368-3.2-3.358,0-1.907,1.043-3.418,2.974-3.418,1.823,0,2.938,1.2,2.938,3.262A6.365,6.365,0,0,1,387.869,99.625ZM386.045,98.4c-.012-.863-.275-1.463-1.031-1.463-.635,0-1.007.408-1.091,1.547h2.122Z"/><path d="M393.089,95.787l-.3,1.835a2.3,2.3,0,0,0-.576-.084c-.791,0-1.115.587-1.318,1.559v3.154H389V95.882h1.655l.157,1.236a1.8,1.8,0,0,1,1.642-1.415A2.147,2.147,0,0,1,393.089,95.787Z"/><ellipse class="cls-2" cx="278.5" cy="119" rx="8.5" ry="9"/><path d="M259.513,119.868l-.416,1.383h-.768l1.767-5.509h.96l1.759,5.509h-.8l-.415-1.383Zm1.047-3.494-.864,2.878h1.72Z"/><path d="M266.831,118.229v3.022H266.1v-2.918c0-.632-.256-.816-.664-.816a1.275,1.275,0,0,0-1.072.744v2.99h-.735v-4.214h.631l.064.624a1.529,1.529,0,0,1,1.288-.72A1.153,1.153,0,0,1,266.831,118.229Z"/><path d="M269.12,116.454v.583h1.024l-.08.568h-.944v3.646h-.735v-3.646h-.752v-.568h.752v-.576a1.175,1.175,0,0,1,1.319-1.207,2.32,2.32,0,0,1,1.007.216l-.232.536a1.8,1.8,0,0,0-.735-.16C269.28,115.846,269.12,116.046,269.12,116.454Z"/><path d="M273.24,116.989l-.136.72a1.322,1.322,0,0,0-.368-.048c-.528,0-.832.376-1.007,1.183v2.407h-.736v-4.214h.632l.072.856a1.2,1.2,0,0,1,1.127-.952A1.849,1.849,0,0,1,273.24,116.989Z"/><path d="M277.111,120.835l-.168.512a.85.85,0,0,1-.823-.632,1.436,1.436,0,0,1-1.256.632,1.225,1.225,0,0,1-1.343-1.271c0-.9.68-1.391,1.855-1.391h.647v-.312c0-.608-.3-.832-.879-.832a3.763,3.763,0,0,0-1.135.224l-.184-.536a4.122,4.122,0,0,1,1.455-.288c1.015,0,1.479.52,1.479,1.4v1.927C276.759,120.635,276.9,120.755,277.111,120.835Zm-1.088-.695v-.968h-.551c-.776,0-1.167.288-1.167.864a.663.663,0,0,0,.727.759A1.082,1.082,0,0,0,276.023,120.14Z"/><path d="M280.439,117.357a1.109,1.109,0,0,1,.744,1.063,1.434,1.434,0,0,1-1.607,1.432,1.7,1.7,0,0,1-.535-.08.505.505,0,0,0-.208.392c0,.191.119.343.551.343h.672c.863,0,1.439.5,1.439,1.168,0,.815-.672,1.279-1.975,1.279-1.375,0-1.807-.424-1.807-1.279h.664c0,.479.216.7,1.143.7s1.231-.232,1.231-.655c0-.4-.319-.6-.847-.6h-.664c-.751,0-1.087-.376-1.087-.8a.915.915,0,0,1,.464-.743,1.207,1.207,0,0,1-.712-1.167,1.5,1.5,0,0,1,1.623-1.472,3.61,3.61,0,0,0,1.927-.376l.216.664A4.107,4.107,0,0,1,280.439,117.357Zm-1.782,1.056a.853.853,0,0,0,.887.951.838.838,0,0,0,.888-.96.817.817,0,0,0-.9-.935A.843.843,0,0,0,278.657,118.413Z"/><path d="M285.479,119.4h-2.687c.072.976.528,1.351,1.135,1.351a1.775,1.775,0,0,0,1.1-.368l.32.44a2.3,2.3,0,0,1-1.471.528c-1.176,0-1.864-.824-1.864-2.159,0-1.311.664-2.247,1.752-2.247,1.135,0,1.735.792,1.735,2.079C285.5,119.164,285.486,119.3,285.479,119.4Zm-.712-.592c0-.823-.328-1.279-.992-1.279-.559,0-.927.392-.983,1.328h1.975Z"/><path d="M292.782,118.469c0,2.246-1.4,2.782-2.591,2.782h-1.319v-5.509h1.151C291.431,115.742,292.782,116.182,292.782,118.469Zm-3.15,2.182h.616c.863,0,1.727-.367,1.727-2.182,0-1.864-.9-2.119-1.784-2.119h-.559Z"/><path d="M297.1,120.835l-.168.512a.848.848,0,0,1-.823-.632,1.436,1.436,0,0,1-1.256.632,1.225,1.225,0,0,1-1.343-1.271c0-.9.68-1.391,1.855-1.391h.647v-.312c0-.608-.3-.832-.879-.832a3.763,3.763,0,0,0-1.135.224l-.184-.536a4.118,4.118,0,0,1,1.455-.288c1.015,0,1.479.52,1.479,1.4v1.927C296.743,120.635,296.879,120.755,297.1,120.835Zm-1.088-.695v-.968h-.551c-.776,0-1.167.288-1.167.864a.663.663,0,0,0,.727.759A1.082,1.082,0,0,0,296.007,120.14Z"/><path d="M299.44,121.347a1.059,1.059,0,0,1-1.135-1.2v-2.542h-.736v-.568h.736v-.951l.735-.088v1.039h1l-.08.568h-.92v2.511c0,.424.136.623.5.623a1.03,1.03,0,0,0,.56-.184l.279.5A1.6,1.6,0,0,1,299.44,121.347Z"/><path d="M304.23,119.4h-2.686c.072.976.528,1.351,1.135,1.351a1.775,1.775,0,0,0,1.1-.368l.32.44a2.3,2.3,0,0,1-1.471.528c-1.176,0-1.864-.824-1.864-2.159,0-1.311.664-2.247,1.752-2.247,1.135,0,1.735.792,1.735,2.079C304.247,119.164,304.238,119.3,304.23,119.4Zm-.711-.592c0-.823-.328-1.279-.992-1.279-.559,0-.927.392-.983,1.328h1.975Z"/><path d="M308.67,118.229v3.022h-.735v-2.918c0-.632-.256-.816-.664-.816a1.272,1.272,0,0,0-1.071.744v2.99h-.736v-4.214h.632l.064.624a1.529,1.529,0,0,1,1.287-.72A1.153,1.153,0,0,1,308.67,118.229Z"/><path d="M310.864,122.083l-.632-.152,1.855-7.133.624.144Z"/><path d="M318.054,119.684c0,1.167-.9,1.567-2.182,1.567h-1.519v-5.509h1.3c1.359,0,2.158.432,2.158,1.391a1.227,1.227,0,0,1-1.031,1.208C317.423,118.453,318.054,118.749,318.054,119.684Zm-2.942-1.607h.831c.616,0,1.1-.3,1.1-.888,0-.679-.488-.847-1.3-.847h-.623Zm2.143,1.607c0-.776-.576-1.024-1.239-1.024h-.9v1.984h.76C316.671,120.644,317.255,120.483,317.255,119.684Z"/><path d="M320.056,115.518a.516.516,0,1,1-.52-.5A.49.49,0,0,1,320.056,115.518Zm-.88,5.733v-4.214h.736v4.214Z"/><path d="M322.392,120.739a.716.716,0,0,0,.271-.048l.192.512a1.425,1.425,0,0,1-.624.144c-.535,0-.839-.32-.839-.928v-5.077l.735-.088V120.4C322.127,120.627,322.2,120.739,322.392,120.739Z"/><path d="M326.958,121.251h-.647l-.072-.584a1.41,1.41,0,0,1-1.216.68c-1.023,0-1.591-.871-1.591-2.183,0-1.287.624-2.223,1.655-2.223a1.514,1.514,0,0,1,1.136.52v-2.207l.735.088Zm-.735-1.111v-2.063a1.209,1.209,0,0,0-.976-.552c-.631,0-1.023.528-1.023,1.623,0,1.112.352,1.615.959,1.615A1.209,1.209,0,0,0,326.223,120.14Z"/><path d="M331.566,119.4H328.88c.072.976.528,1.351,1.135,1.351a1.775,1.775,0,0,0,1.1-.368l.32.44a2.3,2.3,0,0,1-1.472.528c-1.175,0-1.863-.824-1.863-2.159,0-1.311.664-2.247,1.752-2.247,1.135,0,1.735.792,1.735,2.079C331.583,119.164,331.574,119.3,331.566,119.4Zm-.711-.592c0-.823-.328-1.279-.992-1.279-.559,0-.927.392-.983,1.328h1.975Z"/><path d="M335.047,116.989l-.136.72a1.322,1.322,0,0,0-.368-.048c-.527,0-.832.376-1.007,1.183v2.407H332.8v-4.214h.632l.072.856a1.2,1.2,0,0,1,1.127-.952A1.849,1.849,0,0,1,335.047,116.989Z"/><line class="cls-5" x1="116" y1="183" x2="142" y2="212"/><rect class="cls-4" x="148" y="183" width="32" height="29"/><path d="M30.494,178.684c0,1.168-.9,1.567-2.182,1.567h-1.52v-5.509h1.3c1.359,0,2.158.432,2.158,1.391a1.228,1.228,0,0,1-1.031,1.208C29.862,177.453,30.494,177.748,30.494,178.684Zm-2.942-1.608h.831c.616,0,1.1-.3,1.1-.887,0-.679-.488-.847-1.3-.847h-.623Zm2.143,1.608c0-.776-.576-1.024-1.24-1.024h-.9v1.984h.76C29.111,179.644,29.7,179.483,29.7,178.684Z"/><path d="M33.863,175.989l-.136.72a1.322,1.322,0,0,0-.368-.048c-.527,0-.832.376-1.007,1.183v2.407h-.736v-4.214h.632l.072.856a1.2,1.2,0,0,1,1.127-.952A1.793,1.793,0,0,1,33.863,175.989Z"/><path d="M38.078,178.141c0,1.3-.688,2.206-1.879,2.206s-1.879-.864-1.879-2.2c0-1.3.688-2.207,1.887-2.207S38.078,176.805,38.078,178.141Zm-2.967.007c0,1.1.384,1.608,1.088,1.608s1.087-.512,1.087-1.615-.384-1.608-1.079-1.608S35.111,177.045,35.111,178.148Z"/><path d="M42.07,180.251l-.735-3.55-.76,3.55H39.6l-.984-4.214h.736l.76,3.7.831-3.7h.824l.791,3.7.768-3.7h.7l-.959,4.214Z"/><path d="M47.526,176.421l-.319.487a1.777,1.777,0,0,0-1.088-.383c-.479,0-.775.215-.775.551s.223.5.9.68c.888.224,1.4.576,1.4,1.311,0,.88-.807,1.28-1.663,1.28a2.337,2.337,0,0,1-1.591-.552l.408-.463a1.759,1.759,0,0,0,1.167.424c.552,0,.9-.248.9-.616,0-.441-.208-.6-1.023-.816-.912-.24-1.272-.632-1.272-1.231,0-.663.648-1.152,1.519-1.152A2.234,2.234,0,0,1,47.526,176.421Z"/><path d="M51.854,178.4H49.168c.072.975.528,1.351,1.135,1.351a1.775,1.775,0,0,0,1.1-.368l.32.44a2.3,2.3,0,0,1-1.471.528c-1.176,0-1.864-.824-1.864-2.159,0-1.311.664-2.247,1.752-2.247,1.135,0,1.735.791,1.735,2.079C51.871,178.164,51.862,178.3,51.854,178.4Zm-.711-.591c0-.825-.328-1.28-.992-1.28-.559,0-.927.392-.983,1.328h1.975Z"/><path d="M55.334,175.989l-.135.72a1.327,1.327,0,0,0-.368-.048c-.528,0-.832.376-1.008,1.183v2.407h-.735v-4.214h.631l.073.856a1.2,1.2,0,0,1,1.127-.952A1.778,1.778,0,0,1,55.334,175.989Z"/><circle class="cls-6" cx="41" cy="197" r="12"/><path d="M41,186a11,11,0,1,1-11,11,11.013,11.013,0,0,1,11-11m0-2a13,13,0,1,0,13,13,13,13,0,0,0-13-13Z"/><path class="cls-2" d="M38.3,199.2h2v-4.976L38.64,195.23l-.852-1.259,2.687-1.631h1.7V199.2h1.547v1.451H38.3Z"/><g class="cls-11"><path class="cls-8" d="M69.924,67.747a69.807,69.807,0,0,0-45.85,62.973V138"/><polygon class="cls-9" points="67.036 63.547 76.783 65.648 70.09 73.039 67.036 63.547"/></g><g class="cls-12"><path class="cls-3" d="M252.645,127.329A71.553,71.553,0,0,0,199,65.166"/><polygon class="cls-7" points="257.423 125.564 253 134.5 247.472 126.202 257.423 125.564"/></g><g class="cls-13"><path class="cls-3" d="M354.769,127.324A109.507,109.507,0,0,0,245.5,25H199"/><polygon class="cls-7" points="359.625 125.667 355 134.5 349.661 126.079 359.625 125.667"/></g></g></svg>