<svg xmlns="http://www.w3.org/2000/svg" viewBox="0 0 430 160"><defs><style>.cls-1,.cls-2,.cls-3{fill:#fff;}.cls-2{stroke:#000;stroke-width:2px;}.cls-2,.cls-3{stroke-miterlimit:10;}.cls-3{stroke:#006984;}.cls-4{fill:#0054a2;}.cls-5{fill:#b27000;}.cls-6{fill:#006984;}.cls-7{fill:#ca0022;}</style></defs><title>html-component-teaser</title><g id="Layer_2" data-name="Layer 2"><rect class="cls-1" x="229" y="28" width="128" height="48"/><path d="M356,29V75H230V29H356m2-2H228V77H358V27Z"/><line class="cls-2" x1="279" y1="33" x2="350" y2="33"/><line class="cls-3" x1="279" y1="69" x2="350" y2="69"/><circle class="cls-1" cx="252" cy="51" r="19"/><path d="M252,33a18,18,0,1,1-18,18,18.021,18.021,0,0,1,18-18m0-2a20,20,0,1,0,20,20,20,20,0,0,0-20-20Z"/><path class="cls-4" d="M283.922,47.129v1.9h-1.367V47.2a4.1,4.1,0,0,1-2.6-1.128l.971-1.055a2.81,2.81,0,0,0,1.991.8c.779,0,1.26-.371,1.26-.983,0-.588-.288-.839-1.451-1.2-1.787-.564-2.436-1.3-2.436-2.471a2.351,2.351,0,0,1,2.268-2.255V37.138h1.367v1.775a3.515,3.515,0,0,1,1.99.972l-.875,1.031a2.582,2.582,0,0,0-1.739-.671c-.659,0-1.079.276-1.079.779s.3.708,1.547,1.1c1.5.48,2.375,1.116,2.375,2.567A2.469,2.469,0,0,1,283.922,47.129Z"/><path class="cls-4" d="M289.094,39.057v2.231a1.418,1.418,0,0,1-1.247,1.619,1.39,1.39,0,0,1,1.247,1.6v2.231c0,.516.2.72.912.72v1.319c-2.159,0-2.687-.684-2.687-1.979V44.646c0-.7-.156-.971-.779-.971V42.127c.623,0,.779-.287.779-.983V39c0-1.307.528-1.978,2.687-1.978v1.318C289.286,38.337,289.094,38.542,289.094,39.057Z"/><path class="cls-4" d="M293.33,47.3c-1.4-.012-2.087-.8-2.087-2.3V42.043h-.9V40.724h.9V39.345l1.895-.216v1.595H294.6l-.2,1.319h-1.259V44.97c0,.612.2.827.6.827a1.267,1.267,0,0,0,.684-.215l.636,1.211A3.155,3.155,0,0,1,293.33,47.3Z"/><path class="cls-4" d="M297.758,38.445a1.122,1.122,0,1,1-1.128-1.079A1.073,1.073,0,0,1,297.758,38.445Zm-2.064,8.648V40.724h1.9v6.369Z"/><path class="cls-4" d="M301.346,47.3c-1.4-.012-2.087-.8-2.087-2.3V42.043h-.9V40.724h.9V39.345l1.894-.216v1.595h1.463l-.2,1.319h-1.26V44.97c0,.612.2.827.6.827a1.267,1.267,0,0,0,.684-.215l.635,1.211A3.15,3.15,0,0,1,301.346,47.3Z"/><path class="cls-4" d="M309.108,44.466h-3.946c.132,1.139.672,1.451,1.451,1.451a2.588,2.588,0,0,0,1.524-.563l.779,1.055a3.914,3.914,0,0,1-2.482.888c-2.123,0-3.2-1.368-3.2-3.359,0-1.906,1.043-3.417,2.975-3.417,1.823,0,2.939,1.2,2.939,3.262A6.354,6.354,0,0,1,309.108,44.466Zm-1.823-1.223c-.012-.864-.275-1.463-1.031-1.463-.636,0-1.008.408-1.092,1.547h2.123Z"/><path class="cls-4" d="M312.4,45.8a.9.9,0,0,0,.312-.06l.372,1.344a3.423,3.423,0,0,1-1.224.216,1.576,1.576,0,0,1-1.678-1.8v-7.3l1.894-.2v7.316C312.073,45.666,312.193,45.8,312.4,45.8Z"/><path class="cls-4" d="M316.045,39v2.147c0,.7.168.983.779.983v1.548c-.611,0-.779.276-.779.971v2.147c0,1.3-.516,1.979-2.675,1.979V47.453c.708,0,.9-.2.9-.72V44.5a1.4,1.4,0,0,1,1.259-1.6,1.418,1.418,0,0,1-1.247-1.619V39.057c0-.515-.192-.72-.912-.72V37.019C315.529,37.019,316.045,37.69,316.045,39Z"/><path d="M283.562,61.589v1.763H282.6V61.625a3.615,3.615,0,0,1-2.459-1.032l.647-.707a2.821,2.821,0,0,0,2.063.839c.948,0,1.727-.468,1.727-1.427,0-.779-.372-1.128-1.739-1.547-1.559-.48-2.374-1.08-2.374-2.315a2.159,2.159,0,0,1,2.135-2.075V51.61h.959v1.763a3.134,3.134,0,0,1,1.918.9l-.635.7a2.489,2.489,0,0,0-1.8-.719c-.8,0-1.44.372-1.44,1.139,0,.672.313,1,1.751,1.439,1.284.4,2.375.9,2.375,2.435A2.329,2.329,0,0,1,283.562,61.589Z"/><path d="M288.4,53.133V56a1.136,1.136,0,0,1-.9,1.307,1.11,1.11,0,0,1,.9,1.283v2.867c0,.6.336.815,1.14.815v.852c-1.619,0-2.183-.528-2.183-1.787V58.674c0-.659-.2-.911-.839-.911v-.912c.635,0,.839-.276.839-.935V53.253c0-1.259.564-1.787,2.183-1.787v.852C288.734,52.318,288.4,52.534,288.4,53.133Z"/><path d="M292.993,61.637a1.588,1.588,0,0,1-1.7-1.8V56.023h-1.1v-.851h1.1V53.745l1.1-.132v1.559h1.5l-.12.851h-1.379V59.79c0,.635.2.935.755.935a1.545,1.545,0,0,0,.84-.276l.42.756A2.411,2.411,0,0,1,292.993,61.637Z"/><path d="M300.18,58.71h-4.03c.108,1.463.791,2.027,1.7,2.027a2.664,2.664,0,0,0,1.642-.551l.48.659a3.442,3.442,0,0,1-2.206.792c-1.764,0-2.795-1.236-2.795-3.239,0-1.966,1-3.37,2.627-3.37,1.7,0,2.6,1.188,2.6,3.118C300.2,58.362,300.191,58.566,300.18,58.71Zm-1.068-.887c0-1.236-.491-1.919-1.487-1.919-.84,0-1.391.587-1.475,1.991h2.962Z"/><path d="M305.2,61.493l-1.547-2.675-1.571,2.675h-1.248l2.207-3.334-1.955-2.987h1.3l1.319,2.315,1.331-2.315h1.247l-1.942,2.938,2.194,3.383Z"/><path d="M309.505,61.637a1.588,1.588,0,0,1-1.7-1.8V56.023h-1.1v-.851h1.1V53.745l1.1-.132v1.559h1.5l-.119.851H308.9V59.79c0,.635.2.935.756.935a1.548,1.548,0,0,0,.84-.276l.42.756A2.411,2.411,0,0,1,309.505,61.637Z"/><path d="M313.646,53.253v2.663c0,.659.2.935.839.935v.912c-.635,0-.839.252-.839.911v2.663c0,1.259-.564,1.787-2.183,1.787v-.852c.8,0,1.139-.216,1.139-.815V58.59a1.11,1.11,0,0,1,.9-1.283A1.136,1.136,0,0,1,312.6,56V53.133c0-.6-.336-.815-1.139-.815v-.852C313.082,51.466,313.646,51.994,313.646,53.253Z"/></g><g id="Layer_1" data-name="Layer 1"><path d="M6.221,8.451v6.8H4.254v-6.8H2.107V6.939H8.464L8.271,8.451Z"/><path d="M14.381,12.625H10.435c.131,1.139.67,1.451,1.451,1.451a2.578,2.578,0,0,0,1.522-.564l.78,1.055a3.913,3.913,0,0,1-2.483.888c-2.122,0-3.2-1.368-3.2-3.358,0-1.907,1.043-3.418,2.974-3.418,1.823,0,2.938,1.2,2.938,3.262A6.634,6.634,0,0,1,14.381,12.625ZM12.557,11.4c-.012-.863-.276-1.463-1.032-1.463-.634,0-1.006.408-1.09,1.547h2.122Z"/><path d="M21.6,14.184l-.4,1.235a1.592,1.592,0,0,1-1.535-.923,2.145,2.145,0,0,1-1.919.959,1.924,1.924,0,0,1-2.074-1.991c0-1.391,1.054-2.147,2.986-2.147h.646v-.275c0-.756-.3-.984-1.079-.984a5.741,5.741,0,0,0-1.667.336l-.431-1.248a7.21,7.21,0,0,1,2.4-.467c1.848,0,2.639.779,2.639,2.255V13.4C21.172,13.9,21.3,14.076,21.6,14.184Zm-2.292-.7V12.36h-.466c-.864,0-1.284.3-1.284.936a.711.711,0,0,0,.744.8A1.131,1.131,0,0,0,19.312,13.488Z"/><path d="M27.869,9.458l-.7,1.08a2.8,2.8,0,0,0-1.511-.5c-.576,0-.828.192-.828.48,0,.336.168.479,1.308.815,1.258.36,1.966.888,1.966,2.027,0,1.319-1.247,2.1-2.831,2.1a3.961,3.961,0,0,1-2.662-.948l.936-1.043a2.664,2.664,0,0,0,1.667.636c.588,0,.935-.216.935-.588,0-.444-.192-.576-1.342-.9-1.26-.36-1.883-1.007-1.883-1.99,0-1.092.995-1.943,2.6-1.943A3.713,3.713,0,0,1,27.869,9.458Z"/><path d="M35.2,12.625H31.254c.132,1.139.672,1.451,1.451,1.451a2.585,2.585,0,0,0,1.524-.564l.779,1.055a3.915,3.915,0,0,1-2.483.888c-2.123,0-3.2-1.368-3.2-3.358,0-1.907,1.044-3.418,2.975-3.418,1.823,0,2.938,1.2,2.938,3.262A6.114,6.114,0,0,1,35.2,12.625ZM33.377,11.4c-.012-.863-.276-1.463-1.031-1.463-.637,0-1.008.408-1.092,1.547h2.123Z"/><path d="M41.021,8.787l-.3,1.835a2.3,2.3,0,0,0-.576-.084c-.791,0-1.116.587-1.319,1.559v3.154h-1.9V8.882h1.655l.156,1.236A1.8,1.8,0,0,1,40.385,8.7,2.151,2.151,0,0,1,41.021,8.787Z"/><path d="M51.279,14.184l-.4,1.235a1.592,1.592,0,0,1-1.535-.923,2.145,2.145,0,0,1-1.919.959,1.924,1.924,0,0,1-2.075-1.991c0-1.391,1.055-2.147,2.987-2.147h.646v-.275c0-.756-.3-.984-1.079-.984a5.741,5.741,0,0,0-1.667.336l-.431-1.248a7.21,7.21,0,0,1,2.4-.467c1.848,0,2.639.779,2.639,2.255V13.4C50.848,13.9,50.979,14.076,51.279,14.184Zm-2.291-.7V12.36h-.467c-.863,0-1.283.3-1.283.936a.711.711,0,0,0,.743.8A1.131,1.131,0,0,0,48.988,13.488Z"/><path d="M55.121,13.956a.907.907,0,0,0,.313-.06l.371,1.343a3.433,3.433,0,0,1-1.223.216,1.577,1.577,0,0,1-1.68-1.8v-7.3l1.895-.2v7.316C54.8,13.824,54.918,13.956,55.121,13.956Z"/><path d="M61.708,9.458l-.7,1.08a2.8,2.8,0,0,0-1.511-.5c-.575,0-.827.192-.827.48,0,.336.168.479,1.306.815,1.26.36,1.967.888,1.967,2.027,0,1.319-1.247,2.1-2.83,2.1a3.957,3.957,0,0,1-2.662-.948l.936-1.043a2.657,2.657,0,0,0,1.666.636c.588,0,.935-.216.935-.588,0-.444-.191-.576-1.343-.9-1.258-.36-1.882-1.007-1.882-1.99,0-1.092.995-1.943,2.6-1.943A3.71,3.71,0,0,1,61.708,9.458Z"/><path d="M67,15.251V6.939h1.967v8.312Zm6.957,0H71.68l-2.651-4.438,2.639-3.874h2.074l-2.65,3.73Z"/><path d="M80.8,12.073c0,2.039-1.176,3.382-3.118,3.382s-3.119-1.247-3.119-3.394c0-2.039,1.176-3.382,3.119-3.382S80.8,9.926,80.8,12.073Zm-4.27-.012c0,1.415.384,2,1.152,2s1.151-.611,1.151-1.99c0-1.415-.384-2-1.151-2S76.529,10.682,76.529,12.061Z"/><path d="M91.237,10.6v4.653H89.342v-4.33c0-.671-.251-.851-.539-.851-.408,0-.7.3-.972.827v4.354H85.937v-4.33c0-.671-.252-.851-.541-.851-.395,0-.7.3-.97.827v4.354h-1.9V8.882h1.656l.131.744a2.221,2.221,0,0,1,1.847-.947,1.513,1.513,0,0,1,1.5,1.007A2.234,2.234,0,0,1,89.57,8.679C90.554,8.679,91.237,9.386,91.237,10.6Z"/><path d="M99.242,12.049c0,1.967-.959,3.406-2.53,3.406a1.987,1.987,0,0,1-1.547-.66v2.914l-1.9.205V8.882h1.668l.095.708a2.3,2.3,0,0,1,1.8-.911C98.512,8.679,99.242,9.986,99.242,12.049Zm-1.967.024c0-1.583-.382-2-1.043-2a1.29,1.29,0,0,0-1.067.743V13.5a1.127,1.127,0,0,0,.972.563C96.844,14.063,97.275,13.5,97.275,12.073Z"/><path d="M106.91,12.073c0,2.039-1.176,3.382-3.118,3.382s-3.118-1.247-3.118-3.394c0-2.039,1.176-3.382,3.118-3.382S106.91,9.926,106.91,12.073Zm-4.269-.012c0,1.415.383,2,1.151,2s1.151-.611,1.151-1.99c0-1.415-.383-2-1.151-2S102.641,10.682,102.641,12.061Z"/><path d="M114.135,10.6v4.653h-1.9v-4.33c0-.671-.228-.851-.6-.851-.419,0-.768.3-1.1.827v4.354h-1.9V8.882H110.3l.132.756a2.422,2.422,0,0,1,1.942-.959A1.692,1.692,0,0,1,114.135,10.6Z"/><path d="M121.683,12.625h-3.947c.133,1.139.672,1.451,1.452,1.451a2.583,2.583,0,0,0,1.523-.564l.779,1.055a3.912,3.912,0,0,1-2.482.888c-2.123,0-3.2-1.368-3.2-3.358,0-1.907,1.044-3.418,2.974-3.418,1.824,0,2.939,1.2,2.939,3.262A6.361,6.361,0,0,1,121.683,12.625ZM119.859,11.4c-.011-.863-.275-1.463-1.031-1.463-.636,0-1.008.408-1.092,1.547h2.123Z"/><path d="M128.906,10.6v4.653h-1.894v-4.33c0-.671-.229-.851-.6-.851-.42,0-.767.3-1.1.827v4.354h-1.895V8.882h1.654l.133.756a2.421,2.421,0,0,1,1.943-.959A1.691,1.691,0,0,1,128.906,10.6Z"/><path d="M133.2,15.455c-1.4-.012-2.087-.8-2.087-2.3V10.2h-.9V8.882h.9V7.5l1.9-.216V8.882h1.464l-.205,1.32h-1.259v2.926c0,.612.205.828.6.828a1.256,1.256,0,0,0,.684-.216l.637,1.211A3.161,3.161,0,0,1,133.2,15.455Z"/><path d="M141.566,12.625h-3.945c.131,1.139.671,1.451,1.451,1.451a2.58,2.58,0,0,0,1.523-.564l.78,1.055a3.917,3.917,0,0,1-2.483.888c-2.122,0-3.2-1.368-3.2-3.358,0-1.907,1.043-3.418,2.975-3.418,1.822,0,2.938,1.2,2.938,3.262A6.361,6.361,0,0,1,141.566,12.625ZM139.743,11.4c-.012-.863-.276-1.463-1.031-1.463-.636,0-1.008.408-1.091,1.547h2.122Z"/><path class="cls-4" d="M8.38,37.927a3.383,3.383,0,0,1-1.739.468A1.913,1.913,0,0,1,4.482,36.44V32.77H3.043v-.839H4.482V30.5l1.1-.132v1.56h2.17l-.131.839H5.586v3.658c0,.708.336,1.055,1.175,1.055a2.343,2.343,0,0,0,1.2-.312Z"/><path class="cls-4" d="M11.25,35.469c.1,1.4.852,2.027,1.811,2.027a2.522,2.522,0,0,0,1.679-.588l.5.731a3.607,3.607,0,0,1-2.207.756c-1.883,0-2.938-1.332-2.938-3.3,0-1.907,1.079-3.31,2.758-3.31,1.655,0,2.651,1.187,2.651,3.118,0,.216-.012.42-.024.564Zm0-.816h3.19c-.024-1.307-.6-1.991-1.583-1.991C11.994,32.662,11.334,33.3,11.25,34.653Z"/><path class="cls-4" d="M22.18,36.824c0,.5.156.7.5.8l-.264.768a1.318,1.318,0,0,1-1.2-.888,2.457,2.457,0,0,1-1.991.888,1.9,1.9,0,0,1-2.087-1.955c0-1.307,1.091-2.039,3.01-2.039h.923v-.492c0-.887-.551-1.223-1.474-1.223a5.223,5.223,0,0,0-1.655.324l-.289-.816a6.1,6.1,0,0,1,2.112-.407c1.607,0,2.41.779,2.41,2.063Zm-1.1-.132V35.133h-.863c-1.356,0-1.859.492-1.859,1.259a1.037,1.037,0,0,0,1.175,1.175A1.869,1.869,0,0,0,21.076,36.692Z"/><path class="cls-4" d="M28.408,36.548c0-.612-.2-.84-1.511-1.175-1.247-.324-2.086-.732-2.086-1.835,0-1.068.97-1.751,2.447-1.751a3.7,3.7,0,0,1,2.194.671l-.492.744a2.754,2.754,0,0,0-1.679-.54c-.983,0-1.332.3-1.332.8,0,.527.385.719,1.619,1.067,1.212.336,2.028.708,2.028,1.931,0,1.379-1.32,1.931-2.7,1.931a3.838,3.838,0,0,1-2.567-.864l.612-.7a3.13,3.13,0,0,0,1.955.671C27.833,37.507,28.408,37.136,28.408,36.548Z"/><path class="cls-4" d="M32.85,35.469c.095,1.4.851,2.027,1.81,2.027a2.524,2.524,0,0,0,1.68-.588l.5.731a3.609,3.609,0,0,1-2.207.756c-1.883,0-2.939-1.332-2.939-3.3,0-1.907,1.079-3.31,2.759-3.31,1.654,0,2.65,1.187,2.65,3.118,0,.216-.011.42-.023.564Zm0-.816h3.19c-.024-1.307-.6-1.991-1.583-1.991C33.594,32.662,32.934,33.3,32.85,34.653Z"/><path class="cls-4" d="M43.42,38.251H39.1V37.4h1.451V32.782H39.1v-.851h2.411l.131,1.211a1.966,1.966,0,0,1,1.8-1.355,3.72,3.72,0,0,1,.84.1l-.2,1.092a2.627,2.627,0,0,0-.768-.108c-.791,0-1.439.8-1.655,1.679V37.4H43.42Z"/><path class="cls-4" d="M53.622,33.837V32.9h4.749v.935Zm0,2.3v-.935h4.749v.935Z"/><path class="cls-4" d="M71.476,30.6l-2.507-1.007.564-.936,2.279,1.356Z"/><path class="cls-4" d="M7.648,45.5l.528.828L3.979,48.9l4.2,2.579-.575.8-4.57-2.854V48.357Z"/><path class="cls-5" d="M14.129,46.918V43.656l1.1.132v8.863H14.26l-.1-.816a2.114,2.114,0,0,1-1.787.96c-1.643,0-2.4-1.332-2.4-3.3,0-1.907.923-3.31,2.482-3.31A2.094,2.094,0,0,1,14.129,46.918ZM11.166,49.5c0,1.631.516,2.422,1.463,2.422a1.846,1.846,0,0,0,1.5-.971V47.841a1.653,1.653,0,0,0-1.38-.779C11.742,47.062,11.166,47.854,11.166,49.5Z"/><path class="cls-5" d="M20.837,51.8H22.6v.852H17.8V51.8h1.93V47.182h-1.87v-.851h2.974Zm-.552-6.968a.75.75,0,1,1,.779-.755A.743.743,0,0,1,20.285,44.831Z"/><path class="cls-5" d="M27.833,52.651H26.549l-2.266-6.32h1.175l1.739,5.3h.035l1.741-5.3h1.138Z"/><path class="cls-5" d="M43.648,51.32l.528.755a3.568,3.568,0,0,1-2.159.72c-1.908,0-3-1.3-3-3.274,0-1.907,1.1-3.334,3.01-3.334a3.264,3.264,0,0,1,2.147.707l-.54.744a2.62,2.62,0,0,0-1.607-.54c-1.068,0-1.823.779-1.823,2.423s.768,2.338,1.823,2.338A2.7,2.7,0,0,0,43.648,51.32Z"/><path class="cls-5" d="M51.147,52.459a3.592,3.592,0,0,1-1.535.336,1.746,1.746,0,0,1-1.919-1.847V44.639H45.762v-.851H48.8v7.256c0,.611.42.839,1.019.839a2.949,2.949,0,0,0,1.043-.216Z"/><path class="cls-5" d="M58.18,51.224c0,.5.156.7.5.8l-.264.768a1.317,1.317,0,0,1-1.2-.888,2.46,2.46,0,0,1-1.992.888,1.9,1.9,0,0,1-2.086-1.955c0-1.307,1.091-2.039,3.009-2.039h.924v-.492c0-.887-.552-1.223-1.474-1.223a5.234,5.234,0,0,0-1.656.324l-.288-.816a6.1,6.1,0,0,1,2.112-.407c1.606,0,2.41.779,2.41,2.063Zm-1.1-.132V49.533h-.863c-1.356,0-1.859.491-1.859,1.259a1.037,1.037,0,0,0,1.175,1.175A1.869,1.869,0,0,0,57.076,51.092Z"/><path class="cls-5" d="M64.408,50.948c0-.612-.2-.84-1.512-1.176-1.247-.323-2.085-.731-2.085-1.834,0-1.068.97-1.751,2.446-1.751a3.7,3.7,0,0,1,2.194.671l-.492.744a2.749,2.749,0,0,0-1.678-.54c-.984,0-1.332.3-1.332.8,0,.527.384.719,1.619,1.067,1.211.336,2.028.708,2.028,1.931,0,1.379-1.321,1.931-2.7,1.931a3.833,3.833,0,0,1-2.566-.864l.611-.7a3.133,3.133,0,0,0,1.955.671C63.832,51.907,64.408,51.536,64.408,50.948Z"/><path class="cls-5" d="M71.607,50.948c0-.612-.2-.84-1.51-1.176-1.247-.323-2.087-.731-2.087-1.834,0-1.068.97-1.751,2.447-1.751a3.7,3.7,0,0,1,2.194.671l-.492.744a2.754,2.754,0,0,0-1.679-.54c-.983,0-1.332.3-1.332.8,0,.527.385.719,1.62,1.067,1.211.336,2.027.708,2.027,1.931,0,1.379-1.319,1.931-2.7,1.931a3.841,3.841,0,0,1-2.568-.864l.613-.7a3.128,3.128,0,0,0,1.955.671C71.032,51.907,71.607,51.536,71.607,50.948Z"/><path class="cls-5" d="M75.222,48.237V47.3h4.749v.935Zm0,2.3V49.6h4.749v.936Z"/><path class="cls-6" d="M83.309,46.93l-.192-3.142h1.32l-.193,3.142Zm2.039,0-.192-3.142h1.32l-.193,3.142Z"/><path class="cls-6" d="M94.779,52.327a3.383,3.383,0,0,1-1.739.468,1.913,1.913,0,0,1-2.159-1.955V47.17h-1.44v-.839h1.44V44.9l1.1-.132v1.56h2.171l-.132.839H91.984v3.658c0,.708.336,1.055,1.176,1.055a2.342,2.342,0,0,0,1.2-.312Z"/><path class="cls-6" d="M97.648,49.868c.1,1.4.852,2.028,1.812,2.028a2.529,2.529,0,0,0,1.679-.588l.5.731a3.607,3.607,0,0,1-2.207.756c-1.883,0-2.938-1.332-2.938-3.3,0-1.907,1.079-3.31,2.758-3.31,1.655,0,2.65,1.187,2.65,3.118,0,.216-.011.42-.023.563Zm0-.815h3.192c-.025-1.307-.6-1.991-1.584-1.991C98.393,47.062,97.732,47.7,97.648,49.053Z"/><path class="cls-6" d="M108.578,51.224c0,.5.156.7.5.8l-.264.768a1.32,1.32,0,0,1-1.2-.888,2.455,2.455,0,0,1-1.99.888,1.9,1.9,0,0,1-2.088-1.955c0-1.307,1.092-2.039,3.011-2.039h.923v-.492c0-.887-.551-1.223-1.475-1.223a5.213,5.213,0,0,0-1.654.324l-.289-.816a6.1,6.1,0,0,1,2.111-.407c1.607,0,2.41.779,2.41,2.063Zm-1.1-.132V49.533h-.864c-1.355,0-1.858.491-1.858,1.259a1.037,1.037,0,0,0,1.175,1.175A1.871,1.871,0,0,0,107.475,51.092Z"/><path class="cls-6" d="M114.808,50.948c0-.612-.2-.84-1.511-1.176-1.248-.323-2.088-.731-2.088-1.834,0-1.068.972-1.751,2.447-1.751a3.7,3.7,0,0,1,2.195.671l-.492.744a2.754,2.754,0,0,0-1.679-.54c-.983,0-1.331.3-1.331.8,0,.527.383.719,1.619,1.067,1.212.336,2.026.708,2.026,1.931,0,1.379-1.318,1.931-2.7,1.931a3.837,3.837,0,0,1-2.568-.864l.613-.7a3.126,3.126,0,0,0,1.955.671C114.232,51.907,114.808,51.536,114.808,50.948Z"/><path class="cls-6" d="M119.248,49.868c.1,1.4.852,2.028,1.812,2.028a2.526,2.526,0,0,0,1.678-.588l.5.731a3.6,3.6,0,0,1-2.207.756c-1.883,0-2.937-1.332-2.937-3.3,0-1.907,1.079-3.31,2.757-3.31,1.656,0,2.651,1.187,2.651,3.118,0,.216-.012.42-.024.563Zm0-.815h3.191c-.024-1.307-.6-1.991-1.584-1.991C119.992,47.062,119.332,47.7,119.248,49.053Z"/><path class="cls-6" d="M129.818,52.651H125.5V51.8h1.451V47.182H125.5v-.851h2.411l.131,1.211a1.967,1.967,0,0,1,1.8-1.355,3.669,3.669,0,0,1,.84.095l-.2,1.092a2.631,2.631,0,0,0-.768-.108c-.792,0-1.44.8-1.655,1.679V51.8h1.762Z"/><path class="cls-6" d="M133.709,46.93l-.192-3.142h1.319l-.191,3.142Zm2.039,0-.192-3.142h1.319l-.192,3.142Z"/><path class="cls-4" d="M144.975,48.357v1.068L140.4,52.279l-.576-.8,4.2-2.579-4.2-2.566.528-.828Z"/><path class="cls-4" d="M22.049,59.9l.527.827-4.2,2.567,4.2,2.578-.576.8-4.569-2.854V62.757Z"/><path class="cls-5" d="M28.037,66.2H29.8v.852H25V66.2h1.932V61.582H25.062V60.73h2.975Zm-.553-6.968a.75.75,0,1,1,0-1.5.75.75,0,1,1,0,1.5Z"/><path class="cls-5" d="M32.382,67.051H31.375V60.73h.852l.071.72a1.653,1.653,0,0,1,1.367-.864,1.038,1.038,0,0,1,1.128.828,1.64,1.64,0,0,1,1.391-.828c.635,0,1.235.324,1.235,1.764v4.7H36.412V62.517c0-.755-.012-1.067-.469-1.067a1.292,1.292,0,0,0-1.054.719v4.882h-.984V62.517c0-.755-.024-1.067-.479-1.067a1.277,1.277,0,0,0-1.044.719Z"/><path class="cls-5" d="M39.689,67.351a1.2,1.2,0,0,0-.107.491c0,.564.54.9,1.8.9,1.4,0,1.823-.432,1.823-.971s-.348-.8-1.511-.852c-1.584-.06-2.447-.408-2.447-1.283a1.312,1.312,0,0,1,.636-1.068,1.976,1.976,0,0,1-1.007-1.763,2.277,2.277,0,0,1,2.518-2.219,6.6,6.6,0,0,0,2.9-.564l.324,1a5.925,5.925,0,0,1-1.775.192v.036a1.685,1.685,0,0,1,1.008,1.571,2.183,2.183,0,0,1-2.435,2.135,3.51,3.51,0,0,1-.876-.108.727.727,0,0,0-.264.492c0,.384.241.576,1.56.611,1.595.048,2.482.612,2.482,1.763,0,1.32-1.319,1.9-2.938,1.9-1.99,0-2.782-.647-2.782-1.559a1.621,1.621,0,0,1,.239-.923Zm1.7-3.131a1.3,1.3,0,0,0,1.367-1.427,1.258,1.258,0,0,0-1.367-1.415,1.421,1.421,0,0,0,0,2.842Z"/><path class="cls-5" d="M57.209,65.348c0-.612-.205-.84-1.512-1.176-1.248-.323-2.087-.731-2.087-1.835,0-1.067.972-1.751,2.447-1.751a3.7,3.7,0,0,1,2.2.672L57.76,62a2.76,2.76,0,0,0-1.679-.539c-.983,0-1.331.3-1.331.8,0,.527.383.719,1.619,1.067,1.211.335,2.027.708,2.027,1.931,0,1.379-1.32,1.931-2.7,1.931a3.829,3.829,0,0,1-2.566-.864l.611-.7a3.134,3.134,0,0,0,1.955.671C56.633,66.307,57.209,65.936,57.209,65.348Z"/><path class="cls-5" d="M65.02,67.051H60.7V66.2h1.451V61.582H60.7V60.73h2.411l.131,1.211a1.968,1.968,0,0,1,1.8-1.355,3.674,3.674,0,0,1,.84.1l-.2,1.091a2.662,2.662,0,0,0-.768-.107c-.792,0-1.439.8-1.655,1.679V66.2H65.02Z"/><path class="cls-5" d="M72.447,65.72l.528.755a3.568,3.568,0,0,1-2.159.72c-1.907,0-3-1.3-3-3.275,0-1.906,1.1-3.334,3.01-3.334a3.262,3.262,0,0,1,2.147.708l-.539.744a2.621,2.621,0,0,0-1.608-.54c-1.067,0-1.823.779-1.823,2.422s.767,2.339,1.823,2.339A2.7,2.7,0,0,0,72.447,65.72Z"/><path class="cls-5" d="M75.222,62.637V61.7h4.749v.935Zm0,2.3V64h4.749v.936Z"/><path class="cls-6" d="M83.309,61.33l-.192-3.142h1.32l-.193,3.142Zm2.039,0-.192-3.142h1.32l-.193,3.142Z"/><path class="cls-7" d="M91.721,67.183a3.965,3.965,0,0,1-2.532-1.128l.637-.707a2.944,2.944,0,0,0,1.9.923V63.045c-1.44-.48-2.219-1.188-2.219-2.3a2.174,2.174,0,0,1,2.219-2.075v-1.8h.828v1.8a3.882,3.882,0,0,1,2.219.96l-.649.671a2.786,2.786,0,0,0-1.57-.743v2.662c1.246.408,2.326,1.08,2.326,2.543a2.412,2.412,0,0,1-2.326,2.386V68.9h-.828Zm0-5.242V59.579a1.132,1.132,0,0,0-1.08,1.127C90.641,61.246,90.869,61.594,91.721,61.941Zm.828,1.392v2.89A1.313,1.313,0,0,0,93.711,64.8C93.711,64.148,93.424,63.705,92.549,63.333Z"/><path class="cls-7" d="M97.35,62.409c.827,0,1.2-.419,1.2-1.247V58.931c0-1.5,1.043-1.907,2.482-1.907v.852c-.863,0-1.439.216-1.439.936V61.2a1.419,1.419,0,0,1-1.26,1.631v.048c.78.132,1.26.564,1.26,1.631V66.9c0,.731.576.936,1.439.936v.851c-1.439,0-2.482-.408-2.482-1.907V64.556c0-.827-.372-1.259-1.2-1.259Z"/><path d="M107.235,66.2H109v.852h-4.8V66.2h1.931V61.582h-1.87V60.73h2.973Zm-.551-6.968a.75.75,0,1,1,.779-.755A.743.743,0,0,1,106.684,59.231Z"/><path d="M111.581,67.051h-1.007V60.73h.852l.071.72a1.654,1.654,0,0,1,1.367-.864,1.038,1.038,0,0,1,1.128.828,1.64,1.64,0,0,1,1.391-.828c.636,0,1.235.324,1.235,1.764v4.7h-1.007V62.517c0-.755-.011-1.067-.468-1.067a1.293,1.293,0,0,0-1.055.719v4.882H113.1V62.517c0-.755-.024-1.067-.479-1.067a1.278,1.278,0,0,0-1.044.719Z"/><path d="M118.889,67.351a1.183,1.183,0,0,0-.108.491c0,.564.539.9,1.8.9,1.4,0,1.822-.432,1.822-.971s-.347-.8-1.51-.852c-1.583-.06-2.447-.408-2.447-1.283a1.311,1.311,0,0,1,.635-1.068,1.978,1.978,0,0,1-1.007-1.763,2.278,2.278,0,0,1,2.519-2.219,6.6,6.6,0,0,0,2.9-.564l.324,1a5.925,5.925,0,0,1-1.775.192v.036a1.685,1.685,0,0,1,1.008,1.571,2.183,2.183,0,0,1-2.436,2.135,3.5,3.5,0,0,1-.875-.108.722.722,0,0,0-.263.492c0,.384.24.576,1.558.611,1.6.048,2.483.612,2.483,1.763,0,1.32-1.319,1.9-2.938,1.9-1.991,0-2.783-.647-2.783-1.559a1.623,1.623,0,0,1,.24-.923Zm1.7-3.131a1.3,1.3,0,0,0,1.367-1.427,1.259,1.259,0,0,0-1.367-1.415,1.421,1.421,0,0,0,0,2.842Z"/><path class="cls-7" d="M129.842,63.3c-.826,0-1.2.432-1.2,1.259v2.219c0,1.5-1.043,1.907-2.483,1.907v-.851c.863,0,1.44-.2,1.44-.936V64.508c0-1.067.48-1.5,1.259-1.631v-.048A1.419,1.419,0,0,1,127.6,61.2V58.812c0-.72-.577-.936-1.44-.936v-.852c1.44,0,2.483.408,2.483,1.907v2.231c0,.828.373,1.247,1.2,1.247Z"/><path class="cls-6" d="M133.709,61.33l-.192-3.142h1.319l-.191,3.142Zm2.039,0-.192-3.142h1.319l-.192,3.142Z"/><path class="cls-4" d="M140.285,68.3l-.889-.4,5.122-10.566.876.42Z"/><path class="cls-4" d="M152.174,62.757v1.068l-4.57,2.854-.576-.8,4.2-2.578-4.2-2.567.529-.827Z"/><path class="cls-4" d="M22.049,74.3l.527.828-4.2,2.566,4.2,2.579-.576.8-4.569-2.855V77.158Z"/><path class="cls-5" d="M24.763,81.451V72.6l1.1-.12v3.454a2.659,2.659,0,0,1,2-.947c1.223,0,1.775.7,1.775,1.871v4.593h-1.1V76.93c0-.756-.324-1.08-1.044-1.08a2.165,2.165,0,0,0-1.632,1.02v4.581Z"/><path class="cls-5" d="M34.361,74.4l-1.979,1.2-.528-.768,2.638-1.643h.973v7.375h1.69v.888H32.334v-.888h2.027Z"/><path class="cls-4" d="M44.176,77.158v1.067L39.6,81.08l-.575-.8,4.2-2.579-4.2-2.566.529-.828Z"/><path class="cls-7" d="M48.521,81.583a3.965,3.965,0,0,1-2.531-1.127l.636-.708a2.94,2.94,0,0,0,1.9.923V77.445c-1.439-.479-2.218-1.187-2.218-2.3a2.172,2.172,0,0,1,2.218-2.075v-1.8h.828v1.8a3.875,3.875,0,0,1,2.218.959l-.647.672a2.787,2.787,0,0,0-1.571-.744v2.663c1.247.407,2.327,1.079,2.327,2.543a2.414,2.414,0,0,1-2.327,2.386V83.3h-.828Zm0-5.241V73.979a1.132,1.132,0,0,0-1.08,1.127C47.441,75.646,47.67,75.994,48.521,76.342Zm.828,1.391v2.891A1.314,1.314,0,0,0,50.512,79.2C50.512,78.549,50.225,78.105,49.349,77.733Z"/><path class="cls-7" d="M54.15,76.81c.828,0,1.2-.42,1.2-1.248v-2.23c0-1.5,1.043-1.907,2.482-1.907v.851c-.863,0-1.439.216-1.439.936V75.6a1.418,1.418,0,0,1-1.26,1.63v.048c.78.132,1.26.564,1.26,1.632V81.3c0,.732.576.936,1.439.936v.851c-1.439,0-2.482-.408-2.482-1.907V78.957c0-.828-.372-1.26-1.2-1.26Z"/><path d="M65.979,81.127a3.386,3.386,0,0,1-1.739.468,1.913,1.913,0,0,1-2.159-1.955V75.97H60.643v-.839h1.438V73.7l1.1-.133v1.56h2.17l-.131.839H63.185v3.658c0,.708.336,1.056,1.174,1.056a2.356,2.356,0,0,0,1.2-.312Z"/><path d="M71.236,80.6H73v.851H68.2V80.6h1.932V75.982H68.262v-.851h2.974Zm-.552-6.969a.75.75,0,1,1,.78-.755A.743.743,0,0,1,70.684,73.631Z"/><path d="M80.379,81.127a3.379,3.379,0,0,1-1.738.468A1.913,1.913,0,0,1,76.48,79.64V75.97H75.042v-.839H76.48V73.7l1.1-.133v1.56h2.172l-.133.839H77.584v3.658c0,.708.336,1.056,1.176,1.056a2.349,2.349,0,0,0,1.2-.312Z"/><path d="M83.249,78.669c.1,1.4.852,2.027,1.812,2.027a2.523,2.523,0,0,0,1.678-.588l.5.731a3.607,3.607,0,0,1-2.207.756c-1.883,0-2.938-1.331-2.938-3.3,0-1.907,1.08-3.31,2.758-3.31,1.656,0,2.651,1.187,2.651,3.118,0,.216-.013.42-.025.564Zm0-.816h3.19c-.023-1.307-.6-1.991-1.583-1.991C83.992,75.862,83.333,76.5,83.249,77.853Z"/><path d="M94.348,81.259a3.6,3.6,0,0,1-1.536.336,1.745,1.745,0,0,1-1.919-1.847V73.439H88.962v-.851H92v7.256c0,.612.42.84,1.02.84a2.954,2.954,0,0,0,1.044-.216Z"/><path class="cls-7" d="M101.043,77.7c-.827,0-1.2.432-1.2,1.26v2.218c0,1.5-1.043,1.907-2.483,1.907v-.851c.864,0,1.44-.2,1.44-.936V78.909c0-1.068.479-1.5,1.259-1.632v-.048A1.417,1.417,0,0,1,98.8,75.6V73.212c0-.72-.576-.936-1.44-.936v-.851c1.44,0,2.483.408,2.483,1.907v2.23c0,.828.372,1.248,1.2,1.248Z"/><path class="cls-4" d="M108.447,74.3l.528.828-4.2,2.566,4.2,2.579-.577.8-4.569-2.855V77.158Z"/><path class="cls-4" d="M111.485,82.7,110.6,82.3l5.121-10.567.875.42Z"/><path class="cls-5" d="M118.361,81.451V72.6l1.1-.12v3.454a2.657,2.657,0,0,1,2-.947c1.224,0,1.775.7,1.775,1.871v4.593h-1.1V76.93c0-.756-.324-1.08-1.043-1.08a2.163,2.163,0,0,0-1.631,1.02v4.581Z"/><path class="cls-5" d="M127.959,74.4l-1.979,1.2-.527-.768,2.639-1.643h.97v7.375h1.692v.888h-4.821v-.888h2.026Z"/><path class="cls-4" d="M137.774,77.158v1.067l-4.569,2.855-.576-.8,4.2-2.579-4.2-2.566.527-.828Z"/><path class="cls-4" d="M22.049,88.7l.527.828-4.2,2.566,4.2,2.579-.576.8-4.569-2.854V91.558Z"/><path class="cls-5" d="M24.763,98.406V89.531h.947l.084.863a2.3,2.3,0,0,1,1.871-1.007c1.679,0,2.29,1.307,2.29,3.3,0,1.919-.8,3.31-2.434,3.31a2.042,2.042,0,0,1-1.656-.72v3Zm4.017-5.721c0-1.643-.444-2.423-1.391-2.423a1.925,1.925,0,0,0-1.524.984v3.082a1.63,1.63,0,0,0,1.393.768C28.265,95.1,28.78,94.34,28.78,92.685Z"/><path class="cls-4" d="M36.976,91.558v1.067l-4.57,2.854-.576-.8,4.2-2.579-4.2-2.566.527-.828Z"/><path class="cls-7" d="M41.321,95.983a3.96,3.96,0,0,1-2.53-1.128l.635-.707a2.94,2.94,0,0,0,1.895.923V91.845c-1.439-.479-2.218-1.187-2.218-2.3a2.172,2.172,0,0,1,2.218-2.074v-1.8h.827v1.8a3.872,3.872,0,0,1,2.219.959l-.647.672a2.787,2.787,0,0,0-1.572-.744v2.663c1.248.407,2.328,1.079,2.328,2.543a2.414,2.414,0,0,1-2.328,2.386V97.7h-.827Zm0-5.241V88.379a1.131,1.131,0,0,0-1.079,1.127C40.242,90.046,40.47,90.394,41.321,90.742Zm.827,1.391v2.89A1.313,1.313,0,0,0,43.312,93.6C43.312,92.949,43.024,92.505,42.148,92.133Z"/><path class="cls-7" d="M46.949,91.209c.828,0,1.2-.419,1.2-1.247V87.731c0-1.5,1.044-1.906,2.484-1.906v.851c-.864,0-1.44.216-1.44.936V90a1.418,1.418,0,0,1-1.258,1.631v.048c.779.132,1.258.564,1.258,1.632V95.7c0,.732.576.936,1.44.936v.851c-1.44,0-2.484-.408-2.484-1.907V93.356c0-.827-.371-1.259-1.2-1.259Z"/><path d="M58.779,95.527A3.379,3.379,0,0,1,57.041,96a1.913,1.913,0,0,1-2.16-1.955V90.37H53.442v-.839h1.439V88.1l1.1-.133v1.56h2.172l-.133.839H55.984v3.658c0,.708.336,1.055,1.176,1.055a2.339,2.339,0,0,0,1.2-.312Z"/><path d="M61.649,93.068c.1,1.4.852,2.028,1.812,2.028a2.525,2.525,0,0,0,1.679-.588l.5.731A3.609,3.609,0,0,1,63.437,96c-1.883,0-2.939-1.331-2.939-3.3,0-1.907,1.08-3.31,2.759-3.31,1.655,0,2.65,1.187,2.65,3.118,0,.216-.012.42-.024.563Zm0-.815H64.84c-.024-1.307-.6-1.991-1.583-1.991C62.393,90.262,61.733,90.9,61.649,92.253Z"/><path d="M70.336,93.212,68.67,95.851H67.422l2.314-3.334L67.7,89.531h1.3l1.392,2.278h.047l1.4-2.278h1.247l-2.026,2.938,2.314,3.382H72.039l-1.654-2.639Z"/><path d="M80.379,95.527A3.379,3.379,0,0,1,78.641,96,1.914,1.914,0,0,1,76.48,94.04V90.37H75.042v-.839H76.48V88.1l1.1-.133v1.56h2.172l-.133.839H77.584v3.658c0,.708.336,1.055,1.176,1.055a2.339,2.339,0,0,0,1.2-.312Z"/><path class="cls-7" d="M86.643,92.1c-.827,0-1.2.432-1.2,1.259v2.219c0,1.5-1.043,1.907-2.482,1.907v-.851c.863,0,1.439-.2,1.439-.936V93.309c0-1.068.481-1.5,1.26-1.632v-.048A1.419,1.419,0,0,1,84.4,90V87.612c0-.72-.576-.936-1.439-.936v-.851c1.439,0,2.482.407,2.482,1.906v2.231c0,.828.373,1.247,1.2,1.247Z"/><path class="cls-4" d="M94.047,88.7l.528.828-4.2,2.566,4.2,2.579-.575.8-4.57-2.854V91.558Z"/><path class="cls-4" d="M97.086,97.1l-.889-.4,5.121-10.567.876.42Z"/><path class="cls-5" d="M103.961,98.406V89.531h.947l.084.863a2.3,2.3,0,0,1,1.871-1.007c1.68,0,2.291,1.307,2.291,3.3,0,1.919-.8,3.31-2.434,3.31a2.042,2.042,0,0,1-1.656-.72v3Zm4.018-5.721c0-1.643-.444-2.423-1.391-2.423a1.925,1.925,0,0,0-1.524.984v3.082a1.631,1.631,0,0,0,1.392.768C107.463,95.1,107.979,94.34,107.979,92.685Z"/><path class="cls-4" d="M116.175,91.558v1.067l-4.57,2.854-.576-.8,4.2-2.579-4.2-2.566.528-.828Z"/><path class="cls-4" d="M7.648,103.1l.528.828-4.2,2.566,4.2,2.579-.575.8-4.57-2.854v-1.067Z"/><path class="cls-4" d="M10.687,111.5l-.888-.4,5.121-10.567.875.42Z"/><path class="cls-5" d="M21.328,104.518v-3.262l1.1.132v8.863h-.971l-.1-.815a2.118,2.118,0,0,1-1.787.959c-1.643,0-2.4-1.332-2.4-3.3,0-1.907.923-3.31,2.482-3.31A2.093,2.093,0,0,1,21.328,104.518ZM18.366,107.1c0,1.631.516,2.423,1.464,2.423a1.845,1.845,0,0,0,1.5-.972v-3.107a1.649,1.649,0,0,0-1.379-.779C18.941,104.662,18.366,105.454,18.366,107.1Z"/><path class="cls-5" d="M28.037,109.4H29.8v.852H25V109.4h1.932v-4.617H25.062v-.851h2.975Zm-.553-6.968a.75.75,0,1,1,0-1.5.75.75,0,1,1,0,1.5Z"/><path class="cls-5" d="M35.033,110.251H33.749l-2.267-6.32h1.176l1.738,5.3h.037l1.739-5.3h1.139Z"/><path class="cls-4" d="M44.176,105.958v1.067L39.6,109.879l-.575-.8,4.2-2.579-4.2-2.566.529-.828Z"/><path class="cls-4" d="M49.876,102.6l-2.507-1.007.565-.936,2.278,1.356Z"/><path d="M302.206,13.684c0,1.167-.9,1.567-2.183,1.567H298.5V9.742h1.3c1.358,0,2.159.432,2.159,1.391a1.228,1.228,0,0,1-1.032,1.208C301.574,12.453,302.206,12.749,302.206,13.684Zm-2.942-1.607h.832c.615,0,1.094-.3,1.094-.888,0-.679-.487-.847-1.3-.847h-.623Zm2.142,1.607c0-.776-.575-1.024-1.239-1.024h-.9v1.984h.759C300.822,14.644,301.406,14.483,301.406,13.684Z"/><path d="M305.574,10.989l-.135.72a1.325,1.325,0,0,0-.369-.048c-.527,0-.831.376-1.007,1.183v2.407h-.735V11.037h.631l.072.856a1.2,1.2,0,0,1,1.128-.952A1.834,1.834,0,0,1,305.574,10.989Z"/><path d="M309.79,13.14c0,1.3-.688,2.207-1.879,2.207s-1.88-.864-1.88-2.2c0-1.3.689-2.207,1.888-2.207S309.79,11.805,309.79,13.14Zm-2.967.008c0,1.1.384,1.607,1.088,1.607S309,14.244,309,13.14s-.384-1.607-1.079-1.607S306.823,12.045,306.823,13.148Z"/><path d="M313.782,15.251l-.735-3.55-.76,3.55h-.975l-.984-4.214h.736l.76,3.7.831-3.7h.824l.791,3.7.767-3.7h.7l-.96,4.214Z"/><path d="M319.238,11.421l-.32.488a1.767,1.767,0,0,0-1.087-.384c-.479,0-.775.216-.775.552s.223.5.9.679c.888.224,1.4.576,1.4,1.311,0,.88-.807,1.28-1.663,1.28A2.339,2.339,0,0,1,316.1,14.8l.408-.463a1.759,1.759,0,0,0,1.168.423c.55,0,.9-.248.9-.615,0-.44-.208-.6-1.023-.816-.912-.24-1.272-.632-1.272-1.231,0-.664.648-1.152,1.519-1.152A2.236,2.236,0,0,1,319.238,11.421Z"/><path d="M323.566,13.4H320.88c.072.976.528,1.351,1.136,1.351a1.772,1.772,0,0,0,1.095-.368l.32.44a2.3,2.3,0,0,1-1.472.528c-1.175,0-1.863-.824-1.863-2.159,0-1.311.664-2.247,1.752-2.247,1.134,0,1.734.792,1.734,2.079C323.582,13.164,323.574,13.3,323.566,13.4Zm-.711-.592c0-.823-.328-1.279-.992-1.279-.559,0-.927.392-.983,1.328h1.975Z"/><path d="M327.047,10.989l-.137.72a1.315,1.315,0,0,0-.367-.048c-.527,0-.832.376-1.008,1.183v2.407H324.8V11.037h.632l.072.856a1.2,1.2,0,0,1,1.127-.952A1.856,1.856,0,0,1,327.047,10.989Z"/><path d="M235.412,11.053c0,3.346-2.016,4.2-4.139,4.2h-2.494V6.939h2.315C233.312,6.939,235.412,7.623,235.412,11.053Zm-4.666,2.771h.648c1.187,0,1.979-.564,1.979-2.771,0-2.231-.852-2.686-2-2.686h-.623Z"/><path d="M241.928,14.184l-.4,1.235A1.592,1.592,0,0,1,240,14.5a2.145,2.145,0,0,1-1.919.959A1.924,1.924,0,0,1,236,13.464c0-1.391,1.055-2.147,2.986-2.147h.647v-.275c0-.756-.3-.984-1.079-.984a5.729,5.729,0,0,0-1.667.336l-.432-1.248a7.22,7.22,0,0,1,2.4-.467c1.848,0,2.639.779,2.639,2.255V13.4C241.5,13.9,241.628,14.076,241.928,14.184Zm-2.291-.7V12.36h-.467c-.863,0-1.283.3-1.283.936a.711.711,0,0,0,.743.8A1.134,1.134,0,0,0,239.637,13.488Z"/><path d="M247.1,8.787l-.3,1.835a2.3,2.3,0,0,0-.576-.084c-.791,0-1.116.587-1.319,1.559v3.154h-1.9V8.882h1.655l.156,1.236A1.8,1.8,0,0,1,246.465,8.7,2.151,2.151,0,0,1,247.1,8.787Z"/><path d="M252.284,9.458l-.7,1.08a2.8,2.8,0,0,0-1.511-.5c-.575,0-.827.192-.827.48,0,.336.168.479,1.307.815,1.259.36,1.966.888,1.966,2.027,0,1.319-1.247,2.1-2.83,2.1a3.957,3.957,0,0,1-2.662-.948l.936-1.043a2.659,2.659,0,0,0,1.666.636c.588,0,.935-.216.935-.588,0-.444-.191-.576-1.342-.9-1.259-.36-1.883-1.007-1.883-1.99,0-1.092,1-1.943,2.6-1.943A3.71,3.71,0,0,1,252.284,9.458Z"/><path d="M255.766,15.455c-1.405-.012-2.088-.8-2.088-2.3V10.2h-.9V8.882h.9V7.5l1.9-.216V8.882h1.464l-.2,1.32h-1.259v2.926c0,.612.2.828.6.828a1.255,1.255,0,0,0,.683-.216l.636,1.211A3.15,3.15,0,0,1,255.766,15.455Z"/><path d="M263.527,12.625h-3.945c.132,1.139.672,1.451,1.451,1.451a2.585,2.585,0,0,0,1.524-.564l.779,1.055a3.914,3.914,0,0,1-2.482.888c-2.124,0-3.2-1.368-3.2-3.358,0-1.907,1.044-3.418,2.975-3.418,1.823,0,2.938,1.2,2.938,3.262A6.114,6.114,0,0,1,263.527,12.625ZM261.705,11.4c-.012-.863-.276-1.463-1.031-1.463-.637,0-1.008.408-1.092,1.547h2.123Z"/><path d="M266.816,13.956a.9.9,0,0,0,.313-.06l.371,1.343a3.421,3.421,0,0,1-1.223.216,1.577,1.577,0,0,1-1.679-1.8v-7.3l1.895-.2v7.316C266.493,13.824,266.613,13.956,266.816,13.956Z"/><path d="M270.381,13.956a.9.9,0,0,0,.312-.06l.371,1.343a3.424,3.424,0,0,1-1.222.216,1.577,1.577,0,0,1-1.68-1.8v-7.3l1.9-.2v7.316C270.057,13.824,270.178,13.956,270.381,13.956Z"/><path d="M275.516,15.251l-.084-.8a2.2,2.2,0,0,1-1.931,1.008c-1.187,0-1.774-.767-1.774-2V8.882h1.894v4.33c0,.648.216.84.611.84a1.247,1.247,0,0,0,1.032-.744V8.882h1.895v6.369Z"/><path d="M284.144,10.6v4.653h-1.9v-4.33c0-.671-.227-.851-.6-.851-.419,0-.767.3-1.1.827v4.354h-1.9V8.882h1.656l.132.756a2.421,2.421,0,0,1,1.943-.959A1.691,1.691,0,0,1,284.144,10.6Z"/><path d="M289.6,9.506a1.653,1.653,0,0,1,1.2,1.643c0,1.236-1.02,2.135-2.674,2.135a3.539,3.539,0,0,1-.733-.072.411.411,0,0,0-.2.36c0,.192.084.384.7.384h.959c1.488,0,2.435.779,2.435,1.847,0,1.307-1.151,2.111-3.334,2.111-2.411,0-3.047-.792-3.047-2.051h1.7c0,.552.241.791,1.392.791,1.115,0,1.379-.312,1.379-.719,0-.372-.276-.624-.911-.624h-.924c-1.391,0-1.955-.576-1.955-1.259a1.518,1.518,0,0,1,.756-1.224,1.876,1.876,0,0,1-1.14-1.823c0-1.439,1.128-2.326,2.8-2.326a5.047,5.047,0,0,0,3-.828l.444,1.4A4.984,4.984,0,0,1,289.6,9.506Zm-2.518,1.475c0,.7.383,1.08.959,1.08.623,0,.959-.372.959-1.1,0-.708-.323-1.032-.959-1.032A.935.935,0,0,0,287.086,10.981Z"/></g></svg>