<svg xmlns="http://www.w3.org/2000/svg" xmlns:xlink="http://www.w3.org/1999/xlink" viewBox="0 0 394 240"><defs><style>.cls-1,.cls-3,.cls-5,.cls-7,.cls-9{fill:none;}.cls-2,.cls-4{fill:#fff;}.cls-3{stroke:#006984;}.cls-3,.cls-4,.cls-5,.cls-7,.cls-9{stroke-miterlimit:10;stroke-width:2px;}.cls-4,.cls-5{stroke:#000;}.cls-6{fill:#006984;}.cls-7,.cls-9{stroke:#ca0022;}.cls-7{stroke-dasharray:3 3;}.cls-8{fill:#ca0022;}.cls-9{stroke-dasharray:3;}.cls-10{fill:#0054a2;}.cls-11{clip-path:url(#clip-path);}.cls-12{clip-path:url(#clip-path-2);}</style><clipPath id="clip-path"><path class="cls-1" d="M9,58v80H80V58Zm17,67c-4.418,0-8-2.686-8-6s3.582-6,8-6,8,2.686,8,6S30.418,125,26,125Z"/></clipPath><clipPath id="clip-path-2"><path class="cls-1" d="M192,54v82H297V54Zm51,52a8,8,0,1,1,8-8A8,8,0,0,1,243,106Z"/></clipPath></defs><title>html-traditional</title><g id="Layer_2" data-name="Layer 2"><path class="cls-2" d="M141.8,17.338a19.285,19.285,0,0,0-4.034.432,18.977,18.977,0,0,0-33.9-8.754A10.207,10.207,0,0,0,90.853,20.5,18.423,18.423,0,0,0,97.9,55.71v.027h43.9a19.2,19.2,0,1,0,0-38.4Z"/><path class="cls-3" d="M141.8,17.338a19.285,19.285,0,0,0-4.034.432,18.977,18.977,0,0,0-33.9-8.754A10.207,10.207,0,0,0,90.853,20.5,18.423,18.423,0,0,0,97.9,55.71v.027h43.9a19.2,19.2,0,1,0,0-38.4Z"/><rect class="cls-2" x="109" y="162" width="78" height="62"/><path d="M186,163v60H110V163h76m2-2H108v64h80V161Z"/><rect class="cls-2" x="109" y="162" width="78" height="8"/><path d="M186,163v6H110v-6h76m2-2H108v10h80V161Z"/><line class="cls-4" x1="122" y1="166" x2="184" y2="166"/><rect x="112" y="165" width="2" height="2"/><rect x="115" y="165" width="2" height="2"/><rect class="cls-2" x="212" y="162" width="78" height="62"/><path d="M289,163v60H213V163h76m2-2H211v64h80V161Z"/><rect class="cls-2" x="212" y="162" width="78" height="8"/><path d="M289,163v6H213v-6h76m2-2H211v10h80V161Z"/><line class="cls-4" x1="225" y1="166" x2="287" y2="166"/><rect x="215" y="165" width="2" height="2"/><rect x="218" y="165" width="2" height="2"/><rect class="cls-2" x="1" y="162" width="78" height="62"/><path d="M78,163v60H2V163H78m2-2H0v64H80V161Z"/><rect class="cls-2" x="1" y="162" width="78" height="8"/><path d="M78,163v6H2v-6H78m2-2H0v10H80V161Z"/><line class="cls-4" x1="14" y1="166" x2="76" y2="166"/><rect x="4" y="165" width="2" height="2"/><rect x="7" y="165" width="2" height="2"/></g><g id="Layer_1" data-name="Layer 1"><line class="cls-4" x1="117" y1="179" x2="176" y2="179"/><line class="cls-4" x1="117" y1="185" x2="177" y2="185"/><line class="cls-4" x1="117" y1="191" x2="176" y2="191"/><line class="cls-4" x1="117" y1="197" x2="179" y2="197"/><line class="cls-4" x1="117" y1="203" x2="176" y2="203"/><line class="cls-4" x1="117" y1="209" x2="179" y2="209"/><line class="cls-4" x1="117" y1="215" x2="176" y2="215"/><line class="cls-4" x1="251" y1="182.929" x2="286" y2="182.929"/><line class="cls-4" x1="251" y1="188" x2="280" y2="188"/><line class="cls-4" x1="251" y1="194" x2="284" y2="194"/><line class="cls-4" x1="251" y1="200" x2="280" y2="200"/><line class="cls-4" x1="251" y1="206" x2="286" y2="206"/><line class="cls-4" x1="251" y1="212" x2="280" y2="212"/><rect class="cls-2" x="102" y="49" width="78" height="18"/><path d="M179,50V66H103V50h76m2-2H101V68h80V48Z"/><path d="M114,56v4h-4V56h4m2-2h-8v8h8V54Z"/><path d="M127,56v4h-4V56h4m2-2h-8v8h8V54Z"/><line class="cls-5" x1="155" y1="52" x2="155" y2="63"/><line class="cls-5" x1="137" y1="52" x2="137" y2="63"/><line class="cls-5" x1="146" y1="52" x2="146" y2="63"/><line class="cls-5" x1="173" y1="52" x2="173" y2="63"/><line class="cls-5" x1="164" y1="52" x2="164" y2="63"/><rect class="cls-2" x="102" y="25" width="78" height="18"/><path d="M179,26V42H103V26h76m2-2H101V44h80V24Z"/><path d="M114,32v4h-4V32h4m2-2h-8v8h8V30Z"/><path d="M127,32v4h-4V32h4m2-2h-8v8h8V30Z"/><line class="cls-5" x1="155" y1="28" x2="155" y2="39"/><line class="cls-5" x1="137" y1="28" x2="137" y2="39"/><line class="cls-5" x1="146" y1="28" x2="146" y2="39"/><line class="cls-5" x1="173" y1="28" x2="173" y2="39"/><line class="cls-5" x1="164" y1="28" x2="164" y2="39"/><path d="M6.042,147.651l-.852-4.677-.839,4.677H2.108L.752,141.282H2.671l.66,4.954,1-4.954H6.174l.875,4.954.768-4.954H9.628l-1.319,6.369Z"/><path d="M15.029,147.651l-.851-4.677-.84,4.677H11.1L9.74,141.282h1.919l.66,4.954.995-4.954h1.847l.876,4.954.768-4.954h1.81L17.3,147.651Z"/><path d="M24.018,147.651l-.852-4.677-.839,4.677H20.084l-1.355-6.369h1.918l.66,4.954,1-4.954h1.846l.876,4.954.768-4.954H27.6l-1.319,6.369Z"/><path d="M29.947,146.763a1.086,1.086,0,1,1-1.079-1.079A1.085,1.085,0,0,1,29.947,146.763Z"/><path d="M33.319,147.855c-1.4-.012-2.087-.8-2.087-2.3V142.6h-.9v-1.32h.9V139.9l1.9-.216v1.595H34.59l-.2,1.32H33.127v2.926c0,.612.2.827.6.827a1.264,1.264,0,0,0,.683-.215l.636,1.211A3.153,3.153,0,0,1,33.319,147.855Z"/><path d="M41.081,145.024H37.135c.132,1.14.672,1.452,1.451,1.452a2.585,2.585,0,0,0,1.523-.564l.78,1.055a3.915,3.915,0,0,1-2.483.888c-2.122,0-3.2-1.368-3.2-3.358,0-1.907,1.044-3.418,2.975-3.418,1.822,0,2.938,1.2,2.938,3.262A6.343,6.343,0,0,1,41.081,145.024ZM39.258,143.8c-.012-.863-.276-1.463-1.031-1.463-.636,0-1.008.408-1.092,1.547h2.123Z"/><path d="M46.793,141.858l-.7,1.08a2.806,2.806,0,0,0-1.512-.5c-.575,0-.827.191-.827.48,0,.336.168.479,1.307.815,1.26.36,1.967.888,1.967,2.027,0,1.319-1.247,2.1-2.83,2.1a3.961,3.961,0,0,1-2.663-.948l.936-1.043a2.662,2.662,0,0,0,1.667.636c.587,0,.935-.216.935-.588,0-.444-.192-.576-1.343-.9-1.259-.36-1.883-1.007-1.883-1.991,0-1.091,1-1.942,2.6-1.942A3.7,3.7,0,0,1,46.793,141.858Z"/><path d="M50.274,147.855c-1.4-.012-2.087-.8-2.087-2.3V142.6h-.9v-1.32h.9V139.9l1.9-.216v1.595h1.463l-.2,1.32H50.082v2.926c0,.612.2.827.6.827a1.264,1.264,0,0,0,.683-.215L52,147.351A3.153,3.153,0,0,1,50.274,147.855Z"/><path d="M54.414,146.763a1.086,1.086,0,1,1-1.079-1.079A1.085,1.085,0,0,1,54.414,146.763Z"/><path d="M60.341,141.858,59.513,143a1.809,1.809,0,0,0-1.2-.468c-.816,0-1.284.552-1.284,1.979s.5,1.846,1.26,1.846a1.783,1.783,0,0,0,1.187-.467l.864,1.211a3.314,3.314,0,0,1-2.147.756,3.028,3.028,0,0,1-3.154-3.334c0-2.027,1.211-3.442,3.118-3.442A3.2,3.2,0,0,1,60.341,141.858Z"/><path d="M66.64,143v4.653H64.745v-4.33c0-.672-.24-.851-.6-.851-.42,0-.768.3-1.1.815v4.366h-1.9v-8.9l1.9-.192v3.406a2.32,2.32,0,0,1,1.835-.887A1.691,1.691,0,0,1,66.64,143Z"/><line class="cls-3" x1="110" y1="106" x2="110" y2="142.824"/><polygon class="cls-6" points="105.014 141.365 110 150 114.986 141.365 105.014 141.365"/><line class="cls-7" x1="172" y1="110" x2="172" y2="84.176"/><polygon class="cls-8" points="176.986 85.635 172 77 167.014 85.635 176.986 85.635"/><line class="cls-9" x1="172" y1="147" x2="172" y2="125"/><rect class="cls-5" x="219" y="183" width="26" height="29"/><polyline class="cls-5" points="219 203.194 224.597 197.597 231 204 240 195 244.75 199.75"/><circle class="cls-5" cx="231" cy="191" r="4"/><path d="M97.6,98.689v3.562H95.632V93.939H97.6v3.215h2.495V93.939h1.967v8.312h-1.967V98.689Z"/><path d="M107.666,95.451v6.8H105.7v-6.8h-2.147V93.939h6.357l-.192,1.512Z"/><path d="M117.384,102.251,117.24,99a32.265,32.265,0,0,1-.024-3.4l-1.283,5.769h-1.859l-1.367-5.769a29.685,29.685,0,0,1,.036,3.419l-.144,3.226H110.68l.624-8.312h2.482l1.248,5.638,1.163-5.638h2.494l.624,8.312Z"/><path d="M126.385,100.692l-.2,1.559h-5V93.939h1.967v6.753Z"/><path d="M138.933,119.868l-.416,1.383h-.768l1.767-5.509h.96l1.759,5.509h-.8l-.415-1.383Zm1.047-3.494-.864,2.878h1.719Z"/><path d="M146.251,118.229v3.022h-.735v-2.918c0-.632-.256-.816-.664-.816a1.275,1.275,0,0,0-1.072.744v2.99h-.735v-4.214h.631l.064.624a1.529,1.529,0,0,1,1.288-.72A1.153,1.153,0,0,1,146.251,118.229Z"/><path d="M148.54,116.454v.583h1.023l-.079.568h-.944v3.646h-.735v-3.646h-.752v-.568h.752v-.576a1.175,1.175,0,0,1,1.319-1.207,2.32,2.32,0,0,1,1.007.216l-.232.536a1.8,1.8,0,0,0-.735-.16C148.7,115.846,148.54,116.046,148.54,116.454Z"/><path d="M152.66,116.989l-.136.72a1.322,1.322,0,0,0-.368-.048c-.528,0-.832.376-1.008,1.183v2.407h-.735v-4.214h.631l.073.856a1.2,1.2,0,0,1,1.127-.952A1.849,1.849,0,0,1,152.66,116.989Z"/><path d="M156.531,120.835l-.168.512a.848.848,0,0,1-.823-.632,1.436,1.436,0,0,1-1.256.632,1.225,1.225,0,0,1-1.343-1.271c0-.9.68-1.391,1.855-1.391h.647v-.312c0-.608-.3-.832-.879-.832a3.763,3.763,0,0,0-1.135.224l-.184-.536a4.122,4.122,0,0,1,1.455-.288c1.015,0,1.479.52,1.479,1.4v1.927C156.179,120.635,156.315,120.755,156.531,120.835Zm-1.088-.695v-.968h-.551c-.776,0-1.167.288-1.167.864a.663.663,0,0,0,.727.759A1.082,1.082,0,0,0,155.443,120.14Z"/><path d="M159.859,117.357a1.11,1.11,0,0,1,.744,1.063A1.434,1.434,0,0,1,159,119.852a1.706,1.706,0,0,1-.536-.08.508.508,0,0,0-.208.392c0,.191.12.343.552.343h.672c.863,0,1.439.5,1.439,1.168,0,.815-.672,1.279-1.975,1.279-1.375,0-1.807-.424-1.807-1.279h.664c0,.479.216.7,1.143.7s1.231-.232,1.231-.655c0-.4-.319-.6-.847-.6h-.664c-.751,0-1.087-.376-1.087-.8a.913.913,0,0,1,.464-.743,1.207,1.207,0,0,1-.712-1.167,1.5,1.5,0,0,1,1.623-1.472,3.61,3.61,0,0,0,1.927-.376l.216.664A4.107,4.107,0,0,1,159.859,117.357Zm-1.782,1.056a.853.853,0,0,0,.887.951.838.838,0,0,0,.888-.96.817.817,0,0,0-.9-.935A.843.843,0,0,0,158.077,118.413Z"/><path d="M164.9,119.4h-2.686c.072.976.528,1.351,1.135,1.351a1.775,1.775,0,0,0,1.1-.368l.32.44a2.3,2.3,0,0,1-1.471.528c-1.176,0-1.864-.824-1.864-2.159,0-1.311.664-2.247,1.752-2.247,1.135,0,1.735.792,1.735,2.079C164.915,119.164,164.906,119.3,164.9,119.4Zm-.711-.592c0-.823-.328-1.279-.992-1.279-.559,0-.927.392-.983,1.328h1.975Z"/><path d="M171.994,119.684c0,1.167-.9,1.567-2.182,1.567h-1.52v-5.509h1.3c1.359,0,2.158.432,2.158,1.391a1.227,1.227,0,0,1-1.031,1.208C171.362,118.453,171.994,118.749,171.994,119.684Zm-2.942-1.607h.831c.616,0,1.1-.3,1.1-.888,0-.679-.488-.847-1.3-.847h-.623Zm2.143,1.607c0-.776-.576-1.024-1.24-1.024h-.9v1.984h.76C170.611,120.644,171.2,120.483,171.2,119.684Z"/><path d="M174,115.518a.516.516,0,1,1-.52-.5A.49.49,0,0,1,174,115.518Zm-.88,5.733v-4.214h.736v4.214Z"/><path d="M176.332,120.739a.718.718,0,0,0,.272-.048l.191.512a1.418,1.418,0,0,1-.623.144c-.536,0-.839-.32-.839-.928v-5.077l.735-.088V120.4C176.068,120.627,176.14,120.739,176.332,120.739Z"/><path d="M180.9,121.251h-.648l-.072-.584a1.409,1.409,0,0,1-1.215.68c-1.024,0-1.591-.871-1.591-2.183,0-1.287.623-2.223,1.655-2.223a1.513,1.513,0,0,1,1.135.52v-2.207l.736.088Zm-.736-1.111v-2.063a1.208,1.208,0,0,0-.975-.552c-.632,0-1.024.528-1.024,1.623,0,1.112.352,1.615.96,1.615A1.208,1.208,0,0,0,180.163,120.14Z"/><path d="M185.506,119.4H182.82c.072.976.528,1.351,1.135,1.351a1.775,1.775,0,0,0,1.1-.368l.32.44a2.3,2.3,0,0,1-1.472.528c-1.175,0-1.863-.824-1.863-2.159,0-1.311.664-2.247,1.751-2.247,1.136,0,1.735.792,1.735,2.079C185.522,119.164,185.515,119.3,185.506,119.4Zm-.711-.592c0-.823-.328-1.279-.992-1.279-.559,0-.927.392-.983,1.328H184.8Z"/><path d="M188.987,116.989l-.136.72a1.322,1.322,0,0,0-.368-.048c-.527,0-.832.376-1.007,1.183v2.407h-.736v-4.214h.632l.072.856a1.2,1.2,0,0,1,1.127-.952A1.849,1.849,0,0,1,188.987,116.989Z"/><path d="M190.22,122.083l-.632-.152,1.855-7.133.624.144Z"/><path d="M196.842,116.19l-.416.488a1.609,1.609,0,0,0-1.063-.408c-.832,0-1.527.56-1.527,2.223,0,1.59.664,2.214,1.519,2.214a1.845,1.845,0,0,0,1.167-.463l.384.487a2.153,2.153,0,0,1-1.575.616c-1.335,0-2.3-1-2.3-2.854s1.039-2.847,2.287-2.847A2.17,2.17,0,0,1,196.842,116.19Z"/><path d="M200.93,116.286l-.431.48a1.772,1.772,0,0,0-1.24-.5c-.551,0-.991.255-.991.783,0,.464.215.688,1.207.992.879.271,1.631.615,1.631,1.671,0,.959-.728,1.631-1.967,1.631a2.577,2.577,0,0,1-1.871-.712l.44-.488a1.958,1.958,0,0,0,1.423.576c.648,0,1.183-.32,1.183-.983,0-.536-.255-.776-1.191-1.064-1.071-.327-1.631-.735-1.631-1.591a1.541,1.541,0,0,1,1.735-1.439A2.322,2.322,0,0,1,200.93,116.286Z"/><path d="M205.21,116.286l-.431.48a1.772,1.772,0,0,0-1.239-.5c-.552,0-.992.255-.992.783,0,.464.216.688,1.207.992.88.271,1.631.615,1.631,1.671,0,.959-.727,1.631-1.967,1.631a2.577,2.577,0,0,1-1.871-.712l.44-.488a1.959,1.959,0,0,0,1.424.576c.647,0,1.183-.32,1.183-.983,0-.536-.256-.776-1.192-1.064-1.071-.327-1.631-.735-1.631-1.591a1.541,1.541,0,0,1,1.735-1.439A2.32,2.32,0,0,1,205.21,116.286Z"/><path d="M30.494,178.684c0,1.167-.9,1.567-2.182,1.567h-1.52v-5.509h1.3c1.359,0,2.158.432,2.158,1.391a1.227,1.227,0,0,1-1.031,1.208C29.862,177.453,30.494,177.749,30.494,178.684Zm-2.942-1.607h.831c.616,0,1.1-.3,1.1-.888,0-.679-.488-.847-1.3-.847h-.623Zm2.143,1.607c0-.776-.576-1.024-1.24-1.024h-.9v1.984h.76C29.111,179.644,29.7,179.483,29.7,178.684Z"/><path d="M33.863,175.989l-.136.72a1.322,1.322,0,0,0-.368-.048c-.527,0-.832.376-1.007,1.183v2.407h-.736v-4.214h.632l.072.856a1.2,1.2,0,0,1,1.127-.952A1.849,1.849,0,0,1,33.863,175.989Z"/><path d="M38.078,178.14c0,1.3-.688,2.207-1.879,2.207s-1.879-.864-1.879-2.2c0-1.3.688-2.207,1.887-2.207S38.078,176.805,38.078,178.14Zm-2.967.008c0,1.1.384,1.607,1.088,1.607s1.087-.511,1.087-1.615-.384-1.607-1.079-1.607S35.111,177.045,35.111,178.148Z"/><path d="M42.07,180.251l-.735-3.55-.76,3.55H39.6l-.984-4.214h.736l.76,3.7.831-3.7h.824l.791,3.7.768-3.7h.7l-.959,4.214Z"/><path d="M47.526,176.421l-.319.488a1.772,1.772,0,0,0-1.088-.384c-.479,0-.775.216-.775.552s.223.5.9.679c.888.224,1.4.576,1.4,1.311,0,.88-.807,1.28-1.663,1.28a2.337,2.337,0,0,1-1.591-.552l.408-.463a1.758,1.758,0,0,0,1.167.423c.552,0,.9-.248.9-.615,0-.44-.208-.6-1.023-.816-.912-.24-1.272-.632-1.272-1.231,0-.664.648-1.152,1.519-1.152A2.234,2.234,0,0,1,47.526,176.421Z"/><path d="M51.854,178.4H49.168c.072.976.528,1.351,1.135,1.351a1.775,1.775,0,0,0,1.1-.368l.32.44a2.3,2.3,0,0,1-1.471.528c-1.176,0-1.864-.824-1.864-2.159,0-1.311.664-2.247,1.752-2.247,1.135,0,1.735.792,1.735,2.079C51.871,178.164,51.862,178.3,51.854,178.4Zm-.711-.592c0-.823-.328-1.279-.992-1.279-.559,0-.927.392-.983,1.328h1.975Z"/><path d="M55.334,175.989l-.135.72a1.327,1.327,0,0,0-.368-.048c-.528,0-.832.376-1.008,1.183v2.407h-.735v-4.214h.631l.073.856a1.2,1.2,0,0,1,1.127-.952A1.834,1.834,0,0,1,55.334,175.989Z"/><path d="M105.566,15.286l-.431.48a1.772,1.772,0,0,0-1.239-.5c-.552,0-.992.255-.992.783,0,.464.216.688,1.207.992.88.271,1.631.615,1.631,1.671,0,.959-.727,1.631-1.967,1.631a2.577,2.577,0,0,1-1.871-.712l.44-.488a1.959,1.959,0,0,0,1.424.576c.647,0,1.183-.32,1.183-.983,0-.536-.256-.776-1.192-1.064-1.071-.327-1.631-.735-1.631-1.591a1.541,1.541,0,0,1,1.735-1.439A2.32,2.32,0,0,1,105.566,15.286Z"/><path d="M109.99,18.4H107.3c.072.976.528,1.351,1.135,1.351a1.775,1.775,0,0,0,1.1-.368l.319.44a2.3,2.3,0,0,1-1.471.528c-1.175,0-1.863-.824-1.863-2.159,0-1.311.664-2.247,1.751-2.247,1.136,0,1.735.792,1.735,2.079C110.006,18.164,110,18.3,109.99,18.4Zm-.711-.592c0-.823-.328-1.279-.992-1.279-.559,0-.927.392-.983,1.328h1.975Z"/><path d="M113.471,15.989l-.136.72a1.322,1.322,0,0,0-.368-.048c-.528,0-.832.376-1.008,1.183v2.407h-.735V16.037h.631l.073.856a1.2,1.2,0,0,1,1.127-.952A1.849,1.849,0,0,1,113.471,15.989Z"/><path d="M115.167,20.251l-1.455-4.214h.8l1.1,3.558,1.095-3.558h.776l-1.431,4.214Z"/><path d="M121.414,18.4h-2.686c.072.976.527,1.351,1.135,1.351a1.77,1.77,0,0,0,1.095-.368l.32.44a2.3,2.3,0,0,1-1.471.528c-1.175,0-1.863-.824-1.863-2.159,0-1.311.663-2.247,1.751-2.247,1.136,0,1.735.792,1.735,2.079C121.43,18.164,121.422,18.3,121.414,18.4ZM120.7,17.8c0-.823-.328-1.279-.992-1.279-.56,0-.927.392-.983,1.328H120.7Z"/><path d="M124.9,15.989l-.136.72a1.322,1.322,0,0,0-.368-.048c-.528,0-.832.376-1.008,1.183v2.407h-.735V16.037h.631l.073.856a1.2,1.2,0,0,1,1.127-.952A1.849,1.849,0,0,1,124.9,15.989Z"/><path d="M2.156,119.868l-.416,1.383H.973l1.767-5.509H3.7l1.759,5.509h-.8l-.416-1.383ZM3.2,116.374l-.864,2.878H4.059Z"/><path d="M9.475,118.229v3.022H8.739v-2.918c0-.632-.256-.816-.664-.816A1.275,1.275,0,0,0,7,118.261v2.99H6.269v-4.214H6.9l.064.624a1.529,1.529,0,0,1,1.287-.72A1.154,1.154,0,0,1,9.475,118.229Z"/><path d="M11.764,116.454v.583h1.023l-.079.568h-.944v3.646h-.736v-3.646h-.751v-.568h.751v-.576a1.175,1.175,0,0,1,1.32-1.207,2.32,2.32,0,0,1,1.007.216l-.232.536a1.8,1.8,0,0,0-.735-.16C11.924,115.846,11.764,116.046,11.764,116.454Z"/><path d="M15.883,116.989l-.135.72a1.33,1.33,0,0,0-.369-.048c-.527,0-.831.376-1.007,1.183v2.407h-.735v-4.214h.631l.072.856a1.2,1.2,0,0,1,1.128-.952A1.84,1.84,0,0,1,15.883,116.989Z"/><path d="M19.754,120.835l-.168.512a.85.85,0,0,1-.823-.632,1.435,1.435,0,0,1-1.255.632,1.225,1.225,0,0,1-1.343-1.271c0-.9.679-1.391,1.855-1.391h.647v-.312c0-.608-.3-.832-.879-.832a3.774,3.774,0,0,0-1.136.224l-.184-.536a4.127,4.127,0,0,1,1.455-.288c1.016,0,1.48.52,1.48,1.4v1.927C19.4,120.635,19.539,120.755,19.754,120.835Zm-1.087-.695v-.968h-.552c-.775,0-1.167.288-1.167.864a.664.664,0,0,0,.728.759A1.084,1.084,0,0,0,18.667,120.14Z"/><path d="M23.083,117.357a1.11,1.11,0,0,1,.744,1.063,1.434,1.434,0,0,1-1.607,1.432,1.706,1.706,0,0,1-.536-.08.508.508,0,0,0-.208.392c0,.191.12.343.552.343H22.7c.864,0,1.44.5,1.44,1.168,0,.815-.672,1.279-1.975,1.279-1.375,0-1.808-.424-1.808-1.279h.665c0,.479.215.7,1.143.7.911,0,1.231-.232,1.231-.655,0-.4-.32-.6-.848-.6h-.663c-.752,0-1.088-.376-1.088-.8a.915.915,0,0,1,.464-.743,1.207,1.207,0,0,1-.712-1.167,1.5,1.5,0,0,1,1.624-1.472,3.612,3.612,0,0,0,1.927-.376l.215.664A4.1,4.1,0,0,1,23.083,117.357ZM21.3,118.413a.854.854,0,0,0,.888.951.838.838,0,0,0,.887-.96.817.817,0,0,0-.9-.935A.844.844,0,0,0,21.3,118.413Z"/><path d="M28.122,119.4H25.436c.072.976.527,1.351,1.135,1.351a1.775,1.775,0,0,0,1.1-.368l.319.44a2.3,2.3,0,0,1-1.471.528c-1.175,0-1.863-.824-1.863-2.159,0-1.311.663-2.247,1.751-2.247,1.136,0,1.735.792,1.735,2.079C28.138,119.164,28.13,119.3,28.122,119.4Zm-.711-.592c0-.823-.328-1.279-.992-1.279-.56,0-.927.392-.983,1.328h1.975Z"/><path d="M32.275,118.668v2.583h-.759v-5.509h.759v2.3h2.319v-2.3h.76v5.509h-.76v-2.583Z"/><path d="M38.6,116.39v4.861h-.76V116.39H36.276v-.648H40.21l-.08.648Z"/><path d="M45.122,121.251l-.192-2.487c-.072-.863-.128-1.791-.136-2.246L43.6,120.627h-.712l-1.255-4.117c0,.647-.04,1.5-.1,2.31l-.184,2.431h-.72l.456-5.509h1.023l1.16,4.006,1.1-4.006H45.4l.456,5.509Z"/><path d="M50.322,120.587l-.088.664H47.3v-5.509h.76v4.845Z"/><path d="M231.781,99.828c0,1.895-1.535,2.423-3.622,2.423h-2.675V93.939h2.351c2.23,0,3.6.564,3.6,2.123a1.81,1.81,0,0,1-1.523,1.788C230.833,98.029,231.781,98.485,231.781,99.828Zm-4.33-2.566h.732c.815,0,1.247-.312,1.247-1.008s-.456-.923-1.4-.923h-.576Zm2.3,2.458c0-.839-.588-1.151-1.44-1.151h-.863v2.255h.72C229.094,100.824,229.754,100.632,229.754,99.72Z"/><path d="M234.915,93.6a1.122,1.122,0,1,1-1.127-1.08A1.072,1.072,0,0,1,234.915,93.6Zm-2.063,8.647V95.882h1.9v6.369Z"/><path d="M238.4,100.956a.9.9,0,0,0,.312-.06l.371,1.343a3.425,3.425,0,0,1-1.223.216,1.576,1.576,0,0,1-1.679-1.8v-7.3l1.9-.2v7.316C238.071,100.824,238.191,100.956,238.4,100.956Z"/><path d="M245.389,102.251H243.71l-.1-.744a2.123,2.123,0,0,1-1.811.948c-1.619,0-2.423-1.343-2.423-3.406,0-1.967,1-3.37,2.639-3.37a2.064,2.064,0,0,1,1.475.6v-3.13l1.9.2Zm-1.9-1.907V97.6a1.239,1.239,0,0,0-.983-.54c-.684,0-1.164.575-1.164,2,0,1.583.432,2,1.056,2A1.27,1.27,0,0,0,243.494,100.344Z"/><path d="M252.277,99.625h-3.945c.131,1.139.671,1.451,1.451,1.451a2.583,2.583,0,0,0,1.523-.564l.779,1.055a3.912,3.912,0,0,1-2.482.888c-2.123,0-3.2-1.368-3.2-3.358,0-1.907,1.044-3.418,2.975-3.418,1.823,0,2.938,1.2,2.938,3.262A6.361,6.361,0,0,1,252.277,99.625ZM250.454,98.4c-.012-.863-.276-1.463-1.031-1.463-.636,0-1.008.408-1.091,1.547h2.122Z"/><path d="M257.5,95.787l-.3,1.835a2.3,2.3,0,0,0-.576-.084c-.792,0-1.116.587-1.319,1.559v3.154h-1.9V95.882h1.655l.156,1.236a1.8,1.8,0,0,1,1.643-1.415A2.151,2.151,0,0,1,257.5,95.787Z"/><path d="M259.539,103.594l-1.667-.384,2.83-10.746,1.655.372Z"/><path d="M269.46,94.647l-.96,1.14a2.187,2.187,0,0,0-1.486-.6c-1.056,0-1.8.852-1.8,2.89,0,2,.732,2.855,1.835,2.855a2.582,2.582,0,0,0,1.619-.7l.888,1.152a3.662,3.662,0,0,1-2.6,1.067c-2.279,0-3.8-1.535-3.8-4.378,0-2.782,1.607-4.341,3.742-4.341A3.693,3.693,0,0,1,269.46,94.647Z"/><path d="M275.989,94.8l-.924,1.068a2.726,2.726,0,0,0-1.811-.7c-.683,0-1.115.288-1.115.815s.312.744,1.607,1.152c1.571.5,2.471,1.151,2.471,2.686s-1.224,2.627-3.3,2.627a4.41,4.41,0,0,1-3.154-1.187l1.007-1.1a3.011,3.011,0,0,0,2.087.828c.816,0,1.32-.384,1.32-1.02,0-.612-.312-.887-1.523-1.259-1.86-.576-2.543-1.343-2.543-2.579,0-1.463,1.271-2.4,3-2.4A3.883,3.883,0,0,1,275.989,94.8Z"/><path d="M282.732,94.8l-.923,1.068a2.728,2.728,0,0,0-1.811-.7c-.684,0-1.116.288-1.116.815s.312.744,1.608,1.152c1.571.5,2.47,1.151,2.47,2.686s-1.223,2.627-3.3,2.627a4.408,4.408,0,0,1-3.154-1.187l1.007-1.1a3.009,3.009,0,0,0,2.087.828c.815,0,1.319-.384,1.319-1.02,0-.612-.312-.887-1.523-1.259-1.859-.576-2.543-1.343-2.543-2.579,0-1.463,1.272-2.4,3-2.4A3.88,3.88,0,0,1,282.732,94.8Z"/><circle class="cls-10" cx="41" cy="197" r="12"/><path d="M41,186a11,11,0,1,1-11,11,11.013,11.013,0,0,1,11-11m0-2a13,13,0,1,0,13,13,13,13,0,0,0-13-13Z"/><path class="cls-2" d="M38.3,199.2h2v-4.978L38.64,195.23l-.852-1.259,2.687-1.632h1.7V199.2h1.547v1.451H38.3Z"/><circle class="cls-10" cx="110" cy="77" r="12"/><path d="M110,66A11,11,0,1,1,99,77a11.013,11.013,0,0,1,11-11m0-2a13,13,0,1,0,13,13,13,13,0,0,0-13-13Z"/><path class="cls-2" d="M109.067,79.188h3.538l-.2,1.463H106.86V79.3c2.723-2.638,3.6-3.633,3.6-4.617a1.021,1.021,0,0,0-1.1-1.079,1.815,1.815,0,0,0-1.486.839l-1.176-.887a3.413,3.413,0,0,1,2.867-1.427c1.882,0,2.854,1.091,2.854,2.386C112.413,75.746,111.585,76.933,109.067,79.188Z"/><circle class="cls-10" cx="172" cy="165" r="12"/><path d="M172,154a11,11,0,1,1-11,11,11.013,11.013,0,0,1,11-11m0-2a13,13,0,1,0,13,13,13,13,0,0,0-13-13Z"/><path class="cls-2" d="M168.608,161.251a3.959,3.959,0,0,1,2.855-1.127c1.8,0,2.842.971,2.842,2.134a1.974,1.974,0,0,1-1.583,1.955v.048a1.939,1.939,0,0,1,1.847,2.051c0,1.4-1.223,2.543-3.226,2.543a3.767,3.767,0,0,1-2.939-1.248l1.08-1.007a2.208,2.208,0,0,0,1.727.792c.815,0,1.391-.432,1.391-1.212,0-.875-.516-1.235-1.4-1.235h-.756l.216-1.32h.54c.731,0,1.247-.359,1.247-1.079,0-.611-.491-1-1.2-1a2.335,2.335,0,0,0-1.655.72Z"/><circle class="cls-10" cx="253" cy="151" r="12"/><path d="M253,140a11,11,0,1,1-11,11,11.013,11.013,0,0,1,11-11m0-2a13,13,0,1,0,13,13,13,13,0,0,0-13-13Z"/><path class="cls-2" d="M254.921,152.912v1.739H253.05v-1.739h-3.418v-1.271l2.3-5.517,1.631.6-1.955,4.75h1.439l.216-1.991h1.655v1.991h.828v1.439Z"/><polyline class="cls-7" points="273 188 305 188 305 236 41 236 41 214.176"/><polygon class="cls-8" points="45.986 215.635 41 207 36.014 215.635 45.986 215.635"/><circle class="cls-10" cx="279" cy="188" r="12"/><path d="M279,177a11,11,0,1,1-11,11,11.013,11.013,0,0,1,11-11m0-2a13,13,0,1,0,13,13,13,13,0,0,0-13-13Z"/><path class="cls-2" d="M278.367,191.855a3.456,3.456,0,0,1-2.771-1.248l1.1-1.007a1.893,1.893,0,0,0,1.511.792,1.37,1.37,0,0,0,1.451-1.44c0-1.019-.5-1.415-1.175-1.415a2.034,2.034,0,0,0-1.008.276h-1.295v-4.474h5.085l-.216,1.368h-3.034v1.775a2.964,2.964,0,0,1,1.223-.264,2.44,2.44,0,0,1,2.4,2.7A2.992,2.992,0,0,1,278.367,191.855Z"/><g class="cls-11"><path class="cls-7" d="M69.924,67.747a69.807,69.807,0,0,0-45.85,62.973V138"/><polygon class="cls-8" points="67.036 63.547 76.783 65.648 70.09 73.039 67.036 63.547"/></g><g class="cls-12"><path class="cls-3" d="M252.645,127.329A71.553,71.553,0,0,0,199,65.166"/><polygon class="cls-6" points="257.423 125.564 253 134.5 247.472 126.202 257.423 125.564"/></g></g></svg>