<svg xmlns="http://www.w3.org/2000/svg" viewBox="0 0 430 230"><defs><style>.cls-1,.cls-3{font-size:12px;}.cls-1{font-family:FiraSans-Bold, Fira Sans;font-weight:700;letter-spacing:0.05em;}.cls-2{letter-spacing:0.03em;}.cls-11,.cls-3,.cls-6,.cls-8{fill:#0054a2;}.cls-3{font-family:FiraMonoOT, Fira Mono OT;}.cls-4,.cls-5{fill:#b27000;}.cls-10,.cls-12,.cls-4,.cls-8{letter-spacing:0em;}.cls-7{fill:#006984;}.cls-10,.cls-13,.cls-9{fill:#000;}.cls-11{letter-spacing:0em;}.cls-13{font-family:MyriadPro-Regular, Myriad Pro;}</style></defs><title>html-all</title><g id="Layer_1" data-name="Layer 1"><text class="cls-1" transform="translate(2 15.251)">H<tspan class="cls-2" x="8.592" y="0">T</tspan><tspan x="15.432" y="0">ML</tspan></text><text class="cls-3" transform="translate(2 38.251)">&lt;<tspan class="cls-4" x="7.2" y="0">html</tspan><tspan x="36" y="0">&gt;</tspan><tspan class="cls-5"><tspan x="0" y="14.4" xml:space="preserve">  </tspan><tspan class="cls-6" x="14.4" y="14.4">&lt;</tspan><tspan x="21.6" y="14.4">body</tspan><tspan class="cls-6" x="50.399" y="14.4">&gt;</tspan></tspan><tspan x="0" y="28.8" xml:space="preserve">    &lt;</tspan><tspan class="cls-5" x="36" y="28.8">div class=</tspan><tspan class="cls-7" x="107.999" y="28.8">&quot;teaser&quot;</tspan><tspan x="165.597" y="28.8">&gt;</tspan><tspan class="cls-5"><tspan x="0" y="43.2" xml:space="preserve">      </tspan><tspan class="cls-8" x="43.199" y="43.2">&lt;</tspan><tspan x="50.399" y="43.2">img src=</tspan><tspan class="cls-7" x="107.999" y="43.2">&quot;tomate.jpg&quot;</tspan><tspan class="cls-6" x="194.397" y="43.2">/&gt;</tspan><tspan x="0" y="57.6" xml:space="preserve">      </tspan><tspan class="cls-8" x="43.199" y="57.6">&lt;</tspan><tspan x="50.399" y="57.6">h1</tspan><tspan class="cls-8" x="64.799" y="57.6">&gt;</tspan><tspan class="cls-9" x="71.999" y="57.6">Tomaten</tspan><tspan class="cls-8" x="122.398" y="57.6">&lt;/</tspan><tspan x="136.798" y="57.6">h1</tspan><tspan class="cls-6" x="151.198" y="57.6">&gt;</tspan><tspan x="0" y="72" xml:space="preserve">      </tspan><tspan class="cls-8" x="43.199" y="72">&lt;</tspan><tspan x="50.399" y="72">p</tspan><tspan class="cls-6" x="57.599" y="72">&gt;</tspan><tspan class="cls-10" x="64.799" y="72">Heute frisch!</tspan><tspan class="cls-11" x="158.398" y="72">&lt;/</tspan><tspan x="172.797" y="72">p</tspan><tspan class="cls-11" x="179.998" y="72">&gt;</tspan></tspan><tspan x="0" y="86.4" xml:space="preserve">    &lt;/</tspan><tspan class="cls-4" x="43.199" y="86.4">div</tspan><tspan class="cls-12" x="64.799" y="86.4">&gt;</tspan><tspan x="0" y="100.8" xml:space="preserve">    &lt;</tspan><tspan class="cls-5" x="36" y="100.8">div class=</tspan><tspan class="cls-7" x="107.999" y="100.8">&quot;teaser&quot;</tspan><tspan x="165.597" y="100.8">&gt;</tspan><tspan class="cls-5"><tspan x="0" y="115.2" xml:space="preserve">      </tspan><tspan class="cls-8" x="43.199" y="115.2">&lt;</tspan><tspan x="50.399" y="115.2">img src=</tspan><tspan class="cls-7" x="107.999" y="115.2">&quot;apfel.jpg&quot;</tspan><tspan class="cls-6" x="187.197" y="115.2">/&gt;</tspan><tspan x="0" y="129.6" xml:space="preserve">      </tspan><tspan class="cls-8" x="43.199" y="129.6">&lt;</tspan><tspan x="50.399" y="129.6">h1</tspan><tspan class="cls-8" x="64.799" y="129.6">&gt;</tspan><tspan class="cls-9" x="71.999" y="129.6">Äpfel</tspan><tspan class="cls-6" x="107.999" y="129.6">&lt;/</tspan><tspan class="cls-12" x="122.398" y="129.6">h1</tspan><tspan class="cls-6" x="136.798" y="129.6">&gt;</tspan><tspan x="0" y="144" xml:space="preserve">      </tspan><tspan class="cls-8" x="43.199" y="144">&lt;</tspan><tspan x="50.399" y="144">p</tspan><tspan class="cls-6" x="57.599" y="144">&gt;</tspan><tspan class="cls-10" x="64.799" y="144">Jetzt 50</tspan><tspan class="cls-13" x="122.398" y="144"> </tspan><tspan class="cls-10" x="124.942" y="144">%</tspan><tspan class="cls-6" x="132.142" y="144">&lt;/</tspan><tspan class="cls-12" x="146.542" y="144">p</tspan><tspan class="cls-6" x="153.742" y="144">&gt;</tspan></tspan><tspan x="0" y="158.4" xml:space="preserve">    &lt;/</tspan><tspan class="cls-4" x="43.199" y="158.4">div</tspan><tspan class="cls-12" x="64.799" y="158.4">&gt;</tspan><tspan class="cls-5"><tspan x="0" y="172.8" xml:space="preserve">  </tspan><tspan class="cls-6" x="14.4" y="172.8">&lt;/</tspan><tspan class="cls-12" x="28.799" y="172.8">body</tspan><tspan class="cls-6" x="57.599" y="172.8">&gt;</tspan></tspan><tspan x="0" y="187.2">&lt;/</tspan><tspan class="cls-5" x="14.4" y="187.2">html</tspan><tspan class="cls-12" x="43.199" y="187.2">&gt;</tspan></text></g></svg>