<svg xmlns="http://www.w3.org/2000/svg" viewBox="0 0 430 160"><defs><style>.cls-1,.cls-2{fill:#fff;}.cls-2{stroke:#000;stroke-miterlimit:10;stroke-width:2px;}.cls-17,.cls-3,.cls-7{font-size:12px;}.cls-17,.cls-3{font-family:FiraSans-Bold, Fira Sans;font-weight:700;}.cls-3{letter-spacing:0.05em;}.cls-4{letter-spacing:0.04em;}.cls-5{letter-spacing:0.05em;}.cls-6{letter-spacing:0.03em;}.cls-7{fill:#0054a2;font-family:FiraMonoOT, Fira Mono OT;}.cls-13,.cls-8{fill:#b27000;}.cls-10,.cls-12,.cls-8,.cls-9{letter-spacing:0em;}.cls-9{fill:#006984;}.cls-11{fill:#ca0022;}.cls-12{fill:#000;}.cls-14{font-size:8px;font-family:FiraSans-Regular, Fira Sans;}.cls-15{letter-spacing:-0.01em;}.cls-16{letter-spacing:-0.01em;}.cls-18{letter-spacing:-0.01em;}.cls-19{letter-spacing:0em;}</style></defs><title>html-component-page</title><g id="Layer_2" data-name="Layer 2"><rect class="cls-1" x="229" y="28" width="140" height="107"/><path d="M368,29V134H230V29H368m2-2H228V136H370V27Z"/><rect class="cls-1" x="239" y="44" width="120" height="81"/><path d="M358,45v79H240V45H358m2-2H238v83H360V43Z"/><rect class="cls-1" x="229" y="28" width="140" height="8"/><path d="M368,29v6H230V29H368m2-2H228V37H370V27Z"/><line class="cls-2" x1="242" y1="32" x2="366" y2="32"/><rect x="232" y="31" width="2" height="2"/><rect x="235" y="31" width="2" height="2"/></g><g id="Layer_1" data-name="Layer 1"><text class="cls-3" transform="translate(2 15.251)">Sei<tspan class="cls-4" x="18.696" y="0">t</tspan><tspan class="cls-5" x="23.808" y="0">e als </tspan><tspan class="cls-6" x="55.679" y="0">K</tspan><tspan x="63.635" y="0">omponen</tspan><tspan class="cls-4" x="119.65" y="0">t</tspan><tspan x="124.762" y="0">e</tspan></text><text class="cls-7" transform="translate(2 38.251)">page = `<tspan x="0" y="14.4">&lt;</tspan><tspan class="cls-8" x="7.2" y="14.4">div class=</tspan><tspan class="cls-9" x="79.199" y="14.4">&quot;page&quot;</tspan><tspan class="cls-10" x="122.398" y="14.4">&gt;</tspan><tspan x="0" y="28.8" xml:space="preserve">  </tspan><tspan class="cls-11" x="14.4" y="28.8">${</tspan><tspan class="cls-12" x="28.799" y="28.8">inhalt</tspan><tspan class="cls-11" x="71.999" y="28.8">}</tspan><tspan x="0" y="43.2">&lt;/</tspan><tspan class="cls-13" x="14.4" y="43.2">body</tspan><tspan class="cls-10" x="43.199" y="43.2">&gt;`</tspan></text><text class="cls-14" transform="translate(297.705 15.251)">B<tspan class="cls-15" x="4.864" y="0">ro</tspan><tspan x="12.464" y="0">wser</tspan></text><text class="cls-14" transform="translate(271.104 81.251)">Sei<tspan class="cls-16" x="11.016" y="0">t</tspan><tspan x="13.824" y="0">e mit Inhalt</tspan></text><text class="cls-17" transform="translate(228 15.251)"><tspan class="cls-15">D</tspan><tspan x="7.692" y="0">a</tspan><tspan class="cls-15" x="14.268" y="0">r</tspan><tspan x="18.959" y="0">s</tspan><tspan class="cls-18" x="24.755" y="0">t</tspan><tspan class="cls-19" x="29.268" y="0">ellung</tspan></text></g></svg>