<svg xmlns="http://www.w3.org/2000/svg" viewBox="0 0 430 230"><defs><style>.cls-1,.cls-2,.cls-3{fill:#fff;}.cls-2{stroke:#000;stroke-width:2px;}.cls-2,.cls-3{stroke-miterlimit:10;}.cls-3{stroke:#006984;}.cls-4{font-size:8px;}.cls-11,.cls-12,.cls-4,.cls-9{font-family:FiraSans-Regular, Fira Sans;}.cls-5{letter-spacing:-0.01em;}.cls-11,.cls-12,.cls-13,.cls-6,.cls-7,.cls-8{font-size:12px;}.cls-6,.cls-8{font-family:FiraSans-Bold, Fira Sans;font-weight:700;}.cls-13,.cls-7{font-family:FiraMonoOT, Fira Mono OT;}.cls-13,.cls-16,.cls-18,.cls-8{fill:#0054a2;}.cls-9{font-weight:400;fill:#000;}.cls-10{letter-spacing:0.01em;}.cls-12,.cls-21{letter-spacing:0em;}.cls-14,.cls-15{fill:#b27000;}.cls-14,.cls-18,.cls-19{letter-spacing:0em;}.cls-17{fill:#006984;}.cls-20{letter-spacing:-0.01em;}.cls-22{letter-spacing:-0.08em;}.cls-23{letter-spacing:0em;}</style></defs><title>html-types</title><g id="Layer_2" data-name="Layer 2"><rect class="cls-1" x="289" y="28" width="140" height="107"/><path d="M428,29V134H290V29H428m2-2H288V136H430V27Z"/><rect class="cls-1" x="289" y="28" width="140" height="8"/><path d="M428,29v6H290V29H428m2-2H288V37H430V27Z"/><line class="cls-2" x1="302" y1="32" x2="426" y2="32"/><rect x="292" y="31" width="2" height="2"/><rect x="295" y="31" width="2" height="2"/><line class="cls-2" x1="345" y1="45" x2="416" y2="45"/><line class="cls-3" x1="345" y1="81" x2="416" y2="81"/><line class="cls-2" x1="345" y1="90" x2="416" y2="90"/><line class="cls-3" x1="345" y1="126" x2="416" y2="126"/><circle class="cls-1" cx="318" cy="63" r="19"/><path d="M318,45a18,18,0,1,1-18,18,18.021,18.021,0,0,1,18-18m0-2a20,20,0,1,0,20,20,20,20,0,0,0-20-20Z"/><circle class="cls-1" cx="318" cy="108" r="19"/><path d="M318,90a18,18,0,1,1-18,18,18.021,18.021,0,0,1,18-18m0-2a20,20,0,1,0,20,20,20,20,0,0,0-20-20Z"/></g><g id="Layer_1" data-name="Layer 1"><text class="cls-4" transform="translate(357.705 15.251)">B<tspan class="cls-5" x="4.864" y="0">ro</tspan><tspan x="12.464" y="0">wser</tspan></text><text class="cls-6" transform="translate(2 15.251)">Inhalt </text><text class="cls-7"><tspan x="2" y="81.451">tomate.jpg</tspan><tspan x="2" y="95.851">Tomaten</tspan><tspan x="2" y="110.251">Heute frisch!</tspan><tspan x="2" y="153.451">apfel.jpg</tspan><tspan x="2" y="167.851">Äpfel</tspan><tspan x="2" y="182.251">Jetzt 50 %</tspan></text><text class="cls-8" transform="translate(346 105.034)">Äp<tspan class="cls-5" x="14.244" y="0">f</tspan><tspan x="18.396" y="0">el</tspan><tspan class="cls-9"><tspan x="0" y="14.4">Je</tspan><tspan class="cls-10" x="10.26" y="14.4">t</tspan><tspan x="14.711" y="14.4">zt 50</tspan></tspan></text><text class="cls-11" transform="translate(386.175 119.434) scale(0.3 1)"> </text><text class="cls-12" transform="translate(387.129 119.434)">%</text><text class="cls-13" transform="translate(95 38.251)">&lt;<tspan class="cls-14" x="7.2" y="0">html</tspan><tspan x="36" y="0">&gt;</tspan><tspan class="cls-15"><tspan x="0" y="14.4" xml:space="preserve">  </tspan><tspan class="cls-16" x="14.4" y="14.4">&lt;</tspan><tspan x="21.6" y="14.4">body</tspan><tspan class="cls-16" x="50.399" y="14.4">&gt;</tspan></tspan><tspan x="0" y="28.8" xml:space="preserve">    &lt;</tspan><tspan class="cls-15" x="36" y="28.8">div class=</tspan><tspan class="cls-17" x="107.999" y="28.8">&quot;teaser&quot;</tspan><tspan x="165.597" y="28.8">&gt;</tspan><tspan class="cls-15"><tspan x="0" y="43.2" xml:space="preserve">      </tspan><tspan class="cls-18" x="43.199" y="43.2">&lt;</tspan><tspan x="50.399" y="43.2">img src=</tspan><tspan class="cls-17" x="107.999" y="43.2">&quot;&quot;</tspan><tspan class="cls-18" x="122.398" y="43.2">/&gt;</tspan><tspan x="0" y="57.6" xml:space="preserve">      </tspan><tspan class="cls-18" x="43.199" y="57.6">&lt;</tspan><tspan x="50.399" y="57.6">h1</tspan><tspan class="cls-18" x="64.799" y="57.6">&gt;&lt;/</tspan><tspan x="86.399" y="57.6">h1</tspan><tspan class="cls-18" x="100.798" y="57.6">&gt;</tspan><tspan x="0" y="72" xml:space="preserve">      </tspan><tspan class="cls-18" x="43.199" y="72">&lt;</tspan><tspan x="50.399" y="72">p</tspan><tspan class="cls-16" x="57.599" y="72">&gt;&lt;/</tspan><tspan class="cls-19" x="79.199" y="72">p</tspan><tspan class="cls-16" x="86.399" y="72">&gt;</tspan></tspan><tspan x="0" y="86.4" xml:space="preserve">    &lt;/</tspan><tspan class="cls-14" x="43.199" y="86.4">div</tspan><tspan class="cls-19" x="64.799" y="86.4">&gt;</tspan><tspan x="0" y="100.8" xml:space="preserve">    &lt;</tspan><tspan class="cls-15" x="36" y="100.8">div class=</tspan><tspan class="cls-17" x="107.999" y="100.8">&quot;teaser&quot;</tspan><tspan x="165.597" y="100.8">&gt;</tspan><tspan class="cls-15"><tspan x="0" y="115.2" xml:space="preserve">      </tspan><tspan class="cls-18" x="43.199" y="115.2">&lt;</tspan><tspan x="50.399" y="115.2">img src=</tspan><tspan class="cls-17" x="107.999" y="115.2">&quot;&quot;</tspan><tspan class="cls-18" x="122.398" y="115.2">/&gt;</tspan><tspan x="0" y="129.6" xml:space="preserve">      </tspan><tspan class="cls-18" x="43.199" y="129.6">&lt;</tspan><tspan x="50.399" y="129.6">h1</tspan><tspan class="cls-18" x="64.799" y="129.6">&gt;&lt;/</tspan><tspan x="86.399" y="129.6">h1</tspan><tspan class="cls-18" x="100.798" y="129.6">&gt;</tspan><tspan x="0" y="144" xml:space="preserve">      </tspan><tspan class="cls-18" x="43.199" y="144">&lt;</tspan><tspan x="50.399" y="144">p</tspan><tspan class="cls-16" x="57.599" y="144">&gt;&lt;/</tspan><tspan class="cls-19" x="79.199" y="144">p</tspan><tspan class="cls-16" x="86.399" y="144">&gt;</tspan></tspan><tspan x="0" y="158.4" xml:space="preserve">    &lt;/</tspan><tspan class="cls-14" x="43.199" y="158.4">div</tspan><tspan class="cls-19" x="64.799" y="158.4">&gt;</tspan><tspan class="cls-15"><tspan x="0" y="172.8" xml:space="preserve">  </tspan><tspan class="cls-16" x="14.4" y="172.8">&lt;/</tspan><tspan class="cls-19" x="28.799" y="172.8">body</tspan><tspan class="cls-16" x="57.599" y="172.8">&gt;</tspan></tspan><tspan x="0" y="187.2">&lt;/</tspan><tspan class="cls-15" x="14.4" y="187.2">html</tspan><tspan class="cls-19" x="43.199" y="187.2">&gt;</tspan></text><text class="cls-6" transform="translate(95 15.251)">Semantik</text><text class="cls-6" transform="translate(288 15.251)"><tspan class="cls-5">D</tspan><tspan x="7.692" y="0">a</tspan><tspan class="cls-5" x="14.268" y="0">r</tspan><tspan x="18.959" y="0">s</tspan><tspan class="cls-20" x="24.755" y="0">t</tspan><tspan class="cls-21" x="29.268" y="0">ellung</tspan></text><text class="cls-8" transform="translate(345.844 59.093)"><tspan class="cls-22">T</tspan><tspan x="5.521" y="0">oma</tspan><tspan class="cls-5" x="29.244" y="0">t</tspan><tspan x="33.756" y="0">en</tspan><tspan class="cls-9"><tspan x="0" y="14.4">Heu</tspan><tspan class="cls-5" x="21.743" y="14.4">t</tspan><tspan class="cls-23" x="25.955" y="14.4">e frisch!</tspan></tspan></text></g></svg>